<?xml version="1.0" encoding="utf-8"?>
<!-- Generator: Adobe Illustrator 24.0.1, SVG Export Plug-In . SVG Version: 6.00 Build 0)  -->
<svg version="1.1" id="Livello_1" xmlns="http://www.w3.org/2000/svg" xmlns:xlink="http://www.w3.org/1999/xlink" x="0px" y="0px"
	 viewBox="0 0 512 512" style="enable-background:new 0 0 512 512;" xml:space="preserve">
<style type="text/css">
	.st0{fill:#142035;}
</style>
<path class="st0" d="M243.7,9.4l-218,93.4c-13.6,5.8-21.2,20.4-18.2,34.8c3,14.4,15.7,24.9,30.5,24.9v7.8
	c0,12.9,10.4,23.4,23.4,23.4h389.3c12.9,0,23.4-10.4,23.4-23.4v-7.8c14.8,0,27.5-10.4,30.5-24.9c2.9-14.5-4.7-29.1-18.2-34.8
	l-218-93.4C260.5,6.1,251.5,6.1,243.7,9.4L243.7,9.4z M131.4,224.9H69.1V416c-0.6,0.3-1.2,0.7-1.8,1.1l-46.7,31.1
	C9.2,455.8,4.1,470,8,483.1c4,13.1,16.2,22.1,29.9,22.1h436c13.7,0,25.8-9,29.8-22.1s-1.1-27.3-12.6-34.9L444.5,417
	c-0.6-0.4-1.2-0.7-1.8-1.1l0.1-191.1h-62.3v186.9h-38.9V224.9h-62.3v186.9h-46.7V224.9h-62.3v186.9h-38.9L131.4,224.9L131.4,224.9z
	 M256,69.1c17.2,0,31.1,13.9,31.1,31.1s-13.9,31.1-31.1,31.1s-31.1-13.9-31.1-31.1S238.8,69.1,256,69.1z"/>
</svg>
