<?xml version="1.0" encoding="utf-8"?>
<!-- Generator: Adobe Illustrator 24.0.1, SVG Export Plug-In . SVG Version: 6.00 Build 0)  -->
<svg version="1.1" id="Livello_1" xmlns="http://www.w3.org/2000/svg" xmlns:xlink="http://www.w3.org/1999/xlink" x="0px" y="0px"
	 viewBox="0 0 500 336" style="enable-background:new 0 0 500 336;" xml:space="preserve">
<style type="text/css">
	.st0{opacity:0.2;}
	.st1{fill:#FFC100;}
	.st2{opacity:0.2;enable-background:new    ;}
	.st3{opacity:0.2;fill:#FFFFFF;enable-background:new    ;}
	.st4{opacity:0.1;fill:#FFFFFF;enable-background:new    ;}
	.st5{opacity:0.15;fill:#FFFFFF;enable-background:new    ;}
	.st6{opacity:0.7;fill:#FFFFFF;enable-background:new    ;}
</style>
<g id="freepik--Coins--inject-319" class="st0">
	<path class="st1" d="M491.3,180.7l-0.7,24.2c-0.1,2-1.7,3.6-3.7,3.5l-26.4-0.9l-77.8-2.5l-2.8-0.1l0,0l-18.4-0.6
		c-2-0.1-3.6-1.7-3.5-3.7l0.7-24.2c0.1-2,1.7-3.6,3.7-3.5l69.4,2.2l56.1,1.9C489.8,177.1,491.4,178.7,491.3,180.7z"/>
	<path class="st2" d="M424.1,204.4L424.1,204.4c-0.5,0-0.9-0.4-0.9-0.9l0,0l0.9-25.9c0-0.5,0.4-0.9,0.9-0.9l0,0l0,0
		c0.5,0,0.9,0.4,0.9,0.9l0,0l-0.9,25.9C425,204,424.6,204.4,424.1,204.4z"/>
	<path class="st2" d="M361.5,202.4L361.5,202.4c-0.5,0-0.9-0.4-0.9-0.9l0,0l0.9-25.9c0-0.5,0.4-0.9,0.9-0.9l0,0l0,0
		c0.5,0,0.9,0.4,0.9,0.9l-0.9,25.9C362.4,202,362,202.4,361.5,202.4L361.5,202.4z"/>
	<path class="st2" d="M367.9,202.5L367.9,202.5c-0.5,0-0.9-0.4-0.9-0.9l0.9-25.9c0-0.5,0.4-0.9,0.9-0.9l0,0l0,0
		c0.5,0,0.9,0.4,0.9,0.9l0,0l-0.9,25.9C368.8,202.2,368.4,202.7,367.9,202.5L367.9,202.5z"/>
	<path class="st2" d="M377.2,202.9L377.2,202.9c-0.5,0-0.9-0.4-0.9-0.9l0,0l0.9-25.9c0-0.5,0.4-0.9,0.9-0.9l0,0l0,0
		c0.5,0,0.9,0.4,0.9,0.9l0,0L378,202C378,202.5,377.7,202.9,377.2,202.9z"/>
	<path class="st2" d="M387.3,203.3L387.3,203.3c-0.5,0-0.9-0.4-0.9-0.9l0.9-25.9c0-0.5,0.4-0.9,0.9-0.9l0,0l0,0
		c0.5,0,0.9,0.4,0.9,0.9l0,0l-0.9,25.9C388.2,202.9,387.8,203.3,387.3,203.3z"/>
	<path class="st2" d="M398.5,203.5L398.5,203.5c-0.5,0-0.9-0.4-0.9-0.9l0.9-25.9c0-0.5,0.4-0.9,0.9-0.9l0,0l0,0
		c0.5,0,0.9,0.4,0.9,0.9l0,0l-0.9,25.9C399.4,203.1,399,203.6,398.5,203.5C398.5,203.6,398.5,203.6,398.5,203.5z"/>
	<path class="st2" d="M410.6,204L410.6,204c-0.5,0-0.9-0.4-0.9-0.9l0.9-25.9c0-0.5,0.4-0.9,0.9-0.9l0,0l0,0c0.5,0,0.9,0.4,0.9,0.9
		l0,0l-0.9,25.9C411.5,203.6,411.1,204,410.6,204z"/>
	<path class="st2" d="M487.7,178.7L487.7,178.7c0.5,0,0.9,0.4,0.9,0.9l0,0l-0.9,25.9c0,0.5-0.4,0.9-0.9,0.9l0,0
		c-0.5,0-0.9-0.4-0.9-0.9l0.9-25.9C486.8,179.1,487.2,178.7,487.7,178.7z"/>
	<path class="st2" d="M481.3,178.6L481.3,178.6c0.5,0,0.9,0.4,0.9,0.9l0,0l-0.9,25.9c0,0.5-0.4,0.9-0.9,0.9l0,0
		c-0.5,0-0.9-0.4-0.9-0.9l0.9-25.9C480.4,178.9,480.8,178.6,481.3,178.6L481.3,178.6z"/>
	<path class="st2" d="M472,178.2L472,178.2c0.5,0,0.9,0.4,0.9,0.9l0,0L472,205c0,0.5-0.4,0.9-0.9,0.9l0,0l0,0
		c-0.5,0-0.9-0.4-0.9-0.9l0,0l0.9-25.9C471.2,178.6,471.5,178.2,472,178.2L472,178.2z"/>
	<path class="st2" d="M461.8,178L461.8,178c0.5,0,0.9,0.4,0.9,0.9l0,0l-0.9,25.9c0,0.5-0.4,0.9-0.9,0.9l0,0l0,0
		c-0.5,0-0.9-0.4-0.9-0.9l0,0l0.9-25.9C460.9,178.2,461.4,177.8,461.8,178z"/>
	<path class="st2" d="M450.7,177.6L450.7,177.6c0.5,0,0.9,0.4,0.9,0.9l-0.9,25.9c0,0.5-0.4,0.9-0.9,0.9l0,0l0,0
		c-0.5,0-0.9-0.4-0.9-0.9l0,0l0.9-25.9C449.8,178,450.2,177.5,450.7,177.6L450.7,177.6z"/>
	<path class="st2" d="M438.6,177.1L438.6,177.1c0.5,0,0.9,0.4,0.9,0.9l-0.9,25.9c0,0.5-0.4,0.9-0.9,0.9l0,0l0,0
		c-0.5,0-0.9-0.4-0.9-0.9l0,0l0.9-25.9C437.7,177.5,438.1,177.1,438.6,177.1L438.6,177.1z"/>
	<path class="st2" d="M491.3,179.9l-0.9,25.8c0,1.5-1.4,2.7-2.8,2.7l-127.1-4.2c-1.2,0-2.2-0.9-2.6-2l69.5,2.2l0.9-27.7l11.7,0.4
		l-0.9,27.7l3.5,0.1l0.9-27.7l8.6,0.2l-0.9,27.7h1.1l0.9-27.7l9.3,0.2l-0.9,27.7h0.7l0.9-27.7l27.8,0.9
		C491.3,179.2,491.3,179.6,491.3,179.9z"/>
	<path class="st3" d="M488.6,177l-127.1-4.2c-1.5,0-2.8,1.1-2.8,2.7l0,0l-0.9,25.8c0,0.2,0,0.6,0.1,0.9l2.7,0.1l0.9-27.7h1.6
		l-0.9,27.7l4,0.1l0.9-27.7l2.5,0.1l-0.9,27.7l6.5,0.2l0.9-27.7l3.6,0.1l-0.9,27.7l5.4,0.1l0.9-27.7l3.8,0.1l-0.9,27.8l5.4,0.1
		l0.9-27.7l5.9,0.1l-0.9,27.7l2.7,0.1L403,176l9,0.2l-0.9,27.7h1.4l0.9-27.7l77.4,2.5C490.8,177.8,489.8,177.1,488.6,177z"/>
	<path class="st1" d="M349.4,296.8h125.5c2,0,3.6,1.6,3.6,3.6v24.2c0,2-1.6,3.6-3.6,3.6H349.4c-2,0-3.6-1.6-3.6-3.6v-24.2
		C345.7,298.4,347.3,296.8,349.4,296.8z"/>
	<path class="st2" d="M412.1,326.3L412.1,326.3c-0.5,0-0.9-0.4-0.9-0.9v-25.9c0-0.5,0.4-0.9,0.9-0.9l0,0c0.5,0,0.9,0.4,0.9,0.9l0,0
		v25.9C413,325.9,412.6,326.3,412.1,326.3L412.1,326.3z"/>
	<path class="st2" d="M349.4,298.6L349.4,298.6c0.5,0,0.9,0.4,0.9,0.9v25.9c0,0.5-0.4,0.9-0.9,0.9l0,0c-0.5,0-0.9-0.4-0.9-0.9v-25.9
		C348.5,299,349,298.6,349.4,298.6z"/>
	<path class="st2" d="M355.8,326.3L355.8,326.3c-0.5,0-0.9-0.4-0.9-0.9l0,0v-25.9c0-0.5,0.4-0.9,0.9-0.9l0,0l0,0
		c0.5,0,0.9,0.4,0.9,0.9v25.9C356.7,325.9,356.3,326.3,355.8,326.3z"/>
	<path class="st2" d="M365.1,326.3L365.1,326.3c-0.5,0-0.9-0.4-0.9-0.9l0,0v-25.9c0-0.5,0.4-0.9,0.9-0.9l0,0l0,0
		c0.5,0,0.9,0.4,0.9,0.9l0,0v25.9C365.9,325.9,365.6,326.3,365.1,326.3L365.1,326.3z"/>
	<path class="st2" d="M375.3,326.3L375.3,326.3c-0.5,0-0.9-0.4-0.9-0.9l0,0v-25.9c0-0.5,0.4-0.9,0.9-0.9l0,0l0,0
		c0.5,0,0.9,0.4,0.9,0.9l0,0v25.9C376.2,325.9,375.8,326.3,375.3,326.3L375.3,326.3z"/>
	<path class="st2" d="M386.4,326.3L386.4,326.3c-0.5,0-0.9-0.4-0.9-0.9v-25.9c0-0.5,0.4-0.9,0.9-0.9l0,0c0.5,0,0.9,0.4,0.9,0.9l0,0
		v25.9C387.3,325.9,386.9,326.3,386.4,326.3L386.4,326.3z"/>
	<path class="st2" d="M398.5,326.3L398.5,326.3c-0.5,0-0.9-0.4-0.9-0.9l0,0v-25.9c0-0.5,0.4-0.9,0.9-0.9l0,0l0,0
		c0.5,0,0.9,0.4,0.9,0.9l0,0v25.9C399.4,325.9,399,326.3,398.5,326.3L398.5,326.3z"/>
	<path class="st2" d="M474.7,298.6L474.7,298.6c0.5,0,0.9,0.4,0.9,0.9l0,0v25.9c0,0.5-0.4,0.9-0.9,0.9l0,0l0,0
		c-0.5,0-0.9-0.4-0.9-0.9l0,0v-26.1C473.9,299,474.2,298.6,474.7,298.6z"/>
	<path class="st2" d="M468.4,298.6L468.4,298.6c0.5,0,0.9,0.4,0.9,0.9l0,0v25.9c0,0.5-0.4,0.9-0.9,0.9l0,0l0,0
		c-0.5,0-0.9-0.4-0.9-0.9l0,0v-26.1C467.5,299,467.9,298.6,468.4,298.6z"/>
	<path class="st2" d="M459.2,298.6L459.2,298.6c0.5,0,0.9,0.4,0.9,0.9v25.9c0,0.5-0.4,0.9-0.9,0.9l0,0c-0.5,0-0.9-0.4-0.9-0.9v-26.1
		C458.3,299,458.7,298.6,459.2,298.6z"/>
	<path class="st2" d="M448.9,298.6L448.9,298.6c0.5,0,0.9,0.4,0.9,0.9v25.9c0,0.5-0.4,0.9-0.9,0.9l0,0c-0.5,0-0.9-0.4-0.9-0.9l0,0
		v-26.1C448.1,299,448.4,298.6,448.9,298.6z"/>
	<path class="st2" d="M437.7,298.6L437.7,298.6c0.5,0,0.9,0.4,0.9,0.9l0,0v25.9c0,0.5-0.4,0.9-0.9,0.9l0,0l0,0
		c-0.5,0-0.9-0.4-0.9-0.9v-26.1C436.8,299,437.3,298.6,437.7,298.6z"/>
	<path class="st2" d="M425.6,298.6L425.6,298.6c0.5,0,0.9,0.4,0.9,0.9v25.9c0,0.5-0.4,0.9-0.9,0.9l0,0c-0.5,0-0.9-0.4-0.9-0.9l0,0
		v-26.1C424.7,299,425.1,298.6,425.6,298.6z"/>
	<path class="st2" d="M478.4,299.6v25.8c0,1.5-1.2,2.8-2.8,2.8H348.4c-1.2,0-2.2-0.7-2.6-1.9h69.6v-27.7h11.7v27.7h3.5v-27.7h8.6
		v27.7h1.1v-27.7h9.3v27.7h0.7v-27.7h27.8C478.4,298.9,478.4,299.2,478.4,299.6z"/>
	<path class="st3" d="M475.7,296.8H348.5c-1.5,0-2.8,1.2-2.8,2.8l0,0v25.8c0,0.2,0,0.6,0.1,0.9h2.7v-27.7h1.6v27.8h4v-27.7h2.5v27.7
		h6.5v-27.7h3.6v27.7h5.6v-27.7h3.8v27.7h5.4v-27.7h5.9v27.7h2.7v-27.7h9v27.7h1.4v-27.7H478C477.8,297.5,476.8,296.8,475.7,296.8z"
		/>
	<path class="st1" d="M335.9,265.5h125.5c2,0,3.6,1.6,3.6,3.6v24.2c0,2-1.6,3.6-3.6,3.6H335.9c-2,0-3.6-1.6-3.6-3.6v-24.2
		C332.2,267.1,333.8,265.5,335.9,265.5z"/>
	<path class="st2" d="M398.7,295L398.7,295c-0.5,0-0.9-0.4-0.9-0.9l0,0v-25.9c0-0.5,0.4-0.9,0.9-0.9l0,0l0,0c0.5,0,0.9,0.4,0.9,0.9
		l0,0v25.9C399.5,294.7,399.2,295,398.7,295L398.7,295z"/>
	<path class="st2" d="M335.9,295L335.9,295c-0.5,0-0.9-0.4-0.9-0.9l0,0v-25.9c0-0.5,0.4-0.9,0.9-0.9l0,0l0,0c0.5,0,0.9,0.4,0.9,0.9
		l0,0v25.9C336.8,294.7,336.4,295,335.9,295L335.9,295z"/>
	<path class="st2" d="M342.4,295L342.4,295c-0.5,0-0.9-0.4-0.9-0.9l0,0v-25.9c0-0.5,0.4-0.9,0.9-0.9l0,0l0,0c0.5,0,0.9,0.4,0.9,0.9
		l0,0v25.9C343.2,294.7,342.9,295,342.4,295L342.4,295z"/>
	<path class="st2" d="M351.6,295L351.6,295c-0.5,0-0.9-0.4-0.9-0.9l0,0v-25.9c0-0.5,0.4-0.9,0.9-0.9l0,0l0,0c0.5,0,0.9,0.4,0.9,0.9
		v25.9C352.5,294.7,352.1,295,351.6,295L351.6,295z"/>
	<path class="st2" d="M361.9,295L361.9,295c-0.5,0-0.9-0.4-0.9-0.9l0,0v-25.9c0-0.5,0.4-0.9,0.9-0.9l0,0c0.5,0,0.9,0.4,0.9,0.9v25.9
		C362.7,294.7,362.4,295,361.9,295L361.9,295z"/>
	<path class="st2" d="M373,295L373,295c-0.5,0-0.9-0.4-0.9-0.9l0,0v-25.9c0-0.5,0.4-0.9,0.9-0.9l0,0l0,0c0.5,0,0.9,0.4,0.9,0.9v25.9
		C373.8,294.7,373.5,295,373,295L373,295z"/>
	<path class="st2" d="M385.1,295L385.1,295c-0.5,0-0.9-0.4-0.9-0.9l0,0v-25.9c0-0.5,0.4-0.9,0.9-0.9l0,0c0.5,0,0.9,0.4,0.9,0.9v25.9
		C386,294.7,385.6,295,385.1,295L385.1,295z"/>
	<path class="st2" d="M461.3,267.4L461.3,267.4c0.5,0,0.9,0.4,0.9,0.9v25.9c0,0.5-0.4,0.9-0.9,0.9l0,0l0,0c-0.5,0-0.9-0.4-0.9-0.9
		l0,0v-25.9C460.4,267.7,460.8,267.4,461.3,267.4L461.3,267.4z"/>
	<path class="st2" d="M454.9,267.4L454.9,267.4c0.5,0,0.9,0.4,0.9,0.9v25.9c0,0.5-0.4,0.9-0.9,0.9l0,0l0,0c-0.5,0-0.9-0.4-0.9-0.9
		l0,0v-25.9C454,267.7,454.5,267.4,454.9,267.4z"/>
	<path class="st2" d="M445.7,267.4L445.7,267.4c0.5,0,0.9,0.4,0.9,0.9l0,0v25.9c0,0.5-0.4,0.9-0.9,0.9l0,0l0,0
		c-0.5,0-0.9-0.4-0.9-0.9l0,0v-25.9C444.7,267.7,445.2,267.4,445.7,267.4L445.7,267.4z"/>
	<path class="st2" d="M435.5,267.4L435.5,267.4c0.5,0,0.9,0.4,0.9,0.9l0,0v25.9c0,0.5-0.4,0.9-0.9,0.9l0,0l0,0
		c-0.5,0-0.9-0.4-0.9-0.9l0,0v-25.9C434.6,267.7,435,267.4,435.5,267.4L435.5,267.4z"/>
	<path class="st2" d="M424.2,267.4L424.2,267.4c0.5,0,0.9,0.4,0.9,0.9l0,0v25.9c0,0.5-0.4,0.9-0.9,0.9l0,0l0,0
		c-0.5,0-0.9-0.4-0.9-0.9l0,0v-25.9C423.4,267.7,423.7,267.4,424.2,267.4L424.2,267.4z"/>
	<path class="st2" d="M412.1,267.4L412.1,267.4c0.5,0,0.9,0.4,0.9,0.9l0,0v25.9c0,0.5-0.4,0.9-0.9,0.9l0,0l0,0
		c-0.5,0-0.9-0.4-0.9-0.9l0,0v-25.9C411.3,267.7,411.6,267.4,412.1,267.4z"/>
	<path class="st2" d="M465,268.4v25.8c0,1.5-1.2,2.8-2.8,2.8l0,0H335c-1.2,0-2.2-0.7-2.6-1.9H402v-27.7h11.7v27.7h3.5v-27.7h8.6
		v27.7h1.1v-27.7h9.3v27.7h0.7v-27.7h27.8C464.9,267.6,465,268,465,268.4z"/>
	<path class="st3" d="M462.3,265.6H335.1c-1.5,0-2.8,1.2-2.8,2.7l0,0v25.8c0,0.2,0,0.6,0.1,0.9h2.7v-27.8h1.6V295h4v-27.7h2.5V295
		h6.5v-27.7h3.6V295h5.4v-27.7h3.8V295h5.4v-27.7h5.9V295h2.7v-27.7h9.1V295h1.4v-27.7h77.6C464.4,266.3,463.4,265.6,462.3,265.6z"
		/>
	<path class="st1" d="M342.6,234.4h125.5c2,0,3.6,1.6,3.6,3.6v24.2c0,2-1.6,3.6-3.6,3.6H342.6c-2,0-3.6-1.6-3.6-3.6V238
		C339,236,340.6,234.4,342.6,234.4z"/>
	<path class="st2" d="M405.3,263.8L405.3,263.8c-0.5,0-0.9-0.4-0.9-0.9l0,0V237c0-0.5,0.4-0.9,0.9-0.9l0,0l0,0
		c0.5,0,0.9,0.4,0.9,0.9l0,0v25.9C406.2,263.4,405.8,263.8,405.3,263.8L405.3,263.8z"/>
	<path class="st2" d="M342.7,263.8L342.7,263.8c-0.5,0-0.9-0.4-0.9-0.9l0,0V237c0-0.5,0.4-0.9,0.9-0.9l0,0l0,0
		c0.5,0,0.9,0.4,0.9,0.9l0,0v25.9C343.6,263.4,343.2,263.8,342.7,263.8L342.7,263.8z"/>
	<path class="st2" d="M349.2,263.8L349.2,263.8c-0.5,0-0.9-0.4-0.9-0.9l0,0V237c0-0.5,0.4-0.9,0.9-0.9l0,0l0,0
		c0.5,0,0.9,0.4,0.9,0.9l0,0v25.9C350,263.4,349.6,263.8,349.2,263.8L349.2,263.8z"/>
	<path class="st2" d="M358.4,263.8L358.4,263.8c-0.5,0-0.9-0.4-0.9-0.9l0,0V237c0-0.5,0.4-0.9,0.9-0.9l0,0l0,0
		c0.5,0,0.9,0.4,0.9,0.9l0,0v25.9C359.3,263.4,358.8,263.8,358.4,263.8L358.4,263.8z"/>
	<path class="st2" d="M368.5,236.1L368.5,236.1c0.5,0,0.9,0.4,0.9,0.9v25.9c0,0.5-0.4,0.9-0.9,0.9l0,0c-0.5,0-0.9-0.4-0.9-0.9V237
		C367.7,236.5,368,236.1,368.5,236.1z"/>
	<path class="st2" d="M379.8,263.8L379.8,263.8c-0.5,0-0.9-0.4-0.9-0.9l0,0V237c0-0.5,0.4-0.9,0.9-0.9l0,0l0,0
		c0.5,0,0.9,0.4,0.9,0.9l0,0v25.9C380.6,263.4,380.3,263.8,379.8,263.8L379.8,263.8z"/>
	<path class="st2" d="M391.9,263.8L391.9,263.8c-0.5,0-0.9-0.4-0.9-0.9l0,0V237c0-0.5,0.4-0.9,0.9-0.9l0,0l0,0
		c0.5,0,0.9,0.4,0.9,0.9l0,0v25.9C392.7,263.4,392.4,263.8,391.9,263.8L391.9,263.8z"/>
	<path class="st2" d="M468.1,236.1L468.1,236.1c0.5,0,0.9,0.4,0.9,0.9l0,0v25.9c0,0.5-0.4,0.9-0.9,0.9l0,0l0,0
		c-0.5,0-0.9-0.4-0.9-0.9l0,0V237C467.2,236.5,467.6,236.1,468.1,236.1L468.1,236.1z"/>
	<path class="st2" d="M461.6,236.1L461.6,236.1c0.5,0,0.9,0.4,0.9,0.9l0,0v25.9c0,0.5-0.4,0.9-0.9,0.9l0,0l0,0
		c-0.5,0-0.9-0.4-0.9-0.9l0,0V237C460.8,236.5,461.2,236.1,461.6,236.1L461.6,236.1z"/>
	<path class="st2" d="M452.4,236.1L452.4,236.1c0.5,0,0.9,0.4,0.9,0.9l0,0v25.9c0,0.5-0.4,0.9-0.9,0.9l0,0l0,0
		c-0.5,0-0.9-0.4-0.9-0.9l0,0V237C451.5,236.5,451.9,236.1,452.4,236.1L452.4,236.1z"/>
	<path class="st2" d="M442.1,236.1L442.1,236.1c0.5,0,0.9,0.4,0.9,0.9l0,0v25.9c0,0.5-0.4,0.9-0.9,0.9l0,0l0,0
		c-0.5,0-0.9-0.4-0.9-0.9l0,0V237C441.3,236.5,441.6,236.1,442.1,236.1L442.1,236.1z"/>
	<path class="st2" d="M431,236.1L431,236.1c0.5,0,0.9,0.4,0.9,0.9l0,0v25.9c0,0.5-0.4,0.9-0.9,0.9l0,0l0,0c-0.5,0-0.9-0.4-0.9-0.9
		l0,0V237C430.2,236.5,430.5,236.1,431,236.1L431,236.1z"/>
	<path class="st2" d="M418.9,236.1L418.9,236.1c0.5,0,0.9,0.4,0.9,0.9l0,0v25.9c0,0.5-0.4,0.9-0.9,0.9l0,0l0,0
		c-0.5,0-0.9-0.4-0.9-0.9l0,0V237C418.1,236.5,418.4,236.1,418.9,236.1L418.9,236.1z"/>
	<path class="st2" d="M471.8,237.1v25.8c0,1.5-1.2,2.8-2.8,2.8l0,0H341.7c-1.2,0-2.2-0.9-2.6-2h69.5v-27.7h11.7v27.7h3.5v-27.7h8.6
		v27.7h1.1v-27.7h9.3v27.7h0.7v-27.7h27.8C471.7,236.5,471.8,236.7,471.8,237.1z"/>
	<path class="st3" d="M468.9,234.4H341.7c-1.5,0-2.8,1.2-2.8,2.7l0,0v25.8c0,0.2,0,0.6,0.1,0.9h2.7v-27.7h1.6v27.7h4v-27.7h2.5v27.7
		h6.5v-27.7h3.6v27.7h5.4v-27.7h3.8v27.7h5.4v-27.7h5.9v27.7h2.7v-27.7h9v27.7h1.4v-27.7H471C471,235.1,470,234.4,468.9,234.4z"/>
	<path class="st1" d="M460.5,207.3v24.2c0,2-1.6,3.6-3.6,3.6l0,0H331.4c-2,0-3.6-1.6-3.6-3.6l0,0v-24.2c0-2,1.6-3.6,3.6-3.6l0,0
		h125.5c1.6,0,3,1,3.5,2.5C460.4,206.6,460.5,207,460.5,207.3z"/>
	<path class="st2" d="M394.1,233.2L394.1,233.2c-0.5,0-0.9-0.4-0.9-0.9l0,0v-25.9c0-0.5,0.4-0.9,0.9-0.9l0,0l0,0
		c0.5,0,0.9,0.4,0.9,0.9l0,0v25.9C395,232.8,394.6,233.2,394.1,233.2L394.1,233.2z"/>
	<path class="st2" d="M331.5,233.2L331.5,233.2c-0.5,0-0.9-0.4-0.9-0.9l0,0v-25.9c0-0.5,0.4-0.9,0.9-0.9l0,0l0,0
		c0.5,0,0.9,0.4,0.9,0.9l0,0v25.9C332.4,232.8,332,233.2,331.5,233.2L331.5,233.2z"/>
	<path class="st2" d="M337.9,233.2L337.9,233.2c-0.5,0-0.9-0.4-0.9-0.9l0,0v-25.9c0-0.5,0.4-0.9,0.9-0.9l0,0l0,0
		c0.5,0,0.9,0.4,0.9,0.9l0,0v25.9C338.8,232.8,338.4,233.2,337.9,233.2L337.9,233.2z"/>
	<path class="st2" d="M347.2,233.2L347.2,233.2c-0.5,0-0.9-0.4-0.9-0.9l0,0v-25.9c0-0.5,0.4-0.9,0.9-0.9l0,0l0,0
		c0.5,0,0.9,0.4,0.9,0.9l0,0v25.9C348,232.8,347.7,233.2,347.2,233.2L347.2,233.2z"/>
	<path class="st2" d="M357.3,233.2L357.3,233.2c-0.5,0-0.9-0.4-0.9-0.9l0,0v-25.9c0-0.5,0.4-0.9,0.9-0.9l0,0l0,0
		c0.5,0,0.9,0.4,0.9,0.9l0,0v25.9C358.2,232.8,357.8,233.2,357.3,233.2L357.3,233.2z"/>
	<path class="st2" d="M368.5,233.2L368.5,233.2c-0.5,0-0.9-0.4-0.9-0.9l0,0v-25.9c0-0.5,0.4-0.9,0.9-0.9l0,0l0,0
		c0.5,0,0.9,0.4,0.9,0.9l0,0v25.9C369.4,232.8,369,233.2,368.5,233.2L368.5,233.2z"/>
	<path class="st2" d="M380.6,233.2L380.6,233.2c-0.5,0-0.9-0.4-0.9-0.9l0,0v-25.9c0-0.5,0.4-0.9,0.9-0.9l0,0l0,0
		c0.5,0,0.9,0.4,0.9,0.9l0,0v25.9C381.5,232.8,381.1,233.2,380.6,233.2L380.6,233.2z"/>
	<path class="st2" d="M456.8,205.5L456.8,205.5c0.5,0,0.9,0.4,0.9,0.9l0,0v25.9c0,0.5-0.4,0.9-0.9,0.9l0,0l0,0
		c-0.5,0-0.9-0.4-0.9-0.9l0,0v-25.9C456,205.9,456.3,205.5,456.8,205.5L456.8,205.5z"/>
	<path class="st2" d="M450.4,205.5L450.4,205.5c0.5,0,0.9,0.4,0.9,0.9l0,0v25.9c0,0.5-0.4,0.9-0.9,0.9l0,0l0,0
		c-0.5,0-0.9-0.4-0.9-0.9l0,0v-25.9C449.5,205.9,449.9,205.5,450.4,205.5L450.4,205.5z"/>
	<path class="st2" d="M441.2,205.5L441.2,205.5c0.5,0,0.9,0.4,0.9,0.9l0,0v25.9c0,0.5-0.4,0.9-0.9,0.9l0,0l0,0
		c-0.5,0-0.9-0.4-0.9-0.9l0,0v-25.9C440.3,205.9,440.7,205.5,441.2,205.5L441.2,205.5z"/>
	<path class="st2" d="M431,205.5L431,205.5c0.5,0,0.9,0.4,0.9,0.9l0,0v25.9c0,0.5-0.4,0.9-0.9,0.9l0,0l0,0c-0.5,0-0.9-0.4-0.9-0.9
		l0,0v-25.9C430.2,205.9,430.5,205.5,431,205.5L431,205.5z"/>
	<path class="st2" d="M419.8,205.5L419.8,205.5c0.5,0,0.9,0.4,0.9,0.9l0,0v25.9c0,0.5-0.4,0.9-0.9,0.9l0,0l0,0
		c-0.5,0-0.9-0.4-0.9-0.9l0,0v-25.9C418.9,205.9,419.3,205.5,419.8,205.5L419.8,205.5z"/>
	<path class="st2" d="M407.7,205.5L407.7,205.5c0.5,0,0.9,0.4,0.9,0.9l0,0v25.9c0,0.5-0.4,0.9-0.9,0.9l0,0l0,0
		c-0.5,0-0.9-0.4-0.9-0.9l0,0v-25.9C406.8,205.9,407.2,205.5,407.7,205.5L407.7,205.5z"/>
	<path class="st2" d="M460.5,206.5v25.8c0,1.5-1.2,2.8-2.8,2.8l0,0H330.5c-1.2,0-2.2-0.7-2.6-1.9h69.5v-27.7h11.7v27.7h3.5v-27.7
		h8.6v27.7h1.1v-27.7h9.3v27.7h0.7v-27.7h27.8C460.4,205.9,460.5,206.1,460.5,206.5z"/>
	<path class="st3" d="M457.7,203.8H330.5c-1.5,0-2.8,1.2-2.8,2.8l0,0v25.8c0,0.2,0,0.6,0.1,0.9h2.7v-27.7h1.6v27.7h4v-27.7h2.5v27.7
		h6.5v-27.7h3.7v27.7h5.4v-27.7h3.8v27.7h5.6v-27.7h5.9v27.7h2.7v-27.7h9.1v27.7h1.4v-27.7h77.4
		C459.9,204.4,458.8,203.8,457.7,203.8z"/>
	<path class="st2" d="M331.4,203.8h32.7c-0.7,1.2-10,16.5-36.4,14.4v-10.9C327.8,205.4,329.4,203.8,331.4,203.8L331.4,203.8z"/>
	<path class="st2" d="M431.8,175.1c-6.3,7.8-22.2,23.7-52,29.8l0,0l-18.4-0.6c-2-0.1-3.6-1.7-3.5-3.7l0.7-24.2
		c0.1-2,1.7-3.6,3.7-3.5L431.8,175.1z"/>
	<path class="st1" d="M320.5,176.7l106.2-66.8c1.7-1.1,4-0.5,4.9,1.1l12.8,20.5c1.1,1.7,0.5,4-1.1,4.9l-106.2,66.8
		c-1.7,1.1-4,0.5-4.9-1.1l-12.8-20.5C318.3,179.9,318.8,177.7,320.5,176.7z"/>
	<path class="st2" d="M389.3,168.2L389.3,168.2c-0.4,0.2-1,0.1-1.2-0.2l0,0l-13.8-22c-0.2-0.4-0.1-1,0.2-1.2l0,0l0,0
		c0.4-0.2,1-0.1,1.2,0.2l0,0l13.8,22C389.8,167.3,389.8,167.8,389.3,168.2L389.3,168.2z"/>
	<path class="st2" d="M336.3,201.5L336.3,201.5c-0.4,0.2-1,0.1-1.2-0.2l0,0l-13.8-22c-0.2-0.4-0.1-1,0.2-1.2l0,0l0,0
		c0.4-0.2,1-0.1,1.2,0.2l0,0l13.8,22C336.8,200.8,336.7,201.3,336.3,201.5L336.3,201.5z"/>
	<path class="st2" d="M341.6,198.2L341.6,198.2c-0.4,0.2-1,0.1-1.2-0.2l0,0l-13.7-22.1c-0.2-0.4-0.1-1,0.2-1.2l0,0l0,0
		c0.4-0.2,1-0.1,1.2,0.2l0,0l13.8,22C342.2,197.3,342.1,197.8,341.6,198.2C341.7,198.1,341.7,198.1,341.6,198.2z"/>
	<path class="st2" d="M349.5,193.3L349.5,193.3c-0.4,0.2-0.9,0.1-1.2-0.2c0,0,0,0,0-0.1l-13.8-22c-0.2-0.4-0.1-1,0.2-1.2l0,0l0,0
		c0.4-0.2,1-0.1,1.2,0.2l0,0l13.8,22C350,192.4,349.9,192.9,349.5,193.3C349.5,193.1,349.5,193.3,349.5,193.3z"/>
	<path class="st2" d="M358.2,187.8L358.2,187.8c-0.4,0.2-1,0.1-1.2-0.2l0,0l-13.8-22c-0.2-0.4-0.1-0.9,0.2-1.2c0,0,0,0,0.1,0l0,0
		c0.4-0.2,1-0.1,1.2,0.2l0,0l13.8,22C358.7,187,358.7,187.5,358.2,187.8C358.2,187.7,358.2,187.7,358.2,187.8z"/>
	<path class="st2" d="M367.6,181.8L367.6,181.8c-0.4,0.2-1,0.1-1.2-0.2l0,0l-13.7-22c-0.2-0.4-0.1-1,0.2-1.2l0,0l0,0
		c0.4-0.2,1-0.1,1.2,0.2l0,0l13.8,22C368.2,181,368,181.5,367.6,181.8C367.7,181.8,367.7,181.8,367.6,181.8z"/>
	<path class="st2" d="M377.9,175.4L377.9,175.4c-0.4,0.2-1,0.1-1.2-0.2l0,0l-13.8-22c-0.2-0.4-0.1-1,0.2-1.2l0,0l0,0
		c0.4-0.2,1-0.1,1.2,0.2l0,0l13.8,22C378.4,174.5,378.3,175.1,377.9,175.4L377.9,175.4z"/>
	<path class="st2" d="M427.6,111.4L427.6,111.4c0.4-0.2,1-0.1,1.2,0.2l0,0l13.8,22c0.2,0.4,0.1,1-0.2,1.2l0,0l0,0
		c-0.4,0.2-1,0.1-1.2-0.2l0,0l-13.8-22C427.1,112.1,427.1,111.6,427.6,111.4L427.6,111.4z"/>
	<path class="st2" d="M422.1,114.7L422.1,114.7c0.4-0.2,1-0.1,1.2,0.2l0,0l13.8,22c0.2,0.4,0.1,1-0.2,1.2l0,0l0,0
		c-0.4,0.2-1,0.1-1.2-0.2l0,0l-13.8-22C421.6,115.6,421.8,115,422.1,114.7L422.1,114.7z"/>
	<path class="st2" d="M414.4,119.7L414.4,119.7c0.4-0.2,1-0.1,1.2,0.2l0,0l13.8,22c0.2,0.4,0.1,1-0.2,1.2l0,0l0,0
		c-0.4,0.2-1,0.1-1.2-0.2l0,0l-13.8-22C413.9,120.5,413.9,119.9,414.4,119.7L414.4,119.7z"/>
	<path class="st2" d="M405.7,125.1L405.7,125.1c0.4-0.2,1-0.1,1.2,0.2l0,0l13.8,22c0.2,0.4,0.1,0.9-0.2,1.2c0,0,0,0-0.1,0l0,0
		c-0.4,0.2-0.9,0.2-1.2-0.2c0,0,0,0,0-0.1l-13.8-22C405.2,126,405.2,125.4,405.7,125.1L405.7,125.1z"/>
	<path class="st2" d="M396.2,131L396.2,131c0.4-0.2,1-0.1,1.2,0.2l0,0l13.8,22c0.2,0.4,0.1,0.9-0.2,1.2c0,0,0,0-0.1,0l0,0
		c-0.4,0.2-1,0.1-1.2-0.2l0,0l-13.8-22C395.7,131.9,395.8,131.3,396.2,131L396.2,131z"/>
	<path class="st2" d="M386,137.6L386,137.6c0.4-0.2,1-0.1,1.2,0.2l0,0l13.8,22c0.2,0.4,0.1,0.9-0.2,1.2c0,0,0,0-0.1,0l0,0
		c-0.4,0.2-0.9,0.1-1.2-0.2c0,0,0,0,0-0.1l-13.8-22C385.5,138.3,385.5,137.8,386,137.6L386,137.6z"/>
	<path class="st2" d="M431.3,110.3l13.7,21.9c0.9,1.4,0.5,3-0.9,3.8l0,0l-107.6,67.7c-1,0.6-2.3,0.6-3.2-0.2l58.9-37l-14.8-23.5
		l9.9-6.3l14.8,23.5l2.8-1.9l-14.8-23.5l7.4-4.6l14.8,23.5l1-0.6l-14.8-23.5l7.9-4.9l14.8,23.5l0.6-0.5l-14.8-23.5l23.6-14.8
		C430.8,109.7,431,109.9,431.3,110.3z"/>
	<path class="st3" d="M427.4,109.3l-107.6,67.8c-1.4,0.9-1.7,2.6-0.9,3.8l0,0l13.7,21.9c0.1,0.2,0.4,0.5,0.6,0.6l2.3-1.4l-14.8-23.5
		l1.4-0.9l14.8,23.5l3.3-2.1l-14.8-23.5l2.1-1.4l14.8,23.5l5.6-3.5l-14.8-23.5l3.1-1.9l14.8,23.5l4.7-3L341,166l3.2-2l14.8,23.5
		l4.7-3L348.9,161l5.1-3.2l14.8,23.5l2.3-1.5l-14.8-23.5l7.7-4.8l14.8,23.5l1.1-0.7l-14.8-23.5l65.6-41.4
		C429.5,108.8,428.3,108.7,427.4,109.3z"/>
	<path class="st1" d="M121.8,296.8h125.5c2,0,3.6,1.6,3.6,3.6v24.2c0,2-1.6,3.6-3.6,3.6H121.8c-2,0-3.6-1.6-3.6-3.6v-24.2
		C118.2,298.4,119.8,296.8,121.8,296.8z"/>
	<path class="st2" d="M184.5,326.3L184.5,326.3c-0.5,0-0.9-0.4-0.9-0.9l0,0v-25.9c0-0.5,0.4-0.9,0.9-0.9l0,0l0,0
		c0.5,0,0.9,0.4,0.9,0.9v25.9C185.4,325.9,185,326.3,184.5,326.3z"/>
	<path class="st2" d="M121.9,326.3L121.9,326.3c-0.5,0-0.9-0.4-0.9-0.9l0,0v-25.9c0-0.5,0.4-0.9,0.9-0.9l0,0l0,0
		c0.5,0,0.9,0.4,0.9,0.9l0,0v25.9C122.8,325.9,122.4,326.3,121.9,326.3L121.9,326.3z"/>
	<path class="st2" d="M128.4,326.3L128.4,326.3c-0.5,0-0.9-0.4-0.9-0.9l0,0v-25.9c0-0.5,0.4-0.9,0.9-0.9l0,0l0,0
		c0.5,0,0.9,0.4,0.9,0.9l0,0v25.9C129.2,325.9,128.7,326.3,128.4,326.3L128.4,326.3z"/>
	<path class="st2" d="M137.6,326.3L137.6,326.3c-0.5,0-0.9-0.4-0.9-0.9v-25.9c0-0.5,0.4-0.9,0.9-0.9l0,0c0.5,0,0.9,0.4,0.9,0.9v25.9
		C138.5,325.9,138,326.3,137.6,326.3z"/>
	<path class="st2" d="M147.7,326.3L147.7,326.3c-0.5,0-0.9-0.4-0.9-0.9v-25.9c0-0.5,0.4-0.9,0.9-0.9l0,0c0.5,0,0.9,0.4,0.9,0.9l0,0
		v25.9C148.6,325.9,148.2,326.3,147.7,326.3L147.7,326.3z"/>
	<path class="st2" d="M159,326.3L159,326.3c-0.5,0-0.9-0.4-0.9-0.9v-25.9c0-0.5,0.4-0.9,0.9-0.9l0,0c0.5,0,0.9,0.4,0.9,0.9v25.9
		C159.8,325.9,159.5,326.3,159,326.3z"/>
	<path class="st2" d="M171.1,326.3L171.1,326.3c-0.5,0-0.9-0.4-0.9-0.9v-25.9c0-0.5,0.4-0.9,0.9-0.9l0,0c0.5,0,0.9,0.4,0.9,0.9l0,0
		v25.9C171.9,325.9,171.6,326.3,171.1,326.3L171.1,326.3z"/>
	<path class="st2" d="M247.3,298.6L247.3,298.6c0.5,0,0.9,0.4,0.9,0.9v25.9c0,0.5-0.4,0.9-0.9,0.9l0,0c-0.5,0-0.9-0.4-0.9-0.9v-26.1
		C246.4,299,246.8,298.6,247.3,298.6z"/>
	<path class="st2" d="M240.9,298.6L240.9,298.6c0.5,0,0.9,0.4,0.9,0.9l0,0v25.9c0,0.5-0.4,0.9-0.9,0.9l0,0l0,0
		c-0.5,0-0.9-0.4-0.9-0.9v-26.1C240,299,240.4,298.6,240.9,298.6z"/>
	<path class="st2" d="M231.6,298.6L231.6,298.6c0.5,0,0.9,0.4,0.9,0.9l0,0v25.9c0,0.5-0.4,0.9-0.9,0.9l0,0l0,0
		c-0.5,0-0.9-0.4-0.9-0.9l0,0v-26.1C230.7,299,231.1,298.6,231.6,298.6z"/>
	<path class="st2" d="M221.3,298.6L221.3,298.6c0.5,0,0.9,0.4,0.9,0.9l0,0v25.9c0,0.5-0.4,0.9-0.9,0.9l0,0l0,0
		c-0.5,0-0.9-0.4-0.9-0.9l0,0v-26.1C220.5,299,220.8,298.6,221.3,298.6z"/>
	<path class="st2" d="M210.2,298.6L210.2,298.6c0.5,0,0.9,0.4,0.9,0.9v25.9c0,0.5-0.4,0.9-0.9,0.9l0,0c-0.5,0-0.9-0.4-0.9-0.9l0,0
		v-26.1C209.4,299,209.7,298.6,210.2,298.6z"/>
	<path class="st2" d="M198.1,298.6L198.1,298.6c0.5,0,0.9,0.4,0.9,0.9l0,0v25.9c0,0.5-0.4,0.9-0.9,0.9l0,0l0,0
		c-0.5,0-0.9-0.4-0.9-0.9l0,0v-26.1C197.3,299,197.6,298.6,198.1,298.6z"/>
	<path class="st2" d="M251,299.6v25.8c0,1.5-1.2,2.8-2.8,2.8l0,0H120.9c-1.2,0-2.2-0.7-2.6-1.9h69.5v-27.7h11.7v27.7h3.5v-27.7h8.6
		v27.7h1.1v-27.7h9.3v27.7h0.9v-27.7h27.9C250.9,298.9,251,299.2,251,299.6z"/>
	<path class="st3" d="M248.1,296.8H120.9c-1.5,0-2.8,1.2-2.8,2.8l0,0v25.8c0,0.2,0,0.6,0.1,0.9h2.7v-27.7h1.6v27.8h4v-27.7h2.5v27.7
		h6.5v-27.7h3.6v27.7h5.4v-27.7h3.8v27.7h5.4v-27.7h5.9v27.7h2.7v-27.7h9.1v27.7h1.4v-27.7h77.4
		C250.2,297.5,249.3,296.9,248.1,296.8z"/>
	<path class="st1" d="M124.9,265.8h125.5c2,0,3.6,1.6,3.6,3.6v24.2c0,2-1.6,3.6-3.6,3.6H124.9c-2,0-3.6-1.6-3.6-3.6v-24.2
		C121.3,267.4,122.9,265.8,124.9,265.8z"/>
	<path class="st2" d="M187.6,295.3L187.6,295.3c-0.5,0-0.9-0.4-0.9-0.9l0,0v-25.9c0-0.5,0.4-0.9,0.9-0.9l0,0l0,0
		c0.5,0,0.9,0.4,0.9,0.9v25.9C188.5,294.9,188.1,295.3,187.6,295.3L187.6,295.3z"/>
	<path class="st2" d="M125,295.3L125,295.3c-0.5,0-0.9-0.4-0.9-0.9l0,0v-25.9c0-0.5,0.4-0.9,0.9-0.9l0,0l0,0c0.5,0,0.9,0.4,0.9,0.9
		l0,0v25.9C125.9,294.9,125.5,295.3,125,295.3L125,295.3z"/>
	<path class="st2" d="M131.3,295.3L131.3,295.3c-0.5,0-0.9-0.4-0.9-0.9l0,0v-25.9c0-0.5,0.4-0.9,0.9-0.9l0,0l0,0
		c0.5,0,0.9,0.4,0.9,0.9l0,0v25.9C132.2,294.9,131.8,295.3,131.3,295.3L131.3,295.3z"/>
	<path class="st2" d="M140.6,295.3L140.6,295.3c-0.5,0-0.9-0.4-0.9-0.9l0,0v-25.9c0-0.5,0.4-0.9,0.9-0.9l0,0c0.5,0,0.9,0.4,0.9,0.9
		v25.9C141.4,294.9,141.1,295.3,140.6,295.3L140.6,295.3z"/>
	<path class="st2" d="M150.8,295.3L150.8,295.3c-0.5,0-0.9-0.4-0.9-0.9l0,0v-25.9c0-0.5,0.4-0.9,0.9-0.9l0,0c0.5,0,0.9,0.4,0.9,0.9
		l0,0v25.9C151.7,294.9,151.3,295.3,150.8,295.3L150.8,295.3z"/>
	<path class="st2" d="M161.9,295.3L161.9,295.3c-0.5,0-0.9-0.4-0.9-0.9l0,0v-25.9c0-0.5,0.4-0.9,0.9-0.9l0,0c0.5,0,0.9,0.4,0.9,0.9
		v25.9C162.8,294.9,162.4,295.3,161.9,295.3L161.9,295.3z"/>
	<path class="st2" d="M174.2,295.3L174.2,295.3c-0.5,0-0.9-0.4-0.9-0.9l0,0v-25.9c0-0.5,0.4-0.9,0.9-0.9l0,0c0.5,0,0.9,0.4,0.9,0.9
		l0,0v25.9C175,294.9,174.5,295.3,174.2,295.3L174.2,295.3z"/>
	<path class="st2" d="M250.2,267.5L250.2,267.5c0.5,0,0.9,0.4,0.9,0.9v25.9c0,0.5-0.4,0.9-0.9,0.9l0,0l0,0c-0.5,0-0.9-0.4-0.9-0.9
		l0,0v-25.9C249.4,267.9,249.9,267.5,250.2,267.5z"/>
	<path class="st2" d="M243.9,267.5L243.9,267.5c0.5,0,0.9,0.4,0.9,0.9l0,0v25.9c0,0.5-0.4,0.9-0.9,0.9l0,0l0,0
		c-0.5,0-0.9-0.4-0.9-0.9l0,0v-25.9C243.1,267.9,243.4,267.5,243.9,267.5z"/>
	<path class="st2" d="M234.7,267.5L234.7,267.5c0.5,0,0.9,0.4,0.9,0.9l0,0v25.9c0,0.5-0.4,0.9-0.9,0.9l0,0l0,0
		c-0.5,0-0.9-0.4-0.9-0.9l0,0v-25.9C233.8,267.9,234.2,267.5,234.7,267.5L234.7,267.5z"/>
	<path class="st2" d="M224.4,267.5L224.4,267.5c0.5,0,0.9,0.4,0.9,0.9l0,0v25.9c0,0.5-0.4,0.9-0.9,0.9l0,0l0,0
		c-0.5,0-0.9-0.4-0.9-0.9l0,0v-25.9C223.6,267.9,223.9,267.5,224.4,267.5L224.4,267.5z"/>
	<path class="st2" d="M213.3,267.5L213.3,267.5c0.5,0,0.9,0.4,0.9,0.9v25.9c0,0.5-0.4,0.9-0.9,0.9l0,0l0,0c-0.5,0-0.9-0.4-0.9-0.9
		l0,0v-25.9C212.5,267.9,212.8,267.5,213.3,267.5L213.3,267.5z"/>
	<path class="st2" d="M201.2,267.5L201.2,267.5c0.5,0,0.9,0.4,0.9,0.9l0,0v25.9c0,0.5-0.4,0.9-0.9,0.9l0,0l0,0
		c-0.5,0-0.9-0.4-0.9-0.9l0,0v-25.9C200.3,267.9,200.7,267.5,201.2,267.5L201.2,267.5z"/>
	<path class="st2" d="M253.9,268.6v25.8c0,1.5-1.2,2.8-2.8,2.8l0,0H123.9c-1.2,0-2.2-0.7-2.6-1.9h69.5v-27.9h11.7v27.7h3.5v-27.7
		h8.6v27.7h1.1v-27.7h9.3v27.7h0.7v-27.7h28C253.9,267.9,254.1,268.2,253.9,268.6z"/>
	<path class="st3" d="M251.2,265.8H124c-1.5,0-2.8,1.2-2.8,2.8l0,0v25.8c0,0.2,0,0.6,0.1,0.9h2.7v-27.8h1.6v27.8h4v-27.8h2.5v27.7
		h6.5v-27.7h3.6v27.7h5.4v-27.7h3.8v27.7h5.4v-27.7h5.9v27.7h2.7v-27.7h9.1v27.7h1.4v-27.7h77.8
		C253.4,266.4,252.3,265.8,251.2,265.8z"/>
	<path class="st1" d="M113.7,234.8h125.5c2,0,3.6,1.6,3.6,3.6v24.2c0,2-1.6,3.6-3.6,3.6H113.7c-2,0-3.6-1.6-3.6-3.6v-24.2
		C110.1,236.4,111.7,234.8,113.7,234.8z"/>
	<path class="st2" d="M176.4,264.2L176.4,264.2c-0.5,0-0.9-0.4-0.9-0.9l0,0v-25.9c0-0.5,0.4-0.9,0.9-0.9l0,0c0.5,0,0.9,0.4,0.9,0.9
		l0,0v25.9C177.3,263.8,176.9,264.2,176.4,264.2L176.4,264.2z"/>
	<path class="st2" d="M113.8,264.2L113.8,264.2c-0.5,0-0.9-0.4-0.9-0.9l0,0v-25.9c0-0.5,0.4-0.9,0.9-0.9l0,0c0.5,0,0.9,0.4,0.9,0.9
		v25.9C114.6,263.8,114.3,264.2,113.8,264.2L113.8,264.2z"/>
	<path class="st2" d="M120.2,264.2L120.2,264.2c-0.5,0-0.9-0.4-0.9-0.9l0,0v-25.9c0-0.5,0.4-0.9,0.9-0.9l0,0l0,0
		c0.5,0,0.9,0.4,0.9,0.9v25.9C120.9,263.8,120.6,264.2,120.2,264.2L120.2,264.2z"/>
	<path class="st2" d="M129.3,264.2L129.3,264.2c-0.5,0-0.9-0.4-0.9-0.9l0,0v-25.9c0-0.5,0.4-0.9,0.9-0.9l0,0l0,0
		c0.5,0,0.9,0.4,0.9,0.9l0,0v25.9C130.2,263.8,129.8,264.2,129.3,264.2L129.3,264.2z"/>
	<path class="st2" d="M139.6,264.2L139.6,264.2c-0.5,0-0.9-0.4-0.9-0.9l0,0v-25.9c0-0.5,0.4-0.9,0.9-0.9l0,0l0,0
		c0.5,0,0.9,0.4,0.9,0.9l0,0v25.9C140.5,263.8,140.1,264.2,139.6,264.2L139.6,264.2z"/>
	<path class="st2" d="M150.8,264.2L150.8,264.2c-0.5,0-0.9-0.4-0.9-0.9l0,0v-25.9c0-0.5,0.4-0.9,0.9-0.9l0,0c0.5,0,0.9,0.4,0.9,0.9
		l0,0v25.9C151.6,263.8,151.2,264.2,150.8,264.2L150.8,264.2z"/>
	<path class="st2" d="M162.9,264.2L162.9,264.2c-0.5,0-0.9-0.4-0.9-0.9l0,0v-25.9c0-0.5,0.4-0.9,0.9-0.9l0,0l0,0
		c0.5,0,0.9,0.4,0.9,0.9l0,0v25.9C163.8,263.8,163.4,264.2,162.9,264.2L162.9,264.2z"/>
	<path class="st2" d="M239.1,236.5L239.1,236.5c0.5,0,0.9,0.4,0.9,0.9l0,0v25.9c0,0.5-0.4,0.9-0.9,0.9l0,0l0,0
		c-0.5,0-0.9-0.4-0.9-0.9l0,0v-26.1C238.3,236.9,238.6,236.5,239.1,236.5z"/>
	<path class="st2" d="M232.7,236.5L232.7,236.5c0.5,0,0.9,0.4,0.9,0.9l0,0v25.9c0,0.5-0.4,0.9-0.9,0.9l0,0l0,0
		c-0.5,0-0.9-0.4-0.9-0.9l0,0v-26.1C231.8,236.9,232.2,236.5,232.7,236.5z"/>
	<path class="st2" d="M223.4,236.5L223.4,236.5c0.5,0,0.9,0.4,0.9,0.9v25.9c0,0.5-0.4,0.9-0.9,0.9l0,0l0,0c-0.5,0-0.9-0.4-0.9-0.9
		l0,0v-26.1C222.6,236.9,222.9,236.5,223.4,236.5z"/>
	<path class="st2" d="M213.2,236.5L213.2,236.5c0.5,0,0.9,0.4,0.9,0.9v25.9c0,0.5-0.4,0.9-0.9,0.9l0,0l0,0c-0.5,0-0.9-0.4-0.9-0.9
		l0,0v-26.1C212.3,236.9,212.7,236.5,213.2,236.5z"/>
	<path class="st2" d="M202.1,236.5L202.1,236.5c0.5,0,0.9,0.4,0.9,0.9l0,0v25.9c0,0.5-0.4,0.9-0.9,0.9l0,0l0,0
		c-0.5,0-0.9-0.4-0.9-0.9l0,0v-26.1C201.2,236.9,201.6,236.5,202.1,236.5z"/>
	<path class="st2" d="M190,236.5L190,236.5c0.5,0,0.9,0.4,0.9,0.9v25.9c0,0.5-0.4,0.9-0.9,0.9l0,0l0,0c-0.5,0-0.9-0.4-0.9-0.9l0,0
		v-26.1C189.1,236.9,189.5,236.5,190,236.5z"/>
	<path class="st2" d="M242.8,237.5v25.8c0,1.5-1.2,2.8-2.8,2.8H112.8c-1.2,0-2.2-0.7-2.6-1.9h69.5v-27.7h11.7v27.7h3.5v-27.7h8.6
		v27.7h1.1v-27.7h9.3v27.7h0.7v-27.7h27.9C242.7,236.9,242.8,237.1,242.8,237.5z"/>
	<path class="st3" d="M240,234.8H112.8c-1.5,0-2.8,1.2-2.8,2.8l0,0v25.8c0,0.2,0,0.6,0.1,0.9h2.7v-27.8h1.6v27.8h4v-27.7h2.5v27.7
		h6.5v-27.7h3.6v27.7h5.4v-27.7h3.8v27.7h5.4v-27.7h5.9v27.7h2.7v-27.7h9.1v27.7h1.4v-27.7h77.6C242.2,235.4,241.1,234.6,240,234.8z
		"/>
	<path class="st1" d="M121.8,203.6h125.5c2,0,3.6,1.6,3.6,3.6v24.2c0,2-1.6,3.6-3.6,3.6H121.8c-2,0-3.6-1.6-3.6-3.6v-24.2
		C118.2,205.2,119.8,203.6,121.8,203.6z"/>
	<path class="st2" d="M184.5,233.2L184.5,233.2c-0.5,0-0.9-0.4-0.9-0.9l0,0v-25.9c0-0.5,0.4-0.9,0.9-0.9l0,0l0,0
		c0.5,0,0.9,0.4,0.9,0.9v25.9C185.4,232.8,185,233.2,184.5,233.2L184.5,233.2z"/>
	<path class="st2" d="M121.9,233.2L121.9,233.2c-0.5,0-0.9-0.4-0.9-0.9l0,0v-25.9c0-0.5,0.4-0.9,0.9-0.9l0,0l0,0
		c0.5,0,0.9,0.4,0.9,0.9l0,0v25.9C122.8,232.8,122.4,233.2,121.9,233.2L121.9,233.2z"/>
	<path class="st2" d="M128.4,233.2L128.4,233.2c-0.5,0-0.9-0.4-0.9-0.9l0,0v-25.9c0-0.5,0.4-0.9,0.9-0.9l0,0l0,0
		c0.5,0,0.9,0.4,0.9,0.9l0,0v25.9C129.2,232.8,128.7,233.2,128.4,233.2L128.4,233.2z"/>
	<path class="st2" d="M137.6,233.2L137.6,233.2c-0.5,0-0.9-0.4-0.9-0.9l0,0v-25.9c0-0.5,0.4-0.9,0.9-0.9l0,0c0.5,0,0.9,0.4,0.9,0.9
		v25.9C138.5,232.8,138,233.2,137.6,233.2L137.6,233.2z"/>
	<path class="st2" d="M147.7,233.2L147.7,233.2c-0.5,0-0.9-0.4-0.9-0.9l0,0v-25.9c0-0.5,0.4-0.9,0.9-0.9l0,0c0.5,0,0.9,0.4,0.9,0.9
		l0,0v25.9C148.6,232.8,148.2,233.2,147.7,233.2L147.7,233.2z"/>
	<path class="st2" d="M159,233.2L159,233.2c-0.5,0-0.9-0.4-0.9-0.9l0,0v-25.9c0-0.5,0.4-0.9,0.9-0.9l0,0c0.5,0,0.9,0.4,0.9,0.9v25.9
		C159.8,232.8,159.5,233.2,159,233.2L159,233.2z"/>
	<path class="st2" d="M171.1,233.2L171.1,233.2c-0.5,0-0.9-0.4-0.9-0.9l0,0v-25.9c0-0.5,0.4-0.9,0.9-0.9l0,0c0.5,0,0.9,0.4,0.9,0.9
		l0,0v25.9C171.9,232.8,171.6,233.2,171.1,233.2L171.1,233.2z"/>
	<path class="st2" d="M247.3,205.4L247.3,205.4c0.5,0,0.9,0.4,0.9,0.9v25.9c0,0.5-0.4,0.9-0.9,0.9l0,0l0,0c-0.5,0-0.9-0.4-0.9-0.9
		l0,0v-25.9C246.4,205.9,246.8,205.4,247.3,205.4z"/>
	<path class="st2" d="M240.9,205.4L240.9,205.4c0.5,0,0.9,0.4,0.9,0.9l0,0v25.9c0,0.5-0.4,0.9-0.9,0.9l0,0l0,0
		c-0.5,0-0.9-0.4-0.9-0.9l0,0v-25.9C240,205.9,240.4,205.4,240.9,205.4z"/>
	<path class="st2" d="M231.6,205.4L231.6,205.4c0.5,0,0.9,0.4,0.9,0.9l0,0v25.9c0,0.5-0.4,0.9-0.9,0.9l0,0l0,0
		c-0.5,0-0.9-0.4-0.9-0.9l0,0v-25.9C230.7,205.9,231.1,205.4,231.6,205.4L231.6,205.4z"/>
	<path class="st2" d="M221.3,205.4L221.3,205.4c0.5,0,0.9,0.4,0.9,0.9l0,0v25.9c0,0.5-0.4,0.9-0.9,0.9l0,0l0,0
		c-0.5,0-0.9-0.4-0.9-0.9l0,0v-25.9C220.5,205.9,220.8,205.4,221.3,205.4L221.3,205.4z"/>
	<path class="st2" d="M210.2,205.4L210.2,205.4c0.5,0,0.9,0.4,0.9,0.9v25.9c0,0.5-0.4,0.9-0.9,0.9l0,0l0,0c-0.5,0-0.9-0.4-0.9-0.9
		l0,0v-25.9C209.4,205.9,209.7,205.4,210.2,205.4L210.2,205.4z"/>
	<path class="st2" d="M198.1,205.4L198.1,205.4c0.5,0,0.9,0.4,0.9,0.9l0,0v25.9c0,0.5-0.4,0.9-0.9,0.9l0,0l0,0
		c-0.5,0-0.9-0.4-0.9-0.9l0,0v-25.9C197.3,205.9,197.6,205.4,198.1,205.4L198.1,205.4z"/>
	<path class="st2" d="M251,206.5v25.8c0,1.5-1.2,2.8-2.8,2.8l0,0H120.9c-1.2,0-2.2-0.7-2.6-1.9h69.5v-27.7h11.7v27.7h3.5v-27.7h8.6
		v27.7h1.1v-27.7h9.3v27.7h0.9v-27.7h27.9C250.9,205.7,251,206.1,251,206.5z"/>
	<path class="st3" d="M248.1,203.6H120.9c-1.5,0-2.8,1.2-2.8,2.8v25.8c0,0.2,0,0.6,0.1,0.9h2.7v-27.7h1.6v27.8h4v-27.7h2.5v27.7h6.5
		v-27.7h3.6v27.7h5.4v-27.7h3.8v27.7h5.4v-27.7h5.9v27.7h2.7v-27.7h9.1v27.7h1.4v-27.7h77.4C250.2,204.4,249.3,203.6,248.1,203.6z"
		/>
	<path class="st1" d="M177.4,189.4l-60.4,9.8l-63.7,10.2c-1.9,0.4-3.7-1-4.1-2.8l0,0l-2.3-14.4l-1.5-9.6c-0.4-1.9,1-3.7,2.8-4l0,0
		l124.1-20.1c1.9-0.4,3.7,1,4,2.8l0,0l3.8,24.1C180.5,187.3,179.2,189.1,177.4,189.4z"/>
	<path class="st2" d="M115,197.6L115,197.6c-0.5,0.1-0.9-0.2-1-0.7l-4.1-25.7c-0.1-0.5,0.2-0.9,0.7-1l0,0c0.5-0.1,0.9,0.2,1,0.7l0,0
		l4.2,25.7C115.8,197,115.4,197.5,115,197.6z"/>
	<path class="st2" d="M53.2,207.5L53.2,207.5c-0.5,0.1-0.9-0.2-1-0.7l0,0L48.1,181c-0.1-0.5,0.2-0.9,0.7-1l0,0
		c0.5-0.1,0.9,0.2,1,0.7l4.1,25.7C53.9,207,53.6,207.3,53.2,207.5z"/>
	<path class="st2" d="M59.4,206.5L59.4,206.5c-0.5,0.1-0.9-0.2-1-0.7l-4.1-25.7c-0.1-0.5,0.2-0.9,0.7-1l0,0c0.5-0.1,0.9,0.2,1,0.7
		l0,0l4.1,25.7C60.2,206,59.9,206.4,59.4,206.5z"/>
	<path class="st2" d="M68.6,205L68.6,205c-0.5,0.1-0.9-0.2-1-0.7l-4.2-25.7c-0.1-0.5,0.2-0.9,0.7-1l0,0c0.5-0.1,0.9,0.2,1,0.7l0,0
		l4.1,25.7C69.3,204.4,69.1,204.9,68.6,205L68.6,205z"/>
	<path class="st2" d="M78.6,203.4L78.6,203.4c-0.5,0.1-0.9-0.2-1-0.7l0,0L73.5,177c-0.1-0.5,0.2-0.9,0.7-1l0,0l0,0
		c0.5-0.1,0.9,0.2,1,0.7l4.1,25.7C79.5,202.9,79.1,203.3,78.6,203.4L78.6,203.4z"/>
	<path class="st2" d="M89.7,201.5L89.7,201.5c-0.5,0.1-0.9-0.2-1-0.7l-4.1-25.7c-0.1-0.5,0.2-0.9,0.7-1l0,0c0.5-0.1,0.9,0.2,1,0.7
		l0,0l4.1,25.7C90.4,201,90.1,201.5,89.7,201.5L89.7,201.5z"/>
	<path class="st2" d="M101.7,199.7L101.7,199.7c-0.5,0.1-0.9-0.2-1-0.7l-4.1-25.7c-0.1-0.5,0.2-0.9,0.7-1l0,0l0,0
		c0.5-0.1,0.9,0.2,1,0.7l0,0l4.2,25.7C102.4,199.2,102.1,199.6,101.7,199.7z"/>
	<path class="st2" d="M172.4,160.2L172.4,160.2c0.5-0.1,0.9,0.2,1,0.7l0,0l4.1,25.7c0.1,0.5-0.2,0.9-0.7,1l0,0
		c-0.5,0.1-0.9-0.2-1-0.7l-4.2-25.7C171.6,160.7,171.9,160.3,172.4,160.2z"/>
	<path class="st2" d="M166.1,161.2L166.1,161.2c0.5-0.1,0.9,0.2,1,0.7l4.2,25.7c0.1,0.5-0.2,0.9-0.7,1l0,0c-0.5,0.1-0.9-0.2-1-0.7
		l0,0l-4.1-25.7C165.4,161.8,165.6,161.3,166.1,161.2L166.1,161.2z"/>
	<path class="st2" d="M157,162.6L157,162.6c0.5-0.1,0.9,0.2,1,0.7l4.2,25.7c0.1,0.5-0.2,0.9-0.7,1l0,0c-0.5,0.1-0.9-0.2-1-0.7l0,0
		l-4.1-25.7C156.1,163.3,156.5,162.8,157,162.6z"/>
	<path class="st2" d="M146.9,164.4L146.9,164.4c0.5-0.1,0.9,0.2,1,0.7l4.1,25.7c0.1,0.5-0.2,0.9-0.7,1l0,0l0,0
		c-0.5,0.1-0.9-0.2-1-0.7l-4.1-25.7C146.1,164.9,146.4,164.4,146.9,164.4L146.9,164.4z"/>
	<path class="st2" d="M135.9,166.1L135.9,166.1c0.5-0.1,0.9,0.2,1,0.7l0,0l4.2,25.7c0.1,0.5-0.2,0.9-0.7,1l0,0l0,0
		c-0.5,0.1-0.9-0.2-1-0.7l0,0l-4.1-25.7C135.1,166.6,135.4,166.2,135.9,166.1z"/>
	<path class="st2" d="M123.9,168.1L123.9,168.1c0.5-0.1,0.9,0.2,1,0.7l0,0l4.1,25.7c0.1,0.5-0.2,0.9-0.7,1l0,0l0,0
		c-0.5,0.1-0.9-0.2-1-0.7l-4.1-25.7C123.2,168.6,123.4,168.1,123.9,168.1L123.9,168.1z"/>
	<path class="st2" d="M176.3,160.7l4.1,25.4c0.2,1.5-0.9,3-2.3,3.2L52.5,209.6c-1.2,0.2-2.3-0.4-3-1.5l68.7-11.1l-4.4-27.3l11.6-1.9
		l4.4,27.4l3.3-0.5l-4.4-27.4l8.6-1.4l4.4,27.4l1.1-0.1l-4.4-27.4l9.1-1.5l4.4,27.4l0.7-0.1l-4.4-27.3l27.5-4.4
		C176.1,159.9,176.3,160.3,176.3,160.7z"/>
	<path class="st3" d="M173.1,158.3L47.5,178.6c-1.5,0.2-2.6,1.7-2.3,3.2l0,0l4.1,25.4c0,0.2,0.1,0.6,0.2,0.9l2.7-0.5l-4.4-27.4
		l1.6-0.2l4.4,27.4l4-0.6l-4.4-27.4l2.5-0.4l4.4,27.4l6.4-1.1L62.4,178l3.6-0.6l4.4,27.4l5.4-0.9l-4.4-27.3l3.8-0.6l4.3,27.4
		l5.4-0.9l-4.4-27.3l5.9-1l4.4,27.3l2.7-0.5l-4.4-27.3l8.9-1.5l4.4,27.4l1.4-0.2L99.6,172l76.6-12.3
		C175.4,158.6,174.2,158.1,173.1,158.3z"/>
	<path class="st2" d="M116.9,199.2l-63.6,10.2c-1.9,0.4-3.7-1-4.1-2.8l0,0l-2.3-14.4C83.7,177.7,107.4,191.4,116.9,199.2z"/>
	<path class="st1" d="M118,237.5l-81,81.9l-7.4,7.5c-1.4,1.4-3.6,1.4-4.9,0l0,0L7.3,309.7c-1.4-1.4-1.4-3.6,0-4.9l21.7-22l66.7-67.4
		c1.4-1.4,3.6-1.4,4.9,0l17.3,17.2C119.3,233.9,119.3,236.1,118,237.5z"/>
	<path class="st2" d="M72.4,280.8L72.4,280.8c-0.4,0.4-0.9,0.4-1.2,0l0,0l-18.5-18.3c-0.4-0.4-0.4-0.9,0-1.2l0,0l0,0
		c0.4-0.4,0.9-0.4,1.2,0l18.5,18.3C72.8,279.8,72.8,280.5,72.4,280.8L72.4,280.8z"/>
	<path class="st2" d="M28.5,325.4L28.5,325.4c-0.4,0.4-0.9,0.4-1.2,0l0,0L8.7,307.1c-0.4-0.4-0.4-0.9,0-1.2l0,0l0,0
		c0.4-0.4,0.9-0.4,1.2,0l0,0l18.5,18.3C28.7,324.5,28.7,325,28.5,325.4z"/>
	<path class="st2" d="M32.9,320.8L32.9,320.8c-0.4,0.4-0.9,0.4-1.2,0l0,0l-18.5-18.3c-0.4-0.4-0.4-0.9,0-1.2l0,0l0,0
		c0.4-0.4,0.9-0.4,1.2,0l0,0l18.5,18.3C33.3,320,33.3,320.5,32.9,320.8L32.9,320.8z"/>
	<path class="st2" d="M39.4,314.3L39.4,314.3c-0.4,0.4-0.9,0.4-1.2,0L19.7,296c-0.4-0.4-0.4-0.9,0-1.2l0,0l0,0
		c0.4-0.4,0.9-0.4,1.2,0l0,0l18.5,18.3C39.7,313.3,39.7,313.9,39.4,314.3L39.4,314.3z"/>
	<path class="st2" d="M46.6,307L46.6,307c-0.4,0.4-0.9,0.4-1.2,0l0,0l-18.5-18.3c-0.4-0.4-0.4-0.9,0-1.2l0,0l0,0
		c0.4-0.4,0.9-0.4,1.2,0l0,0l18.5,18.3C47,306.1,47,306.6,46.6,307L46.6,307z"/>
	<path class="st2" d="M54.4,299L54.4,299c-0.4,0.4-0.9,0.4-1.2,0l-18.5-18.3c-0.4-0.4-0.4-0.9,0-1.2l0,0l0,0c0.4-0.4,0.9-0.4,1.2,0
		l0,0l18.5,18.3C54.8,298.1,54.8,298.7,54.4,299L54.4,299z"/>
	<path class="st2" d="M62.9,290.5L62.9,290.5c-0.4,0.4-0.9,0.4-1.2,0l-18.5-18.3c-0.4-0.4-0.4-0.9,0-1.2l0,0l0,0
		c0.4-0.4,0.9-0.4,1.2,0l0,0l18.5,18.3C63.3,289.5,63.3,290.1,62.9,290.5L62.9,290.5z"/>
	<path class="st2" d="M96.7,216.7L96.7,216.7c0.4-0.4,0.9-0.4,1.2,0l0,0l18.5,18.3c0.4,0.4,0.4,0.9,0,1.2l0,0l0,0
		c-0.4,0.4-0.9,0.4-1.2,0l0,0L96.7,218C96.5,217.6,96.4,217.1,96.7,216.7L96.7,216.7z"/>
	<path class="st2" d="M92.3,221.3L92.3,221.3c0.4-0.4,0.9-0.4,1.2,0l18.5,18.3c0.4,0.4,0.4,0.9,0,1.2l0,0l0,0
		c-0.4,0.4-0.9,0.4-1.2,0l0,0l-18.5-18.3C91.9,222.2,91.9,221.7,92.3,221.3z"/>
	<path class="st2" d="M85.8,227.8L85.8,227.8c0.4-0.4,0.9-0.4,1.2,0l18.5,18.3c0.4,0.4,0.4,0.9,0,1.2l0,0c-0.4,0.4-0.9,0.4-1.2,0
		l0,0l-18.5-18.3C85.5,228.8,85.6,228.2,85.8,227.8z"/>
	<path class="st2" d="M78.6,235.1L78.6,235.1c0.4-0.4,0.9-0.4,1.2,0l0,0l18.5,18.3c0.4,0.4,0.4,0.9,0,1.2l0,0l0,0
		c-0.4,0.4-0.9,0.4-1.2,0l0,0l-18.5-18.3C78.2,236,78.2,235.5,78.6,235.1L78.6,235.1z"/>
	<path class="st2" d="M70.8,243L70.8,243c0.4-0.4,0.9-0.4,1.2,0l0,0l18.5,18.3c0.4,0.4,0.4,0.9,0,1.2l0,0c-0.4,0.4-0.9,0.4-1.2,0
		l-18.5-18.3C70.4,244,70.4,243.4,70.8,243z"/>
	<path class="st2" d="M62.3,251.7L62.3,251.7c0.4-0.4,0.9-0.4,1.2,0l0,0L82,270c0.4,0.4,0.4,0.9,0,1.2l0,0c-0.4,0.4-0.9,0.4-1.2,0
		l0,0l-18.5-18.3C61.9,252.7,61.9,252.1,62.3,251.7L62.3,251.7z"/>
	<path class="st2" d="M100.1,214.9l18.4,18.2c1.1,1.1,1.1,2.8,0,4l0,0l-89.4,90.4c-0.9,0.9-2.1,1.1-3.2,0.5l48.9-49.5L55,258.8
		l8.3-8.4L83,270l2.3-2.5L65.6,248l6.2-6.2l19.8,19.5l0.7-0.7l-19.8-19.5l6.5-6.5L98.8,254l0.5-0.5L79.6,234l19.5-19.8
		C99.6,214.4,99.8,214.6,100.1,214.9z"/>
	<path class="st3" d="M96.1,214.9L6.8,305.3c-1.1,1.1-1.1,2.8,0,4l0,0l18.3,18.2c0.2,0.2,0.5,0.4,0.7,0.5l2-2L8.1,306.4l1.1-1.1
		l19.8,19.5l2.8-2.8L12,302.4l1.7-1.9l19.8,19.5l4.6-4.7l-19.8-19.5l2.5-2.6l19.8,19.5l3.8-4l-19.8-19.5l2.7-2.7l19.8,19.5l3.8-4
		l-19.8-19.5l4.2-4.2L55.1,298l2-2l-19.8-19.5l6.5-6.4l19.8,19.5l1-1l-19.8-19.5L99.3,214C98.2,213.8,97,214,96.1,214.9z"/>
	<path class="st2" d="M118,237.5l-81,81.9c-4.7-11.7-7.3-24.1-7.9-36.6l66.7-67.4c1.4-1.4,3.6-1.4,4.9,0l17.3,17.2
		C119.3,233.9,119.3,236.1,118,237.5z"/>
	<path class="st2" d="M179.7,297.2h-2.5c0,0,0.1,20-4.8,30.6l-1.5,0.2h-49.3c-2,0-3.5-1.6-3.6-3.5l0,0v-24.3c0-2,1.6-3.6,3.5-3.6
		l0,0h1.6c-1.2-0.6-2-1.9-2-3.2v-24.3c0-1.4,0.7-2.6,2-3.2h-9.8c-2,0-3.5-1.6-3.5-3.5l0,0v-24.5c0-2,1.6-3.5,3.5-3.5l0,0h6.7
		c-1.2-0.6-2-1.9-2-3.2V207c0-2,1.6-3.5,3.6-3.5h8.8c0,0,27.9,11.5,39.1,31.5h-5.9c0,0,11.4,14.9,10.9,30.6h5.2
		C182.2,276.1,182.2,286.9,179.7,297.2z"/>
	<path class="st1" d="M148.5,261.1c0,0.2,0,0.6,0,0.9c0,0.9,0,1.7,0,2.5c-0.1,3.1-0.4,6.3-0.9,9.4c-0.1,0.6-0.1,1.2-0.2,1.7
		l-0.1,0.7c-0.2,1.1-0.4,2.3-0.7,3.5c-0.5,2.2-1,4.3-1.6,6.3c-0.1,0.6-0.4,1.2-0.5,1.7l-0.2,0.6c-0.1,0.4-0.2,0.7-0.4,1.1
		c-0.9,2.6-2,5.2-3.2,7.7c-0.2,0.6-0.5,1.1-0.9,1.6v0.1c-0.1,0.2-0.2,0.5-0.4,0.6c-1.5,2.7-3.1,5.4-4.9,7.9
		c-0.4,0.6-0.9,1.2-1.4,1.7c-2.1,2.7-4.6,5.3-7.2,7.5c-0.7,0.6-1.4,1.2-2.1,1.7c-2.2,1.7-4.7,3.3-7.3,4.7c-1.2,0.6-2.5,1.2-3.7,1.7
		c-10,4.1-21.4,3.8-31.1-0.9l0,0C62,314.8,48,289.8,48,260.6s14.1-54.3,33.7-63.5l0,0c1.5-0.7,3-1.2,4.6-1.7c3.8-1.2,7.9-2,12-2
		c5.1,0,10,1,14.6,2.8h0.1c1.2,0.5,2.3,1,3.5,1.6l0.1,0.1c2.1,1.1,4.2,2.5,6.2,4l1,0.7c0.7,0.6,1.4,1.1,2.1,1.7l0,0
		c2.3,2.1,4.4,4.2,6.3,6.7l0.7,1c0.5,0.6,0.9,1.1,1.4,1.7c0.2,0.2,0.5,0.6,0.6,0.9c1.2,1.7,2.3,3.6,3.5,5.6c0.4,0.7,0.7,1.4,1.1,2.1
		s0.6,1.1,0.9,1.7c0.9,1.7,1.7,3.6,2.5,5.6c0.5,1.4,1,2.6,1.4,4l0.5,1.7l0.1,0.2c0.2,0.9,0.5,1.9,0.7,2.7c0.6,2.5,1.1,4.9,1.6,7.4
		c0.1,0.6,0.1,1.1,0.2,1.7l0,0c0.1,0.5,0.1,0.9,0.1,1.4c0.5,3.5,0.7,7,0.7,10.5C148.5,260.4,148.5,260.8,148.5,261.1z"/>
	<path class="st1" d="M148.5,261.1c0,0.2,0,0.6,0,0.9c0,0.9,0,1.7,0,2.5c-0.1,3.1-0.4,6.3-0.9,9.4c-0.1,0.6-0.1,1.2-0.2,1.7
		l-0.1,0.7c-0.2,1.1-0.4,2.3-0.7,3.5c-0.5,2.2-1,4.3-1.6,6.3c-0.1,0.6-0.4,1.2-0.5,1.7l-0.2,0.6c-0.1,0.4-0.2,0.7-0.4,1.1
		c-0.9,2.6-2,5.2-3.2,7.7c-0.2,0.6-0.5,1.1-0.9,1.6v0.1c-0.1,0.2-0.2,0.5-0.4,0.6c-1.5,2.7-3.1,5.4-4.9,7.9
		c-0.4,0.6-0.9,1.2-1.4,1.7c-2.1,2.7-4.6,5.3-7.2,7.5c-0.7,0.6-1.4,1.2-2.1,1.7c-2.2,1.7-4.7,3.3-7.3,4.7c-1.2,0.6-2.5,1.2-3.7,1.7
		c-4.7,2-9.6,2.8-14.7,2.8H84.6c-1.5,0-2.7-1-3-2.5c0-0.2,0-0.4,0-0.6V197c0-0.2,0-0.4,0-0.6l0,0c0.4-1.4,1.6-2.3,3-2.3h13.6
		c5.1,0,10,1,14.6,2.8h0.1c1.2,0.5,2.3,1,3.5,1.6l0.1,0.1c2.1,1.1,4.2,2.5,6.2,4l1,0.7c0.7,0.6,1.4,1.1,2.1,1.7l0,0
		c2.3,2.1,4.4,4.2,6.3,6.7l0.7,1c0.5,0.6,0.9,1.1,1.4,1.7c0.2,0.2,0.5,0.6,0.6,0.9c1.2,1.7,2.3,3.6,3.5,5.6c0.4,0.7,0.7,1.4,1.1,2.1
		s0.6,1.1,0.9,1.7c0.9,1.7,1.7,3.6,2.5,5.6c0.5,1.4,1,2.6,1.4,4l0.5,1.7l0.1,0.2c0.2,0.9,0.5,1.9,0.7,2.7c0.6,2.5,1.1,4.9,1.6,7.4
		c0.1,0.6,0.1,1.1,0.2,1.7l0,0c0.1,0.5,0.1,0.9,0.1,1.4c0.5,3.5,0.7,7,0.7,10.5C148.5,260.4,148.5,260.8,148.5,261.1z"/>
	<path class="st2" d="M148.5,261.1c0,0.2,0,0.6,0,0.9H87.1c-0.5,0-0.9-0.4-0.9-0.9c0-0.5,0.4-0.9,0.9-0.9h61.4
		C148.5,260.4,148.5,260.8,148.5,261.1z"/>
	<path class="st2" d="M116.5,198.6H87.1c-0.1,0-0.2,0-0.4-0.1c-0.2-0.1-0.5-0.5-0.5-0.7c0-0.4,0.2-0.7,0.6-0.9c0.1,0,0.1,0,0.2,0
		h25.7h0.1c1.2,0.5,2.3,1,3.5,1.6L116.5,198.6z"/>
	<path class="st2" d="M125.9,205H87.1c-0.5,0-0.9-0.4-0.9-0.9l0,0c0-0.5,0.4-0.9,0.9-0.9l0,0h36.7
		C124.5,203.9,125.1,204.4,125.9,205z"/>
	<path class="st2" d="M134.3,214.4H87.1c-0.5,0-0.9-0.4-0.9-0.9c0-0.5,0.4-0.9,0.9-0.9H133C133.4,213.3,133.9,213.8,134.3,214.4z"/>
	<path class="st2" d="M140.5,224.8H87.1c-0.5,0-0.9-0.4-0.9-0.9c0-0.5,0.4-0.9,0.9-0.9h52.5C139.8,223.5,140.2,224.1,140.5,224.8z"
		/>
	<path class="st2" d="M144.9,236H87.1c-0.5,0-0.9-0.4-0.9-0.9c0-0.5,0.4-0.9,0.9-0.9h57.2L144.9,236z"/>
	<path class="st2" d="M147.6,248.2H87.1c-0.1,0-0.1,0-0.2,0c-0.4-0.1-0.6-0.5-0.6-0.9c0-0.5,0.4-0.9,0.9-1c0,0,0,0,0.1,0h60.3
		C147.4,247.1,147.5,247.6,147.6,248.2L147.6,248.2z"/>
	<path class="st2" d="M116.6,323.6c-1.2,0.6-2.5,1.2-3.7,1.7H87.1c-0.5,0-0.9-0.4-0.9-0.9c0-0.5,0.4-0.9,0.9-0.9L116.6,323.6
		L116.6,323.6z"/>
	<path class="st2" d="M125.9,317.1c-0.7,0.6-1.4,1.2-2.1,1.7H87.1c-0.5,0-0.9-0.5-0.7-1c0-0.4,0.4-0.7,0.7-0.7H125.9z"/>
	<path class="st2" d="M134.3,307.7c-0.4,0.6-0.9,1.2-1.4,1.7H87.1c-0.5,0-0.9-0.4-0.9-0.9c0-0.5,0.4-0.9,0.9-0.9L134.3,307.7
		L134.3,307.7z"/>
	<path class="st2" d="M140.5,297.4c-0.2,0.6-0.5,1.1-0.9,1.6v0.1H87.1c-0.5,0-0.9-0.2-1-0.7c0-0.5,0.2-0.9,0.7-1c0.1,0,0.1,0,0.2,0
		H140.5z"/>
	<path class="st2" d="M144.9,286.1c-0.1,0.6-0.4,1.2-0.5,1.7H87.1c-0.5,0-0.9-0.4-0.9-0.9c0-0.5,0.4-0.9,0.9-0.9L144.9,286.1
		L144.9,286.1z"/>
	<path class="st2" d="M147.6,273.9c-0.1,0.6-0.1,1.2-0.2,1.7H87.1c-0.5,0-0.9-0.4-0.9-0.9c0-0.5,0.4-0.9,0.9-0.9L147.6,273.9
		L147.6,273.9z"/>
	<path class="st3" d="M86.2,196.9v-2.7c0.7-0.1,1.4-0.1,2.1-0.1h9.9c5.1,0,10,1,14.6,2.8h0.1L86.2,196.9z"/>
	<path class="st3" d="M122.8,202.5H86.2v-4h30.1l0.1,0.1C118.7,199.7,120.8,201,122.8,202.5z"/>
	<path class="st3" d="M132.2,211.7H86.1V205h39.6C128.1,207.1,130.3,209.3,132.2,211.7z"/>
	<path class="st3" d="M138.5,220.8H86.2v-5.6H135C136.3,217.1,137.4,219,138.5,220.8z"/>
	<path class="st3" d="M142.9,230.3H86.2v-5.6h54.2C141.3,226.5,142.2,228.3,142.9,230.3z"/>
	<path class="st3" d="M145.6,239.1H86.1v-2.7h58.8C145.1,237.2,145.4,238.1,145.6,239.1z"/>
	<path class="st3" d="M147.7,249.6H86.2v-1.4h61.4l0,0C147.6,248.7,147.7,249.2,147.7,249.6z"/>
	<path class="st2" d="M148.1,268.5l0.1-1c0.1-1,0.1-1.9,0.1-2.8c0,0,0,0,0-0.1l0,0l0,0c0-1.1,0.1-2.2,0.1-3.3
		c0-37-22.5-67.2-50.3-67.2c-0.4,0-0.7,0-1,0c27.3,0.7,49.3,30.5,49.3,67.1c0,1.1,0,2.2,0,3.3H86.4V194c-2.2,0.4-4.1,1.1-4.4,2.2
		l0,0c0,0.1-0.1,0.2-0.1,0.4v128.7c0,0.1,0,0.2,0.1,0.4c0.5,1.4,3.2,2.5,6.5,2.5h9.9c0.7,0,1.5,0,2.3-0.1h0.7c0.6,0,1.1-0.1,1.7-0.1
		l0.6-0.1c0.7-0.1,1.5-0.2,2.2-0.4l0.5-0.1c0.6-0.1,1.2-0.2,1.9-0.5l0.7-0.1c0.6-0.1,1.1-0.4,1.7-0.5l0.5-0.1c0.6-0.2,1.2-0.5,2-0.7
		l0.1-0.1l0.7-0.2c0.5-0.2,1-0.4,1.5-0.6l0.7-0.4l0.7-0.4c0.2-0.1,0.5-0.2,0.7-0.5l0.6-0.4c0.5-0.2,1-0.6,1.5-1
		c0.1-0.1,0.4-0.2,0.5-0.4c0.6-0.5,1.4-0.9,2-1.4c0.2-0.1,0.4-0.4,0.6-0.5l1.1-0.9l0.1-0.1l1.5-1.2l0.5-0.4l0.1-0.1l1-1l1-1l0.7-0.7
		l1.1-1.2l0.6-0.7c0.4-0.5,0.7-0.9,1.1-1.4l0.6-0.7l0.7-0.9l0.5-0.6l0.5-0.7l0.2-0.4l0.6-1l0.5-0.7c0.5-0.7,1-1.5,1.5-2.2l0.1-0.1
		c0.5-0.7,0.9-1.5,1.2-2.2c0.1-0.1,0.1-0.4,0.2-0.5c0.2-0.4,0.4-0.7,0.6-1.1l0,0l0.4-0.7l0,0c0,0,0-0.1,0.1-0.1l0.4-0.7l0.4-0.7
		c0.1-0.1,0.1-0.4,0.2-0.5c0.4-0.9,0.9-1.7,1.2-2.7l0.4-0.7c0.5-1.2,1-2.5,1.4-3.6v0.1l0,0c0.1-0.4,0.2-0.7,0.4-1.1l0,0l0.2-0.6
		c0-0.1,0.1-0.2,0.1-0.2c0.1-0.2,0.1-0.6,0.2-0.9c0.1-0.2,0.1-0.4,0.1-0.6c0-0.2,0.1-0.5,0.2-0.7c0.1-0.6,0.4-1.2,0.5-1.9
		c0.1-0.6,0.2-1,0.4-1.4c0.1-0.7,0.4-1.4,0.5-2.1l0.1-0.2l0,0c0.2-1.1,0.5-2.3,0.6-3.5l0,0l0.1-0.7l0.1-0.7c0-0.2,0.1-0.4,0.1-0.6
		c0-0.2,0-0.2,0-0.5c0.1-0.7,0.2-1.6,0.4-2.5c0-0.2,0-0.5,0-0.6C148,270,148.1,269.2,148.1,268.5z M137.1,299.8h-51v-0.7h51.4
		L137.1,299.8z M141.6,289.7H86.1v-1.1h55.8C141.8,289,141.7,289.3,141.6,289.7L141.6,289.7z M144.4,279.7H86.2v-3.5h58.9
		C144.9,277.5,144.7,278.6,144.4,279.7L144.4,279.7z"/>
	<path class="st1" d="M135,261.1c0,37-22.5,67.2-50.3,67.2s-50.3-30-50.3-67.2s22.5-67.2,50.3-67.2S135,224,135,261.1z"/>
	<ellipse class="st2" cx="84.6" cy="261.1" rx="42.2" ry="56.3"/>
	<path class="st2" d="M133.5,244.8L133.5,244.8c-5.4-29.1-25.2-50.8-48.8-50.8c-27.8,0-50.3,30-50.3,67.2
		c-0.1,11.5,2.2,22.8,6.7,33.5c8.6,20.1,24.9,33.6,43.6,33.6c27.8,0,50.3-30,50.3-67.1C135,255.6,134.5,250.2,133.5,244.8z
		 M84.8,325.9c-16.5,0-31.2-11.1-40-28c-5.8-11.4-8.8-24.1-8.6-36.8c0-35.8,21.7-64.8,48.7-64.8c24.1,0,44.2,23.5,47.9,54.3
		c0.5,3.5,0.6,7,0.6,10.6C133.3,296.9,111.6,325.9,84.8,325.9L84.8,325.9z"/>
	<path class="st2" d="M122.8,237c-7-18-21.1-30.3-37.4-30.3c-23.3,0-42.2,25.2-42.2,56.3c0,8.3,1.4,16.4,4.1,24.2
		c-3.2-8.3-4.8-17.2-4.8-26.1c0-31.1,18.9-56.3,42.2-56.3C101.6,204.8,116.1,218,122.8,237z"/>
	<path class="st2" d="M135,261.1c0,37-22.5,67.1-50.3,67.1c-18.6,0-34.9-13.6-43.6-33.6c1.1,1.1,2.2,2.2,3.6,3.3
		c8.8,16.9,23.5,28,40,28c26.8,0,48.5-29,48.5-64.8c0-3.6-0.2-7-0.6-10.6c0.4-2,0.6-4,0.9-5.7C134.5,250.2,135,255.6,135,261.1z"/>
	<path class="st4" d="M135,261.1c0,23.2-8.9,43.7-22.4,55.8l-73.6-84.1c8-23,25.4-38.8,45.6-38.8C112.4,194,135,224,135,261.1z"/>
	<path class="st1" d="M207.3,46.6l121.5,31.2c2,0.5,3.1,2.5,2.6,4.4l-6.1,23.5c-0.5,2-2.5,3.1-4.4,2.6L199.4,77.1
		c-2-0.5-3.1-2.5-2.6-4.4l6.1-23.5C203.3,47.3,205.3,46.1,207.3,46.6z"/>
	<path class="st2" d="M260.6,90.8L260.6,90.8c-0.5-0.1-0.7-0.5-0.7-1c0,0,0,0,0-0.1l6.4-25.2c0.1-0.5,0.6-0.7,1-0.6l0,0l0,0
		c0.5,0.1,0.7,0.6,0.6,1.1l-6.4,25.2C261.6,90.5,261.1,90.9,260.6,90.8z"/>
	<path class="st2" d="M200,75.2L200,75.2c-0.5-0.1-0.7-0.6-0.6-1.1l6.4-25.2c0.1-0.5,0.6-0.7,1.1-0.6l0,0c0.5,0.1,0.7,0.6,0.6,1l0,0
		l-6.4,25.2C201,75,200.5,75.3,200,75.2L200,75.2z"/>
	<path class="st2" d="M206.2,76.8L206.2,76.8c-0.5-0.1-0.7-0.6-0.6-1l0,0l6.4-25.2c0.1-0.5,0.6-0.7,1.1-0.6l0,0
		c0.5,0.1,0.7,0.6,0.6,1.1l-6.4,25.2C207.1,76.6,206.6,76.9,206.2,76.8z"/>
	<path class="st2" d="M215.2,79L215.2,79c-0.5-0.1-0.7-0.6-0.6-1.1l6.4-25.2c0.1-0.5,0.6-0.7,1.1-0.6l0,0c0.5,0.1,0.7,0.6,0.6,1l0,0
		l-6.4,25.2C216,78.9,215.5,79.2,215.2,79z"/>
	<path class="st2" d="M225,81.6L225,81.6c-0.5-0.1-0.7-0.6-0.6-1l0,0l6.4-25.2c0.1-0.5,0.6-0.7,1.1-0.6l0,0c0.5,0.1,0.7,0.6,0.6,1
		l0,0L226.2,81C225.9,81.5,225.4,81.8,225,81.6z"/>
	<path class="st2" d="M235.8,84.4L235.8,84.4c-0.5-0.1-0.7-0.6-0.6-1.1l6.4-25.2c0.1-0.5,0.6-0.7,1-0.6l0,0c0.5,0.1,0.7,0.6,0.6,1.1
		l-6.4,25.2C236.8,84.2,236.3,84.5,235.8,84.4z"/>
	<path class="st2" d="M247.6,87.4L247.6,87.4c-0.5-0.1-0.7-0.6-0.6-1l0,0l6.4-25.2c0.1-0.5,0.6-0.7,1-0.6l0,0l0,0
		c0.5,0.1,0.7,0.6,0.6,1.1l-6.4,25.2C248.6,87.2,248.1,87.6,247.6,87.4z"/>
	<path class="st2" d="M328.3,79.5L328.3,79.5c0.5,0.1,0.7,0.6,0.6,1.1l-6.4,25.2c-0.1,0.5-0.6,0.7-1.1,0.6l0,0l0,0
		c-0.5-0.1-0.7-0.6-0.6-1l0,0l6.4-25.2C327.3,79.7,327.8,79.4,328.3,79.5z"/>
	<path class="st2" d="M322.1,77.9L322.1,77.9c0.5,0.1,0.7,0.6,0.6,1.1l-6.4,25.2c-0.1,0.5-0.6,0.7-1,0.6l0,0l0,0
		c-0.5-0.1-0.7-0.6-0.6-1.1l6.4-25.2C321.1,78.1,321.6,77.8,322.1,77.9z"/>
	<path class="st2" d="M313.1,75.6L313.1,75.6c0.5,0.1,0.7,0.6,0.6,1.1l-6.4,25.2c-0.1,0.5-0.6,0.7-1,0.6l0,0l0,0
		c-0.5-0.1-0.7-0.6-0.6-1l0,0l6.4-25.2C312.1,75.8,312.6,75.5,313.1,75.6z"/>
	<path class="st2" d="M303.2,73.1L303.2,73.1c0.5,0.1,0.7,0.6,0.6,1.1l-6.4,25.2c-0.1,0.5-0.6,0.7-1.1,0.6l0,0
		c-0.5-0.1-0.7-0.6-0.6-1.1l6.4-25.2C302.2,73.2,302.7,73,303.2,73.1L303.2,73.1z"/>
	<path class="st2" d="M292.3,70.3L292.3,70.3c0.5,0.1,0.7,0.6,0.6,1l0,0l-6.4,25.2c-0.1,0.5-0.6,0.7-1,0.6l0,0l0,0
		c-0.5-0.1-0.7-0.6-0.6-1.1l6.4-25.2C291.5,70.4,292,70.2,292.3,70.3z"/>
	<path class="st2" d="M280.6,67.3L280.6,67.3c0.5,0.1,0.7,0.6,0.6,1l0,0l-6.4,25.2c-0.1,0.5-0.6,0.7-1,0.6l0,0l0,0
		c-0.5-0.1-0.7-0.6-0.6-1.1l6.4-25.2C279.8,67.4,280.2,67.2,280.6,67.3z"/>
	<path class="st2" d="M331.6,81.4l-6.4,24.9c-0.4,1.5-1.9,2.3-3.3,2c0,0,0,0-0.1,0L198.6,76.7c-1.1-0.2-2-1.2-2.1-2.5l67.4,17.3
		l6.9-26.8l11.4,3l-6.9,26.8l3.3,0.9l6.9-26.8l8.4,2.2L287,97.6l1.1,0.2l6.9-26.8l9,2.3l-6.9,26.8l0.7,0.1l6.9-26.8l26.9,6.9
		C331.6,80.8,331.6,81.1,331.6,81.4z"/>
	<path class="st3" d="M329.6,78.1L206.4,46.4c-1.5-0.4-3,0.5-3.3,2l0,0l-6.4,24.9c-0.1,0.2-0.1,0.6-0.1,0.9l2.6,0.7l6.9-26.8
		l1.6,0.4l-6.9,26.8l3.8,1l6.9-26.8l2.5,0.6L207,76.9l6.3,1.6l6.9-26.8l3.5,0.9l-6.9,26.8l5.3,1.4L229,54l3.7,1l-6.9,26.8l5.3,1.4
		l6.9-26.9l5.8,1.5l-6.9,26.9l2.6,0.7l6.9-26.8l8.8,2.2l-6.9,26.8l1.4,0.4l6.9-26.8l75,19.3C331.5,79.3,330.6,78.3,329.6,78.1z"/>
	<path class="st1" d="M222.5,296.8h125.5c2,0,3.6,1.6,3.6,3.6v24.2c0,2-1.6,3.6-3.6,3.6H222.5c-2,0-3.6-1.6-3.6-3.6v-24.2
		C218.9,298.4,220.5,296.8,222.5,296.8z"/>
	<path class="st2" d="M285.3,326.3L285.3,326.3c-0.5,0-0.9-0.4-0.9-0.9l0,0v-25.9c0-0.5,0.4-0.9,0.9-0.9l0,0l0,0
		c0.5,0,0.9,0.4,0.9,0.9l0,0v25.9C286.2,325.9,285.8,326.3,285.3,326.3L285.3,326.3z"/>
	<path class="st2" d="M222.6,326.3L222.6,326.3c-0.5,0-0.9-0.4-0.9-0.9v-25.9c0-0.5,0.4-0.9,0.9-0.9l0,0c0.5,0,0.9,0.4,0.9,0.9l0,0
		v25.9C223.4,325.9,223.1,326.3,222.6,326.3L222.6,326.3z"/>
	<path class="st2" d="M229,326.3L229,326.3c-0.5,0-0.9-0.4-0.9-0.9v-25.9c0-0.5,0.4-0.9,0.9-0.9l0,0c0.5,0,0.9,0.4,0.9,0.9v25.9
		C229.9,325.9,229.5,326.3,229,326.3z"/>
	<path class="st2" d="M238.3,326.3L238.3,326.3c-0.5,0-0.9-0.4-0.9-0.9l0,0v-25.9c0-0.5,0.4-0.9,0.9-0.9l0,0l0,0
		c0.5,0,0.9,0.4,0.9,0.9l0,0v25.9C239.1,325.9,238.8,326.3,238.3,326.3L238.3,326.3z"/>
	<path class="st2" d="M248.5,326.3L248.5,326.3c-0.5,0-0.9-0.4-0.9-0.9l0,0v-25.9c0-0.5,0.4-0.9,0.9-0.9l0,0l0,0
		c0.5,0,0.9,0.4,0.9,0.9l0,0v25.9C249.4,325.9,249,326.3,248.5,326.3L248.5,326.3z"/>
	<path class="st2" d="M259.6,326.3L259.6,326.3c-0.5,0-0.9-0.4-0.9-0.9l0,0v-25.9c0-0.5,0.4-0.9,0.9-0.9l0,0l0,0
		c0.5,0,0.9,0.4,0.9,0.9l0,0v25.9C260.5,325.9,260.1,326.3,259.6,326.3L259.6,326.3z"/>
	<path class="st2" d="M271.7,326.3L271.7,326.3c-0.5,0-0.9-0.4-0.9-0.9l0,0v-25.9c0-0.5,0.4-0.9,0.9-0.9l0,0l0,0
		c0.5,0,0.9,0.4,0.9,0.9v25.9C272.6,325.9,272.2,326.3,271.7,326.3z"/>
	<path class="st2" d="M347.9,298.6L347.9,298.6c0.5,0,0.9,0.4,0.9,0.9l0,0v25.9c0,0.5-0.4,0.9-0.9,0.9l0,0l0,0
		c-0.5,0-0.9-0.4-0.9-0.9l0,0v-26.1C347.1,299,347.4,298.6,347.9,298.6z"/>
	<path class="st2" d="M341.5,298.6L341.5,298.6c0.5,0,0.9,0.4,0.9,0.9v25.9c0,0.5-0.4,0.9-0.9,0.9l0,0c-0.5,0-0.9-0.4-0.9-0.9l0,0
		v-26.1C340.6,299,341,298.6,341.5,298.6z"/>
	<path class="st2" d="M332.2,298.6L332.2,298.6c0.5,0,0.9,0.4,0.9,0.9l0,0v25.9c0,0.5-0.4,0.9-0.9,0.9l0,0l0,0
		c-0.5,0-0.9-0.4-0.9-0.9v-26.1C331.4,299,331.9,298.6,332.2,298.6z"/>
	<path class="st2" d="M322.1,298.6L322.1,298.6c0.5,0,0.9,0.4,0.9,0.9v25.9c0,0.5-0.4,0.9-0.9,0.9l0,0c-0.5,0-0.9-0.4-0.9-0.9v-26.1
		C321.2,299,321.6,298.6,322.1,298.6z"/>
	<path class="st2" d="M310.9,298.6L310.9,298.6c0.5,0,0.9,0.4,0.9,0.9l0,0v25.9c0,0.5-0.4,0.9-0.9,0.9l0,0l0,0
		c-0.5,0-0.9-0.4-0.9-0.9v-26.1C310,299,310.4,298.6,310.9,298.6z"/>
	<path class="st2" d="M298.8,298.6L298.8,298.6c0.5,0,0.9,0.4,0.9,0.9v25.9c0,0.5-0.4,0.9-0.9,0.9l0,0c-0.5,0-0.9-0.4-0.9-0.9v-26.1
		C297.9,299,298.3,298.6,298.8,298.6z"/>
	<path class="st2" d="M351.6,299.6v25.8c0,1.5-1.2,2.8-2.8,2.8l0,0H221.7c-1.2,0-2.2-0.7-2.6-1.9h69.5v-27.7h11.7v27.7h3.5v-27.7
		h8.6v27.7h1.1v-27.7h9.3v27.7h0.7v-27.7h27.8C351.6,298.9,351.6,299.2,351.6,299.6z"/>
	<path class="st3" d="M348.9,296.8H221.7c-1.5,0-2.8,1.2-2.8,2.8l0,0v25.8c0,0.2,0,0.6,0.1,0.9h2.7v-27.7h1.6v27.8h4v-27.7h2.5v27.7
		h6.5v-27.7h3.6v27.7h5.4v-27.7h3.8v27.7h5.4v-27.7h5.9v27.7h2.7v-27.7h9v27.7h1.4v-27.7h77.8C351,297.5,350,296.9,348.9,296.8z"/>
	<path class="st1" d="M211.3,265.4h125.5c2,0,3.6,1.6,3.6,3.6v24.2c0,2-1.6,3.6-3.6,3.6H211.3c-2,0-3.6-1.6-3.6-3.6V269
		C207.6,267,209.2,265.4,211.3,265.4z"/>
	<path class="st2" d="M274.1,294.8L274.1,294.8c-0.5,0-0.9-0.4-0.9-0.9l0,0V268c0-0.5,0.4-0.9,0.9-0.9l0,0l0,0
		c0.5,0,0.9,0.4,0.9,0.9l0,0v25.9C274.9,294.4,274.6,294.8,274.1,294.8L274.1,294.8z"/>
	<path class="st2" d="M211.3,294.8L211.3,294.8c-0.5,0-0.9-0.4-0.9-0.9l0,0V268c0-0.5,0.4-0.9,0.9-0.9l0,0l0,0
		c0.5,0,0.9,0.4,0.9,0.9l0,0v25.9C212.2,294.4,211.8,294.8,211.3,294.8L211.3,294.8z"/>
	<path class="st2" d="M217.8,294.8L217.8,294.8c-0.5,0-0.9-0.4-0.9-0.9l0,0V268c0-0.5,0.4-0.9,0.9-0.9l0,0l0,0
		c0.5,0,0.9,0.4,0.9,0.9l0,0v25.9C218.6,294.4,218.3,294.8,217.8,294.8L217.8,294.8z"/>
	<path class="st2" d="M227,294.8L227,294.8c-0.5,0-0.9-0.4-0.9-0.9l0,0V268c0-0.5,0.4-0.9,0.9-0.9l0,0l0,0c0.5,0,0.9,0.4,0.9,0.9
		l0,0v25.9C227.9,294.4,227.5,294.8,227,294.8L227,294.8z"/>
	<path class="st2" d="M237.3,294.8L237.3,294.8c-0.5,0-0.9-0.4-0.9-0.9l0,0V268c0-0.5,0.4-0.9,0.9-0.9l0,0l0,0
		c0.5,0,0.9,0.4,0.9,0.9l0,0v25.9C238.1,294.4,237.8,294.8,237.3,294.8L237.3,294.8z"/>
	<path class="st2" d="M248.4,294.8L248.4,294.8c-0.5,0-0.9-0.4-0.9-0.9l0,0V268c0-0.5,0.4-0.9,0.9-0.9l0,0l0,0
		c0.5,0,0.9,0.4,0.9,0.9l0,0v25.9C249.3,294.4,248.9,294.8,248.4,294.8L248.4,294.8z"/>
	<path class="st2" d="M260.5,294.8L260.5,294.8c-0.5,0-0.9-0.4-0.9-0.9l0,0V268c0-0.5,0.4-0.9,0.9-0.9l0,0l0,0
		c0.5,0,0.9,0.4,0.9,0.9l0,0v25.9C261.4,294.4,261,294.8,260.5,294.8L260.5,294.8z"/>
	<path class="st2" d="M336.7,267.1L336.7,267.1c0.5,0,0.9,0.4,0.9,0.9l0,0v25.9c0,0.5-0.4,0.9-0.9,0.9l0,0l0,0
		c-0.5,0-0.9-0.4-0.9-0.9l0,0V268C335.8,267.5,336.2,267.1,336.7,267.1L336.7,267.1z"/>
	<path class="st2" d="M330.3,267.1L330.3,267.1c0.5,0,0.9,0.4,0.9,0.9l0,0v25.9c0,0.5-0.4,0.9-0.9,0.9l0,0l0,0
		c-0.5,0-0.9-0.4-0.9-0.9l0,0V268C329.4,267.5,329.9,267.1,330.3,267.1L330.3,267.1z"/>
	<path class="st2" d="M321.1,267.1L321.1,267.1c0.5,0,0.9,0.4,0.9,0.9l0,0v25.9c0,0.5-0.4,0.9-0.9,0.9l0,0l0,0
		c-0.5,0-0.9-0.4-0.9-0.9l0,0V268C320.3,267.5,320.6,267.1,321.1,267.1L321.1,267.1z"/>
	<path class="st2" d="M310.9,267.1L310.9,267.1c0.5,0,0.9,0.4,0.9,0.9l0,0v25.9c0,0.5-0.4,0.9-0.9,0.9l0,0l0,0
		c-0.5,0-0.9-0.4-0.9-0.9l0,0V268C310,267.5,310.4,267.1,310.9,267.1L310.9,267.1z"/>
	<path class="st2" d="M299.6,267.1L299.6,267.1c0.5,0,0.9,0.4,0.9,0.9l0,0v25.9c0,0.5-0.4,0.9-0.9,0.9l0,0l0,0
		c-0.5,0-0.9-0.4-0.9-0.9l0,0V268C298.8,267.5,299.3,267.1,299.6,267.1L299.6,267.1z"/>
	<path class="st2" d="M287.5,267.1L287.5,267.1c0.5,0,0.9,0.4,0.9,0.9l0,0v25.9c0,0.5-0.4,0.9-0.9,0.9l0,0l0,0
		c-0.5,0-0.9-0.4-0.9-0.9l0,0V268C286.7,267.5,287,267.1,287.5,267.1L287.5,267.1z"/>
	<path class="st2" d="M340.4,268.1v25.8c0,1.5-1.2,2.8-2.8,2.8l0,0H210.4c-1.2,0-2.2-0.7-2.6-1.9h69.5v-27.7H289v27.7h3.5v-27.7h8.6
		v27.7h1.1v-27.7h9.3v27.7h0.7v-27.7h28C340.4,267.5,340.4,267.7,340.4,268.1z"/>
	<path class="st3" d="M337.7,265.4H210.5c-1.5,0-2.8,1.2-2.8,2.8l0,0V294c0,0.2,0,0.6,0.1,0.9h2.8v-27.7h1.6v27.7h4v-27.7h2.5v27.7
		h6.5v-27.7h3.6v27.7h5.4v-27.7h3.8v27.7h5.4v-27.7h5.9v27.7h2.7v-27.7h9.1v27.7h1.4v-27.7h77.7C339.8,266,338.8,265.4,337.7,265.4z
		"/>
	<path class="st1" d="M223.6,233.9H349c2,0,3.6,1.6,3.6,3.6v24.2c0,2-1.6,3.6-3.6,3.6H223.6c-2,0-3.6-1.6-3.6-3.6v-24.2
		C220,235.5,221.6,233.9,223.6,233.9z"/>
	<path class="st2" d="M286.3,263.4L286.3,263.4c-0.5,0-0.9-0.4-0.9-0.9l0,0v-25.9c0-0.5,0.4-0.9,0.9-0.9l0,0l0,0
		c0.5,0,0.9,0.4,0.9,0.9l0,0v25.9C287.2,263,286.8,263.4,286.3,263.4z"/>
	<path class="st2" d="M223.7,263.4L223.7,263.4c-0.5,0-0.9-0.4-0.9-0.9l0,0v-25.9c0-0.5,0.4-0.9,0.9-0.9l0,0l0,0
		c0.5,0,0.9,0.4,0.9,0.9l0,0v25.9C224.4,263,224.1,263.4,223.7,263.4z"/>
	<path class="st2" d="M230,235.6L230,235.6c0.5,0,0.9,0.4,0.9,0.9v25.9c0,0.5-0.4,0.9-0.9,0.9l0,0c-0.5,0-0.9-0.4-0.9-0.9v-25.9
		C229.1,236,229.5,235.6,230,235.6z"/>
	<path class="st2" d="M239.2,263.4L239.2,263.4c-0.5,0-0.9-0.4-0.9-0.9l0,0v-25.9c0-0.5,0.4-0.9,0.9-0.9l0,0l0,0
		c0.5,0,0.9,0.4,0.9,0.9v25.9C240.1,263,239.7,263.4,239.2,263.4z"/>
	<path class="st2" d="M249.5,263.4L249.5,263.4c-0.5,0-0.9-0.4-0.9-0.9l0,0v-25.9c0-0.5,0.4-0.9,0.9-0.9l0,0c0.5,0,0.9,0.4,0.9,0.9
		v25.9C250.4,263,250,263.4,249.5,263.4z"/>
	<path class="st2" d="M260.6,263.4L260.6,263.4c-0.5,0-0.9-0.4-0.9-0.9l0,0v-25.9c0-0.5,0.4-0.9,0.9-0.9l0,0l0,0
		c0.5,0,0.9,0.4,0.9,0.9v25.9C261.5,263,261.1,263.4,260.6,263.4z"/>
	<path class="st2" d="M272.8,263.4L272.8,263.4c-0.5,0-0.9-0.4-0.9-0.9l0,0v-25.9c0-0.5,0.4-0.9,0.9-0.9l0,0c0.5,0,0.9,0.4,0.9,0.9
		v25.9C273.6,263,273.2,263.4,272.8,263.4z"/>
	<path class="st2" d="M348.9,235.6L348.9,235.6c0.5,0,0.9,0.4,0.9,0.9v26.1c0,0.5-0.4,0.9-0.9,0.9l0,0l0,0c-0.5,0-0.9-0.4-0.9-0.9
		l0,0v-26.1C348,236,348.4,235.6,348.9,235.6z"/>
	<path class="st2" d="M342.6,235.6L342.6,235.6c0.5,0,0.9,0.4,0.9,0.9v26.1c0,0.5-0.4,0.9-0.9,0.9l0,0l0,0c-0.5,0-0.9-0.4-0.9-0.9
		l0,0v-26.1C341.7,236,342.1,235.6,342.6,235.6z"/>
	<path class="st2" d="M333.3,235.6L333.3,235.6c0.5,0,0.9,0.4,0.9,0.9l0,0v26.1c0,0.5-0.4,0.9-0.9,0.9l0,0l0,0
		c-0.5,0-0.9-0.4-0.9-0.9l0,0v-26.1C332.5,236,332.9,235.6,333.3,235.6z"/>
	<path class="st2" d="M323.1,235.6L323.1,235.6c0.5,0,0.9,0.4,0.9,0.9l0,0v26.1c0,0.5-0.4,0.9-0.9,0.9l0,0l0,0
		c-0.5,0-0.9-0.4-0.9-0.9l0,0v-26.1C322.2,236,322.6,235.6,323.1,235.6z"/>
	<path class="st2" d="M312,235.6L312,235.6c0.5,0,0.9,0.4,0.9,0.9l0,0v26.1c0,0.5-0.4,0.9-0.9,0.9l0,0l0,0c-0.5,0-0.9-0.4-0.9-0.9
		l0,0v-26.1C311.1,236,311.5,235.6,312,235.6z"/>
	<path class="st2" d="M299.8,235.6L299.8,235.6c0.5,0,0.9,0.4,0.9,0.9l0,0v26.1c0,0.5-0.4,0.9-0.9,0.9l0,0l0,0
		c-0.5,0-0.9-0.4-0.9-0.9l0,0v-26.1C298.9,236,299.4,235.6,299.8,235.6z"/>
	<path class="st2" d="M352.6,236.7v25.8c0,1.5-1.2,2.8-2.8,2.8l0,0H222.6c-1.2,0-2.2-0.7-2.6-1.9h69.6v-27.8h11.7v27.7h3.5v-27.7
		h8.6v27.7h1.1v-27.7h9.3v27.7h0.7v-27.7h27.8C352.5,236,352.6,236.4,352.6,236.7z"/>
	<path class="st3" d="M349.9,233.9H222.7c-1.5,0-2.8,1.2-2.8,2.7l0,0v25.9c0,0.2,0,0.6,0.1,0.9h2.7v-27.8h1.6v27.8h4v-27.7h2.5v27.7
		h6.5v-27.7h3.6v27.7h5.4v-27.7h3.8v27.7h5.4v-27.7h5.9v27.7h2.7v-27.7h9.1v27.7h1.4v-27.7h77.6C352,234.6,351,233.9,349.9,233.9z"
		/>
	<path class="st1" d="M223.6,202.4H349c2,0,3.6,1.6,3.6,3.6v24.2c0,2-1.6,3.6-3.6,3.6H223.6c-2,0-3.6-1.6-3.6-3.6V206
		C220,204,221.6,202.4,223.6,202.4z"/>
	<path class="st2" d="M286.3,231.9L286.3,231.9c-0.5,0-0.9-0.4-0.9-0.9l0,0v-25.9c0-0.5,0.4-0.9,0.9-0.9l0,0l0,0
		c0.5,0,0.9,0.4,0.9,0.9l0,0v25.9C287.2,231.6,286.8,231.9,286.3,231.9L286.3,231.9z"/>
	<path class="st2" d="M223.7,231.9L223.7,231.9c-0.5,0-0.9-0.4-0.9-0.9l0,0v-25.9c0-0.5,0.4-0.9,0.9-0.9l0,0l0,0
		c0.5,0,0.9,0.4,0.9,0.9l0,0v25.9C224.6,231.6,224.1,231.9,223.7,231.9L223.7,231.9z"/>
	<path class="st2" d="M230,204.3L230,204.3c0.5,0,0.9,0.4,0.9,0.9v25.9c0,0.5-0.4,0.9-0.9,0.9l0,0c-0.5,0-0.9-0.4-0.9-0.9v-25.9
		C229.1,204.6,229.5,204.3,230,204.3z"/>
	<path class="st2" d="M239.2,231.9L239.2,231.9c-0.5,0-0.9-0.4-0.9-0.9l0,0v-25.9c0-0.5,0.4-0.9,0.9-0.9l0,0l0,0
		c0.5,0,0.9,0.4,0.9,0.9l0,0v25.9C240.1,231.6,239.7,231.9,239.2,231.9z"/>
	<path class="st2" d="M249.5,231.9L249.5,231.9c-0.5,0-0.9-0.4-0.9-0.9v-25.9c0-0.5,0.4-0.9,0.9-0.9l0,0l0,0c0.5,0,0.9,0.4,0.9,0.9
		l0,0v25.9C250.4,231.6,250,231.9,249.5,231.9z"/>
	<path class="st2" d="M260.6,231.9L260.6,231.9c-0.5,0-0.9-0.4-0.9-0.9l0,0v-25.9c0-0.5,0.4-0.9,0.9-0.9l0,0l0,0
		c0.5,0,0.9,0.4,0.9,0.9l0,0v25.9C261.5,231.6,261.1,231.9,260.6,231.9z"/>
	<path class="st2" d="M272.8,231.9L272.8,231.9c-0.5,0-0.9-0.4-0.9-0.9v-25.9c0-0.5,0.4-0.9,0.9-0.9l0,0l0,0c0.5,0,0.9,0.4,0.9,0.9
		l0,0v25.9C273.7,231.6,273.2,231.9,272.8,231.9z"/>
	<path class="st2" d="M348.9,204.3L348.9,204.3c0.5,0,0.9,0.4,0.9,0.9l0,0v25.9c0,0.5-0.4,0.9-0.9,0.9l0,0c-0.5,0-0.9-0.4-0.9-0.9
		l0,0v-25.9C348,204.6,348.4,204.3,348.9,204.3L348.9,204.3z"/>
	<path class="st2" d="M342.6,204.3L342.6,204.3c0.5,0,0.9,0.4,0.9,0.9l0,0v25.9c0,0.5-0.4,0.9-0.9,0.9l0,0c-0.5,0-0.9-0.4-0.9-0.9
		v-25.9C341.7,204.6,342.1,204.3,342.6,204.3L342.6,204.3z"/>
	<path class="st2" d="M333.3,204.3L333.3,204.3c0.5,0,0.9,0.4,0.9,0.9l0,0v25.9c0,0.5-0.4,0.9-0.9,0.9l0,0l0,0
		c-0.5,0-0.9-0.4-0.9-0.9l0,0v-25.9C332.5,204.6,332.9,204.3,333.3,204.3L333.3,204.3z"/>
	<path class="st2" d="M323.1,204.3L323.1,204.3c0.5,0,0.9,0.4,0.9,0.9l0,0v25.9c0,0.5-0.4,0.9-0.9,0.9l0,0l0,0
		c-0.5,0-0.9-0.4-0.9-0.9l0,0v-25.9C322.2,204.6,322.6,204.3,323.1,204.3L323.1,204.3z"/>
	<path class="st2" d="M312,204.3L312,204.3c0.5,0,0.9,0.4,0.9,0.9l0,0v25.9c0,0.5-0.4,0.9-0.9,0.9l0,0l0,0c-0.5,0-0.9-0.4-0.9-0.9
		l0,0v-25.9C311.1,204.6,311.5,204.3,312,204.3L312,204.3z"/>
	<path class="st2" d="M299.8,204.3L299.8,204.3c0.5,0,0.9,0.4,0.9,0.9l0,0v25.9c0,0.5-0.4,0.9-0.9,0.9l0,0l0,0
		c-0.5,0-0.9-0.4-0.9-0.9l0,0v-25.9C298.9,204.6,299.4,204.3,299.8,204.3L299.8,204.3z"/>
	<path class="st2" d="M352.6,205.2v25.8c0,1.5-1.2,2.8-2.8,2.8l0,0H222.6c-1.2,0-2.2-0.7-2.6-1.9h69.6v-27.8h11.7V232h3.5v-27.8h8.6
		V232h1.1v-27.8h9.3V232h0.7v-27.8h27.8C352.5,204.5,352.6,204.9,352.6,205.2z"/>
	<path class="st3" d="M349.9,202.4H222.7c-1.5,0-2.8,1.2-2.8,2.8l0,0v25.8c0,0.2,0,0.6,0.1,0.9h2.7v-27.8h1.6v27.8h4v-27.8h2.5v27.8
		h6.5v-27.8h3.6v27.8h5.4v-27.8h3.8v27.8h5.4v-27.8h5.9v27.8h2.7v-27.8h9.1v27.8h1.4v-27.8h77.6C352,203.1,351,202.5,349.9,202.4z"
		/>
	<path class="st1" d="M217.4,171h125.5c2,0,3.6,1.6,3.6,3.6v24.2c0,2-1.6,3.6-3.6,3.6H217.4c-2,0-3.6-1.6-3.6-3.6v-24.2
		C213.8,172.6,215.4,171,217.4,171z"/>
	<path class="st2" d="M280.1,200.6L280.1,200.6c-0.5,0-0.9-0.4-0.9-0.9l0,0v-25.9c0-0.5,0.4-0.9,0.9-0.9l0,0l0,0
		c0.5,0,0.9,0.4,0.9,0.9l0,0v25.9C281.1,200.1,280.7,200.4,280.1,200.6C280.2,200.4,280.2,200.6,280.1,200.6z"/>
	<path class="st2" d="M217.5,200.6L217.5,200.6c-0.5,0-0.9-0.4-0.9-0.9l0,0v-25.9c0-0.5,0.4-0.9,0.9-0.9l0,0l0,0
		c0.5,0,0.9,0.4,0.9,0.9l0,0v25.9C218.4,200.1,218,200.4,217.5,200.6C217.5,200.4,217.5,200.6,217.5,200.6z"/>
	<path class="st2" d="M223.9,200.6L223.9,200.6c-0.5,0-0.9-0.4-0.9-0.9l0,0v-25.9c0-0.5,0.4-0.9,0.9-0.9l0,0l0,0
		c0.5,0,0.9,0.4,0.9,0.9l0,0v25.9C224.8,200.1,224.4,200.4,223.9,200.6C223.9,200.4,223.9,200.6,223.9,200.6z"/>
	<path class="st2" d="M233.2,200.6L233.2,200.6c-0.5,0-0.9-0.4-0.9-0.9l0,0v-25.9c0-0.5,0.4-0.9,0.9-0.9l0,0l0,0
		c0.5,0,0.9,0.4,0.9,0.9l0,0v25.9C234.1,200.1,233.7,200.4,233.2,200.6C233.2,200.4,233.2,200.6,233.2,200.6z"/>
	<path class="st2" d="M243.3,200.6L243.3,200.6c-0.5,0-0.9-0.4-0.9-0.9l0,0v-25.9c0-0.5,0.4-0.9,0.9-0.9l0,0l0,0
		c0.5,0,0.9,0.4,0.9,0.9l0,0v25.9C244.3,200.1,243.9,200.4,243.3,200.6C243.4,200.4,243.4,200.6,243.3,200.6z"/>
	<path class="st2" d="M254.6,200.6L254.6,200.6c-0.5,0-0.9-0.4-0.9-0.9l0,0v-25.9c0-0.5,0.4-0.9,0.9-0.9l0,0l0,0
		c0.5,0,0.9,0.4,0.9,0.9l0,0v25.9C255.4,200.1,255.1,200.4,254.6,200.6C254.6,200.4,254.6,200.6,254.6,200.6z"/>
	<path class="st2" d="M266.7,200.6L266.7,200.6c-0.5,0-0.9-0.4-0.9-0.9l0,0v-25.9c0-0.5,0.4-0.9,0.9-0.9l0,0l0,0
		c0.5,0,0.9,0.4,0.9,0.9l0,0v25.9C267.5,200.1,267.2,200.4,266.7,200.6C266.7,200.4,266.7,200.6,266.7,200.6z"/>
	<path class="st2" d="M342.9,172.8L342.9,172.8c0.5,0,0.9,0.4,0.9,0.9l0,0v25.9c0,0.5-0.4,0.9-0.9,0.9l0,0l0,0
		c-0.5,0-0.9-0.4-0.9-0.9l0,0v-25.9C342,173.1,342.4,172.8,342.9,172.8z"/>
	<path class="st2" d="M336.4,172.8L336.4,172.8c0.5,0,0.9,0.4,0.9,0.9l0,0v25.9c0,0.5-0.4,0.9-0.9,0.9l0,0l0,0
		c-0.5,0-0.9-0.4-0.9-0.9l0,0v-25.9C335.6,173.1,335.9,172.8,336.4,172.8z"/>
	<path class="st2" d="M327.2,172.8L327.2,172.8c0.5,0,0.9,0.4,0.9,0.9l0,0v25.9c0,0.5-0.4,0.9-0.9,0.9l0,0l0,0
		c-0.5,0-0.9-0.4-0.9-0.9l0,0v-25.9C326.3,173.1,326.7,172.8,327.2,172.8z"/>
	<path class="st2" d="M316.9,172.8L316.9,172.8c0.5,0,0.9,0.4,0.9,0.9l0,0v25.9c0,0.5-0.4,0.9-0.9,0.9l0,0l0,0
		c-0.5,0-0.9-0.4-0.9-0.9l0,0v-25.9C316.1,173.1,316.6,172.8,316.9,172.8z"/>
	<path class="st2" d="M305.8,172.8L305.8,172.8c0.5,0,0.9,0.4,0.9,0.9l0,0v25.9c0,0.5-0.4,0.9-0.9,0.9l0,0l0,0
		c-0.5,0-0.9-0.4-0.9-0.9l0,0v-25.9C304.9,173.1,305.3,172.8,305.8,172.8z"/>
	<path class="st2" d="M293.7,172.8L293.7,172.8c0.5,0,0.9,0.4,0.9,0.9l0,0v25.9c0,0.5-0.4,0.9-0.9,0.9l0,0l0,0
		c-0.5,0-0.9-0.4-0.9-0.9l0,0v-25.9C292.8,173.1,293.2,172.8,293.7,172.8z"/>
	<path class="st2" d="M346.6,173.8v25.8c0,1.5-1.2,2.8-2.8,2.8l0,0H216.5c-1.2,0-2.2-0.7-2.6-1.9h69.5v-27.7h11.7v27.7h3.5v-27.7
		h8.6v27.7h1.1v-27.7h9.3v27.7h0.7v-27.7h27.8C346.4,173.1,346.6,173.5,346.6,173.8z"/>
	<path class="st3" d="M343.7,171H216.5c-1.5,0-2.8,1.2-2.8,2.7l0,0v25.8c0,0.2,0,0.6,0.1,0.9h2.7v-27.7h1.6v27.7h4v-27.7h2.5v27.7
		h6.5v-27.7h3.6v27.7h5.4v-27.7h3.8v27.7h5.4v-27.7h5.9v27.7h2.7v-27.7h9.1v27.7h1.4v-27.7h77.6C345.8,171.8,344.8,171,343.7,171z"
		/>
	<path class="st1" d="M223.6,139.6H349c2,0,3.6,1.6,3.6,3.6v24.2c0,2-1.6,3.6-3.6,3.6H223.6c-2,0-3.6-1.6-3.6-3.6v-24.2
		C220,141.2,221.6,139.6,223.6,139.6z"/>
	<path class="st2" d="M286.3,169.1L286.3,169.1c-0.5,0-0.9-0.4-0.9-0.9l0,0v-25.9c0-0.5,0.4-0.9,0.9-0.9l0,0l0,0
		c0.5,0,0.9,0.4,0.9,0.9l0,0v25.9C287.2,168.7,286.8,169.1,286.3,169.1L286.3,169.1z"/>
	<path class="st2" d="M223.7,169.1L223.7,169.1c-0.5,0-0.9-0.4-0.9-0.9l0,0v-25.9c0-0.5,0.4-0.9,0.9-0.9l0,0l0,0
		c0.5,0,0.9,0.4,0.9,0.9l0,0v25.9C224.6,168.7,224.1,169.1,223.7,169.1L223.7,169.1z"/>
	<path class="st2" d="M230,141.3L230,141.3c0.5,0,0.9,0.4,0.9,0.9v25.9c0,0.5-0.4,0.9-0.9,0.9l0,0c-0.5,0-0.9-0.4-0.9-0.9v-25.9
		C229.1,141.8,229.5,141.3,230,141.3z"/>
	<path class="st2" d="M239.2,169.1L239.2,169.1c-0.5,0-0.9-0.4-0.9-0.9l0,0v-25.9c0-0.5,0.4-0.9,0.9-0.9l0,0l0,0
		c0.5,0,0.9,0.4,0.9,0.9v25.9C240.1,168.7,239.7,169.1,239.2,169.1L239.2,169.1z"/>
	<path class="st2" d="M249.5,169.1L249.5,169.1c-0.5,0-0.9-0.4-0.9-0.9l0,0v-25.9c0-0.5,0.4-0.9,0.9-0.9l0,0c0.5,0,0.9,0.4,0.9,0.9
		v25.9C250.4,168.7,250,169.1,249.5,169.1L249.5,169.1z"/>
	<path class="st2" d="M260.6,169.1L260.6,169.1c-0.5,0-0.9-0.4-0.9-0.9l0,0v-25.9c0-0.5,0.4-0.9,0.9-0.9l0,0l0,0
		c0.5,0,0.9,0.4,0.9,0.9v25.9C261.5,168.7,261.1,169.1,260.6,169.1L260.6,169.1z"/>
	<path class="st2" d="M272.8,169.1L272.8,169.1c-0.5,0-0.9-0.4-0.9-0.9l0,0v-25.9c0-0.5,0.4-0.9,0.9-0.9l0,0c0.5,0,0.9,0.4,0.9,0.9
		v25.9C273.7,168.7,273.2,169.1,272.8,169.1L272.8,169.1z"/>
	<path class="st2" d="M348.9,141.3L348.9,141.3c0.5,0,0.9,0.4,0.9,0.9v25.9c0,0.5-0.4,0.9-0.9,0.9l0,0l0,0c-0.5,0-0.9-0.4-0.9-0.9
		l0,0v-25.9C348,141.8,348.4,141.3,348.9,141.3L348.9,141.3z"/>
	<path class="st2" d="M342.6,141.3L342.6,141.3c0.5,0,0.9,0.4,0.9,0.9v25.9c0,0.5-0.4,0.9-0.9,0.9l0,0l0,0c-0.5,0-0.9-0.4-0.9-0.9
		l0,0v-25.9C341.7,141.8,342.1,141.3,342.6,141.3z"/>
	<path class="st2" d="M333.3,141.3L333.3,141.3c0.5,0,0.9,0.4,0.9,0.9l0,0v25.9c0,0.5-0.4,0.9-0.9,0.9l0,0l0,0
		c-0.5,0-0.9-0.4-0.9-0.9l0,0v-25.9C332.5,141.8,332.9,141.3,333.3,141.3L333.3,141.3z"/>
	<path class="st2" d="M323.1,141.3L323.1,141.3c0.5,0,0.9,0.4,0.9,0.9l0,0v25.9c0,0.5-0.4,0.9-0.9,0.9l0,0l0,0
		c-0.5,0-0.9-0.4-0.9-0.9l0,0v-25.9C322.2,141.8,322.6,141.3,323.1,141.3L323.1,141.3z"/>
	<path class="st2" d="M312,141.3L312,141.3c0.5,0,0.9,0.4,0.9,0.9l0,0v25.9c0,0.5-0.4,0.9-0.9,0.9l0,0l0,0c-0.5,0-0.9-0.4-0.9-0.9
		l0,0v-25.9C311.1,141.8,311.5,141.3,312,141.3L312,141.3z"/>
	<path class="st2" d="M299.8,141.3L299.8,141.3c0.5,0,0.9,0.4,0.9,0.9l0,0v25.9c0,0.5-0.4,0.9-0.9,0.9l0,0l0,0
		c-0.5,0-0.9-0.4-0.9-0.9l0,0v-25.9C298.9,141.8,299.4,141.3,299.8,141.3L299.8,141.3z"/>
	<path class="st2" d="M352.6,142.4v25.8c0,1.5-1.2,2.8-2.8,2.8l0,0H222.6c-1.2,0-2.2-0.7-2.6-1.9h69.6v-27.7h11.7v27.7h3.5v-27.7
		h8.6v27.7h1.1v-27.7h9.3v27.7h0.7v-27.7h27.8C352.5,141.7,352.6,142,352.6,142.4z"/>
	<path class="st3" d="M349.9,139.6H222.7c-1.5,0-2.8,1.2-2.8,2.8l0,0v25.8c0,0.2,0,0.6,0.1,0.9h2.7v-27.8h1.6v27.8h4v-27.7h2.5v27.7
		h6.5v-27.7h3.6v27.7h5.4v-27.7h3.8v27.7h5.4v-27.7h5.9v27.7h2.7v-27.7h9.1v27.7h1.4v-27.7h77.6C352,140.3,351,139.6,349.9,139.6z"
		/>
	<path class="st1" d="M217.4,108.2h125.5c2,0,3.6,1.6,3.6,3.6V136c0,2-1.6,3.6-3.6,3.6H217.4c-2,0-3.6-1.6-3.6-3.6v-24.2
		C213.8,109.8,215.4,108.2,217.4,108.2z"/>
	<path class="st2" d="M280.1,137.6L280.1,137.6c-0.5,0-0.9-0.4-0.9-0.9l0,0v-25.9c0-0.5,0.4-0.9,0.9-0.9l0,0l0,0
		c0.5,0,0.9,0.4,0.9,0.9l0,0v25.9C281,137.2,280.6,137.6,280.1,137.6L280.1,137.6z"/>
	<path class="st2" d="M217.5,137.6L217.5,137.6c-0.5,0-0.9-0.4-0.9-0.9l0,0v-25.9c0-0.5,0.4-0.9,0.9-0.9l0,0c0.5,0,0.9,0.4,0.9,0.9
		v25.9C218.4,137.2,218,137.6,217.5,137.6L217.5,137.6z"/>
	<path class="st2" d="M223.9,137.6L223.9,137.6c-0.5,0-0.9-0.4-0.9-0.9l0,0v-25.9c0-0.5,0.4-0.9,0.9-0.9l0,0c0.5,0,0.9,0.4,0.9,0.9
		v25.9C224.8,137.2,224.4,137.6,223.9,137.6L223.9,137.6z"/>
	<path class="st2" d="M233.2,137.6L233.2,137.6c-0.5,0-0.9-0.4-0.9-0.9l0,0v-25.9c0-0.5,0.4-0.9,0.9-0.9l0,0c0.5,0,0.9,0.4,0.9,0.9
		v25.9C234.1,137.2,233.7,137.6,233.2,137.6z"/>
	<path class="st2" d="M243.3,137.6L243.3,137.6c-0.5,0-0.9-0.4-0.9-0.9v-25.9c0-0.5,0.4-0.9,0.9-0.9l0,0c0.5,0,0.9,0.4,0.9,0.9l0,0
		v25.9C244.2,137.2,243.8,137.6,243.3,137.6z"/>
	<path class="st2" d="M254.6,137.6L254.6,137.6c-0.5,0-0.9-0.4-0.9-0.9l0,0v-25.9c0-0.5,0.4-0.9,0.9-0.9l0,0c0.5,0,0.9,0.4,0.9,0.9
		v25.9C255.4,137.2,255.1,137.6,254.6,137.6z"/>
	<path class="st2" d="M266.7,137.6L266.7,137.6c-0.5,0-0.9-0.4-0.9-0.9v-25.9c0-0.5,0.4-0.9,0.9-0.9l0,0l0,0c0.5,0,0.9,0.4,0.9,0.9
		l0,0v25.9C267.5,137.2,267.2,137.6,266.7,137.6L266.7,137.6z"/>
	<path class="st2" d="M342.9,109.9L342.9,109.9c0.5,0,0.9,0.4,0.9,0.9l0,0v25.9c0,0.5-0.4,0.9-0.9,0.9l0,0c-0.5,0-0.9-0.4-0.9-0.9
		l0,0v-25.9C342,110.3,342.4,109.9,342.9,109.9L342.9,109.9z"/>
	<path class="st2" d="M336.4,109.9L336.4,109.9c0.5,0,0.9,0.4,0.9,0.9l0,0v25.9c0,0.5-0.4,0.9-0.9,0.9l0,0c-0.5,0-0.9-0.4-0.9-0.9
		v-25.9C335.6,110.3,335.9,109.9,336.4,109.9L336.4,109.9z"/>
	<path class="st2" d="M327.2,109.9L327.2,109.9c0.5,0,0.9,0.4,0.9,0.9l0,0v25.9c0,0.5-0.4,0.9-0.9,0.9l0,0l0,0
		c-0.5,0-0.9-0.4-0.9-0.9l0,0v-25.9C326.3,110.3,326.7,109.9,327.2,109.9L327.2,109.9z"/>
	<path class="st2" d="M316.9,109.9L316.9,109.9c0.5,0,0.9,0.4,0.9,0.9l0,0v25.9c0,0.5-0.4,0.9-0.9,0.9l0,0l0,0
		c-0.5,0-0.9-0.4-0.9-0.9l0,0v-25.9C316.1,110.3,316.6,109.9,316.9,109.9L316.9,109.9z"/>
	<path class="st2" d="M305.8,109.9L305.8,109.9c0.5,0,0.9,0.4,0.9,0.9l0,0v25.9c0,0.5-0.4,0.9-0.9,0.9l0,0l0,0
		c-0.5,0-0.9-0.4-0.9-0.9l0,0v-25.9C304.9,110.3,305.3,109.9,305.8,109.9L305.8,109.9z"/>
	<path class="st2" d="M293.7,109.9L293.7,109.9c0.5,0,0.9,0.4,0.9,0.9l0,0v25.9c0,0.5-0.4,0.9-0.9,0.9l0,0l0,0
		c-0.5,0-0.9-0.4-0.9-0.9l0,0v-25.9C292.8,110.3,293.2,109.9,293.7,109.9L293.7,109.9z"/>
	<path class="st2" d="M346.6,110.9v25.8c0,1.5-1.2,2.8-2.8,2.8l0,0H216.5c-1.2,0-2.2-0.7-2.6-1.9h69.5V110h11.7v27.7h3.5V110h8.6
		v27.7h1.1V110h9.3v27.7h0.7V110h27.8C346.4,110.2,346.6,110.5,346.6,110.9z"/>
	<path class="st3" d="M343.7,108.2H216.5c-1.5,0-2.8,1.2-2.8,2.8v25.8c0,0.2,0,0.6,0.1,0.9h2.7v-27.8h1.6v27.7h4v-27.7h2.5v27.7h6.5
		v-27.7h3.6v27.7h5.4v-27.7h3.8v27.7h5.4v-27.7h5.9v27.7h2.7v-27.7h9.1v27.7h1.4v-27.7h77.6C345.8,108.9,344.8,108.2,343.7,108.2z"
		/>
	<path class="st2" d="M223.4,202.4h3.6l-5.3,0.5C222.2,202.7,222.8,202.4,223.4,202.4z"/>
	<path class="st2" d="M244.3,88.6l-44.9-11.6c-1.9-0.5-3-2.3-2.6-4.2l1.9-7.3c5.9,0.2,11.7,1.4,17.3,3.1
		C230.7,73.1,239.4,81.3,244.3,88.6z"/>
	<path class="st2" d="M217.3,171H251c-0.5,1.1-8.5,18.3-23.1,31.4h-0.2h-10.2c-2,0-3.5-1.6-3.5-3.5v-24.3
		C213.8,172.5,215.4,171,217.3,171z"/>
	<path class="st2" d="M223.4,139.6H267c-0.4,1.4-5.3,21.6-13.3,31.4h-30.3c-2,0-3.5-1.6-3.6-3.5v-24.3
		C220,141.2,221.5,139.6,223.4,139.6L223.4,139.6z"/>
	<path class="st2" d="M262.5,139.6h-45.2c-2,0-3.5-1.6-3.5-3.5v-24.3c0-2,1.6-3.5,3.5-3.5l0,0h49.6
		C267.3,115.5,267.2,129.4,262.5,139.6z"/>
	<path class="st2" d="M336.9,296.8H221.3c19-7.3,47.2-19,67.7-31.4h47.9c2,0,3.5,1.6,3.5,3.5l0,0v24.3
		C340.4,295.1,338.9,296.8,336.9,296.8L336.9,296.8z"/>
	<path class="st2" d="M351.6,300.3v19.8c-12.3-6.1-18.3-13.2-18.3-13.2s-26.8,21.1-68,21.1c-16.2,0-32-3.7-46.4-11.1v-16.7
		c0-2,1.6-3.5,3.5-3.5l0,0H348C350,296.8,351.6,298.4,351.6,300.3L351.6,300.3z"/>
	<path class="st2" d="M352.6,206v24.3c0,2-1.6,3.5-3.5,3.5h-33.6c4.9-22.8,17.7-30.7,17.7-30.7h16.5l1.9,0.5
		C352.4,204.3,352.6,205.1,352.6,206z"/>
	<path class="st2" d="M352.6,237.4v24.5c0,2-1.6,3.5-3.5,3.5h-60c14.1-8.6,24.5-17.5,25.6-25.6c0.2-2,0.6-4,1-5.8h33.6
		C351.1,233.9,352.6,235.5,352.6,237.4z"/>
	<path class="st1" d="M239.7,164.6c-0.1,0.2-0.2,0.5-0.4,0.7c-0.4,0.7-0.7,1.5-1.2,2.1c-1.6,2.7-3.2,5.3-5.1,7.8
		c-0.4,0.5-0.7,1-1.1,1.4l-0.4,0.7c-0.7,0.9-1.5,1.9-2.2,2.7c-1.4,1.6-2.8,3.2-4.3,4.8c-0.4,0.5-0.9,0.9-1.2,1.2l-0.5,0.5l-0.9,0.9
		c-2,1.9-4.2,3.6-6.3,5.2c-0.5,0.4-1,0.7-1.5,1.1h-0.1l-0.6,0.4c-2.6,1.7-5.2,3.2-7.9,4.6c-0.6,0.4-1.4,0.6-2,0.9
		c-3.1,1.4-6.4,2.5-9.8,3.3c-0.9,0.2-1.7,0.4-2.6,0.6c-2.8,0.5-5.6,0.7-8.4,0.7c-1.4,0-2.7-0.1-4.1-0.2c-4.9-0.5-9.6-2-14-4.2
		c-4.9-2.6-9.3-6.3-12.6-10.9l0,0c-12.8-17-13.6-45.2,0-70.6s37.3-40.6,58.7-39.4l0,0c10.6,0.5,20.5,5.4,27.3,13.7l0.1,0.1
		c0.9,1,1.6,2,2.3,3l0.1,0.1c1.4,2,2.6,4.1,3.6,6.3c0.1,0.4,0.4,0.7,0.5,1.1c0.4,0.7,0.7,1.6,1,2.5l0,0c1.1,2.8,1.9,5.7,2.5,8.6
		l0.2,1.2c0.1,0.7,0.2,1.4,0.4,2.1c0,0.4,0.1,0.7,0.1,1.1c0.2,2.1,0.4,4.3,0.5,6.4c0,0.7,0,1.6,0,2.3s0,1.2,0,2
		c-0.1,2-0.2,4-0.5,5.9c-0.1,1.4-0.4,2.7-0.6,4.1c-0.1,0.6-0.2,1.2-0.4,1.7c0,0.1,0,0.1-0.1,0.2c-0.1,1-0.4,1.9-0.6,2.7
		c-0.6,2.3-1.2,4.8-2.1,7.2c-0.1,0.5-0.4,1.1-0.6,1.6l0,0c-0.1,0.4-0.2,0.9-0.5,1.2c-1.2,3.2-2.6,6.4-4.2,9.5
		C240,164.1,239.9,164.4,239.7,164.6z"/>
	<path class="st1" d="M239.7,164.6c-0.1,0.2-0.2,0.5-0.4,0.7c-0.4,0.7-0.7,1.5-1.2,2.1c-1.6,2.7-3.2,5.3-5.1,7.8
		c-0.4,0.5-0.7,1-1.1,1.4l-0.4,0.7c-0.7,0.9-1.5,1.9-2.2,2.7c-1.4,1.6-2.8,3.2-4.3,4.8c-0.4,0.5-0.9,0.9-1.2,1.2l-0.5,0.5l-0.9,0.9
		c-2,1.9-4.2,3.6-6.3,5.2c-0.5,0.4-1,0.7-1.5,1.1h-0.1l-0.6,0.4c-2.6,1.7-5.2,3.2-7.9,4.6c-0.6,0.4-1.4,0.6-2,0.9
		c-3.1,1.4-6.4,2.5-9.8,3.3c-0.9,0.2-1.7,0.4-2.6,0.6c-2.8,0.5-5.6,0.7-8.4,0.7c-1.4,0-2.7-0.1-4.1-0.2c-4.9-0.5-9.6-2-14-4.2
		l-11.7-6.3c-1.2-0.6-1.9-2.1-1.5-3.5c0-0.2,0.1-0.4,0.2-0.6l59.3-111.1c0.1-0.1,0.2-0.4,0.4-0.5l0,0c0.9-1.1,2.5-1.4,3.7-0.7
		l11.7,6.2c4.3,2.3,8.2,5.4,11.4,9.3l0.1,0.1c0.9,1,1.6,2,2.3,3l0.1,0.1c1.4,2,2.6,4.1,3.6,6.3c0.1,0.4,0.4,0.7,0.5,1.1
		c0.4,0.7,0.7,1.6,1,2.5l0,0c1.1,2.8,1.9,5.7,2.5,8.6l0.2,1.2c0.1,0.7,0.2,1.4,0.4,2.1c0,0.4,0.1,0.7,0.1,1.1
		c0.2,2.1,0.4,4.3,0.5,6.4c0,0.7,0,1.6,0,2.3s0,1.2,0,2c-0.1,2-0.2,4-0.5,5.9c-0.1,1.4-0.4,2.7-0.6,4.1c-0.1,0.6-0.2,1.2-0.4,1.7
		c0,0.1,0,0.1-0.1,0.2c-0.1,1-0.4,1.9-0.6,2.7c-0.6,2.3-1.2,4.8-2.1,7.2c-0.1,0.5-0.4,1.1-0.6,1.6l0,0c-0.1,0.4-0.2,0.9-0.5,1.2
		c-1.2,3.2-2.6,6.4-4.2,9.5C240,164.1,239.9,164.4,239.7,164.6z"/>
	<path class="st2" d="M239.7,164.6c-0.1,0.2-0.2,0.5-0.4,0.7L186.1,137c-0.4-0.2-0.5-0.7-0.2-1.2c0.2-0.4,0.7-0.5,1.1-0.4l53.2,28.4
		C240,164.1,239.9,164.4,239.7,164.6z"/>
	<path class="st2" d="M240.9,95.7l-25.6-13.6c-0.1,0-0.2-0.1-0.2-0.2c-0.2-0.2-0.2-0.6-0.1-0.9c0.1-0.4,0.6-0.5,1-0.5
		c0.1,0,0.1,0,0.2,0.1l22.4,11.9l0.1,0.1C239.2,93.5,240.1,94.5,240.9,95.7L240.9,95.7z"/>
	<path class="st2" d="M246,105.6l-33.7-17.9c-0.4-0.2-0.6-0.7-0.4-1.1l0,0c0.2-0.4,0.7-0.6,1.1-0.4l31.9,16.9
		C245.3,103.9,245.7,104.7,246,105.6z"/>
	<path class="st2" d="M249,117.6l-41-21.9c-0.4-0.2-0.5-0.7-0.2-1.2c0.2-0.4,0.7-0.5,1.1-0.4l39.9,21.2
		C248.8,116.2,248.9,117,249,117.6z"/>
	<path class="st2" d="M249.5,129.4l-46.3-24.7c-0.4-0.2-0.6-0.7-0.4-1.1c0.2-0.4,0.7-0.6,1.1-0.4l0,0l45.6,24.3
		C249.6,128.2,249.6,128.8,249.5,129.4z"/>
	<path class="st2" d="M248.1,141.3L198,114.6c-0.4-0.2-0.6-0.7-0.4-1.1l0,0c0.2-0.4,0.7-0.6,1.1-0.4l0,0l49.6,26.4
		C248.4,140,248.3,140.7,248.1,141.3z"/>
	<path class="st2" d="M244.8,153.1l-52.5-27.9c-0.1,0-0.1-0.1-0.1-0.1c-0.2-0.2-0.4-0.7-0.2-1c0.2-0.4,0.7-0.6,1.1-0.4l52.2,27.8
		C245.2,152,245.1,152.5,244.8,153.1L244.8,153.1z"/>
	<path class="st2" d="M183.2,204.1c-1.4,0-2.7-0.1-4.1-0.2L156.8,192c-0.4-0.2-0.6-0.7-0.4-1.1c0.2-0.4,0.7-0.6,1.1-0.4l0,0
		L183.2,204.1z"/>
	<path class="st2" d="M194.2,202.8c-0.9,0.2-1.7,0.4-2.6,0.6l-31.9-17c-0.4-0.2-0.6-0.7-0.4-1.1l0,0c0.2-0.4,0.7-0.6,1.1-0.4
		L194.2,202.8z"/>
	<path class="st2" d="M205.8,198.6c-0.6,0.4-1.4,0.6-2,0.9l-39.9-21.2c-0.4-0.2-0.6-0.7-0.4-1.2c0.2-0.4,0.7-0.6,1.1-0.4
		L205.8,198.6z"/>
	<path class="st2" d="M215.9,192.5c-0.5,0.4-1,0.7-1.5,1.1h-0.1l-45.6-24.3c-0.1,0-0.2-0.1-0.2-0.2c-0.2-0.2-0.2-0.6-0.1-0.9
		c0.2-0.4,0.7-0.6,1.1-0.4L215.9,192.5z"/>
	<path class="st2" d="M224.9,184.7c-0.4,0.5-0.9,0.9-1.2,1.2L174,159.6c-0.5-0.1-0.6-0.6-0.5-1.1c0.1-0.5,0.6-0.6,1.1-0.5
		c0,0,0.1,0,0.1,0.1L224.9,184.7z"/>
	<path class="st2" d="M232.9,175.4c-0.4,0.5-0.7,1-1.1,1.4l-52.1-27.8c-0.5-0.1-0.6-0.6-0.5-1.1c0.1-0.5,0.6-0.6,1.1-0.5
		c0,0,0.1,0,0.1,0.1L232.9,175.4z"/>
	<path class="st3" d="M215.3,80.2l1.2-2.3c0.6,0.2,1.2,0.5,1.9,0.9l8.6,4.6c4.3,2.3,8.2,5.4,11.4,9.3l0.1,0.1L215.3,80.2z"/>
	<path class="st3" d="M244.4,101.9L212.7,85l1.9-3.5l26.2,14l0.1,0.1C242.2,97.7,243.4,99.8,244.4,101.9z"/>
	<path class="st3" d="M248.4,114.2L208.5,93l3.1-5.8l34.5,18.4C247,108.4,247.9,111.3,248.4,114.2z"/>
	<path class="st3" d="M249.6,125.1l-45.3-24.2l2.6-4.8l42.4,22.6C249.4,120.8,249.5,123,249.6,125.1z"/>
	<path class="st3" d="M249.1,135.4L200,109.2l2.6-4.8l47,25.1C249.5,131.4,249.4,133.4,249.1,135.4z"/>
	<path class="st3" d="M247.5,144.2l-51.7-27.4l1.2-2.3l51,27.2C247.9,142.4,247.6,143.4,247.5,144.2z"/>
	<path class="st3" d="M244.3,154.4L191,126l0.6-1.2l53.2,28.4l0,0C244.7,153.5,244.6,154,244.3,154.4z"/>
	<path class="st2" d="M236,170.9c0.1-0.2,0.4-0.5,0.5-0.9c0.5-0.7,1-1.6,1.5-2.3v-0.1l0,0l0,0c0.5-1,1.1-1.9,1.6-3
		c17.2-32.1,11.5-68.7-12.6-81.5c-0.2-0.1-0.6-0.4-0.9-0.5c23.3,13.2,28.6,49.3,11.7,81c-0.5,1-1.1,2-1.6,3L184,138.8l32.5-61
		c-2.1-0.7-4.1-0.9-4.8-0.1l0,0c-0.1,0.1-0.2,0.2-0.2,0.4l-59.4,111.5c-0.1,0.1-0.1,0.2-0.1,0.4c-0.2,1.4,1.6,3.6,4.6,5.1l8.6,4.6
		c0.6,0.4,1.4,0.6,2.1,1l0.6,0.2l1.6,0.6l0.6,0.2c0.7,0.2,1.4,0.5,2.1,0.7l0.4,0.1c0.6,0.1,1.1,0.4,1.7,0.5l0.7,0.1l1.7,0.4l0.5,0.1
		c0.6,0.1,1.4,0.2,2,0.2h0.2h0.7c0.5,0,1.1,0.1,1.6,0.1h0.7h0.7h1.6l1.7-0.1h0.6l2.3-0.2l0.7-0.1l1.4-0.2h0.2
		c0.6-0.1,1.2-0.2,1.9-0.4l0.6-0.1h0.1c0.5-0.1,0.9-0.2,1.4-0.4c0.5-0.1,0.9-0.2,1.2-0.4l1.1-0.4l1.5-0.5l1-0.4l1.6-0.6l0.9-0.4
		l1-0.4l0.7-0.4l0.7-0.4l0.5-0.2l1-0.5l0.9-0.4c0.7-0.4,1.5-0.9,2.3-1.2l0.1-0.1c0.7-0.5,1.5-0.9,2.1-1.4l0.5-0.2l1-0.6l0,0l0.7-0.5
		l0,0l0.1-0.1l0.7-0.5c0.2-0.1,0.5-0.2,0.6-0.5c0.1-0.2,0.2-0.2,0.5-0.4c0.7-0.6,1.5-1.1,2.2-1.7l0.7-0.5c1-0.7,2-1.6,2.8-2.5l0,0
		l0,0l0.9-0.9l0,0l0.5-0.5l0.2-0.2l0.6-0.6c0.1-0.1,0.2-0.2,0.4-0.4c0.1-0.1,0.4-0.4,0.5-0.5c0.5-0.5,0.9-0.9,1.4-1.4l1-1.1
		c0.5-0.5,1-1.1,1.4-1.6l0.1-0.2l0,0c0.7-0.9,1.5-1.7,2.2-2.7l0,0l0.4-0.6l0.4-0.6l0.4-0.5l0.2-0.4c0.5-0.6,1-1.2,1.4-2l0.4-0.5
		C235.2,172.2,235.5,171.5,236,170.9z M212,193l-44.2-23.6l0.4-0.6l44.6,23.7L212,193z M220.5,186.4l-48-25.6l0.5-1l48.4,25.8
		L220.5,186.4z M227.5,178.9L177,152l1.6-3l51.1,27.2C229,177.2,228.3,178.1,227.5,178.9z"/>
	<path class="st1" d="M228,158.4c-17.2,32.1-50.5,47.8-74.6,34.9c-24.1-12.8-29.8-49.3-12.6-81.5s50.6-47.8,74.7-34.9
		S245.2,126.2,228,158.4z"/>
	
		<ellipse transform="matrix(0.4702 -0.8825 0.8825 0.4702 -21.7069 234.3467)" class="st2" cx="184.3" cy="135.3" rx="55.4" ry="41.5"/>
	<path class="st2" d="M234.2,143.5L234.2,143.5c8.8-27.8,1.6-55.7-18.9-66.6c-24.1-12.8-57.5,2.8-74.7,34.9
		c-5.3,9.9-8.6,20.9-9.6,32.1c-1.7,21.5,6.1,40.8,22.2,49.4c24.1,12.8,57.5-2.8,74.7-34.9C230.5,153.8,232.6,148.7,234.2,143.5z
		 M154.4,191.4c-14.4-7.7-22-24.1-21.7-42.9c0.2-12.6,3.6-24.8,9.6-35.9c16.5-31.1,48.9-46.2,72.1-33.8c21,11.1,27.4,40.8,16.5,69.3
		c-1.2,3.2-2.7,6.4-4.3,9.4C210,188.7,177.6,203.9,154.4,191.4z"/>
	<path class="st2" d="M228.6,131.9c2.2-18.9-4.3-36.1-18.5-43.6c-20.3-10.7-48.3,2.3-62.7,29.4c-3.8,7.2-6.4,14.8-7.7,22.8
		c1.1-8.6,3.7-17.2,7.9-24.8c14.3-27,42.5-40.1,62.7-29.4C225,94.1,231.6,112.3,228.6,131.9z"/>
	<path class="st2" d="M228,158.4c-17.2,32.1-50.6,47.8-74.7,34.9c-16.2-8.6-24.1-27.9-22.2-49.4c0.5,1.5,1,3,1.6,4.6
		c-0.2,18.8,7.4,35.2,21.7,42.9c23.3,12.3,55.6-2.7,72.1-33.8c1.6-3.1,3.1-6.3,4.3-9.5c1.2-1.6,2.3-3.2,3.3-4.6
		C232.7,148.7,230.6,153.6,228,158.4z"/>
	<path class="st5" d="M228,158.4c-17.2,32.1-50.5,47.8-74.6,34.9c-24.1-12.8-29.8-49.3-12.6-81.5s50.6-47.8,74.7-34.9
		S245.2,126.2,228,158.4z"/>
	<path class="st1" d="M333.3,286l0.4,0.7c0.4,0.7,0.7,1.5,1.1,2.2c1.5,2.7,3.2,5.4,4.9,8c0.4,0.5,0.6,1,1,1.5l0.4,0.6
		c0.7,1,1.4,1.9,2.1,2.8c1.4,1.7,2.8,3.3,4.3,4.9c0.4,0.5,0.9,0.9,1.2,1.4c0.1,0.1,0.4,0.4,0.5,0.5c0.2,0.2,0.6,0.6,0.9,0.9
		c2,2,4.1,3.8,6.3,5.6c0.5,0.4,1,0.7,1.5,1.1h0.1c0.2,0.1,0.4,0.2,0.6,0.5c2.5,1.9,5.2,3.5,7.9,4.9c0.6,0.4,1.2,0.6,2,1
		c3.1,1.5,6.4,2.7,9.8,3.7c0.9,0.2,1.7,0.5,2.7,0.6c2.8,0.6,5.7,1,8.5,1.1c1.4,0,2.7,0,4.2-0.1c10.9-0.7,20.9-5.9,27.7-14.4l0,0
		c13.7-16.8,15.3-45.4,2.5-71.9c-12.8-26.4-36.7-42.6-58.4-42.1l0,0c-1.6,0-3.2,0.1-4.8,0.4c-9,1.2-17.4,5.7-23.5,12.6l0,0
		c-0.9,1-1.6,2-2.5,3l-0.1,0.1c-1.5,2-2.7,4.1-3.8,6.3c-0.2,0.4-0.4,0.7-0.6,1.1c-0.4,0.9-0.7,1.6-1.1,2.5c-0.5,1.2,0,0,0,0
		c-1.2,2.8-2.1,5.8-2.8,8.8c-0.1,0.4-0.1,0.7-0.2,1.2c-0.1,0.7-0.2,1.5-0.4,2.1c0,0.4-0.1,0.7-0.1,1.1c-0.4,2.1-0.6,4.3-0.7,6.5
		c0,0.7-0.1,1.6-0.1,2.3s0,1.2,0,2c0,2,0.1,4,0.2,6.1c0.1,1.4,0.2,2.8,0.5,4.2c0.1,0.6,0.1,1.2,0.2,1.9c0,0.1,0,0.1,0,0.2
		c0.1,1,0.4,1.9,0.5,2.8c0.5,2.5,1.1,4.9,1.9,7.4c0.1,0.5,0.4,1.1,0.5,1.6l0,0c0.1,0.5,0.2,0.9,0.5,1.4c1.1,3.3,2.5,6.7,4,9.8
		C333,285.5,333.2,285.8,333.3,286z"/>
	<path class="st1" d="M333.3,286l0.4,0.7c0.4,0.7,0.7,1.5,1.1,2.2c1.5,2.7,3.2,5.4,4.9,8c0.4,0.5,0.6,1,1,1.5l0.4,0.6
		c0.7,1,1.4,1.9,2.1,2.8c1.4,1.7,2.8,3.3,4.3,4.9c0.4,0.5,0.9,0.9,1.2,1.4c0.1,0.1,0.4,0.4,0.5,0.5c0.2,0.2,0.6,0.6,0.9,0.9
		c2,2,4.1,3.8,6.3,5.6c0.5,0.4,1,0.7,1.5,1.1h0.1c0.2,0.1,0.4,0.2,0.6,0.5c2.5,1.9,5.2,3.5,7.9,4.9c0.6,0.4,1.2,0.6,2,1
		c3.1,1.5,6.4,2.7,9.8,3.7c0.9,0.2,1.7,0.5,2.7,0.6c2.8,0.6,5.7,1,8.5,1.1c1.4,0,2.7,0,4.2-0.1c4.9-0.2,9.9-1.5,14.3-3.6l12.1-5.9
		c1.2-0.6,2-2.1,1.6-3.5c0-0.2-0.1-0.4-0.2-0.6l-56.4-115.2c-0.1-0.2-0.2-0.4-0.4-0.5l0,0c-0.9-1.1-2.5-1.5-3.7-0.9l-12.1,5.9
		c-4.4,2.2-8.5,5.3-11.9,9l0,0c-0.9,1-1.6,2-2.5,3l-0.1,0.1c-1.5,2-2.7,4.1-3.8,6.3c-0.2,0.4-0.4,0.7-0.6,1.1
		c-0.4,0.9-0.7,1.6-1.1,2.5c-0.5,1.2,0,0,0,0c-1.2,2.8-2.1,5.8-2.8,8.8c-0.1,0.4-0.1,0.7-0.2,1.2c-0.1,0.7-0.2,1.5-0.4,2.1
		c0,0.4-0.1,0.7-0.1,1.1c-0.4,2.1-0.6,4.3-0.7,6.5c0,0.7-0.1,1.6-0.1,2.3s0,1.2,0,2c0,2,0.1,4,0.2,6.1c0.1,1.4,0.2,2.8,0.5,4.2
		c0.1,0.6,0.1,1.2,0.2,1.9c0,0.1,0,0.1,0,0.2c0.1,1,0.4,1.9,0.5,2.8c0.5,2.5,1.1,4.9,1.9,7.4c0.1,0.5,0.4,1.1,0.5,1.6l0,0
		c0.1,0.5,0.2,0.9,0.5,1.4c1.1,3.3,2.5,6.7,4,9.8C333,285.5,333.2,285.8,333.3,286z"/>
	<path class="st2" d="M333.3,286l0.4,0.7l55.2-27c0.5-0.2,0.6-0.7,0.5-1.1c-0.1-0.4-0.7-0.6-1.1-0.5c0,0,0,0-0.1,0l-55.2,27
		C333,285.5,333.2,285.8,333.3,286z"/>
	<path class="st2" d="M334.5,215.9l26.5-13c0.1,0,0.2-0.1,0.2-0.2c0.2-0.4,0.2-0.9-0.1-1.2c-0.2-0.1-0.5-0.2-0.7-0.1h-0.2
		l-23.1,11.4l0,0c-0.9,1-1.6,2-2.5,3L334.5,215.9z"/>
	<path class="st2" d="M329,225.7l34.8-17c0.4-0.2,0.6-0.7,0.4-1.1l0,0c-0.2-0.5-0.7-0.6-1.2-0.5l0,0l-33,16.2
		C329.6,224,329.3,224.9,329,225.7z"/>
	<path class="st2" d="M325.4,237.8l42.5-20.7c0.5-0.2,0.6-0.7,0.4-1.1c-0.2-0.5-0.7-0.6-1.1-0.4l-41.2,20.3
		C325.7,236.4,325.6,237.1,325.4,237.8z"/>
	<path class="st2" d="M324.5,249.8l48-23.5c0.4-0.2,0.6-0.7,0.4-1.1l0,0c-0.2-0.4-0.7-0.6-1.1-0.4l0,0L324.6,248
		C324.5,248.6,324.5,249.2,324.5,249.8z"/>
	<path class="st2" d="M325.6,261.9l52-25.4c0.4-0.2,0.6-0.7,0.4-1.2c-0.2-0.4-0.7-0.5-1.1-0.4l-51.5,25.2
		C325.3,260.7,325.4,261.3,325.6,261.9z"/>
	<path class="st2" d="M328.5,274.2l54.3-26.7c0.1,0,0.1,0,0.1-0.1c0.4-0.2,0.4-0.7,0.2-1.1c-0.2-0.4-0.7-0.6-1.2-0.4l-54.1,26.5
		C328,272.9,328.3,273.5,328.5,274.2L328.5,274.2z"/>
	<path class="st2" d="M389.5,328.1c1.4,0,2.7,0,4.2-0.1l23.2-11.4c0.5-0.1,0.7-0.6,0.5-1.1c-0.1-0.5-0.6-0.7-1.1-0.5
		c0,0-0.1,0-0.1,0.1L389.5,328.1z"/>
	<path class="st2" d="M378.3,326.5c0.9,0.2,1.7,0.5,2.7,0.6l33-16.2c0.5-0.2,0.6-0.7,0.4-1.2c-0.2-0.5-0.7-0.6-1.2-0.4L378.3,326.5z
		"/>
	<path class="st2" d="M366.6,321.8c0.6,0.4,1.2,0.6,2,1l41.2-20.3c0.5-0.2,0.6-0.7,0.4-1.1c-0.2-0.5-0.7-0.6-1.1-0.4L366.6,321.8z"
		/>
	<path class="st2" d="M356.4,315.2c0.5,0.4,1,0.7,1.5,1.1h0.1l47.2-23.1c0.1,0,0.2-0.1,0.2-0.2c0.2-0.2,0.2-0.6,0.1-1
		c-0.2-0.5-0.7-0.6-1.2-0.4L356.4,315.2z"/>
	<path class="st2" d="M347.5,307c0.4,0.5,0.9,0.9,1.2,1.4l51.5-25.2c0.5-0.2,0.6-0.7,0.4-1.2l0,0c-0.2-0.5-0.7-0.6-1.2-0.4
		L347.5,307z"/>
	<path class="st2" d="M339.8,297.1c0.4,0.5,0.6,1,1,1.5l54.1-26.5c0.5-0.2,0.6-0.7,0.4-1.2c-0.2-0.5-0.7-0.6-1.2-0.4l0,0
		L339.8,297.1z"/>
	<path class="st3" d="M361,200.9l-1.2-2.5c-0.6,0.2-1.4,0.5-2,0.7l-8.9,4.3c-4.4,2.2-8.5,5.3-11.9,9l0,0L361,200.9z"/>
	<path class="st3" d="M330.6,222l32.8-16.1l-1.7-3.6l-27.2,13.3l-0.1,0.1C333,217.8,331.7,219.9,330.6,222z"/>
	<path class="st3" d="M326.2,234.5l41.4-20.3l-3-5.9l-35.7,17.4C327.8,228.6,326.8,231.6,326.2,234.5z"/>
	<path class="st3" d="M324.6,245.5l46.9-23l-2.5-4.9l-43.8,21.5C324.9,241.1,324.7,243.3,324.6,245.5z"/>
	<path class="st3" d="M324.8,255.9l51-24.9l-2.5-4.9l-48.8,23.8C324.5,251.8,324.6,253.9,324.8,255.9z"/>
	<path class="st3" d="M326.1,265l53.5-26.2l-1.2-2.5l-52.9,25.8C325.7,263.2,325.9,264.2,326.1,265z"/>
	<path class="st3" d="M328.9,275.5l55.3-27l-0.6-1.2l-55.2,27l0,0C328.7,274.5,328.8,275,328.9,275.5z"/>
	<path class="st2" d="M338,294.5c0.1,0.1,0.2,0.4,0.4,0.6c0.5,0.6,0.9,1.4,1.4,2l0.2,0.4l0.4,0.5l0.4,0.6l0.4,0.6l0,0
		c0.7,1,1.4,1.9,2.1,2.8l0,0l0.2,0.2c0.5,0.6,0.9,1.1,1.4,1.7c0.2,0.4,0.6,0.7,1,1.1s0.9,1,1.2,1.5c0.1,0.1,0.4,0.4,0.5,0.6
		c0.1,0.2,0.2,0.2,0.4,0.4c0.1,0.1,0.5,0.5,0.6,0.7l0.2,0.2c0.1,0.1,0.4,0.4,0.5,0.5l0,0l0.9,0.9l0,0l0,0c1,0.9,1.9,1.9,2.8,2.6
		l0.6,0.6c0.7,0.6,1.5,1.2,2.2,1.9c0.1,0.1,0.2,0.2,0.5,0.4l0.6,0.5c0.2,0.1,0.5,0.4,0.7,0.5l0.1,0.1l0,0l0.7,0.5l0,0
		c0.4,0.2,0.6,0.5,1,0.7l0.5,0.2c0.7,0.5,1.4,1,2.1,1.4l0.1,0.1c0.7,0.5,1.5,1,2.3,1.4l0.9,0.5l1,0.6l0.5,0.2l0.7,0.4l0.7,0.4l1,0.5
		l0.9,0.4l1.6,0.7l1,0.4l1.5,0.6l1.1,0.4l1.2,0.4c0.5,0.1,0.9,0.2,1.4,0.4h0.1l0.6,0.1l1.9,0.5h0.2l1.4,0.2l0.7,0.1
		c0.7,0.1,1.6,0.2,2.3,0.4l0.6,0.1c0.6,0,1.2,0.1,1.9,0.1h0.7c0.2,0,0.6,0,0.9,0h1.6c0.5,0,1.1,0,1.6,0h0.7h0.2c0.6,0,1.4-0.1,2-0.2
		l0.5-0.1c0.6-0.1,1.2-0.1,1.7-0.2l0.7-0.1c0.6-0.1,1.2-0.2,1.9-0.4l0.4-0.1c0.7-0.1,1.5-0.4,2.2-0.6l0.6-0.2
		c0.5-0.1,1.1-0.4,1.6-0.6l0.6-0.2c0.7-0.2,1.4-0.6,2.1-1l8.9-4.3c3-1.5,4.9-3.6,4.8-5.1c0-0.1,0-0.2-0.1-0.4L365,198.8
		c0-0.1-0.1-0.2-0.2-0.4l0,0c-0.9-0.7-2.7-0.7-4.9,0l31,63.2l-54.1,26.4c-0.5-1-1.1-2-1.6-3c-16.1-32.8-9.5-69.3,14.7-82l-1,0.5
		c-24.9,12.2-32,49.1-15.7,82.5c0.5,1,1,2,1.6,3l0,0l0,0v0.1c0.5,0.9,1,1.6,1.4,2.5l0.5,0.9L338,294.5z M359.8,315.4l46.2-22.6
		l0.4,0.6l-45.8,22.5L359.8,315.4z M351.1,307.9l50.1-24.6l0.5,1L352,308.7L351.1,307.9z M343,298.2l53-25.9l1.5,3.1l-52.2,25.7
		C344.5,300.1,343.7,299.2,343,298.2L343,298.2z"/>
	<path class="st1" d="M345.4,280.1c16.3,33.3,49.8,50.4,74.7,38.2c24.9-12.2,32-49.1,15.7-82.5c-16.3-33.3-49.8-50.4-74.7-38.2
		S329.1,246.7,345.4,280.1z"/>
	
		<ellipse transform="matrix(0.8981 -0.4398 0.4398 0.8981 -73.6432 198.091)" class="st2" cx="390.6" cy="258" rx="42.2" ry="56.4"/>
	<path class="st2" d="M345.4,280.1c16.3,33.3,49.8,50.4,74.7,38.2c16.8-8.2,25.4-27.5,24.3-49.4c-0.6-11.5-3.6-22.7-8.6-33
		c-16.3-33.3-49.8-50.4-74.7-38.2c-21.1,10.4-29.4,38.5-21.5,67.2l0,0C341,270.1,343,275.3,345.4,280.1z M346.9,279.3
		c-1.6-3.2-3-6.4-4.1-9.8c-10.1-29.4-2.5-59.3,19.1-69.9c24.1-11.9,56.4,4.7,72.2,36.9c5.7,11.5,8.6,24.1,8.4,36.8
		c-0.4,19.1-8.6,35.6-23.6,42.9C395.1,328.1,362.7,311.6,346.9,279.3L346.9,279.3z"/>
	<path class="st2" d="M345.7,253.2c-1.6-19.3,5.7-36.6,20.4-43.7c21-10.2,49,4.1,62.7,32.1c3.7,7.4,6.1,15.3,6.9,23.5
		c-0.7-8.9-3.2-17.5-7.2-25.6c-13.7-27.9-41.7-42.4-62.7-32.1C350.8,214.8,343.3,233,345.7,253.2z"/>
	<path class="st2" d="M345.4,280.1c16.3,33.3,49.8,50.4,74.7,38.2c16.8-8.2,25.4-27.5,24.3-49.4c-0.5,1.5-1.1,3-1.7,4.6
		c-0.4,19.1-8.6,35.6-23.6,42.9c-24.1,11.9-56.4-4.7-72.2-36.9c-1.6-3.2-3-6.4-4.1-9.8c-1.2-1.7-2.2-3.3-3.2-4.8
		C341.1,270.1,343,275.3,345.4,280.1z"/>
	<path class="st4" d="M439.9,245.6l-98.8-25.9c4.1-9.8,10.7-17.5,20-22.1c24.9-12.2,58.4,4.9,74.7,38.2
		C437.4,239,438.8,242.3,439.9,245.6z"/>
	<path class="st1" d="M334.6,261.1c0,37-30,67.2-67.2,67.1c-37,0-67.1-30-67.1-67.2c0-37,30-67.1,67.2-67.1l0,0
		C304.6,194,334.6,224,334.6,261.1L334.6,261.1z"/>
	<circle class="st2" cx="267.5" cy="261.1" r="56.3"/>
	<path class="st2" d="M332.6,244.8L332.6,244.8c-9-36.1-45.4-57.9-81.4-49c-35.9,8.9-57.9,45.4-49,81.4c8.9,35.9,45.4,57.9,81.4,49
		c29.9-7.4,50.9-34.3,51-65.1C334.6,255.6,334,250.1,332.6,244.8L332.6,244.8z M267.5,325.9c-35.8,0-64.8-29-65-64.8
		c0-35.8,29-64.8,64.8-65s64.8,29,65,64.8l0,0c0,35.8-28.9,64.8-64.7,64.8C267.6,325.9,267.5,325.9,267.5,325.9z"/>
	<path class="st2" d="M318.4,237c-14.3-27.7-48.3-38.4-75.9-24.1c-26.9,14-38,46.8-24.9,74.2c-14.3-27.7-3.6-61.6,24.1-75.9
		s61.6-3.6,75.9,24.1C317.9,235.9,318.2,236.4,318.4,237z"/>
	<path class="st2" d="M334.6,261.1c0,37-30.1,67.1-67.2,67.1c-24,0-46.1-12.8-58-33.6c1.5,1.1,3.1,2.2,4.8,3.3
		c20.4,29.5,60.8,36.9,90.3,16.5c20.6-14.2,31.2-39.1,27.2-64c0.5-2,0.7-4,1.1-5.7C334,250.1,334.7,255.6,334.6,261.1z"/>
	<g>
		<path class="st0" d="M292.7,295.2c-3.6,2.4-9.7,4.9-17.3,4.9c-9.4,0-17.8-3.6-23.6-10.4c-4.4-4.9-7.3-11.6-8.4-20h-7.2V264h6.6
			c0-0.6,0-1.2,0-1.7c0-1.9,0.1-3.6,0.2-5.2h-6.9v-5.8h7.7c1.4-8.2,4.9-14.9,9.5-19.7c5.9-6.2,13.5-9.7,23.1-9.7
			c6.9,0,12.2,2,15.5,3.7l-2.3,7.7c-2.9-1.7-7.8-3.3-13-3.3c-6.3,0-11.4,2.2-15.4,6.4c-3.5,3.4-5.8,8.6-7,14.8h32.5v5.8h-33.5
			c-0.1,1.5-0.2,3.3-0.2,4.9c0,0.7,0,1.3,0,2.1h33.8v5.7h-32.9c0.9,6.8,3.3,11.8,6.4,15.3c4.3,4.5,10.1,6.8,16.4,6.8
			c6.2,0,11.5-2.3,14.2-3.8L292.7,295.2z"/>
		<path class="st1" d="M291.4,293.8c-3.6,2.4-9.7,4.9-17.3,4.9c-9.4,0-17.8-3.6-23.6-10.4c-4.4-4.9-7.3-11.6-8.4-20h-7.2v-5.7h6.6
			c0-0.6,0-1.2,0-1.7c0-1.9,0.1-3.6,0.2-5.2h-6.9v-5.8h7.7c1.4-8.2,4.9-14.9,9.5-19.7c5.9-6.2,13.5-9.7,23.1-9.7
			c6.9,0,12.2,2,15.5,3.7l-2.3,7.7c-2.9-1.7-7.8-3.3-13-3.3c-6.3,0-11.4,2.2-15.4,6.4c-3.5,3.4-5.8,8.6-7,14.8h32.5v5.8h-33.5
			c-0.1,1.5-0.2,3.3-0.2,4.9c0,0.7,0,1.3,0,2.1h33.8v5.7h-32.9c0.9,6.8,3.3,11.8,6.4,15.3c4.3,4.5,10.1,6.8,16.4,6.8
			c6.2,0,11.5-2.3,14.2-3.8L291.4,293.8z"/>
	</g>
	<path class="st5" d="M316.1,214.8l-99.8,89.8c-24.1-28.2-20.7-70.5,7.5-94.6C251,186.7,291.5,188.9,316.1,214.8L316.1,214.8z"/>
	<g>
		<path class="st0" d="M424.6,280.5c-1.4,3.4-4.5,7.5-9.8,10c-6.5,3-13.7,2.4-20.6-1.8c-5.1-3-9.9-8.2-14.2-15.5l-4.9,2.3l-2.4-5.2
			l4.5-2.1c-0.2-0.5-0.5-1.1-0.7-1.6c-0.8-1.7-1.4-3.3-2.1-4.8l-4.7,2.2l-2.5-5.3l5.3-2.5c-2.5-7.8-3-15.1-1.8-20.9
			c1.5-7.5,5.2-13.1,11.7-16.1c4.7-2.2,9.2-2.1,12.2-1.6l1.7,7.7c-2.7-0.7-6.7-0.5-10.3,1.2c-4.3,2-6.9,5.7-7.8,10.7
			c-1,4.2-0.3,9.7,1.5,15.6l22.2-10.4l2.5,5.3l-23,10.7c0.6,1.4,1.2,3,1.9,4.5c0.3,0.6,0.5,1.2,0.9,1.9l23.1-10.8l2.4,5.2
			l-22.6,10.5c3.5,5.8,7.2,9.6,10.8,11.8c4.9,2.7,9.8,2.9,14.1,0.9c4.2-2,6.9-5.8,8.1-8L424.6,280.5z"/>
		<path class="st1" d="M423.1,279.7c-1.4,3.4-4.5,7.5-9.8,10c-6.5,3-13.7,2.4-20.6-1.8c-5.1-3-9.9-8.2-14.2-15.5l-4.9,2.3l-2.4-5.2
			l4.5-2.1c-0.2-0.5-0.5-1.1-0.7-1.6c-0.8-1.7-1.4-3.3-2.1-4.8l-4.7,2.2l-2.5-5.3l5.3-2.5c-2.5-7.8-3-15.1-1.8-20.9
			c1.5-7.5,5.2-13.1,11.7-16.1c4.7-2.2,9.2-2.1,12.2-1.6l1.7,7.7c-2.7-0.7-6.7-0.5-10.3,1.2c-4.3,2-6.9,5.7-7.8,10.7
			c-1,4.2-0.3,9.7,1.5,15.6l22.2-10.4l2.5,5.3l-23,10.7c0.6,1.4,1.2,3,1.9,4.5c0.3,0.6,0.5,1.2,0.9,1.9l23.1-10.8l2.4,5.2L385.6,269
			c3.5,5.8,7.2,9.6,10.8,11.8c4.9,2.7,9.8,2.9,14.1,0.9c4.2-2,6.9-5.8,8.1-8L423.1,279.7z"/>
	</g>
	<g>
		<path class="st0" d="M104.7,294.5c-3.2,2.4-8.6,4.9-15.4,4.9c-8.4,0-15.8-3.6-20.9-10.4c-3.9-4.9-6.5-11.6-7.4-20h-6.4v-5.7h5.9
			c0-0.6,0-1.2,0-1.7c0-1.9,0.1-3.6,0.2-5.2h-6.1v-5.8h6.8c1.2-8.2,4.3-14.9,8.5-19.7c5.3-6.2,12-9.7,20.4-9.7
			c6.1,0,10.8,2,13.7,3.7l-2.1,7.7c-2.6-1.7-6.9-3.3-11.5-3.3c-5.6,0-10.1,2.2-13.6,6.4c-3.1,3.4-5.2,8.6-6.2,14.8h28.8v5.8H69.6
			c-0.1,1.5-0.2,3.3-0.2,4.9c0,0.7,0,1.3,0,2.1h29.9v5.7H70.2c0.8,6.8,2.9,11.8,5.7,15.3c3.8,4.5,9,6.8,14.5,6.8
			c5.5,0,10.2-2.3,12.6-3.8L104.7,294.5z"/>
		<path class="st1" d="M103.5,293.1c-3.2,2.4-8.6,4.9-15.4,4.9c-8.4,0-15.8-3.6-20.9-10.4c-3.9-4.9-6.5-11.6-7.4-20h-6.4v-5.7h5.9
			c0-0.6,0-1.2,0-1.7c0-1.9,0.1-3.6,0.2-5.2h-6.1v-5.8h6.8c1.2-8.2,4.3-14.9,8.5-19.7c5.3-6.2,12-9.7,20.4-9.7
			c6.1,0,10.8,2,13.7,3.7l-2.1,7.7c-2.6-1.7-6.9-3.3-11.5-3.3c-5.6,0-10.1,2.2-13.6,6.4c-3.1,3.4-5.2,8.6-6.2,14.8h28.8v5.8H68.4
			c-0.1,1.5-0.2,3.3-0.2,4.9c0,0.7,0,1.3,0,2.1h29.9v5.7H68.9c0.8,6.8,2.9,11.8,5.7,15.3c3.8,4.5,9,6.8,14.5,6.8
			c5.5,0,10.2-2.3,12.6-3.8L103.5,293.1z"/>
	</g>
	<g>
		<path class="st0" d="M184.2,175.8c-3.8,0.8-9.4,0.6-15-2.3c-6.9-3.6-11.4-10-12.6-18.3c-1-6,0-13.1,3.1-21l-5.3-2.8l2.6-5.1
			l4.9,2.6c0.3-0.5,0.5-1,0.8-1.5c0.9-1.7,1.8-3.2,2.6-4.6l-5.1-2.6l2.7-5.2l5.7,3c4.8-6.7,10.5-11.3,16.1-13.8
			c7.2-3.2,14.4-3.4,21.4,0.3c5.1,2.6,8.1,6.5,9.7,9.3l-5.3,5.9c-1.3-2.7-4.2-5.9-8.1-7.9c-4.6-2.4-9.4-2.4-14.3-0.2
			c-4.1,1.6-8.3,5.4-12,10.4l23.9,12.5l-2.7,5.2l-24.7-12.9c-0.8,1.3-1.7,2.8-2.4,4.2c-0.3,0.6-0.6,1.1-1,1.9l24.8,13l-2.6,5.1
			l-24.2-12.7c-2.4,6.3-3,11.7-2.4,16c1.1,5.7,4.3,9.9,9,12.3c4.5,2.4,9.6,2.4,12.2,2.1L184.2,175.8z"/>
		<path class="st1" d="M183.8,174c-3.8,0.8-9.4,0.6-15-2.3c-6.9-3.6-11.4-10-12.6-18.3c-1-6,0-13.1,3.1-21l-5.3-2.8l2.6-5.1l4.9,2.6
			c0.3-0.5,0.5-1,0.8-1.5c0.9-1.7,1.8-3.2,2.6-4.6l-5.1-2.6l2.7-5.2l5.7,3c4.8-6.7,10.5-11.3,16.1-13.8c7.2-3.2,14.4-3.4,21.4,0.3
			c5.1,2.6,8.1,6.5,9.7,9.3l-5.3,5.9c-1.3-2.7-4.2-5.9-8.1-7.9c-4.6-2.4-9.4-2.4-14.3-0.2c-4.1,1.6-8.3,5.4-12,10.4l23.9,12.5
			l-2.7,5.2L172.4,125c-0.8,1.3-1.7,2.8-2.4,4.2c-0.3,0.6-0.6,1.1-1,1.9l24.8,13l-2.6,5.1l-24.2-12.7c-2.4,6.3-3,11.7-2.4,16
			c1.1,5.7,4.3,9.9,9,12.3c4.5,2.4,9.6,2.4,12.2,2.1L183.8,174z"/>
	</g>
</g>
<g id="freepik--Sparkles--inject-319" class="st0">
	<polygon class="st1" points="206.3,46.8 215.5,45.5 206.3,44.1 208.6,40.5 204.9,42.7 203.7,33.6 202.2,42.7 198.6,40.5 201,44.1 
		191.7,45.5 201,46.8 198.6,50.4 202.2,48.2 203.7,57.3 204.9,48.2 208.6,50.4 	"/>
	<polygon class="st6" points="206.3,46.8 215.5,45.5 206.3,44.1 208.6,40.5 204.9,42.7 203.7,33.6 202.2,42.7 198.6,40.5 201,44.1 
		191.7,45.5 201,46.8 198.6,50.4 202.2,48.2 203.7,57.3 204.9,48.2 208.6,50.4 	"/>
	<polygon class="st1" points="240.1,112.4 252.8,110.5 240.1,108.7 243.2,103.7 238.3,106.8 236.4,94.1 234.6,106.8 229.5,103.7 
		232.7,108.7 220,110.5 232.7,112.4 229.5,117.3 234.6,114.2 236.4,127 238.3,114.2 243.2,117.3 	"/>
	<polygon class="st6" points="240.1,112.4 252.8,110.5 240.1,108.7 243.2,103.7 238.3,106.8 236.4,94.1 234.6,106.8 229.5,103.7 
		232.7,108.7 220,110.5 232.7,112.4 229.5,117.3 234.6,114.2 236.4,127 238.3,114.2 243.2,117.3 	"/>
	<polygon class="st1" points="17.7,297 24.1,296 17.7,295.1 19.3,292.7 16.8,294.2 15.9,287.9 15,294.2 12.5,292.7 14,295.1 
		7.7,296 14,297 12.5,299.5 15,297.9 15.9,304.3 16.8,297.9 19.3,299.5 	"/>
	<polygon class="st6" points="17.7,297 24.1,296 17.7,295.1 19.3,292.7 16.8,294.2 15.9,287.9 15,294.2 12.5,292.7 14,295.1 
		7.7,296 14,297 12.5,299.5 15,297.9 15.9,304.3 16.8,297.9 19.3,299.5 	"/>
	<polygon class="st1" points="132.1,235.1 142.9,233.5 132.1,231.9 134.8,227.7 130.5,230.3 128.8,219.6 127.4,230.3 123,227.7 
		125.8,231.9 114.9,233.5 125.8,235.1 123,239.3 127.4,236.6 128.8,247.5 130.5,236.6 134.8,239.3 	"/>
	<polygon class="st6" points="132.1,235.1 142.9,233.5 132.1,231.9 134.8,227.7 130.5,230.3 128.8,219.6 127.4,230.3 123,227.7 
		125.8,231.9 114.9,233.5 125.8,235.1 123,239.3 127.4,236.6 128.8,247.5 130.5,236.6 134.8,239.3 	"/>
	<polygon class="st1" points="345.2,212.7 355.7,211.1 345.2,209.6 347.8,205.5 343.7,208.1 342.1,197.6 340.6,208.1 336.4,205.5 
		339,209.6 328.5,211.1 339,212.7 336.4,216.7 340.6,214.1 342.1,224.6 343.7,214.1 347.8,216.7 	"/>
	<polygon class="st6" points="345.2,212.7 355.7,211.1 345.2,209.6 347.8,205.5 343.7,208.1 342.1,197.6 340.6,208.1 336.4,205.5 
		339,209.6 328.5,211.1 339,212.7 336.4,216.7 340.6,214.1 342.1,224.6 343.7,214.1 347.8,216.7 	"/>
	<polygon class="st1" points="446.5,133.7 455.1,132.5 446.5,131.3 448.6,127.8 445.2,130 444,121.4 442.8,130 439.3,127.8 
		441.5,131.3 432.9,132.5 441.5,133.7 439.3,137.2 442.8,135 444,143.6 445.2,135 448.6,137.2 	"/>
	<polygon class="st6" points="446.5,133.7 455.1,132.5 446.5,131.3 448.6,127.8 445.2,130 444,121.4 442.8,130 439.3,127.8 
		441.5,131.3 432.9,132.5 441.5,133.7 439.3,137.2 442.8,135 444,143.6 445.2,135 448.6,137.2 	"/>
	<polygon class="st1" points="480.2,299.3 493,297.4 480.2,295.5 483.4,290.6 478.4,293.7 476.5,280.9 474.6,293.7 469.7,290.6 
		472.9,295.5 460,297.4 472.9,299.3 469.7,304.3 474.6,301.1 476.5,313.9 478.4,301.1 483.4,304.3 	"/>
	<polygon class="st6" points="480.2,299.3 493,297.4 480.2,295.5 483.4,290.6 478.4,293.7 476.5,280.9 474.6,293.7 469.7,290.6 
		472.9,295.5 460,297.4 472.9,299.3 469.7,304.3 474.6,301.1 476.5,313.9 478.4,301.1 483.4,304.3 	"/>
	<polygon class="st1" points="216.5,300.5 229.2,298.6 216.5,296.8 219.7,291.7 214.7,294.9 212.8,282.2 211,294.9 206,291.7 
		209.1,296.8 196.4,298.6 209.1,300.5 206,305.4 211,302.3 212.8,315 214.7,302.3 219.7,305.4 	"/>
	<polygon class="st6" points="216.5,300.5 229.2,298.6 216.5,296.8 219.7,291.7 214.7,294.9 212.8,282.2 211,294.9 206,291.7 
		209.1,296.8 196.4,298.6 209.1,300.5 206,305.4 211,302.3 212.8,315 214.7,302.3 219.7,305.4 	"/>
</g>
</svg>
