<?xml version="1.0" encoding="utf-8"?>
<!-- Generator: Adobe Illustrator 24.0.1, SVG Export Plug-In . SVG Version: 6.00 Build 0)  -->
<svg version="1.1" id="Livello_1" xmlns="http://www.w3.org/2000/svg" xmlns:xlink="http://www.w3.org/1999/xlink" x="0px" y="0px"
	 viewBox="0 0 595.9 595.3" style="enable-background:new 0 0 595.9 595.3;" xml:space="preserve">
<style type="text/css">
	.st0{fill:#EBEBEB;}
	.st1{fill:#F8C2C0;}
	.st2{fill:#263339;}
	.st3{fill:#2552A0;}
	.st4{fill:#FFFFFF;}
	.st5{fill:#FFFFFF;enable-background:new    ;}
	.st6{fill:#F299BA;}
	.st7{fill:#F5DC71;}
	.st8{fill:#C8AE3A;}
</style>
<g id="freepik--Character--inject-2_1_">
	<path class="st0" d="M144.8,415.9c-55.4-89.5-27.6-207,61.9-262.3c89.5-55.4,207-27.6,262.3,61.9c55.4,89.5,27.6,207-61.9,262.3
		c-61.4,37.9-139,37.9-200.4,0C181.5,462.2,160.3,441,144.8,415.9z"/>
	<path class="st1" d="M304.9,233.9c-45.3,4.6-117.6,16.1-120.8,11.3c-4.4-6.6-13.2-77.9-21.3-87.9c-8.2-10-90.1-3.6-91.3,8.5
		c-2.9,27.9,33.8,145.4,56.8,159.9s115.5-12.5,186.2-54.1C351.9,249.7,333.8,230.9,304.9,233.9z"/>
	<path class="st1" d="M167.2,178.2c0,0-5.4-78.6-5.4-82.7c0.1-18,15.3-49.5,3.6-56.5c-9.6-5.8-15.9,12-15.9,12s5.9-21-6.6-22.8
		s-20.2,17.3-20.2,17.3s2.3-21.1-10.3-22c-12.6-0.9-18.7,18.1-18.7,18.1s1-13.8-11.5-13.4S62.7,74.9,61.3,91.1
		c-1.4,16.2,8.4,78.5,11.2,90.6L167.2,178.2z"/>
	<path class="st2" d="M148.8,48.9c-14.9,21.5-13.8,36.8-8.7,61.2c0.1,0.5,0.8,0.3,0.8-0.2c-3-25.1-2.1-37.2,9-60.4
		C150.5,48.4,149.6,47.9,148.8,48.9z"/>
	<path class="st2" d="M122.2,43.8c-12.7,23.9-11.9,39.1-8.6,65.1c0,0.2,0.2,0.3,0.3,0.3c0.2,0,0.3-0.2,0.3-0.3
		c-1-26.6,0-39.6,9.4-64.8C124.1,42.9,122.9,42.7,122.2,43.8z"/>
	<path class="st2" d="M93,43.1c-9.9,21.7-11.9,39.6-4.8,65.3c0.1,0.3,0.3,0.4,0.6,0.4c0.3-0.1,0.4-0.3,0.4-0.6
		c-4.5-25.6-2.7-39.8,4.7-64.9C94.3,41.6,93.7,41.6,93,43.1z"/>
	<path class="st1" d="M116.5,148.2c11.3-22.2,48.2-17.7,48.2-17.7c2.1-16.6,10.7-49.3,26.7-47.4c12.3,1.5,8.8,58.9,2.9,72.2
		c-5.8,13.3-24.9,39.3-24.9,39.3S105.2,170.4,116.5,148.2z"/>
	<path class="st2" d="M186.7,83.9c-18.1,6.1-20.5,28.1-23.6,44.5c-17-2-38.6,3.1-47.6,18.5c-0.1,0.2,0,0.3,0.1,0.5
		c0.2,0.1,0.4,0.1,0.5-0.1c10.1-13.2,32.3-16.5,48-15.7c0.1,0.1,0.3,0.1,0.5,0.2c0.8,0.1,1.6-0.4,1.7-1.2
		C169.6,114.6,171.1,92.7,186.7,83.9C186.9,83.8,186.8,83.7,186.7,83.9z"/>
	<path class="st3" d="M307.8,280.7c56.6-33.8,41.7-51.2-3.4-52s-118.6,11.4-118.6,11.4l19.3,94.2
		C240.4,318.6,274.7,300.7,307.8,280.7z"/>
	<path class="st4" d="M203.7,241.4c-0.2,0-0.3,0.2-0.3,0.3c2.5,13.3,5.3,26.6,8.5,39.8c1.7,6.7,3.1,13.6,4.9,20s3.8,12.8,5.5,19.2
		c0.1,0.5,0.8,0.3,0.8-0.2c-1.5-6.7-2.5-13.7-4-20.3c-1.5-6.5-3.1-13-4.6-19.5c-3.1-13.2-6.6-26.2-10.4-39.2
		C204,241.5,203.9,241.4,203.7,241.4z"/>
	<path class="st3" d="M222.3,482.5c0.2-0.3,0.2-0.6,0.2-0.9c1-5.6,2.2-11.7,3.6-18.4c0.3-0.4,0.3-0.9,0.3-1.3
		c1.2-5.7,2.4-11.7,3.8-18c0.1-0.6,0.3-1.2,0.4-1.9c1.3-6.2,2.8-12.7,4.3-19.3c1.3-5.7,2.7-11.6,4.1-17.5c0.1-0.5,0.3-1.2,0.3-1.4
		c0-0.2,0-0.3,0-0.5c1.4-5.7,2.8-11.6,4.3-17.4l0.5-1.9c1.5-5.9,3-11.8,4.7-17.8c0.2-0.5,0.4-1,0.4-1.5c1.6-5.8,3.2-11.6,4.9-17.5
		c0.1-0.3,0.2-0.6,0.3-0.9c1.8-6.2,3.6-12.3,5.5-18.4c0.2-0.7,0.4-1.2,0.6-1.9c1.8-5.9,3.7-11.7,5.6-17.5l0,0
		c2.2-6.7,4.5-13,6.8-19.3c0.1-0.3,0.2-0.6,0.3-0.9c0.1-0.3,0.3-0.6,0.3-1c2.5-6.7,5-13.1,7.6-19.2l0,0c2.9-6.7,5.7-13.3,8.9-19.3
		c3.2-6.4,6.7-12.5,10.5-18.5l0.6-0.9c0.2-0.3,0.4-0.6,0.6-0.8c4.7-6.8,41.3-12,60.5,0.8l0,0c0.1,0.1,0.2,0.1,0.3,0.2
		c0.6,0.4,1.2,0.8,1.7,1.3l0.5,0.4c1.1,1,2.2,2,3.1,3.1c4,4.6,8,9.5,11.7,14.5l0.4,0.5c0.3,0.4,0.7,0.9,1,1.3
		c4.2,5.7,8.3,11.5,12.2,17.5c0.4,0.6,0.8,1.3,1.2,1.9c3.7,5.7,7.2,11.5,10.5,17.4l0.6,1.1c0.2,0.3,0.3,0.5,0.4,0.8
		c3.2,5.8,6.3,11.6,9.2,17.5l0,0c0.3,0.5,0.6,1.1,0.8,1.7l0,0c2.9,5.8,5.6,11.6,8.2,17.5c0.3,0.6,0.6,1.2,0.8,1.9
		c2.5,5.8,5,11.6,7.3,17.5l0,0c0.3,0.6,0.5,1.2,0.7,1.8l0,0c2.3,5.9,4.4,11.7,6.5,17.5c0.2,0.6,0.5,1.3,0.7,1.8
		c2.1,5.9,4,11.8,5.9,17.5c0.2,0.6,0.4,1.3,0.6,1.9c1.9,5.9,3.6,11.7,5.3,17.4l0,0c0.2,0.7,0.4,1.3,0.5,1.9c1.6,6,3.2,11.8,4.7,17.5
		c0.2,0.6,0.3,1.2,0.5,1.8c0.5,2.1,1,4.2,1.5,6.3c-2.9,3.9-6,7.6-9.2,11.2l-1.7,1.9c-5.7,6.2-11.7,12.1-18.2,17.5
		c-0.8,0.7-1.5,1.3-2.3,1.9c-6.4,5.3-13.2,10.1-20.2,14.4c-1.7,1.1-3.4,2.2-5.1,3.1c-1,0.7-2,1.3-3.1,1.8
		c-13.8,7.7-28.5,13.5-43.8,17.5c-2.5,0.7-5.1,1.3-7.7,1.9c-26.5,5.8-54,5.8-80.5,0c-1.7-0.4-3.5-0.8-5.1-1.2l-2.7-0.7
		c-13.1-3.3-25.8-8.1-37.8-14.2L222.3,482.5z"/>
	<path class="st5" d="M259.3,500l2.7,0.7c1.7,0.4,3.5,0.8,5.1,1.2h80.5c2.6-0.6,5.1-1.2,7.7-1.9H259.3z M222.1,482.5h177.2
		c1-0.6,2-1.2,3.1-1.8H222.3c-0.1,0.3-0.2,0.6-0.2,0.9C222.1,482,222.1,482.2,222.1,482.5z M226,461.9c-0.1,0.4-0.2,0.9-0.3,1.3
		h201.9c0.8-0.6,1.5-1.2,2.3-1.9H226c0,0.2-0.1,0.4-0.2,0.5H226z M230.2,442c-0.2,0.8-0.3,1.3-0.5,1.9h218.4l1.7-1.9H230.1H230.2z
		 M461.6,442c0.2,0.3,0.2,0.6,0.2,0.9C461.7,442.7,461.6,442.3,461.6,442L461.6,442z M234.1,424.5h223.4c-0.2-0.6-0.4-1.2-0.4-1.8
		H234.6L234.1,424.5z M239,403.8c-0.1,0.5-0.2,0.9-0.3,1.4h213.8c-0.2-0.6-0.4-1.2-0.5-1.9H239.1C239.1,403.6,239.1,403.7,239,403.8
		L239,403.8z M243.4,385.9h203.1c-0.2-0.6-0.4-1.3-0.6-1.9H244L243.4,385.9z M248.6,366.2c0,0.1,0,0.2,0,0.3h191.5
		c-0.2-0.6-0.5-1.2-0.7-1.8H249.1C249,365.2,248.9,365.7,248.6,366.2L248.6,366.2z M254.2,346.3c0,0.3-0.1,0.6-0.2,0.8h178.9
		c-0.3-0.6-0.5-1.2-0.7-1.8l0,0H254.5L254.2,346.3L254.2,346.3z M260.3,326c-0.2,0.7-0.5,1.2-0.5,1.9h165.2
		c-0.3-0.7-0.5-1.3-0.8-1.9L260.3,326L260.3,326z M266.5,306.7c-0.2,0.6-0.4,1.1-0.7,1.7h150.1l0,0c-0.3-0.6-0.5-1.2-0.8-1.7H266.6
		L266.5,306.7z M273,288.3c-0.1,0.3-0.3,0.6-0.3,0.9h133.1c-0.1-0.3-0.3-0.6-0.4-0.8l-0.6-1.1H273.5c-0.1,0.3-0.3,0.7-0.3,1
		L273,288.3z M280.9,268.1c-0.2,0.6-0.5,1.2-0.7,1.9h114c-0.3-0.6-0.8-1.3-1.1-1.9h-112l0,0L280.9,268.1z M289.8,248.7
		c-0.3,0.6-0.6,1.2-0.9,1.9h91.9c-0.3-0.5-0.6-0.9-1-1.3l-0.4-0.5H290L289.8,248.7z M300.4,230.2c-0.2,0.3-0.4,0.6-0.6,0.9h64.9
		l-0.5-0.4c-0.6-0.4-1.1-0.8-1.7-1.3c-0.1-0.1-0.2-0.2-0.3-0.2h-61l-0.6,0.9L300.4,230.2z"/>
	<path class="st1" d="M291.4,239.7c0-0.2,0-0.4,0-0.7c0.2-1.4,0.3-2.7,0.2-4.1c-1.1-12.9-3.8-25.6-8.1-37.9l61.6-18.5
		c0.5,10,1.9,20.8,3.3,30.5c2.4,15.9,5,28.9,4.4,30.2c-9,18.6-32.9,42.3-47.7,39.7C290.9,276.2,290.5,247.5,291.4,239.7z"/>
	<path class="st2" d="M291.5,239c0.2-1.4,0.3-2.7,0.2-4.1c-1.1-12.9-3.8-25.7-8-37.9l61.6-18.5c0.3,5.9,0.9,12.1,1.7,18.3
		c-6.6,17.5-18.2,36.4-55.6,44.3c0-0.5,0-1,0-1.4C291.4,239.5,291.5,239.2,291.5,239z"/>
	<path class="st1" d="M277.9,80.4c-17.5,13-33.9,96.3-16.8,122.9c17.7,27.4,55.1,25.2,77.9,4.5c15.7-14.2,27.2-78.3,20.3-100.5
		C349.2,74.5,303.7,61.2,277.9,80.4z"/>
	<path class="st2" d="M309.6,159.9c0,0.1,0-0.2,0-0.2c-3.7-2.1-3.4-7.2-2.5-11.5c0-0.2-0.3-0.4-0.3-0.4
		C305.2,151.5,304.7,158.2,309.6,159.9z"/>
	<path class="st2" d="M310,157.8c6.5,0.6,8.4-13.4,1.3-14.1C305.4,143.2,303.5,157.2,310,157.8z"/>
	<path class="st2" d="M273.6,154.3c0,0,0-0.2,0-0.2c4.1-0.8,5.4-5.9,5.8-10.2c0-0.3,0.4-0.5,0.4-0.3
		C280.1,147.7,278.6,154.3,273.6,154.3z"/>
	<path class="st2" d="M273.6,152.3c-6.5-1.3-4-15.3,2.9-13.8C282.3,139.8,280.1,153.6,273.6,152.3z"/>
	<path class="st2" d="M320.2,138c1.6-0.7,2.3-2.5,1.6-4.1c-1.1-2.5-3.1-4.4-5.6-5.5c-2.3-1.4-5.2-1.5-7.5-0.2
		c-1,0.9-1.4,2.3-0.9,3.5c1.1,1.7,2.8,3,4.8,3.7c1.7,1,3.4,1.9,5.2,2.6C318.5,138.4,319.4,138.4,320.2,138z"/>
	<path class="st2" d="M269.5,129.7c-1.2-1.3-1.1-3.2,0.1-4.4c1.9-1.9,4.5-3,7.2-3.1c2.6-0.6,5.4,0.3,7.1,2.4
		c0.7,1.2,0.6,2.6-0.3,3.6c-1.6,1.3-3.7,1.9-5.7,1.9c-1.9,0.3-3.8,0.6-5.8,0.7C271.1,130.8,270.1,130.4,269.5,129.7z"/>
	<path class="st2" d="M293.4,188.2c1.4,0.9,2.9,1.5,4.6,1.7c1.6,0.1,2.8-1.2,4-2 M302,187.9c0.2-0.2,0.5,0,0.4,0.3
		c-0.5,1.8-2.1,3.1-3.9,3.4c-2.2,0-4.2-1.2-5.2-3.1L302,187.9z"/>
	<path class="st2" d="M298.9,173.5c-6,3-10.4,4.2-15.9,2.7c0-0.1,0-0.1,0-0.2c0-1.5,2.6-11.1,2.1-11.2c-2.5,0.1-4.9,0.5-7.3,1.2
		c2.4-13.9,6.9-27.4,9.1-41.3c0-0.2-0.1-0.4-0.3-0.5c-0.2-0.1-0.4,0-0.5,0.3c-5.8,13.6-8.9,29.6-11.7,43.9c-0.3,1.7,6.3-0.3,7.6-0.7
		c0,0-1,5-1.4,8.4v0.4l0,0c0,0.1,0,0.3,0,0.4l0,0c0,0.5,0.3,0.9,0.8,1.1l0.9,0.3c0.3,0.1,0.7,0.2,1,0.3c1.8,0.4,3.6,0.6,5.4,0.5
		c4.2-0.2,8-2.1,10.7-5.3C299.7,173.4,299.4,173.1,298.9,173.5z"/>
	<path class="st2" d="M298.7,173.9c0.5,1.3,0.8,2.6,1,4c0.3,2.6-0.2,5.5-3.5,6c-1.5,0.2-3-0.1-4.4-0.8c-2.4-1.4-4.4-3.4-5.9-5.8
		C290.4,177.5,294.9,176.4,298.7,173.9z"/>
	<path class="st6" d="M299.7,177.9c0.3,2.6-0.2,5.5-3.5,6c-1.5,0.2-3-0.1-4.4-0.8C292.9,179.8,296.2,177.6,299.7,177.9z"/>
	<path class="st7" d="M359.3,107.5c-2.5-7.9-7.3-14.8-13.7-20.1c-0.9,8.1-3.3,35.3-0.3,41.2s9.8,20.2,13.8,22.6
		C361.9,133.8,362.3,116.7,359.3,107.5z"/>
	<path class="st8" d="M290.3,103.5c3.8,6.8,11,11,18.8,11c7.9-0.3,14.9-5,18.3-12.1c0.1,0-0.3-0.2-0.3,0
		c-3.8,6.4-10.6,10.4-18.1,10.6c-7.3,0.2-14.2-3.5-18.2-9.6C290.7,103.1,290.3,103.3,290.3,103.5z"/>
	<path class="st8" d="M293.3,63.9c-0.3,0.4,0.6,0.8,0.9,0.4c3.2-3.9,7.6-6.6,12.6-7.6c10.3-2.2,21.1,0.6,29,7.5
		c7.4,6,10.9,15.5,9.1,24.9c-0.1,0,0.4,0.2,0.4,0c1.7-5.1,1.6-10.6-0.3-15.7c-3.4-8.8-13.6-17-25.7-18.8
		C308.4,52.8,297.7,56.7,293.3,63.9z"/>
	<path class="st8" d="M244.3,90.9c4.4,12.7,17.5,20.2,30.7,17.4c0.4-0.1,0.3-0.4,0-0.4c-7.1,1.3-14.4-0.5-20.2-4.8
		c-10.1-7.9-12.9-22.1-6.5-33.2c3.2-5.2,8.1-9.2,13.8-11.2c7-2.5,14.2-1.3,21.2,0.3c0,0,0.1-0.1,0.1-0.1c0-0.1,0-0.2-0.1-0.2
		c-8.3-1.9-16.6-3.6-24.6,0c-5.8,2.6-10.5,7.2-13.3,12.9C242.7,77.7,242.3,84.6,244.3,90.9z"/>
	<path class="st7" d="M346.4,110c-10.7,5.6-20.4-5.5-20.4-5.5c-15.4,14.2-31.9,1.2-33.6,0.8c0,0-19.5,9.5-32,1.3
		C242.7,95,244,66.1,264.1,57.7c14.4-6,27.8,4,27.8,4s19.1-6.6,33.9-1.2c8.3,2.7,15.2,8.7,19.1,16.5c0,0,18.2,1.3,22.8,9.1
		c8,13.8-6.3,34.1-6.3,34.1C354.8,120.2,348.8,116.2,346.4,110z"/>
	<path class="st1" d="M341.9,177.1c0.1,0.2,0.1,0.3,0.2,0.5c2.5,5.7,9.1,8.3,14.7,5.8c11.1-3.9,22.5-33.8,13.2-39.1
		s-24.1,15.2-24.1,15.2L341.9,177.1z"/>
	<path class="st2" d="M348,177.1c0,0.1,0,0.1,0,0.2c-0.3,0.8,1,1.2,1.3,0.5c1-2.2,2.3-4.2,3.7-6.1c1.8-2.3,4.9-3.2,7.6-2.3
		c0.1,0,0.1,0,0.2-0.1c0.1-0.1,0.1-0.2,0-0.4c-0.2-0.2-0.5-0.4-0.8-0.6c-3-1.8-6.8-0.9-8.6,2.1c3-7.4,7.2-14.3,14.9-17.5l0,0
		c0.1,0,0.2-0.1,0.2-0.2s-0.1-0.2-0.2-0.2C355.9,153.6,348,167.3,348,177.1z"/>
	<path class="st1" d="M363,272.5c26.5,59.5,61.5,133.2,61.5,137.2c-0.1,5.3,93.3,92.8,108.7,61.2c13.9-28.4-72.9-162-139.9-224.4
		C376.7,231.1,336.5,213,363,272.5z"/>
	<path class="st1" d="M429.1,408.8c-5.3,0.6-75.9,17.3-93.8,22.6c-14.2,4.2,34.3,93,47.8,89.9c97.4-23.5,136.6-29.1,150.2-50.4
		C542.4,456.4,474,404,429.1,408.8z"/>
	<path class="st1" d="M418.6,508.9c-15.3,10.9-38.1,23.4-78.9,14.8c0,0-29.9,53.5-46.5,46.9c-15-5.9,16.5-53.8,16.5-53.8
		s-28.7,59.7-43.5,54.6c-19.6-6.8,17.5-62.3,17.5-62.3s-27.8,67.5-45.4,58.2c-17.5-9.3,19.7-62.5,19.7-62.5s-27.3,56.6-39.9,46.5
		c-14.1-11.1,15.3-65,32.4-82.5c8.2-8.3,28.9-27,56.8-35.3c20.8-6.2,60.4-5.7,60.4-5.7S422.3,506.2,418.6,508.9z"/>
	<path class="st2" d="M269.9,485.9c-4,6.5-7.7,13.1-11.8,19.6c-4,6.5-18.2,29.9-23.9,46.7c2.5-9.6,6.2-19,10.8-27.8
		c3.5-6.8,7.4-13.3,11.3-19.9c3.9-6.6,8.8-12.8,13.3-18.8C269.8,485.5,270.1,485.6,269.9,485.9z"/>
	<path class="st2" d="M293.5,500c-5.3,8.1-10,16.5-15,24.9c-5,8.4-10.2,15.7-15.1,24.1c-0.5,0.6-0.9,0.7-0.5,0
		c4.5-8.6,8.7-16.7,13.9-25.1s11-16,16.5-24.1C293.4,499.7,293.6,499.8,293.5,500z"/>
	<path class="st2" d="M316.2,508.7c-9.4,14.9-15,25.1-22.2,38.3c-0.4,0.6-1,0.7-0.7,0c6.1-13.6,13.7-26.6,22.5-38.7
		C316,508.1,316.2,508.4,316.2,508.7z"/>
	<path class="st2" d="M484.5,422.7c-8.5-4.6-38.1-14.6-59.6-13.1c-0.3,0-0.3-0.4,0-0.4c20.8-3.1,42,1.6,59.6,13.1
		C484.7,422.5,484.6,422.8,484.5,422.7z"/>
	<path class="st3" d="M406.7,253.2c-49.8-43.4-61.6-23.7-48.3,19.4c13.3,43.1,47.8,109.2,47.8,109.2l83.4-47.7
		C463.6,305.5,435.9,278.5,406.7,253.2z"/>
	<path class="st4" d="M402.1,364.7c11.9-6.5,23.6-13.4,35.1-20.5c5.8-3.6,11.9-7.3,17.5-10.9c5.6-3.6,11-7.6,16.5-11.2
		c0.4-0.3,0-0.9-0.4-0.6c-5.9,3.5-12.3,6.7-18,10.1c-5.7,3.4-11.4,7-17.1,10.5c-11.5,7-22.8,14.3-34,22
		C401.4,364.3,401.7,364.7,402.1,364.7z"/>
	<path class="st2" d="M406.2,382.1l-0.3,0.2l-0.2-0.3c-3.1-5.6-6.4-11.2-9.4-17c-3-5.7-6-11.5-8.8-17.3c-2.8-5.9-5.6-11.7-8.2-17.7
		c-2.6-5.9-5.2-11.9-7.4-18c3.5,5.5,6.6,11.2,9.8,16.9c3.2,5.7,6.1,11.5,9,17.3c2.9,5.8,5.8,11.6,8.4,17.5c2.6,6,5.2,11.9,7.6,18
		l-0.5-0.2c1.2-0.6,2.4-1.1,3.7-1.7C408.6,380.5,407.5,381.3,406.2,382.1z"/>
	<path class="st2" d="M378,329.6c2.4,2.3,4.5,4.9,6.3,7.8c-5.7-3.4-10.5-8.1-14-13.8C373,325.2,375.6,327.2,378,329.6z"/>
</g>
</svg>
