<?xml version="1.0" encoding="utf-8"?>
<!-- Generator: Adobe Illustrator 24.0.1, SVG Export Plug-In . SVG Version: 6.00 Build 0)  -->
<svg version="1.1" id="Livello_1" xmlns="http://www.w3.org/2000/svg" xmlns:xlink="http://www.w3.org/1999/xlink" x="0px" y="0px"
	 viewBox="0 0 595.9 595.3" style="enable-background:new 0 0 595.9 595.3;" xml:space="preserve">
<style type="text/css">
	.st0{fill:#EBEBEB;}
	.st1{fill:#DBDBDB;}
	.st2{fill:#C8C7C7;}
	.st3{fill:#23333A;}
	.st4{fill:#415B66;}
	.st5{fill:#F7BDBF;}
	.st6{fill:#2552A0;}
	.st7{fill:#FFFFFF;}
	.st8{fill:#F18FB6;}
	.st9{fill:#F7DE72;}
	.st10{fill:#CAB038;}
	.st11{fill:#F18A00;}
	.st12{opacity:0.1;fill:#020203;enable-background:new    ;}
	.st13{opacity:0.1;}
	.st14{fill:#020203;}
	.st15{opacity:0.1;fill:#E57A06;enable-background:new    ;}
	.st16{opacity:0.3;fill:#020203;enable-background:new    ;}
</style>
<g>
	<g id="freepik--background-complete--inject-2">
		<path class="st0" d="M117.3,130.9c-64.1,0-64.2,91.2,0,91.2S181.5,130.9,117.3,130.9z"/>
		<path class="st1" d="M156.2,185c-3.4,15.7-16.4,29.3-39,29.3c-53.3,0-53.2-75.7,0-75.7c0.3,0,0.7,0,1,0
			c-50.1,0.9-49.8,72.6,1,72.6C140,211.2,152.3,199.3,156.2,185z"/>
		<path class="st1" d="M117.6,148.6c0.9,0,1.6,0.7,1.7,1.5v2.5c4.5,0.3,8.7,1.8,12.4,4.4c0.6,0.4,1,0.8,1,1.5
			c-0.1,0.9-0.9,1.6-1.8,1.6c-0.5,0-0.9-0.1-1.2-0.4c-3-2.3-6.6-3.7-10.4-4.1v17.8c10.5,2,15,5.6,15,11.9c0,6.7-6.2,11.5-14.8,11.7
			v4.9c-0.1,0.9-0.9,1.6-1.8,1.5c-0.8-0.1-1.5-0.7-1.5-1.5v-4.9c-5.7-0.4-11.2-2.5-15.6-6.2c-0.5-0.3-0.8-0.8-0.8-1.3
			c0.1-0.9,0.8-1.6,1.7-1.6c0.5,0,0.9,0.2,1.2,0.4c3.8,3.3,8.5,5.4,13.5,5.8V176c-10.4-2.1-14.7-5.6-14.7-11.9s6.1-11.3,14.6-11.5
			v-2.5C116.1,149.2,116.8,148.6,117.6,148.6z M116.1,172.7v-17.3c-6.7,0.1-11.1,3.8-11.1,8.4C104.9,168.2,107.2,170.8,116.1,172.7z
			 M119.2,176.6v17.5c6.9-0.1,11.4-3.8,11.4-8.7C130.6,181.1,128.2,178.5,119.2,176.6z"/>
		<path class="st1" d="M479.8,403.6c-57.7,10.4-42.5,95.9,15.3,85.5S537.6,393.2,479.8,403.6z"/>
		<path class="st0" d="M485.2,402.6c-55,9.9-39.8,95.4,15.3,85.5S540.3,392.7,485.2,402.6z"/>
		<path class="st1" d="M527.8,447.4c-0.3,15.2-9.2,30-28.5,33.5c-45.8,8.2-58.4-62.8-12.7-71c0.3-0.1,0.6-0.1,0.9-0.1
			c-42.8,8.6-30.5,75.7,13.1,67.9C518.2,474.5,526.8,461.3,527.8,447.4z"/>
		<path class="st1" d="M496.2,419.2c0.8,0.1,1.3,0.8,1.2,1.6l-0.3,2.4c3.9,0.8,7.4,2.7,10.2,5.5c0.5,0.3,0.7,0.9,0.7,1.5
			c-0.1,0.8-0.9,1.4-1.7,1.3c-0.4,0-0.8-0.2-1-0.5c-2.3-2.5-5.3-4.2-8.6-4.9l-2,16.8c8.9,3,12.4,6.9,11.7,12.8
			c-0.7,6.4-6.6,10.2-14.2,9.6l-0.6,4.7c-0.1,0.8-0.8,1.4-1.6,1.3s-1.4-0.8-1.3-1.6l0,0l0.6-4.8c-5-1-9.5-3.6-12.8-7.4
			c-0.6-0.6-0.7-1.5-0.1-2.1c0.3-0.4,0.8-0.6,1.3-0.5c0.4,0,0.8,0.2,1,0.5c2.8,3.5,6.7,5.9,11.1,6.8l2.1-17.1
			c-8.8-3-12.1-6.8-11.4-12.8s6.5-10.1,13.9-9.4l0.3-2.3C494.7,419.7,495.4,419.1,496.2,419.2z M492.2,441.8l1.9-16.4
			c-5.8-0.6-10.1,2.5-10.6,6.8C483,436.3,484.6,439.1,492.2,441.8L492.2,441.8z M494.4,445.8l-1.9,16.6c6,0.6,10.3-2.5,10.9-7
			C503.8,451.2,502,448.5,494.4,445.8L494.4,445.8z"/>
		<path class="st0" d="M496.5,374.7l16.5-0.3l8.1-0.1c2.7-0.1,5.4,0,8.1-0.1l-0.5,0.6l-0.1-13.8l0.6,0.6l-16.4-0.1
			c-5.5,0-10.9-0.1-16.4-0.2l0.3-0.3c0,2.3-0.1,4.5-0.2,6.9L496.5,374.7z M496.5,374.7l-0.2-6.9c0-2.3-0.1-4.6-0.2-7v-0.3h0.3
			c5.5-0.1,10.9-0.2,16.4-0.2l16.4-0.1h0.6v0.6v13.8v0.6h-0.6c-2.8,0-5.5,0-8.3-0.1l-8.2-0.1L496.5,374.7z"/>
		<path class="st0" d="M514.8,392.2l16.5-0.3l8.1-0.1c2.7-0.1,5.4,0,8.1-0.1l-0.5,0.6l-0.1-13.8l0.6,0.6l-16.4-0.1
			c-5.5,0-10.9-0.1-16.4-0.2l0.3-0.3c0,2.3-0.1,4.5-0.2,6.9L514.8,392.2z M514.8,392.2l-0.2-6.9c0-2.3-0.1-4.6-0.2-7V378h0.3
			c5.5-0.1,10.9-0.2,16.4-0.2l16.4-0.1h0.6v0.6l-0.1,13.8v0.6h-0.6c-2.8,0-5.5,0-8.3-0.1l-8.2-0.1L514.8,392.2z"/>
		<path class="st0" d="M478.2,392.2l16.5-0.3l8.1-0.1c2.7-0.1,5.4,0,8.1-0.1l-0.5,0.6l0-13.8l0.6,0.6l-16.4-0.1
			c-5.5,0-10.9-0.1-16.4-0.2l0.3-0.3c0,2.3-0.1,4.5-0.2,6.9L478.2,392.2z M478.2,392.2l-0.2-6.9c-0.1-2.3-0.1-4.6-0.2-7V378h0.3
			c5.5-0.1,10.9-0.2,16.4-0.2l16.4-0.1h0.6v0.6l0,13.8v0.6h-0.5c-2.8,0-5.5,0-8.3-0.1l-8.2-0.1L478.2,392.2z"/>
		<path class="st0" d="M55.9,392.2l16.5-0.3l8.1-0.1c2.7-0.1,5.4,0,8.1-0.1l-0.6,0.6l-0.1-13.8l0.6,0.6l-16.3-0.1
			c-5.5,0-10.9-0.1-16.4-0.2l0.3-0.3c0,2.3-0.1,4.5-0.2,6.9L55.9,392.2z M55.9,392.2l-0.2-6.9c0-2.3-0.1-4.6-0.2-7V378h0.3
			c5.5-0.1,10.9-0.2,16.4-0.2l16.4-0.1h0.6v0.6l-0.1,13.8v0.6h-0.5c-2.8,0-5.5,0-8.3-0.1l-8.2-0.1L55.9,392.2z"/>
		<path class="st0" d="M55.9,81.3l16.5-0.3l8.1-0.1c2.7,0,5.4,0,8.1,0l-0.6,0.6l-0.1-13.8l0.6,0.6l-16.3-0.1
			c-5.5,0-10.9-0.1-16.4-0.2l0.3-0.3c0,2.3-0.1,4.5-0.2,6.8L55.9,81.3z M55.9,81.3l-0.2-6.9c0-2.3-0.1-4.7-0.2-7v-0.3h0.3
			c5.5,0,10.9-0.2,16.4-0.2l16.4-0.1h0.6v0.6l-0.1,13.8v0.5h-0.5c-2.8,0-5.5,0-8.3-0.1l-8.2-0.2L55.9,81.3z"/>
		<path class="st0" d="M37.7,98.7l16.5-0.3l8.1-0.1c2.7,0,5.4,0,8.1,0l-0.6,0.6V84.9l0.6,0.6L54,85.4c-5.5,0-10.9-0.1-16.3-0.1
			l0.3-0.3c0,2.3-0.1,4.5-0.2,6.8L37.7,98.7z M37.7,98.7l-0.2-6.9c0-2.3-0.1-4.7-0.2-7v-0.3h0.3c5.5,0,10.9-0.2,16.4-0.2l16.4-0.1
			h0.6v0.6L71,98.7v0.5h-0.5c-2.8,0-5.5,0-8.3,0l-8.2-0.1L37.7,98.7z"/>
		<path class="st0" d="M514.8,81.3l16.5-0.3l8.1-0.1c2.7,0,5.4,0,8.1-0.1l-0.5,0.6L547,67.4l0.6,0.6l-16.4-0.1
			c-5.5,0-10.9-0.1-16.4-0.2l0.3-0.3c0,2.3-0.1,4.5-0.2,6.8L514.8,81.3z M514.8,81.3l-0.2-6.9c0-2.3-0.1-4.6-0.2-7v-0.3h0.3
			c5.5-0.1,10.9-0.2,16.4-0.2l16.3-0.1h0.6v0.6l-0.1,13.8v0.6h-0.6c-2.8,0-5.5,0-8.3,0l-8.2-0.1L514.8,81.3z"/>
		<path class="st0" d="M337.4,174.1l-16.5,0.3l-8.1,0.1c-2.7,0-5.4,0-8.1,0.1l0.6-0.6l0.1,13.8l-0.6-0.6l16.4,0.1
			c5.5,0,10.9,0.1,16.4,0.2l-0.3,0.3c0-2.3,0.1-4.5,0.2-6.8L337.4,174.1z M337.4,174.1l0.2,6.9c0,2.3,0.1,4.6,0.2,7v0.3h-0.3
			c-5.5,0-10.9,0.2-16.4,0.2l-16.4,0.1H304V188l0.1-13.8v-0.6h0.5c2.8,0,5.5,0,8.3,0l8.2,0.1L337.4,174.1z"/>
		<path class="st0" d="M319.1,156.7l-16.5,0.3l-8.1,0.1c-2.7,0-5.4,0-8.1,0.1l0.6-0.6l0.1,13.8l-0.6-0.6l16.4,0.1
			c5.5,0,10.9,0.1,16.4,0.2l-0.3,0.3c0-2.3,0.1-4.5,0.2-6.8L319.1,156.7z M319.1,156.7l0.2,6.9c0.1,2.3,0.1,4.6,0.2,7v0.3h-0.3
			c-5.5,0-10.9,0.2-16.4,0.2l-16.4,0.1h-0.6v-0.6l0.1-13.8v-0.6h0.6c2.8,0,5.5,0,8.3,0l8.2,0.1L319.1,156.7z"/>
		<rect x="506.7" y="22.1" class="st2" width="1.2" height="147.5"/>
		<polygon class="st0" points="456.1,219.1 460.2,228.1 554.4,228.1 558.6,219.1 518.4,191.3 496.2,191.3 		"/>
		<polygon class="st1" points="493.4,164.5 496.2,191.3 518.4,191.3 521.2,164.5 		"/>
		<polygon class="st1" points="456.1,219.1 460.2,228.1 554.5,228.1 558.6,219.1 		"/>
		<rect x="396.7" y="22.1" class="st2" width="1.2" height="118.3"/>
		<polygon class="st0" points="346.1,189.8 350.2,198.9 444.4,198.9 448.6,189.8 408.4,162.1 386.2,162.1 		"/>
		<polygon class="st1" points="383.4,135.3 386.2,162.1 408.4,162.1 411.2,135.3 		"/>
		<polygon class="st1" points="346.1,189.8 350.2,198.9 444.4,198.9 448.6,189.8 		"/>
	</g>
	<g id="freepik--Desk--inject-2">
		<polygon class="st3" points="39.3,518.4 102.6,518.1 165.9,518 292.6,517.8 419.2,518 482.6,518.1 545.9,518.4 482.6,518.7 
			419.2,518.8 292.6,519 165.9,518.8 102.6,518.7 		"/>
	</g>
	<g id="freepik--Shadow--inject-2">
		<ellipse class="st0" cx="292.6" cy="556.2" rx="228.6" ry="16.9"/>
	</g>
	<g id="freepik--Character--inject-2">
		<path class="st3" d="M342.1,419.4v0.2c0,0,0,0.1,0,0.1c0,0,0,0.2-0.1,0.3v0.2c0,0.2-0.1,0.3-0.1,0.5c0,0.1,0,0.2-0.1,0.3
			s-0.1,0.5-0.1,0.8c-0.1,0.3-0.2,1-0.3,1.6l-0.6,3c-0.1,0.3-0.1,0.7-0.2,1c-0.1,0.4-0.2,1-0.3,1.5c-0.1,0.5-0.2,1.1-0.3,1.7l0,0
			c-0.1,0.4-0.2,0.9-0.2,1.3c-0.2,1.3-0.5,2.7-0.8,4.2c0,0,0,0.1,0,0.1c-0.3,1.7-0.6,3.5-1,5.4c-0.1,0.5-0.2,1-0.3,1.5
			s-0.2,1-0.3,1.6l0,0c0,0.3-0.1,0.7-0.2,1l0,0c-0.5,2.6-1,5.4-1.5,8.4c-0.2,1-0.4,2-0.5,3c-0.4,2-0.7,4-1.1,6.1
			c-0.1,0.5-0.2,1-0.3,1.5c-0.6,3-1.1,6.2-1.7,9.5c-0.1,0.3-0.1,0.7-0.2,1c-0.3,1.5-0.6,3.1-0.8,4.7c0,0.1-0.1,0.2-0.1,0.4l-0.4,2.3
			c-0.5,3-1.1,6.1-1.7,9.3c-0.1,0.8-0.3,1.6-0.4,2.4c-0.3,1.6-0.6,3.2-0.9,4.8c-0.4,2-0.7,4-1.1,6.1c-0.4,2.1-0.7,4.1-1.1,6.2
			c-0.2,1.1-0.4,2.1-0.6,3.2c-0.2,1.2-0.5,2.5-0.7,3.8h-107c13.2-54.8,24.3-99,24.3-99L342.1,419.4z"/>
		<path class="st3" d="M325.9,431.7c-5.4,28.9-10.8,57.7-16.2,86.6h-1.5c5.7-28.9,11.5-57.8,17.3-86.7
			C325.6,431.4,326,431.5,325.9,431.7z"/>
		<path class="st4" d="M342.1,419.4c0,0,0,0.1,0,0.2c0,0.1,0,0.1,0,0.1c0,0,0,0.2-0.1,0.3v0.2c0,0.2-0.1,0.3-0.1,0.5
			c0,0.1,0,0.2-0.1,0.3s-0.1,0.5-0.1,0.8c0,0.3-0.2,1-0.3,1.6c-0.2,0.9-0.3,1.9-0.6,3c-0.1,0.3-0.1,0.7-0.2,1
			c-0.1,0.4-0.2,1-0.3,1.5c-0.1,0.5-0.2,1.1-0.3,1.7l0,0c-0.1,0.4-0.2,0.9-0.2,1.3c-0.2,1.3-0.5,2.7-0.8,4.2c0,0,0,0.1,0,0.1
			c-0.3,1.7-0.6,3.5-1,5.4c-0.1,0.5-0.2,1-0.3,1.5c-0.1,0.5-0.2,1-0.3,1.6l0,0c-0.1,0.3-0.1,0.7-0.2,1l0,0c-0.5,2.6-1,5.4-1.5,8.4
			c-0.2,1-0.4,2-0.5,3c-0.4,2-0.7,4-1.1,6.1c-0.1,0.5-0.2,1-0.3,1.5c-0.6,3-1.1,6.2-1.7,9.5c-0.1,0.3-0.1,0.7-0.2,1
			c-0.3,1.5-0.6,3.1-0.8,4.7c0,0.1-0.1,0.2-0.1,0.4l-0.4,2.3c-0.6,3-1.1,6.1-1.7,9.3c-0.1,0.8-0.3,1.6-0.4,2.4
			c-0.3,1.6-0.6,3.2-0.9,4.8c-0.4,2-0.7,4-1.1,6.1c-0.4,2.1-0.8,4.1-1.1,6.2c-0.2,1.1-0.4,2.1-0.6,3.2c-0.2,1.2-0.5,2.5-0.7,3.8
			h-53.7l-4.3-44l-0.1-1.6l-0.2-1.7l0,0l-0.8-8.6l0,0l-0.7-7.4l-3.5-35.6H342.1z"/>
		<path class="st3" d="M402.9,518.4H287.5c-0.2-10.6-0.4-20.9-0.7-30.6l0,0c0-0.2,0-0.5,0-0.7c0,0-13.5-8-20.7-14.2
			c-1.2-1-2.4-2.1-3.4-3.4l0,0l0,0c-4.6-5.9-9.3-28.7-18.9-50.1h141.1C407.8,463.9,406.2,499.7,402.9,518.4z"/>
		<path class="st4" d="M259.4,467.9c6.9,2.8,13,7.1,19.1,11.3c6.3,4.3,12.1,9.3,18.2,14c0.2,0.2,0,0.6-0.2,0.4
			c-6.4-4.1-13.1-7.7-19.5-11.9c-6.2-4.1-12.6-8.1-17.9-13.2C258.9,468.2,259.1,467.8,259.4,467.9z"/>
		<path class="st4" d="M258.5,428.2c0.8,4.4,1.9,8.7,2.8,13.1c0.9,4.1,1.5,8.3,2.6,12.4c0.9,3.9,2.9,7.5,5.7,10.3
			c1.6,1.5,3.4,2.8,5.1,4.2c0.9,0.7,1.9,1.4,2.9,2.2c-0.1-0.6-0.2-1.2-0.3-1.8l-0.9-4.9c-0.6-3.7-1.2-7.4-1.8-11.1
			c-1.1-7.3-2.1-14.7-3.7-21.9c0-0.1,0.1-0.2,0.2-0.3c0.1,0,0.2,0,0.2,0.1c1.8,7.2,3.8,14.2,5.4,21.4c0.8,3.5,3.5,21,3.7,22.3
			c0.2,1.2,0.2,2.6,0.3,3.8c0.2,1.3,0.2,2.6,0,3.9c-0.1,0.2-0.3,0.2-0.4,0.2c-0.1,0-0.1-0.1-0.2-0.2l0,0c-0.5-1.2-0.9-2.5-1.1-3.8
			c-0.3-1.2-0.6-2.5-0.8-3.8c-0.1-0.4-0.1-0.9-0.2-1.4c-1.7-1.1-3.3-2.5-4.9-3.6s-3.5-2.5-5.1-3.9c-3-2.6-5.2-6-6.3-9.8
			c-1.1-4.1-1.7-8.3-2.1-12.5c-0.6-4.9-1-9.9-1.7-14.8C258,428,258.5,428,258.5,428.2z"/>
		<path class="st4" d="M375.9,458.8c-1.8-1-9,0.7-22-1.5c-2.5-0.3-5-1.3-7-2.8c-3.4-2.8-5.9-7.2-8-11c-2.4-4.3-4.3-8.9-5.6-13.6
			c-0.1-0.3-0.5-0.1-0.4,0.1c0.5,2.7,0.7,5.4,1.5,8c0.7,2.5,1.6,4.9,2.7,7.3c2,4.4,4.2,9.1,8.2,12.1c4.1,3.1,9.9,3.7,14.9,4.1
			c2.9,0.2,14.3-0.1,15.8-1.7C376.3,459.5,376.2,459.1,375.9,458.8C375.9,458.9,375.9,458.9,375.9,458.8z"/>
		<path class="st5" d="M268.5,260.7c-11.9,17.6-94.4,123.3-106.3,125.5c-30.4,5.5-58.3-4.9-46.8-31.2c13.4-30.5,87.9-91,137.5-117.8
			C288.4,218,280.2,243.3,268.5,260.7z"/>
		<path class="st6" d="M228.2,319l-64.7-29.7c0,0,59.9-41.6,87.9-54.3c29.2-13.2,41-5.5,16.1,28.9C243,297.7,228.2,319,228.2,319z"
			/>
		<path class="st7" d="M198,266.2c-0.1,0.1-0.3,0.2-0.4,0.3l50.4,24.6l0.2-0.3L198,266.2z M184.1,275.4c-0.1,0.1-0.3,0.2-0.4,0.2
			l55.9,27.2l0.2-0.3L184.1,275.4z M170.3,284.6l-0.4,0.3l61.3,29.9c0.1-0.1,0.1-0.2,0.2-0.3L170.3,284.6z"/>
		<path class="st3" d="M229,305.8c-1.5-0.8-3-1.6-4.6-2.3l-4.7-2.3c-3.2-1.6-6.4-3.1-9.6-4.6c-6.4-3-12.8-6-19.3-8.8
			c-1.8-0.8-3.6-1.6-5.4-2.3c-1.8-0.7-3.8-1.4-5.7-2.2c-0.1,0-0.2,0.1-0.1,0.2c1.6,0.8,3.1,1.7,4.6,2.5c1.6,0.8,3.2,1.6,4.9,2.4
			c3.2,1.5,6.4,3,9.7,4.5c6.3,2.9,12.7,5.8,19.1,8.5c1.8,0.8,3.6,1.5,5.4,2.3s3.7,1.7,5.7,2.4C229.1,306,229.1,305.9,229,305.8z"/>
		<path class="st3" d="M267.6,263.8C243,297.7,228.2,319,228.2,319l-20.7-9.5l70.9-79.2C283.9,234,281.4,244.9,267.6,263.8z"/>
		<path class="st6" d="M231,443.1h166.9c0,0-25.5-159.3-87-213.8c-7.6-6.7-24.7-5.2-35.9,0.4c-4,2-18.3,22.1-22.4,41
			C248.5,289.7,230.5,442.5,231,443.1z"/>
		<path class="st3" d="M382.8,375.1l-74.1-147.3c0.8,0.4,1.5,1,2.2,1.6C345.8,260.2,369.1,324.9,382.8,375.1z"/>
		<path class="st7" d="M303.7,225.8h-17c0.8-0.1,1.6-0.3,2.4-0.4h12.6C302.4,225.5,303,225.6,303.7,225.8z M321.2,239.7h-54.8
			c-0.1,0.1-0.2,0.3-0.3,0.4h55.4L321.2,239.7z M332.2,254h-73.9l-0.2,0.4h74.3L332.2,254z M341.2,268.3h-88.1
			c0,0.1-0.1,0.3-0.1,0.4h88.5L341.2,268.3z M348.9,282.6h-98.4c0,0.1,0,0.3-0.1,0.4h98.7C349.1,282.9,349,282.8,348.9,282.6z
			 M355.7,297H248.5c0,0.1,0,0.3,0,0.4h107.4C355.8,297.2,355.7,297.1,355.7,297z M361.8,311.3H246.7c0,0.1,0,0.3,0,0.4h115.2
			C361.9,311.5,361.8,311.4,361.8,311.3L361.8,311.3z M367.2,325.6H244.8c0,0.1,0,0.3,0,0.4h122.6
			C367.3,325.9,367.2,325.7,367.2,325.6L367.2,325.6z M372.2,339.9H243c0,0.1,0,0.3,0,0.4h129.3
			C372.3,340.2,372.2,340.1,372.2,339.9L372.2,339.9z M376.7,354.2H241.2c0,0.1,0,0.3,0,0.4h135.7
			C376.8,354.5,376.7,354.4,376.7,354.2z M380.9,368.6H239.5c0,0.1,0,0.3,0,0.4h141.6L380.9,368.6z M384.8,382.9H237.8
			c0,0.1,0,0.3,0,0.4H385C384.9,383.1,384.9,383,384.8,382.9L384.8,382.9z M388.4,397.2H236.1c0,0.1,0,0.3,0,0.4h152.5
			C388.5,397.5,388.5,397.3,388.4,397.2L388.4,397.2z M391.7,411.5H234.4c0,0.1,0,0.3,0,0.4h157.4
			C391.8,411.8,391.8,411.6,391.7,411.5L391.7,411.5z M394.7,425.8h-162c0,0.1,0,0.3,0,0.4h162.1L394.7,425.8z M397.4,440.1H231.2
			v0.4h166.3C397.5,440.4,397.5,440.3,397.4,440.1L397.4,440.1z"/>
		<path class="st5" d="M339.8,233.3c42.1,15.6,145.7,56.8,151,81c3.9,17.8-75.2,28.8-77.4,25.9c-1.8-2.3-75.2-59.5-101.1-90.2
			C289.8,223.3,326.4,228.4,339.8,233.3z"/>
		<path class="st6" d="M371.6,306.1l55.4-38.4c0,0-66.2-30.5-96.1-38.1c-31.1-7.9-41.4,1.8-10.8,31.2
			C350.3,289.8,371.6,306.1,371.6,306.1z"/>
		<path class="st7" d="M386.1,249.8l-43,32.3c0.1,0.1,0.2,0.2,0.3,0.3l43.1-32.4L386.1,249.8z M401.3,256.3l-47.1,35.5l0.3,0.3
			l47.3-35.6C401.6,256.4,401.5,256.3,401.3,256.3L401.3,256.3z M416.3,262.8l-50.9,38.4c0.1,0.1,0.2,0.2,0.3,0.3l51-38.4
			C416.6,263,416.5,262.9,416.3,262.8z"/>
		<path class="st3" d="M411.8,265.1c-1.5,0.8-2.9,1.8-4.3,2.8c-1.4,1-2.9,2-4.4,2.9c-2.9,2-5.9,4-8.8,6c-5.8,4.1-11.6,8.1-17.3,12.3
			c-1.6,1.1-3.1,2.3-4.7,3.5c-1.5,1.2-3.2,2.6-4.8,3.9c-0.1,0.1,0,0.2,0.1,0.1c1.5-1,3-1.8,4.5-2.8c1.5-1,3-2,4.5-3
			c2.9-2,5.8-4,8.7-6.1c5.7-4,11.4-8.1,17-12.3l4.7-3.5c1.6-1.2,3.4-2.4,4.9-3.7C411.9,265.2,411.9,265.1,411.8,265.1z"/>
		<path class="st3" d="M366.5,301.7c-1.6-1.3-3-2.7-4.5-4.1c-1.5-1.4-3.1-2.7-4.6-4.1c-3-2.6-6-5.3-9-7.9
			c-6.1-5.4-12.1-10.8-18.1-16.2c-3.4-3.1-6.7-6.3-10.3-9.2 M320,260.3c2.8,3,5.7,5.8,8.7,8.6c-0.6-0.4-1.2-0.8-1.8-1.2
			c-0.6-0.5-1.3-0.9-1.9-1.4c-0.6-0.5-1.2-1.1-2-1.5c-0.1-0.1-0.2,0.1-0.1,0.2c1.1,1.3,2.4,2.4,3.9,3.4c0.7,0.5,1.5,0.9,2.2,1.3
			l0.8,0.4c2.6,2.5,5.3,4.9,7.9,7.4c5.9,5.5,12,10.8,18.2,16.1c1.7,1.4,3.4,2.8,5.2,4.3c1.7,1.4,3.6,2.8,5.4,4.2
			c0.1,0.1,0.2,0,0.1-0.1L320,260.3z"/>
		<path class="st5" d="M280.3,260.3c9.8,1.2,24.7-15.1,30-27.6c0.4-0.9-1.8-9.3-3.9-19.7c-1.2-6.3-2.5-13.4-3.2-19.9
			c-0.1-1.3-39.8,14.2-39.8,14.2s5.4,13.2,6.6,24.6c0.1,0.9,0.1,1.8,0,2.7c0,0.1,0,0.3,0,0.4C269.6,240.2,270.8,259,280.3,260.3z"/>
		<path class="st3" d="M274.1,234.8c-1.4,0.2-2.8,0.3-4.2,0.2c0-0.2,0-0.3,0-0.5c0.1-0.9,0.1-1.8,0-2.7c-1.1-11.3-6.5-24.6-6.5-24.6
			s32.2-12.6,38.7-14.1C301.6,200.8,298.2,231.8,274.1,234.8z"/>
		<path class="st5" d="M298.8,142.6c8.2,12.8,12.2,55.4,4.8,67.2c-10.8,17.2-34.1,25.1-50.1,10.8c-15.5-13.8-19.8-69.4-10.9-80.7
			C255.5,123.2,286.6,123.6,298.8,142.6z"/>
		<path class="st3" d="M272.3,179.8c0-0.1,0.2,0.1,0.2,0.2c0.2,2.9,0.9,6.2,3.6,6.8c0.1,0,0.1,0.2,0,0.2
			C273,186.9,272.1,182.5,272.3,179.8z"/>
		<path class="st3" d="M274.6,176.5c4.6-0.8,5.9,8.4,1.6,9.2C272,186.4,270.8,177.2,274.6,176.5z"/>
		<path class="st3" d="M254.8,181.8c0-0.1-0.2,0.2-0.2,0.3c0.5,2.8,0.6,6.2-1.9,7.5c-0.1,0,0,0.2,0,0.1
			C255.9,188.9,255.7,184.4,254.8,181.8z"/>
		<path class="st3" d="M251.8,179.2c-4.6,0.3-3.7,9.5,0.6,9.3C256.7,188.2,255.7,179,251.8,179.2z"/>
		<path class="st3" d="M277.7,171.9c-1.2-0.2-2.5-0.4-3.7-0.8c-1.4-0.1-2.7-0.6-3.7-1.5c-0.5-0.7-0.5-1.7,0-2.4
			c1.2-1.4,3.1-1.5,4.8-1.2c1.8,0.2,3.4,1.1,4.5,2.5c0.7,0.9,0.6,2.2-0.3,3C278.8,171.8,278.2,172,277.7,171.9z"/>
		<path class="st3" d="M247.6,175c1.2-0.4,2.4-0.9,3.5-1.5c1.3-0.3,2.5-1.1,3.3-2.2c0.4-0.8,0.2-1.8-0.4-2.4
			c-1.5-1.2-3.3-0.9-4.9-0.2c-1.7,0.6-3.1,1.7-4,3.3c-0.5,1-0.1,2.3,1,2.8C246.6,175.2,247.1,175.2,247.6,175z"/>
		<path class="st3" d="M278.3,205c-0.6,0.8-1.1,1.8-2.2,2c-1.1,0.1-2.1,0-3.2-0.3c-0.1,0-0.1,0-0.1,0.1c0,0,0,0.1,0,0.1
			c1,1,2.5,1.4,3.8,1.1c1.1-0.5,1.9-1.6,1.9-2.8C278.6,204.9,278.4,204.9,278.3,205z"/>
		<path class="st3" d="M274.1,196.9c-1.1,2.5-3.3,4.4-5.9,5.2c-1.1,0.4-2.3,0.6-3.5,0.6c-0.2,0-0.5,0-0.7,0h-0.6
			c-0.3,0-0.6-0.2-0.7-0.6l0,0c0-0.1,0-0.2,0-0.3l0,0v-0.2c-0.4-2.2-0.6-5.6-0.6-5.6c-0.8,0.5-4.6,2.9-4.7,1.8
			c-0.8-9.6-1.6-20.2-0.3-29.9c0-0.1,0.2-0.2,0.3-0.2c0.1,0,0.2,0.1,0.2,0.2c1.1,9.2,0.5,18.5,1.5,27.7c1.4-0.9,2.8-1.6,4.4-2
			c0.3,0,0.4,6.5,0.6,7.5c0,0,0,0.1,0,0.1c3.7,0,6.4-1.5,9.6-4.5C274,196.5,274.3,196.6,274.1,196.9z"/>
		<path class="st3" d="M265.9,201.4c1.4,1.4,3.2,2.4,5.1,2.9c1.1,0.3,2.2,0.2,3.2-0.2c2.2-0.9,2-3,1.3-4.8c-0.4-0.9-0.8-1.8-1.4-2.6
			C271.9,199.2,269.1,200.8,265.9,201.4z"/>
		<path class="st8" d="M271,204.4c1.1,0.3,2.2,0.2,3.2-0.2c2.2-0.9,2-3,1.3-4.8C273.1,200,270.9,202,271,204.4z"/>
		<g>
			<path class="st9" d="M305,175c-7.5,1.9-12.6-16.3-12.6-16.3s-11.9,1.6-22.3-12c0,0-11.5,13.7-24.3,15.4
				c-20.1,2.6-27.5-22.2-22-29.5c7.8-10.4,29-5.7,29-5.7s24.7-16.3,38.7-0.5c0,0,12.3-3.4,17.4,9.7S310.6,173.6,305,175z"/>
			<path class="st10" d="M295.8,160c-5.8,0.8-11.6-0.3-16.7-3.2c-5.2-3.1-9.5-9.1-9.7-15.2c0-0.3-0.6-0.3-0.5,0
				c0.7,6.7,3.1,13,8.8,17c5.3,3.8,12.2,4.5,18.2,1.9c0.1-0.1,0.1-0.3,0-0.4C295.9,160,295.9,160,295.8,160z"/>
			<path class="st10" d="M307.4,127.9c-5.3-3.5-11.2-2.5-16.8-0.4c-0.3,0.1-0.1,0.6,0.2,0.5c5.3-2.5,12.1-0.5,16.5,3.1
				c4.4,3.6,5.4,9.4,5.9,14.6c0.9,10.2-2,20.4-8.2,28.5c-0.1,0.1,0.1,0.3,0.2,0.2c7.3-8.7,10.7-20.1,9.4-31.4
				C313.9,137.6,312.2,131.2,307.4,127.9z"/>
			<path class="st10" d="M253.9,127.5c-3.6-3.1-8.2-4.7-13-4.6c-5.7,0.3-11.1,2.6-15.2,6.7c-3.3,3.4-4.5,8.3-3.1,12.8
				c1.3,5.2,5.3,9.3,9.5,12.4c0,0,0.1,0,0.2,0c0,0,0-0.1,0-0.2c0,0,0,0,0,0c-3.6-3.1-6.8-6.8-8-11.5c-1.3-4.5,0.1-9.3,3.5-12.4
				c6.7-6,18.3-9,25.9-2.8c0.1,0,0.3,0,0.3-0.2C253.9,127.6,253.9,127.6,253.9,127.5z"/>
		</g>
		<path class="st5" d="M299.7,179.5c0,0,5.8-15.6,12.6-13.8c6.8,1.7,4.9,22.6-1.5,27.1c-3.2,2.6-7.9,2-10.4-1.2
			c0-0.1-0.1-0.1-0.1-0.2L299.7,179.5z"/>
		<path class="st3" d="M311.6,171.6c0.1,0,0.1,0,0.1,0.1c0,0,0,0.1,0,0.1c-4.4,3.3-5.8,8.5-6.4,13.7c1-2.2,2.7-3.7,5.6-2.6
			c0.1,0,0.1,0.1,0.1,0.2c0,0-0.1,0.1-0.1,0.1c-1.9-0.1-3.7,1-4.4,2.8c-0.6,1.5-1,3-1.3,4.5c-0.1,0.5-1,0.5-0.9-0.1c0,0,0-0.1,0-0.1
			C302.4,184,305,174,311.6,171.6z"/>
		<path class="st5" d="M471.2,417.3c-11.8,41.1-45.4,74.4-52.3,78.8c-5.9,3.7-8.9,5.6-8.9,5.6c-10.4,6.9-17.5,5-17.5,5
			s-9.7,11.5-17.6,6.9c-8.9-5.2,6.4-20.4,9.7-33.9c7.6-30.9,9.7-77,11-86.2L471.2,417.3z"/>
		<path class="st3" d="M415.3,452.9c-2.4,9.1-4.6,18-8.2,26.7c-4,9.5-9.4,18-14.7,26.8c-0.1,0.1,0,0.3,0.1,0.3c0.1,0,0.2,0,0.3,0
			c12.1-14.4,21-35,23.3-53.6C416.1,452.6,415.4,452.4,415.3,452.9z"/>
		<path class="st3" d="M434.6,454.7c-2.8,8.7-7.9,23.9-24.8,46.8c-0.1,0.1,0,0.2,0.1,0.1c12.7-12.8,21.5-29,25.6-46.6
			C435.6,454.5,434.8,454.2,434.6,454.7z"/>
		<path class="st5" d="M391.3,441.9c-0.6-4.4-2.9-4.1-6.9,2.7c-4,6.8-14.1,37.3-24.4,32.9s4.5-47.2,12-58.1
			c7.5-10.9,23.5-25.9,23.5-25.9C394.4,402.5,393.5,424.3,391.3,441.9z"/>
		<path class="st5" d="M490.8,314.3c8.3,25.9-13.5,83.7-19.5,103c-2.6,8.4-79.1-14-76.3-22.9c5.9-18.3,21-51.6,18.4-54.1
			C411.2,338.3,483.3,290.8,490.8,314.3z"/>
		<path class="st3" d="M434.3,324.7c-1,0.4-2,0.7-3,1.2s-2,1-3,1.5c-1.9,1.1-3.7,2.3-5.4,3.6c-1.7,1.3-3.3,2.8-4.9,4.3
			c-0.8,0.8-1.6,1.6-2.3,2.5c-0.7,0.8-1.4,1.7-1.9,2.6c-0.1,0.1-0.1,0.2,0,0.3c0,0,0,0.1,0.1,0.1c0.3,0.1,0.5-0.1,0.7-0.3l1.2-1.1
			c0.8-0.8,1.6-1.6,2.5-2.3c1.6-1.5,3.4-3,5.2-4.4c1.8-1.4,3.6-2.7,5.5-3.9c0.9-0.6,1.8-1.2,2.8-1.9c0.9-0.7,1.9-1.2,2.8-1.8
			C434.7,324.9,434.5,324.6,434.3,324.7z"/>
		<path class="st5" d="M157.7,311.9c-12.4,8.7-50.1,42.4-42.5,60.8c7.6,18.4,36.6,18,77.2,10.7L157.7,311.9z"/>
		<path class="st5" d="M156.6,312.7c16.6-13.8,40.8-30.7,50.6-30.1c10.4,0.6,46.7,4,54.9,7.5c8.2,3.5,31.8,26.4,34.2,34
			c1.9,6.1-10,11.8-25.2,2.1c-14.2-9.1-17.1-12-21.8-13.6c-4.6-1.6-22.9,1.9-25.1,8.8c-1.3,4.1,4,15,11.3,17.3
			c7.3,2.3,14.8-2,25.2-1.5c10.3,0.6,20.2,10.7,18.2,14.1c-2,3.3-6.6,1.5-20.7,6.2c-9,3-19.8,8.5-35.1,17.5
			c-15.7,9.2-38.4,9.1-38.4,9.1L156.6,312.7z"/>
		<path class="st11" d="M271.8,327.9c24.7,7.7,13.3,44.4-11.5,36.7C235.5,356.9,247,320.2,271.8,327.9z"/>
		<path class="st12" d="M271.8,327.9c24.7,7.7,13.3,44.4-11.5,36.7C235.5,356.9,247,320.2,271.8,327.9z"/>
		<path class="st11" d="M269.5,327.2c23.6,7.4,12.2,44.1-11.5,36.7S245.8,319.8,269.5,327.2z"/>
		<path class="st12" d="M248.3,344.5c-0.7,6.7,2.4,13.7,10.7,16.3c19.6,6.2,29.1-24.3,9.5-30.4l-0.4-0.1c18.3,6.2,9.2,34.9-9.5,29.1
			C252,357.5,247.7,351.3,248.3,344.5z"/>
		<g class="st13">
			<path class="st14" d="M267.3,334.1c0.3,0.1,0.5,0.5,0.4,0.8l-0.4,1c1.6,0.8,2.8,2,3.7,3.5c0.2,0.2,0.2,0.5,0.1,0.7
				c-0.1,0.3-0.5,0.5-0.9,0.4c-0.2-0.1-0.3-0.2-0.4-0.3c-0.7-1.3-1.8-2.4-3.1-3.1l-2.7,7c3.5,2.3,4.5,4.3,3.6,6.7
				c-1,2.6-4,3.7-7.1,2.5l-0.8,1.9c-0.1,0.3-0.5,0.5-0.9,0.4c-0.3-0.1-0.5-0.5-0.4-0.9l0.8-2c-2-1-3.7-2.6-4.7-4.6
				c-0.1-0.2-0.2-0.4-0.1-0.6c0.1-0.3,0.5-0.5,0.9-0.4c0.2,0.1,0.3,0.2,0.4,0.3c0.8,1.8,2.2,3.3,4,4.2l2.8-7.1
				c-3.4-2.3-4.4-4.3-3.5-6.7c1-2.5,3.9-3.6,7-2.5l0.4-0.9c0.1-0.3,0.5-0.5,0.8-0.4C267.2,334.1,267.3,334.1,267.3,334.1z
				 M263.1,343.4l2.6-6.8c-2.5-0.9-4.6-0.1-5.3,1.7S260.2,341.4,263.1,343.4z M263.6,345.3l-2.7,6.9c2.5,0.9,4.7,0.1,5.4-1.8
				S266.6,347.3,263.6,345.3z"/>
		</g>
		<path class="st5" d="M207.3,282.6c12.2-3.3,38.1-5.8,55.3,0.9c11.6,4.6,28.2,46,22.1,50.9c-6,4.9-11.1,0.3-17.8-7.4
			c-2.5-2.8-12.2-21.2-17.4-20.4c-7.5,1.1-25.6,11.9-25.6,11.9L207.3,282.6z"/>
		<path class="st3" d="M286,331.5c1.9-9.4-3.3-20-8.9-29.9c-0.1-0.1-0.3,0-0.2,0.1c1.4,2.5,9,20.4,9,29.8
			C285.8,331.6,286,331.6,286,331.5z"/>
		<path class="st5" d="M207.3,282.6c12.2-3.3,38.1-5.8,55.3,0.9c11.6,4.6,18.3,44.4,12.2,49.3s-13.7-1.3-19.2-11.4
			c-1.8-3.3-4.9-17.3-10.1-16.6c-7.5,1.1-26,4.1-26,4.1L207.3,282.6z"/>
		<path class="st3" d="M230.5,306.8c1.9-0.5,2.6-0.7,4.6-1.2c2-0.5,3.9-0.9,5.9-1.2c1.7-0.4,3.5-0.6,5.2-0.4
			c1.6,0.4,3.1,1.3,4.2,2.5c2.6,2.8,3.5,6.9,4.6,10.4c1.2,3.9,4.5,11.4,9.1,14.8c1.2,1,2.6,1.7,4.1,2.1c1.1,0.4,2.3,0.4,3.4,0.2
			c4.6-1.4,5.6-7,5.5-11.6c-0.1-8.7-2.8-17.3-6-25.2c-0.8-1.9-1.6-3.9-2.4-5.8c-0.8-2.3-2.1-4.3-3.7-6.1c-2.9-2.7-10.4-4.1-12.7-4.5
			c-0.2,0-0.1-0.3,0.1-0.3c2.8,0.5,10.6,0.9,15.1,5.4c1.6,1.7,2.5,4,3.4,6.1c0.9,2.1,1.9,4.4,2.8,6.7c1.7,4.4,3.1,8.9,4.1,13.5
			c0.9,4.4,1.7,9.2,1,13.6c-0.6,3.8-3.3,7.7-7.1,8.9c-3.2,1-6.4-1-7.9-2c-1.4-1-2.6-2.1-3.7-3.4c-2.2-3.1-4.2-6.4-6-9.7
			c-1.6-3.3-2.4-7.2-4.3-10.3c-0.9-1.6-2.3-2.7-4-3.2c-1.7-0.3-3.5-0.3-5.2,0c-3.3,0.1-6.6,0.6-9.9,1.3
			C230,307.5,229.7,306.9,230.5,306.8z"/>
		<path class="st5" d="M197.9,285c3.3-1.9,21.9-13.6,29.2-15.7c7.3-2.1,36-6,41.7,0.5c7.2,8.2-14.3,15-23.9,17.2
			c-9.6,2.1-18.1,12.9-18.1,12.9L197.9,285z"/>
		<path class="st3" d="M259.7,282.4c-3.2,0.6-6.4,1.3-9.6,2.3c-3,0.7-6,1.5-9,2.6c-2.8,1.3-5.3,3-7.6,5.2c-1.1,1-2.2,2.1-3.2,3.2
			c-1,1.1-2.1,2.5-3.3,3.7c-0.1,0.1,0,0.3,0.2,0.2c2.2-2.1,4.5-4.1,6.9-5.9c2.5-1.9,5.2-3.5,8-4.8c5.7-2.5,11.9-3.7,17.6-6.2
			C260.1,282.7,259.9,282.4,259.7,282.4z"/>
		<path class="st3" d="M273.4,333.3c2.2,1.2,4.7,2.5,7.3,2.4c1.1,0,2.2-0.4,3.1-1c0.5-0.3,0.9-0.8,1.2-1.2c0.4-0.5,0.6-1.1,0.6-1.7
			c0-0.2,0.2-0.2,0.2,0c-0.1,0.4-0.1,0.7-0.1,1.1c-0.1,0.3-0.1,0.6-0.2,0.9c-0.2,0.6-0.5,1.1-1,1.5c-0.9,0.9-2.1,1.5-3.4,1.7
			c-3.1,0.4-5.8-1.2-7.9-3.3c-0.1,0-0.1-0.1,0-0.2C273.2,333.3,273.3,333.3,273.4,333.3z"/>
		<path class="st3" d="M223.7,303.7c-2.7,3.9-5.1,7.9-7.3,12.1c-2.1,4.2-3.5,8.6-4.4,13.2c-0.8,4.9-0.4,9.9-0.3,14.9
			c0.1,2.4,0,4.8-0.3,7.1c-0.3,2.1-0.8,4.1-1.6,6c-1.8,4.4-4.6,8.3-8.3,11.3c-0.1,0.1,0,0.3,0.2,0.2c7-4.9,11.5-12.6,12.3-21
			c0.4-5.1-0.4-10.3,0-15.4c0.4-4.7,1.5-9.3,3.1-13.7c1.8-5.1,4-10.1,6.7-14.8C223.9,303.7,223.9,303.6,223.7,303.7
			C223.8,303.6,223.7,303.7,223.7,303.7z"/>
		<path class="st3" d="M178.5,296c-9.6,5.9-18.8,12.4-27.4,19.7c-8.7,7.1-16.6,15.2-23.5,24.1c-3.8,5-7.2,10.4-10,16.1
			c-0.1,0.1,0.1,0.2,0.2,0.1c2.9-4.8,6.1-9.4,9.5-13.8c3.4-4.4,7.1-8.5,11-12.5c8-8,16.5-15.3,25.6-22c5.1-3.8,9.8-7.5,14.8-11.3
			C179.3,296,179.1,295.6,178.5,296z"/>
		<path class="st0" d="M321.5,532.6c-0.1,0.5-0.2,1-0.3,1.5C321.3,533.6,321.4,533.1,321.5,532.6L321.5,532.6z"/>
	</g>
	<g id="freepik--Plant--inject-2">
		<path class="st11" d="M125.2,395.8c-16.7,22.6-34.1,48.9-38.4,77.3c0,0.4,0.6,0.6,0.7,0.1c1.9-7.7,4.4-15.3,7.4-22.7
			c11-3,21.8-5.5,27.5-16.4c5.9-11.2,5.1-25.8,4-38C126.4,395.4,125.5,395.3,125.2,395.8z"/>
		<path class="st3" d="M95.1,450.3c7.5-16.8,17.2-33.8,29.4-47.6c0.1-0.1,0.2,0,0.1,0.1c-8,9.9-14.1,20.6-20.1,31.5
			c5.5-5.6,11.6-10.6,16.8-16.6c0.1-0.1,0.3,0,0.2,0.2c-5.2,6.2-10.9,13-17.7,17.7c-1.8,3.3-3.7,6.7-5.5,10.1
			c0.5-0.3,0.9-0.5,1.4-0.7c0.1,0,0.1,0.1,0.1,0.1c-0.5,0.3-1,0.5-1.6,0.8c-0.9,1.6-1.7,3.2-2.7,4.8C95.5,450.9,95,450.6,95.1,450.3
			z"/>
		<path class="st3" d="M100.7,444.4c4.5-2.5,8.8-5.4,12.8-8.6c0.1-0.1,0.3,0.1,0.2,0.2c-3.9,3.4-8.2,6.3-12.8,8.7
			C100.7,444.8,100.5,444.5,100.7,444.4z"/>
		<path class="st11" d="M84.9,468.9c0,0.3,0.6,0.3,0.6,0c0.1-9.4,0-18.7,0.1-28.1c2.4-4.8,7.5-7.5,11.1-11.4c2.6-2.8,4.8-6,6.7-9.3
			c4.3-8,6.9-16.8,7.7-25.8c1-10-2.8-43-7-41.9c-2.2,0.6-9.3,16.9-11.1,22.3c-3,8.9-5.3,18.1-6.6,27.4
			C82.9,424.1,83.2,446.7,84.9,468.9z"/>
		<path class="st3" d="M84.8,428.5L84.8,428.5c0.5-11.8,3.2-23.8,5.7-35.2c2.7-12.4,5.8-24,12.2-35c0.1-0.2,0.4,0,0.3,0.2
			c-4.2,8.6-7.5,17.6-9.8,26.9c0.4-0.7,1-1.3,1.4-1.9c0.2-0.2,0.6,0,0.4,0.2c-0.6,1-1.2,1.9-2,2.8c0,0-0.1,0-0.1,0
			c-2.2,8.8-3.7,17.9-5.1,26.9l0.3-0.3c0,0,0.1,0,0.1,0c0,0,0,0.1,0,0.1c-0.2,0.3-0.4,0.6-0.5,0.9c-0.7,4.6-1.3,9.1-1.9,13.7
			c8.2-7,15.2-15.2,19.1-25.3c0,0,0.1,0,0.1,0c-3.8,10.5-9.9,19.8-19.2,26.2l-0.5,3.7c0,0.2-0.4,0.2-0.4-0.1c0-1.1,0-2.2,0.1-3.2
			C84.7,428.8,84.7,428.6,84.8,428.5z"/>
		<path class="st3" d="M88.7,411.4c6.2-9.3,12-18.3,16.6-28.6c0-0.1,0.2,0,0.2,0.1c-3.8,10.2-9.2,20.5-16.5,28.7
			C88.8,411.8,88.5,411.6,88.7,411.4z"/>
		<path class="st3" d="M96.9,380.5c2.6-4.6,5.3-9,7.7-13.6c0.1-0.1,0.2,0,0.2,0.1c-2,4.9-4.5,9.5-7.5,13.8
			C97.2,381,96.8,380.8,96.9,380.5z"/>
		<path class="st3" d="M95.9,382.5C95.9,382.5,95.8,382.5,95.9,382.5L95.9,382.5z"/>
		<path class="st11" d="M78.5,441.8c-0.1,6.2-0.8,12.4-2.1,18.4c0.1,0.7,0.2,1.3,0.3,2c1.9-6.7,3-13.6,3.3-20.6
			c0.1-0.2,0.1-0.4,0-0.6l0,0c0.3-9.3-0.4-18.6-2-27.8c-2.9-17.2-9.2-33.7-21.2-46.6c-0.4-0.3-0.9-0.3-1.2,0.1
			c0,0.1-0.1,0.1-0.1,0.2c-4.8,12.3-3.2,27,1,39.2c2.2,6.6,5.4,12.9,9.5,18.6C70,430.6,75.2,435.5,78.5,441.8z"/>
		<path class="st3" d="M58.1,372.4c11.4,18.5,19.3,40.3,20.2,62c0,0.4-0.6,0.5-0.7,0.1c-0.3-2-0.6-3.9-0.9-5.8l0,0
			c-4.7-4.5-9.5-9.3-12.9-14.8c0-0.1,0.1-0.2,0.2-0.1c3.9,4.8,8.1,9.3,12.5,13.6c-0.8-4.8-1.8-9.6-2.9-14.2
			c-0.3-0.3-0.6-0.7-0.9-1.1c-0.3-0.4,0.1-0.6,0.3-0.3s0.2,0.2,0.3,0.3c-1.6-6.4-3.6-12.7-5.9-18.9c-2.9-3.4-6.1-6.4-8.2-10.6
			c0-0.1,0.1-0.2,0.1-0.1c1.7,2.4,3.3,4.8,5.2,7c0.8,0.9,1.6,1.7,2.4,2.6c-2.6-6.7-5.7-13.2-9.3-19.4c-0.1-0.1,0-0.3,0.1-0.3
			C57.9,372.3,58.1,372.4,58.1,372.4z"/>
		<path class="st3" d="M60.4,395.2c3.7,4.9,7.8,9.7,11.3,14.8c0.1,0.1-0.1,0.3-0.2,0.2c-4.4-4.1-8.1-9.7-11.3-14.8
			C60.1,395.2,60.3,395,60.4,395.2z"/>
		<path class="st3" d="M72.2,411.1l0.1,0.2c0.1,0.1-0.1,0.3-0.2,0.2l-0.2-0.2C71.9,411.1,72.1,411,72.2,411.1z"/>
		<path class="st11" d="M40.4,407.9c0.9,9.5,5.9,20.8,12,28.1c2.7,3.2,6,5.8,9.7,7.6c4.2,2.1,8.7,4.5,13,6.2
			c2.1,5.3,3.6,10.7,4.6,16.3c0.1-0.5,0.3-1,0.4-1.4c-2.8-24-18.3-44.5-38.2-57.7c-0.4-0.3-1-0.2-1.3,0.3
			C40.4,407.4,40.3,407.6,40.4,407.9z"/>
		<path class="st3" d="M47.2,415c-0.1-0.1,0-0.4,0.2-0.3c10.9,8.1,19.6,18.9,25.3,31.2c0.1,0.3-0.3,0.6-0.5,0.3
			c-0.9-1.6-1.9-3.2-2.8-4.7l0,0c-4.5-0.9-8.8-4-12.2-7.1c-0.1-0.1,0-0.2,0.1-0.1c1.7,1.6,3.7,2.9,5.7,4c1.9,0.9,3.8,1.5,5.8,2.3
			c-1.7-2.7-3.4-5.2-5.3-7.7c-4.9-1.9-9.5-4.4-13.6-7.7c-0.1-0.1,0-0.3,0.1-0.2c4.1,2.5,8.3,4.7,12.6,6.8c-2.8-3.7-5.8-7.1-9-10.4
			c-1.5-0.8-3.1-1.6-4.6-2.5c-0.1-0.1,0-0.3,0.1-0.2c1.2,0.4,2.4,1,3.5,1.7C51,418.5,49.2,416.7,47.2,415z"/>
		<path class="st3" d="M47.6,423.2c0.3,0.2,0.5,0.3,0.8,0.5c0.1,0.1,0,0.2-0.1,0.1c-0.3-0.1-0.5-0.3-0.8-0.4
			C47.4,423.4,47.5,423.2,47.6,423.2z"/>
		<polygon class="st4" points="111,518.1 56.6,518.1 61,468.5 62,457.5 105.7,457.5 106.6,468.5 		"/>
		<polygon class="st3" points="106.6,468.5 61,468.5 62,457.5 105.7,457.5 		"/>
		<rect x="59.4" y="449.9" class="st4" width="48.9" height="10.8"/>
	</g>
	<g id="freepik--piggy-bank--inject-2">
		<path class="st11" d="M190.5,423.3c0.4-2.1,0.7-4,0.9-6c0.2-2,0.3-4,0.3-6c0-2.1-0.2-4.2-0.5-6.3c-0.4-2.4-1.3-4.7-2.8-6.6
			c-0.9-1.1-2.1-2-3.4-2.5c-0.7-0.3-1.3-0.5-2-0.6c-0.7-0.1-1.3-0.1-2-0.1c-2.4,0.2-4.8,1.1-6.7,2.7c-1.7,1.4-3.1,3-4.3,4.9
			c-1.2,1.8-2,3.9-2.3,6c-0.2,1.3-0.1,2.6,0.3,3.8c0.3,0.8,0.8,1.5,1.5,2c0.7,0.4,1.4,0.7,2.2,0.7c0.8,0,1.6-0.2,2.4-0.6
			c0.6-0.4,1.1-0.9,1.5-1.5c0.6-1,1-2.1,1.2-3.2c0.4-2,0.4-4.1,0-6.1c-0.3-2-1-4-2.2-5.7c-0.6-0.9-1.4-1.7-2.4-2.2
			c-1-0.5-2.1-0.7-3.2-0.5c-2,0.4-3.8,1.5-5.1,3c-2.6,2.8-4.6,6.1-6,9.6c1.7-3.3,3.9-6.4,6.7-8.9c1.3-1.2,2.9-2,4.7-2.3
			c1.6,0,3.1,0.9,3.7,2.4c0.8,1.5,1.2,3.2,1.3,4.9c0.1,1.7,0,3.5-0.4,5.1c-0.2,0.7-0.5,1.4-0.9,2c-0.1,0.2-0.3,0.3-0.5,0.4
			c-0.1,0-0.2,0-0.4,0c-0.2,0-0.4-0.1-0.4-0.2c-0.1-0.1-0.1-0.2-0.1-0.3c-0.1-0.6,0-1.2,0.1-1.7c1-3.1,2.9-5.7,5.6-7.5
			c1.1-0.8,2.4-1.2,3.7-1.2c0.3,0,0.6,0.1,0.8,0.1c0.2,0.1,0.4,0.1,0.6,0.3c0.4,0.2,0.7,0.5,0.9,0.9c0.7,1.2,1,2.5,1.1,3.9
			c0.1,1.6,0.1,3.3,0,4.9c-0.1,1.8-0.4,3.5-0.7,5.2c-0.3,1.7-0.7,3.5-1.2,5.1L190.5,423.3z"/>
		<path class="st15" d="M190.5,423.3c0.4-2.1,0.7-4,0.9-6c0.2-2,0.3-4,0.3-6c0-2.1-0.2-4.2-0.5-6.3c-0.4-2.4-1.3-4.7-2.8-6.6
			c-0.9-1.1-2.1-2-3.4-2.5c-0.7-0.3-1.3-0.5-2-0.6c-0.7-0.1-1.3-0.1-2-0.1c-2.4,0.2-4.8,1.1-6.7,2.7c-1.7,1.4-3.1,3-4.3,4.9
			c-1.2,1.8-2,3.9-2.3,6c-0.2,1.3-0.1,2.6,0.3,3.8c0.3,0.8,0.8,1.5,1.5,2c0.7,0.4,1.4,0.7,2.2,0.7c0.8,0,1.6-0.2,2.4-0.6
			c0.6-0.4,1.1-0.9,1.5-1.5c0.6-1,1-2.1,1.2-3.2c0.4-2,0.4-4.1,0-6.1c-0.3-2-1-4-2.2-5.7c-0.6-0.9-1.4-1.7-2.4-2.2
			c-1-0.5-2.1-0.7-3.2-0.5c-2,0.4-3.8,1.5-5.1,3c-2.6,2.8-4.6,6.1-6,9.6c1.7-3.3,3.9-6.4,6.7-8.9c1.3-1.2,2.9-2,4.7-2.3
			c1.6,0,3.1,0.9,3.7,2.4c0.8,1.5,1.2,3.2,1.3,4.9c0.1,1.7,0,3.5-0.4,5.1c-0.2,0.7-0.5,1.4-0.9,2c-0.1,0.2-0.3,0.3-0.5,0.4
			c-0.1,0-0.2,0-0.4,0c-0.2,0-0.4-0.1-0.4-0.2c-0.1-0.1-0.1-0.2-0.1-0.3c-0.1-0.6,0-1.2,0.1-1.7c1-3.1,2.9-5.7,5.6-7.5
			c1.1-0.8,2.4-1.2,3.7-1.2c0.3,0,0.6,0.1,0.8,0.1c0.2,0.1,0.4,0.1,0.6,0.3c0.4,0.2,0.7,0.5,0.9,0.9c0.7,1.2,1,2.5,1.1,3.9
			c0.1,1.6,0.1,3.3,0,4.9c-0.1,1.8-0.4,3.5-0.7,5.2c-0.3,1.7-0.7,3.5-1.2,5.1L190.5,423.3z"/>
		<path class="st11" d="M196.8,515.2c5.5,7.7,4.3,31.3,7.6,34.6c3.3,3.3,37.1,2.9,39.5,1c2.3-1.9,1.2-10.3,3.7-11.6
			C248.6,538.6,196.8,515.2,196.8,515.2z"/>
		<path class="st15" d="M196.8,515.2c5.5,7.7,4.3,31.3,7.6,34.6c3.3,3.3,37.1,2.9,39.5,1c2.3-1.9,1.2-10.3,3.7-11.6
			C248.6,538.6,196.8,515.2,196.8,515.2z"/>
		<path class="st11" d="M341.3,515.6c-6.8,9.9-3.1,30.9-6.4,34.2s-37.1,2.9-39.5,1c-2.3-1.9-1.2-10.7-2.6-12.4
			C292.2,537.5,341.3,515.6,341.3,515.6z"/>
		<path class="st15" d="M341.3,515.6c-6.8,9.9-3.1,30.9-6.4,34.2s-37.1,2.9-39.5,1c-2.3-1.9-1.2-10.7-2.6-12.4
			C292.2,537.5,341.3,515.6,341.3,515.6z"/>
		<path class="st16" d="M247.6,539.2c-0.8,0.6-1.3,1.5-1.5,2.5c-15.6-1.8-30.9-5.9-45.3-12.1c-0.8-5.7-1.9-11.2-4.1-14.2
			C196.8,515.2,248.6,538.6,247.6,539.2z"/>
		<path class="st16" d="M341.3,515.6c-2.5,3.7-3.6,8.9-4.2,14.2c-13.8,6.1-28.5,10.2-43.6,12c0-1.2-0.2-2.3-0.7-3.4
			C292.1,537.5,341.3,515.6,341.3,515.6z"/>
		<path class="st11" d="M266.8,372.9c-68.1,0-94.2,53.3-94.2,84.5c0,30.8,19.8,83.1,94.2,83.1s99.1-44.3,99.1-83.8
			S335.6,372.9,266.8,372.9z"/>
		<path class="st15" d="M266.8,372.9c-68.1,0-94.2,53.3-94.2,84.5c0,30.8,19.8,83.1,94.2,83.1s99.1-44.3,99.1-83.8
			S335.6,372.9,266.8,372.9z"/>
		<path class="st11" d="M286,376.8c0,0,31.1-23.9,64.8-21c11.6,1-7.7,26.1-8,45.8L286,376.8z"/>
		<path class="st15" d="M286,376.8c0,0,31.1-23.9,64.8-21c11.6,1-7.7,26.1-8,45.8L286,376.8z"/>
		<path class="st16" d="M329.8,391.9c-0.2,1.2,10.5,5.8,11.7,5.1c1.1-0.7,2.2-16.2,11-32.7C353.7,361.9,331.9,378.5,329.8,391.9z"/>
		<path class="st16" d="M336.5,453.2c2.1-0.3,3.9-1.8,4.5-3.9c-0.2,2.5-1.5,4.8-3.6,6.2c-0.1,0.1-0.1,0.4,0.1,0.3
			c6-2.2,5.3-10.6,3.2-16c-0.1-0.3-0.2-0.6-0.4-0.9c-1.3-3.1-3.7-5.4-6.6-4.9C324.2,435.3,327.6,454.4,336.5,453.2z"/>
		<path class="st11" d="M359.4,425.9c1.5,4.5,15,0.8,18.4,3.7c5.4,4.5,3.9,59.6-1,64.1c-2.7,2.5-18.1-0.1-22.4,2.9
			S359.4,425.9,359.4,425.9z"/>
		<path class="st15" d="M359.4,425.9c1.5,4.5,15,0.8,18.4,3.7c5.4,4.5,3.9,59.6-1,64.1c-2.7,2.5-18.1-0.1-22.4,2.9
			S359.4,425.9,359.4,425.9z"/>
		<path class="st16" d="M378.6,460.3c0,13.4-1.1,24.3-2.5,24.3s-2.5-10.9-2.5-24.3s1.1-24.3,2.5-24.3
			C377.5,436,378.6,446.9,378.6,460.3z"/>
		<path class="st16" d="M240.4,390.6c0.2-0.1,23.2-7.5,44.5-1.7l2.1-7.8c-23.8-6.5-48.3,1.5-49.2,1.8L240.4,390.6l-1.2-3.8
			L240.4,390.6z"/>
		<path class="st7" d="M208.4,507.7c-30.7-35.3-11.9-76.2-11.1-78c1.1-2.6,0-5.5-2.6-6.7c-2.4-1.1-5.2-0.1-6.5,2.2
			c-4.1,9.3-6.6,19.2-7.2,29.4c-1.5,22.4,5.9,43,23.5,57C209.9,516,212.4,512.3,208.4,507.7z"/>
		<path class="st7" d="M195.1,414.1c0,3,2.4,5.5,5.5,5.5c3,0,5.5-2.4,5.5-5.5c0-3-2.4-5.5-5.5-5.5c0,0,0,0,0,0
			C197.6,408.7,195.1,411.1,195.1,414.1z"/>
	</g>
	<g id="freepik--Coins--inject-2">
		<rect x="428.9" y="543.8" class="st11" width="38.8" height="8.6"/>
		<g class="st13">
			<path class="st14" d="M430.5,544.6c0.8,2.2,0.8,4.7,0,6.9C429.7,549.3,429.7,546.8,430.5,544.6z"/>
			<path class="st14" d="M433.4,544.6c0.8,2.2,0.8,4.7,0,6.9C432.5,549.3,432.5,546.8,433.4,544.6z"/>
			<path class="st14" d="M434.8,544.6c0.8,2.2,0.8,4.7,0,6.9C434,549.3,434,546.8,434.8,544.6z"/>
			<path class="st14" d="M442.5,544.6c0.8,2.2,0.8,4.7,0,6.9C441.7,549.3,441.7,546.8,442.5,544.6z"/>
			<path class="st14" d="M444.6,544.6c0.4,1.1,0.6,2.3,0.6,3.4c0,1.2-0.2,2.3-0.6,3.4c-0.4-1.1-0.6-2.3-0.6-3.4
				C444,546.9,444.2,545.7,444.6,544.6z"/>
			<path class="st14" d="M453.3,544.6c0.8,2.2,0.8,4.7,0,6.9C452.5,549.3,452.5,546.8,453.3,544.6z"/>
			<path class="st14" d="M455.3,544.6c0.8,2.2,0.8,4.7,0,6.9C454.5,549.3,454.5,546.8,455.3,544.6z"/>
			<path class="st14" d="M459,544.6c0.8,2.2,0.8,4.7,0,6.9C458.2,549.3,458.2,546.8,459,544.6z"/>
			<path class="st14" d="M451.6,544.6c0.4,1.1,0.6,2.3,0.6,3.5c0,1.2-0.2,2.3-0.6,3.4c-0.4-1.1-0.6-2.3-0.6-3.4
				C451,546.9,451.2,545.7,451.6,544.6z"/>
			<path class="st14" d="M437.4,544.6c0.8,2.2,0.8,4.7,0,6.9C436.6,549.3,436.6,546.8,437.4,544.6z"/>
			<path class="st14" d="M447.4,544.6c0.8,2.2,0.8,4.7,0,6.9c-0.4-1.1-0.6-2.3-0.6-3.4C446.7,546.9,447,545.7,447.4,544.6z"/>
			<path class="st14" d="M448.8,544.6c0.8,2.2,0.8,4.7,0,6.9C448,549.3,448,546.8,448.8,544.6z"/>
			<path class="st14" d="M463.8,544.6c0.4,1.1,0.6,2.3,0.6,3.4c0,1.2-0.2,2.3-0.6,3.4c-0.4-1.1-0.6-2.3-0.6-3.4
				C463.1,546.9,463.3,545.7,463.8,544.6z"/>
			<path class="st14" d="M465.9,544.6c0.4,1.1,0.6,2.3,0.6,3.4c0,1.2-0.2,2.3-0.6,3.4c-0.4-1.1-0.6-2.3-0.6-3.4
				C465.3,546.9,465.5,545.7,465.9,544.6z"/>
			<path class="st14" d="M460.7,544.6c0.8,2.2,0.8,4.7,0,6.9C459.9,549.3,459.9,546.8,460.7,544.6z"/>
			<path class="st14" d="M440.9,544.6c0.4,1.1,0.6,2.3,0.6,3.4c0,1.2-0.2,2.3-0.6,3.4C440,549.3,440,546.8,440.9,544.6z"/>
		</g>
		<polygon class="st12" points="467.7,543.8 467.7,545.7 428.9,546.9 428.9,543.8 		"/>
		<rect x="425.6" y="535.3" class="st11" width="38.8" height="8.6"/>
		<g class="st13">
			<path class="st14" d="M462.7,542.9c-0.8-2.2-0.8-4.6,0-6.9C463.5,538.3,463.5,540.7,462.7,542.9z"/>
			<path class="st14" d="M459.8,542.9c-0.4-1.1-0.6-2.3-0.6-3.4c0-1.2,0.2-2.3,0.6-3.4c0.4,1.1,0.6,2.3,0.6,3.4
				C460.4,540.7,460.2,541.8,459.8,542.9z"/>
			<path class="st14" d="M458.4,542.9c-0.8-2.2-0.8-4.6,0-6.9C459.2,538.3,459.2,540.7,458.4,542.9z"/>
			<path class="st14" d="M450.7,542.9c-0.8-2.2-0.8-4.6,0-6.9C451.5,538.3,451.5,540.7,450.7,542.9z"/>
			<path class="st14" d="M448.5,542.9c-0.4-1.1-0.6-2.3-0.6-3.4c0-1.2,0.2-2.3,0.6-3.4c0.4,1.1,0.6,2.3,0.6,3.4
				C449.2,540.7,448.9,541.8,448.5,542.9z"/>
			<path class="st14" d="M439.9,542.9c-0.8-2.2-0.8-4.6,0-6.9C440.7,538.3,440.7,540.7,439.9,542.9z"/>
			<path class="st14" d="M437.9,542.9c-0.4-1.1-0.6-2.3-0.6-3.4c0-1.2,0.2-2.3,0.6-3.4C438.7,538.3,438.7,540.7,437.9,542.9
				L437.9,542.9z"/>
			<path class="st14" d="M434.2,542.9c-0.8-2.2-0.8-4.6,0-6.9C435,538.3,435,540.7,434.2,542.9z"/>
			<path class="st14" d="M441.6,542.9c-0.4-1.1-0.6-2.3-0.6-3.4c0-1.2,0.2-2.3,0.6-3.4c0.4,1.1,0.6,2.3,0.6,3.4
				C442.2,540.7,442,541.8,441.6,542.9z"/>
			<path class="st14" d="M455.8,542.9c-0.4-1.1-0.6-2.3-0.6-3.4c0-1.2,0.2-2.3,0.6-3.4C456.7,538.3,456.7,540.7,455.8,542.9
				L455.8,542.9z"/>
			<path class="st14" d="M445.8,542.9c-0.8-2.2-0.8-4.6,0-6.9C446.6,538.3,446.6,540.7,445.8,542.9z"/>
			<path class="st14" d="M444.4,542.9c-0.8-2.2-0.8-4.6,0-6.9C445.2,538.3,445.2,540.7,444.4,542.9z"/>
			<path class="st14" d="M429.4,542.9c-0.8-2.2-0.8-4.6,0-6.9c0.4,1.1,0.6,2.3,0.6,3.4C430.1,540.7,429.8,541.8,429.4,542.9z"/>
			<path class="st14" d="M427.2,542.9c-0.4-1.1-0.6-2.3-0.6-3.4c0-1.2,0.2-2.3,0.6-3.4c0.4,1.1,0.6,2.3,0.6,3.4
				C427.9,540.7,427.7,541.8,427.2,542.9z"/>
			<path class="st14" d="M432.5,542.9c-0.8-2.2-0.8-4.6,0-6.9C433.3,538.3,433.3,540.7,432.5,542.9z"/>
			<path class="st14" d="M452.3,542.9c-0.4-1.1-0.6-2.3-0.6-3.4c0-1.2,0.2-2.3,0.6-3.4c0.4,1.1,0.6,2.3,0.6,3.4
				C453,540.7,452.8,541.8,452.3,542.9z"/>
		</g>
		<polygon class="st12" points="464.4,535.3 464.4,537.1 425.6,538.3 425.6,535.3 		"/>
		<rect x="428.6" y="526.8" class="st11" width="38.8" height="8.6"/>
		<g class="st13">
			<path class="st14" d="M430.2,527.5c0.8,2.2,0.8,4.7,0,6.9C429.4,532.2,429.4,529.8,430.2,527.5z"/>
			<path class="st14" d="M433.1,527.5c0.4,1.1,0.6,2.3,0.6,3.4c0,1.2-0.2,2.3-0.6,3.4C432.3,532.2,432.3,529.8,433.1,527.5z"/>
			<path class="st14" d="M434.5,527.5c0.8,2.2,0.8,4.7,0,6.9C433.7,532.2,433.7,529.8,434.5,527.5z"/>
			<path class="st14" d="M442.3,527.5c0.8,2.2,0.8,4.7,0,6.9C441.5,532.2,441.5,529.8,442.3,527.5z"/>
			<path class="st14" d="M444.4,527.5c0.4,1.1,0.6,2.3,0.6,3.4c0,1.2-0.2,2.3-0.6,3.4c-0.4-1.1-0.6-2.3-0.6-3.4
				C443.7,529.8,443.9,528.6,444.4,527.5z"/>
			<path class="st14" d="M453,527.5c0.8,2.2,0.8,4.7,0,6.9C452.2,532.2,452.2,529.8,453,527.5z"/>
			<path class="st14" d="M455,527.5c0.8,2.2,0.8,4.7,0,6.9C454.2,532.2,454.2,529.8,455,527.5z"/>
			<path class="st14" d="M458.7,527.5c0.8,2.2,0.8,4.7,0,6.9C457.9,532.2,457.9,529.8,458.7,527.5z"/>
			<path class="st14" d="M451.4,527.5c0.4,1.1,0.6,2.3,0.6,3.4c0,1.2-0.2,2.3-0.6,3.4c-0.4-1.1-0.6-2.3-0.6-3.4
				C450.7,529.8,450.9,528.6,451.4,527.5z"/>
			<path class="st14" d="M437.1,527.5c0.8,2.2,0.8,4.7,0,6.9C436.3,532.2,436.3,529.8,437.1,527.5z"/>
			<path class="st14" d="M447.1,527.5c0.8,2.2,0.8,4.7,0,6.9C446.3,532.2,446.3,529.8,447.1,527.5z"/>
			<path class="st14" d="M448.6,527.5c0.8,2.2,0.8,4.7,0,6.9C447.8,532.2,447.8,529.8,448.6,527.5z"/>
			<path class="st14" d="M463.5,527.5c0.8,2.2,0.8,4.7,0,6.9c-0.4-1.1-0.6-2.3-0.6-3.4C462.9,529.8,463.1,528.6,463.5,527.5z"/>
			<path class="st14" d="M465.7,527.5c0.4,1.1,0.6,2.3,0.6,3.4c0,1.2-0.2,2.3-0.6,3.4c-0.4-1.1-0.6-2.3-0.6-3.4
				C465.1,529.8,465.3,528.6,465.7,527.5z"/>
			<path class="st14" d="M460.4,527.5c0.8,2.2,0.8,4.7,0,6.9C459.6,532.2,459.6,529.8,460.4,527.5z"/>
			<path class="st14" d="M440.6,527.5c0.4,1.1,0.6,2.3,0.6,3.4c0,1.2-0.2,2.3-0.6,3.4c-0.4-1.1-0.6-2.3-0.6-3.4
				C440,529.8,440.2,528.6,440.6,527.5z"/>
		</g>
		<polygon class="st12" points="467.4,526.8 467.4,528.6 428.6,529.8 428.6,526.8 		"/>
		<rect x="145.1" y="538.7" class="st11" width="38.8" height="8.6"/>
		<g class="st13">
			<path class="st14" d="M146.7,539.4c0.8,2.2,0.8,4.7,0,6.9C145.9,544.1,145.9,541.6,146.7,539.4z"/>
			<path class="st14" d="M149.6,539.4c0.4,1.1,0.6,2.3,0.6,3.4c0,1.2-0.2,2.3-0.6,3.4c-0.4-1.1-0.6-2.3-0.6-3.4
				C149,541.7,149.2,540.5,149.6,539.4z"/>
			<path class="st14" d="M151.1,539.4c0.4,1.1,0.6,2.3,0.6,3.4c0,1.2-0.2,2.3-0.6,3.4c-0.4-1.1-0.6-2.3-0.6-3.4
				C150.4,541.7,150.6,540.5,151.1,539.4z"/>
			<path class="st14" d="M158.8,539.4c0.8,2.2,0.8,4.7,0,6.9C158,544.1,158,541.6,158.8,539.4z"/>
			<path class="st14" d="M160.9,539.4c0.8,2.2,0.8,4.7,0,6.9C160.1,544.1,160.1,541.6,160.9,539.4z"/>
			<path class="st14" d="M169.6,539.4c0.4,1.1,0.6,2.3,0.6,3.4c0,1.2-0.2,2.3-0.6,3.4C168.7,544.1,168.7,541.6,169.6,539.4z"/>
			<path class="st14" d="M171.6,539.4c0.4,1.1,0.6,2.3,0.6,3.4c0,1.2-0.2,2.3-0.6,3.4c-0.4-1.1-0.6-2.3-0.6-3.4
				C170.9,541.7,171.1,540.5,171.6,539.4z"/>
			<path class="st14" d="M175.2,539.4c0.4,1.1,0.6,2.3,0.6,3.4c0,1.2-0.2,2.3-0.6,3.4C174.4,544.1,174.4,541.6,175.2,539.4z"/>
			<path class="st14" d="M167.9,539.4c0.8,2.2,0.8,4.7,0,6.9c-0.4-1.1-0.6-2.3-0.6-3.4C167.3,541.7,167.5,540.5,167.9,539.4z"/>
			<path class="st14" d="M153.6,539.4c0.4,1.1,0.6,2.3,0.6,3.4c0,1.2-0.2,2.3-0.6,3.4c-0.4-1.1-0.6-2.3-0.6-3.4
				C153,541.7,153.2,540.5,153.6,539.4z"/>
			<path class="st14" d="M163.7,539.4c0.8,2.2,0.8,4.7,0,6.9C162.8,544.1,162.8,541.6,163.7,539.4z"/>
			<path class="st14" d="M165.1,539.4c0.8,2.2,0.8,4.7,0,6.9C164.3,544.1,164.3,541.6,165.1,539.4z"/>
			<path class="st14" d="M180,539.4c0.8,2.2,0.8,4.7,0,6.9C179.2,544.1,179.2,541.6,180,539.4z"/>
			<path class="st14" d="M182.2,539.4c0.8,2.2,0.8,4.7,0,6.9C181.4,544.1,181.4,541.6,182.2,539.4z"/>
			<path class="st14" d="M177,539.4c0.4,1.1,0.6,2.3,0.6,3.4c0,1.2-0.2,2.3-0.6,3.4C176.1,544.1,176.1,541.6,177,539.4z"/>
			<path class="st14" d="M157.1,539.4c0.4,1.1,0.6,2.3,0.6,3.4c0,1.2-0.2,2.3-0.6,3.4c-0.4-1.1-0.6-2.3-0.6-3.4
				C156.5,541.7,156.7,540.5,157.1,539.4z"/>
		</g>
		<polygon class="st12" points="184,538.7 184,540.5 145.1,541.7 145.1,538.7 		"/>
		<rect x="142.5" y="530.1" class="st11" width="38.8" height="8.6"/>
		<g class="st13">
			<path class="st14" d="M144.1,530.9c0.4,1.1,0.6,2.3,0.6,3.4c0,1.2-0.2,2.3-0.6,3.4c-0.4-1.1-0.6-2.3-0.6-3.4
				C143.5,533.1,143.7,532,144.1,530.9z"/>
			<path class="st14" d="M147,530.9c0.8,2.2,0.8,4.7,0,6.9C146.2,535.5,146.2,533.1,147,530.9z"/>
			<path class="st14" d="M148.4,530.9c0.8,2.2,0.8,4.7,0,6.9C147.6,535.5,147.6,533.1,148.4,530.9z"/>
			<path class="st14" d="M156.1,530.9c0.8,2.2,0.8,4.7,0,6.9c-0.4-1.1-0.6-2.3-0.6-3.4C155.5,533.1,155.7,532,156.1,530.9z"/>
			<path class="st14" d="M158.2,530.9c0.8,2.2,0.8,4.7,0,6.9C157.4,535.5,157.4,533.1,158.2,530.9z"/>
			<path class="st14" d="M166.9,530.9c0.8,2.2,0.8,4.7,0,6.9C166.1,535.5,166.1,533.1,166.9,530.9z"/>
			<path class="st14" d="M168.9,530.9c0.8,2.2,0.8,4.7,0,6.9C168.1,535.5,168.1,533.1,168.9,530.9z"/>
			<path class="st14" d="M172.6,530.9c0.8,2.2,0.8,4.7,0,6.9C171.7,535.5,171.7,533.1,172.6,530.9z"/>
			<path class="st14" d="M165.2,530.9c0.8,2.2,0.8,4.7,0,6.9C164.4,535.5,164.4,533.1,165.2,530.9z"/>
			<path class="st14" d="M151,530.9c0.8,2.2,0.8,4.7,0,6.9C150.1,535.5,150.1,533.1,151,530.9z"/>
			<path class="st14" d="M161,530.9c0.4,1.1,0.6,2.3,0.6,3.4c0,1.2-0.2,2.3-0.6,3.4c-0.4-1.1-0.6-2.3-0.6-3.4
				C160.4,533.1,160.6,532,161,530.9z"/>
			<path class="st14" d="M162.4,530.9c0.8,2.2,0.8,4.7,0,6.9c-0.4-1.1-0.6-2.3-0.6-3.4C161.8,533.1,162,532,162.4,530.9z"/>
			<path class="st14" d="M177.4,530.9c0.4,1.1,0.6,2.3,0.6,3.4c0,1.2-0.2,2.3-0.6,3.4C176.6,535.5,176.6,533.1,177.4,530.9z"/>
			<path class="st14" d="M179.5,530.9c0.8,2.2,0.8,4.7,0,6.9C178.7,535.5,178.7,533.1,179.5,530.9z"/>
			<path class="st14" d="M174.3,530.9c0.8,2.2,0.8,4.7,0,6.9C173.5,535.5,173.5,533.1,174.3,530.9z"/>
			<path class="st14" d="M154.5,530.9c0.8,2.2,0.8,4.7,0,6.9C153.6,535.5,153.6,533.1,154.5,530.9z"/>
		</g>
		<polygon class="st12" points="181.3,530.1 181.3,531.9 142.5,533.1 142.5,530.1 		"/>
		<rect x="148.5" y="513" class="st11" width="38.8" height="8.6"/>
		<g class="st13">
			<path class="st14" d="M150.1,513.8c0.8,2.2,0.8,4.7,0,6.9C149.3,518.5,149.3,516,150.1,513.8z"/>
			<path class="st14" d="M153,513.8c0.4,1.1,0.6,2.3,0.6,3.4c0,1.2-0.2,2.3-0.6,3.4c-0.4-1.1-0.6-2.3-0.6-3.4
				C152.3,516.1,152.5,514.9,153,513.8z"/>
			<path class="st14" d="M154.4,513.8c0.4,1.1,0.6,2.3,0.6,3.4c0,1.2-0.2,2.3-0.6,3.4c-0.4-1.1-0.6-2.3-0.6-3.4
				C153.8,516.1,154,514.9,154.4,513.8z"/>
			<path class="st14" d="M162.1,513.8c0.4,1.1,0.6,2.3,0.6,3.4c0,1.2-0.2,2.3-0.6,3.4C161.3,518.5,161.3,516,162.1,513.8z"/>
			<path class="st14" d="M164.2,513.8c0.8,2.2,0.8,4.7,0,6.9C163.4,518.5,163.4,516,164.2,513.8z"/>
			<path class="st14" d="M172.9,513.8c0.4,1.1,0.6,2.3,0.6,3.4c0,1.2-0.2,2.3-0.6,3.4c-0.4-1.1-0.6-2.3-0.6-3.4
				C172.3,516.1,172.5,514.9,172.9,513.8z"/>
			<path class="st14" d="M174.9,513.8c0.4,1.1,0.6,2.3,0.6,3.4c0,1.2-0.2,2.3-0.6,3.4c-0.4-1.1-0.6-2.3-0.6-3.4
				C174.3,516.1,174.5,514.9,174.9,513.8z"/>
			<path class="st14" d="M178.6,513.8c0.4,1.1,0.6,2.3,0.6,3.4c0,1.2-0.2,2.3-0.6,3.4C177.8,518.5,177.8,516,178.6,513.8z"/>
			<path class="st14" d="M171.2,513.8c0.8,2.2,0.8,4.7,0,6.9C170.4,518.5,170.4,516,171.2,513.8z"/>
			<path class="st14" d="M157,513.8c0.4,1.1,0.6,2.3,0.6,3.4c0,1.2-0.2,2.3-0.6,3.4c-0.4-1.1-0.6-2.3-0.6-3.4
				C156.3,516.1,156.5,514.9,157,513.8z"/>
			<path class="st14" d="M167,513.8c0.8,2.2,0.8,4.7,0,6.9C166.2,518.5,166.2,516,167,513.8z"/>
			<path class="st14" d="M168.4,513.8c0.8,2.2,0.8,4.7,0,6.9C167.6,518.5,167.6,516,168.4,513.8z"/>
			<path class="st14" d="M183.4,513.8c0.8,2.2,0.8,4.7,0,6.9C182.6,518.5,182.6,516,183.4,513.8z"/>
			<path class="st14" d="M185.6,513.8c0.8,2.2,0.8,4.7,0,6.9C184.7,518.5,184.7,516,185.6,513.8z"/>
			<path class="st14" d="M180.3,513.8c0.4,1.1,0.6,2.3,0.6,3.4c0,1.2-0.2,2.3-0.6,3.4c-0.4-1.1-0.6-2.3-0.6-3.4
				C179.7,516.1,179.9,514.9,180.3,513.8z"/>
			<path class="st14" d="M160.5,513.8c0.4,1.1,0.6,2.3,0.6,3.4c0,1.2-0.2,2.3-0.6,3.4c-0.4-1.1-0.6-2.3-0.6-3.4
				C159.8,516.1,160,514.9,160.5,513.8z"/>
		</g>
		<polygon class="st12" points="187.3,513 187.3,514.8 148.5,516.1 148.5,513 		"/>
		<rect x="147.5" y="504.5" class="st11" width="38.8" height="8.6"/>
		<g class="st13">
			<path class="st14" d="M184.6,512.1c-0.8-2.2-0.8-4.6,0-6.9C185.4,507.5,185.4,509.9,184.6,512.1z"/>
			<path class="st14" d="M181.7,512.1c-0.4-1.1-0.6-2.3-0.6-3.4c0-1.2,0.2-2.3,0.6-3.4c0.4,1.1,0.6,2.3,0.6,3.4
				C182.3,509.8,182.1,511,181.7,512.1z"/>
			<path class="st14" d="M180.3,512.1c-0.4-1.1-0.6-2.3-0.6-3.4c0-1.2,0.2-2.3,0.6-3.4c0.4,1.1,0.6,2.3,0.6,3.4
				C180.9,509.8,180.7,511,180.3,512.1z"/>
			<path class="st14" d="M172.6,512.1c-0.8-2.2-0.8-4.6,0-6.9C173.4,507.5,173.4,509.9,172.6,512.1z"/>
			<path class="st14" d="M170.4,512.1c-0.8-2.2-0.8-4.6,0-6.9C171.2,507.5,171.2,509.9,170.4,512.1z"/>
			<path class="st14" d="M161.8,512.1c-0.4-1.1-0.6-2.3-0.6-3.4c0-1.2,0.2-2.3,0.6-3.4C162.6,507.5,162.6,509.9,161.8,512.1
				L161.8,512.1z"/>
			<path class="st14" d="M159.7,512.1c-0.4-1.1-0.6-2.3-0.6-3.4c0-1.2,0.2-2.3,0.6-3.4c0.4,1.1,0.6,2.3,0.6,3.4
				C160.4,509.8,160.2,511,159.7,512.1z"/>
			<path class="st14" d="M156.1,512.1c-0.8-2.2-0.8-4.6,0-6.9C156.9,507.5,156.9,509.9,156.1,512.1z"/>
			<path class="st14" d="M163.4,512.1c-0.4-1.1-0.6-2.3-0.6-3.4c0-1.2,0.2-2.3,0.6-3.4c0.4,1.1,0.6,2.3,0.6,3.4
				C164.1,509.8,163.9,511,163.4,512.1z"/>
			<path class="st14" d="M177.7,512.1c-0.4-1.1-0.6-2.3-0.6-3.4c0-1.2,0.2-2.3,0.6-3.4c0.4,1.1,0.6,2.3,0.6,3.4
				C178.3,509.8,178.1,511,177.7,512.1z"/>
			<path class="st14" d="M167.6,512.1c-0.8-2.2-0.8-4.6,0-6.9C168.4,507.5,168.4,509.9,167.6,512.1z"/>
			<path class="st14" d="M166.2,512.1c-0.8-2.2-0.8-4.6,0-6.9C167,507.5,167,509.9,166.2,512.1z"/>
			<path class="st14" d="M151.3,512.1c-0.8-2.2-0.8-4.6,0-6.9C152.1,507.5,152.1,509.9,151.3,512.1z"/>
			<path class="st14" d="M149.1,512.1c-0.8-2.2-0.8-4.6,0-6.9C149.9,507.5,149.9,509.9,149.1,512.1z"/>
			<path class="st14" d="M154.4,512.1c-0.8-2.2-0.8-4.6,0-6.9C155.2,507.5,155.2,509.9,154.4,512.1z"/>
			<path class="st14" d="M174.2,512.1c-0.4-1.1-0.6-2.3-0.6-3.4c0-1.2,0.2-2.3,0.6-3.4c0.4,1.1,0.6,2.3,0.6,3.4
				C174.8,509.8,174.6,511,174.2,512.1z"/>
		</g>
		<polygon class="st12" points="186.3,504.5 186.3,506.3 147.5,507.5 147.5,504.5 		"/>
		<rect x="145.1" y="495.9" class="st11" width="38.8" height="8.6"/>
		<g class="st13">
			<path class="st14" d="M146.7,496.7c0.8,2.2,0.8,4.6,0,6.9C145.9,501.3,145.9,498.9,146.7,496.7z"/>
			<path class="st14" d="M149.6,496.7c0.4,1.1,0.6,2.3,0.6,3.4c0,1.2-0.2,2.3-0.6,3.4c-0.4-1.1-0.6-2.3-0.6-3.4
				C149,498.9,149.2,497.8,149.6,496.7z"/>
			<path class="st14" d="M151.1,496.7c0.4,1.1,0.6,2.3,0.6,3.4c0,1.2-0.2,2.3-0.6,3.4c-0.4-1.1-0.6-2.3-0.6-3.4
				C150.4,498.9,150.6,497.8,151.1,496.7z"/>
			<path class="st14" d="M158.8,496.7c0.8,2.2,0.8,4.6,0,6.9C158,501.3,158,498.9,158.8,496.7z"/>
			<path class="st14" d="M160.9,496.7c0.8,2.2,0.8,4.6,0,6.9C160.1,501.3,160.1,498.9,160.9,496.7z"/>
			<path class="st14" d="M169.6,496.7c0.8,2.2,0.8,4.6,0,6.9C168.7,501.3,168.7,498.9,169.6,496.7z"/>
			<path class="st14" d="M171.6,496.7c0.4,1.1,0.6,2.3,0.6,3.4c0,1.2-0.2,2.3-0.6,3.4c-0.4-1.1-0.6-2.3-0.6-3.4
				C170.9,498.9,171.1,497.8,171.6,496.7z"/>
			<path class="st14" d="M175.2,496.7c0.8,2.2,0.8,4.6,0,6.9C174.4,501.3,174.4,498.9,175.2,496.7z"/>
			<path class="st14" d="M167.9,496.7c0.4,1.1,0.6,2.3,0.6,3.4c0,1.2-0.2,2.3-0.6,3.4c-0.4-1.1-0.6-2.3-0.6-3.4
				C167.2,498.9,167.5,497.8,167.9,496.7z"/>
			<path class="st14" d="M153.6,496.7c0.4,1.1,0.6,2.3,0.6,3.4c0,1.2-0.2,2.3-0.6,3.4c-0.4-1.1-0.6-2.3-0.6-3.4
				C153,498.9,153.2,497.8,153.6,496.7z"/>
			<path class="st14" d="M163.7,496.7c0.8,2.2,0.8,4.6,0,6.9C162.8,501.3,162.8,498.9,163.7,496.7z"/>
			<path class="st14" d="M165.1,496.7c0.8,2.2,0.8,4.6,0,6.9C164.3,501.3,164.3,498.9,165.1,496.7z"/>
			<path class="st14" d="M180,496.7c0.8,2.2,0.8,4.6,0,6.9C179.2,501.3,179.2,498.9,180,496.7z"/>
			<path class="st14" d="M182.2,496.7c0.8,2.2,0.8,4.6,0,6.9C181.4,501.3,181.4,498.9,182.2,496.7z"/>
			<path class="st14" d="M177,496.7c0.8,2.2,0.8,4.6,0,6.9C176.1,501.3,176.1,498.9,177,496.7z"/>
			<path class="st14" d="M157.1,496.7c0.4,1.1,0.6,2.3,0.6,3.4c0,1.2-0.2,2.3-0.6,3.4c-0.4-1.1-0.6-2.3-0.6-3.4
				C156.5,498.9,156.7,497.8,157.1,496.7z"/>
		</g>
		<polygon class="st12" points="184,495.9 184,497.7 145.1,498.9 145.1,495.9 		"/>
		<rect x="145.1" y="521.6" class="st11" width="38.8" height="8.6"/>
		<g class="st13">
			<path class="st14" d="M182.2,529.3c-0.8-2.2-0.8-4.7,0-6.9C183,524.6,183,527,182.2,529.3z"/>
			<path class="st14" d="M179.3,529.3c-0.8-2.2-0.8-4.7,0-6.9C180.1,524.6,180.1,527,179.3,529.3z"/>
			<path class="st14" d="M177.9,529.3c-0.8-2.2-0.8-4.7,0-6.9c0.4,1.1,0.6,2.3,0.6,3.4C178.5,527,178.3,528.2,177.9,529.3z"/>
			<path class="st14" d="M170.2,529.3c-0.4-1.1-0.6-2.3-0.6-3.4c0-1.2,0.2-2.3,0.6-3.4c0.4,1.1,0.6,2.3,0.6,3.4
				C170.8,527,170.6,528.2,170.2,529.3z"/>
			<path class="st14" d="M168.1,529.3c-0.8-2.2-0.8-4.7,0-6.9C168.9,524.6,168.9,527,168.1,529.3z"/>
			<path class="st14" d="M159.4,529.3c-0.4-1.1-0.6-2.3-0.6-3.4c0-1.2,0.2-2.3,0.6-3.4c0.4,1.1,0.6,2.3,0.6,3.4
				C160,527,159.8,528.2,159.4,529.3z"/>
			<path class="st14" d="M157.4,529.3c-0.8-2.2-0.8-4.7,0-6.9c0.4,1.1,0.6,2.3,0.6,3.4C158,527,157.8,528.2,157.4,529.3z"/>
			<path class="st14" d="M153.7,529.3c-0.4-1.1-0.6-2.3-0.6-3.4c0-1.2,0.2-2.3,0.6-3.4c0.4,1.1,0.6,2.3,0.6,3.4
				C154.3,527,154.1,528.2,153.7,529.3z"/>
			<path class="st14" d="M161.1,529.3c-0.8-2.2-0.8-4.7,0-6.9C161.9,524.6,161.9,527,161.1,529.3z"/>
			<path class="st14" d="M175.3,529.3c-0.8-2.2-0.8-4.7,0-6.9c0.4,1.1,0.6,2.3,0.6,3.4C176,527,175.8,528.2,175.3,529.3z"/>
			<path class="st14" d="M165.3,529.3c-0.8-2.2-0.8-4.7,0-6.9C166.1,524.6,166.1,527,165.3,529.3z"/>
			<path class="st14" d="M163.9,529.3c-0.4-1.1-0.6-2.3-0.6-3.4c0-1.2,0.2-2.3,0.6-3.4c0.4,1.1,0.6,2.3,0.6,3.4
				C164.5,527,164.3,528.2,163.9,529.3z"/>
			<path class="st14" d="M148.9,529.3c-0.8-2.2-0.8-4.7,0-6.9C149.7,524.6,149.7,527,148.9,529.3z"/>
			<path class="st14" d="M146.7,529.3c-0.8-2.2-0.8-4.7,0-6.9C147.6,524.6,147.6,527,146.7,529.3z"/>
			<path class="st14" d="M152,529.3c-0.4-1.1-0.6-2.3-0.6-3.4c0-1.2,0.2-2.3,0.6-3.4c0.4,1.1,0.6,2.3,0.6,3.4
				C152.6,527,152.4,528.2,152,529.3z"/>
			<path class="st14" d="M171.8,529.3c-0.8-2.2-0.8-4.7,0-6.9C172.6,524.6,172.6,527,171.8,529.3z"/>
		</g>
		<polygon class="st12" points="184,521.6 184,523.4 145.1,524.6 145.1,521.6 		"/>
		<path class="st11" d="M141.9,517.3c25.5,4.6,18.8,42.4-6.8,37.8C109.5,550.6,116.3,512.7,141.9,517.3z"/>
		<path class="st12" d="M141.9,517.3c25.5,4.6,18.8,42.4-6.8,37.8C109.5,550.6,116.3,512.7,141.9,517.3z"/>
		<path class="st11" d="M139.5,516.9c24.3,4.4,17.6,42.2-6.8,37.8C108.3,550.3,115.1,512.5,139.5,516.9z"/>
		<path class="st12" d="M120.7,536.7c0.1,6.7,4.1,13.3,12.6,14.8c20.2,3.6,25.8-27.8,5.6-31.4l-0.4-0.1c18.9,3.8,13.5,33.5-5.8,30
			C126,549.2,120.9,543.5,120.7,536.7z"/>
		<g class="st13">
			<path class="st14" d="M138.2,524c0.3,0.1,0.5,0.4,0.5,0.8l-0.3,1c1.7,0.5,3.1,1.6,4.2,3c0.2,0.2,0.3,0.4,0.2,0.7
				c-0.1,0.4-0.5,0.6-0.8,0.5c-0.2,0-0.3-0.2-0.4-0.3c-0.9-1.2-2.1-2.1-3.5-2.6l-1.8,7.3c3.7,1.8,5,3.7,4.4,6.2
				c-0.7,2.8-3.5,4.1-6.8,3.4l-0.5,2c0,0.4-0.4,0.6-0.7,0.6c-0.4,0-0.6-0.4-0.6-0.7c0-0.1,0-0.1,0-0.2l0.5-2.1c-2.1-0.7-4-2.1-5.2-4
				c-0.2-0.2-0.2-0.4-0.1-0.6c0.1-0.3,0.5-0.6,0.8-0.5c0.2,0,0.3,0.1,0.4,0.3c1,1.7,2.6,3,4.5,3.6l1.8-7.4c-3.7-1.8-4.9-3.7-4.3-6.2
				c0.7-2.5,3.4-4.1,6.6-3.3l0.2-1C137.6,524.2,137.9,524,138.2,524z M135.2,533.8l1.8-7.1c-2.5-0.6-4.6,0.5-5,2.4
				S132,532.1,135.2,533.8L135.2,533.8z M135.9,535.6l-1.7,7.2c2.6,0.6,4.7-0.5,5.2-2.5C139.9,538.3,139.1,537.2,135.9,535.6
				L135.9,535.6z"/>
		</g>
	</g>
</g>
</svg>
