<?xml version="1.0" encoding="utf-8"?>
<!-- Generator: Adobe Illustrator 24.0.1, SVG Export Plug-In . SVG Version: 6.00 Build 0)  -->
<svg version="1.1" id="Livello_1" xmlns="http://www.w3.org/2000/svg" xmlns:xlink="http://www.w3.org/1999/xlink" x="0px" y="0px"
	 viewBox="0 0 595.9 595.3" style="enable-background:new 0 0 595.9 595.3;" xml:space="preserve">
<style type="text/css">
	.st0{fill:#EBEBEB;}
	.st1{fill:#DBDBDB;}
	.st2{fill:#C8C7C7;}
	.st3{fill:#23333A;}
	.st4{fill:#415B66;}
	.st5{fill:#F7BDBF;}
	.st6{fill:#2552A0;}
	.st7{fill:#FFFFFF;}
	.st8{fill:#F18FB6;}
	.st9{fill:#F7DE72;}
	.st10{fill:#CAB038;}
	.st11{fill:#F18A00;}
	.st12{opacity:0.1;fill:#020203;enable-background:new    ;}
	.st13{opacity:0.1;}
	.st14{fill:#020203;}
	.st15{opacity:0.1;fill:#E57A06;enable-background:new    ;}
	.st16{opacity:0.3;fill:#020203;enable-background:new    ;}
	.st17{fill:#142035;}
	.st18{font-family:'Amatic-Bold';}
	.st19{font-size:63.1004px;}
</style>
<g>
	<g id="freepik--background-complete--inject-2">
		<path class="st0" d="M-481.7,118.9c-64.1,0-64.2,91.2,0,91.2S-417.5,118.9-481.7,118.9z"/>
		<path class="st1" d="M-442.8,173c-3.4,15.7-16.4,29.3-39,29.3c-53.3,0-53.2-75.7,0-75.7c0.3,0,0.7,0,1,0
			c-50.1,0.9-49.8,72.6,1,72.6C-459,199.2-446.7,187.3-442.8,173z"/>
		<path class="st1" d="M-481.4,136.6c0.9,0,1.6,0.7,1.7,1.5v2.5c4.5,0.3,8.7,1.8,12.4,4.4c0.6,0.4,1,0.8,1,1.5
			c-0.1,0.9-0.9,1.6-1.8,1.6c-0.5,0-0.9-0.1-1.2-0.4c-3-2.3-6.6-3.7-10.4-4.1v17.8c10.5,2,15,5.6,15,11.9c0,6.7-6.2,11.5-14.8,11.7
			v4.9c-0.1,0.9-0.9,1.6-1.8,1.5c-0.8-0.1-1.5-0.7-1.5-1.5V185c-5.7-0.4-11.2-2.5-15.6-6.2c-0.5-0.3-0.8-0.8-0.8-1.3
			c0.1-0.9,0.8-1.6,1.7-1.6c0.5,0,0.9,0.2,1.2,0.4c3.8,3.3,8.5,5.4,13.5,5.8V164c-10.4-2.1-14.7-5.6-14.7-11.9s6.1-11.3,14.6-11.5
			v-2.5C-482.9,137.2-482.2,136.6-481.4,136.6z M-482.9,160.7v-17.3c-6.7,0.1-11.1,3.8-11.1,8.4
			C-494.1,156.2-491.8,158.8-482.9,160.7z M-479.8,164.6v17.5c6.9-0.1,11.4-3.8,11.4-8.7C-468.4,169.1-470.8,166.5-479.8,164.6z"/>
		<path class="st1" d="M-119.2,391.6c-57.7,10.4-42.5,95.9,15.3,85.5S-61.4,381.2-119.2,391.6z"/>
		<path class="st0" d="M-113.8,390.6c-55,9.9-39.8,95.4,15.3,85.5S-58.7,380.7-113.8,390.6z"/>
		<path class="st1" d="M-71.2,435.4c-0.3,15.2-9.2,30-28.5,33.5c-45.8,8.2-58.4-62.8-12.7-71c0.3-0.1,0.6-0.1,0.9-0.1
			c-42.8,8.6-30.5,75.7,13.1,67.9C-80.8,462.5-72.2,449.3-71.2,435.4z"/>
		<path class="st1" d="M-102.8,407.2c0.8,0.1,1.3,0.8,1.2,1.6l-0.3,2.4c3.9,0.8,7.4,2.7,10.2,5.5c0.5,0.3,0.7,0.9,0.7,1.5
			c-0.1,0.8-0.9,1.4-1.7,1.3c-0.4,0-0.8-0.2-1-0.5c-2.3-2.5-5.3-4.2-8.6-4.9l-2,16.8c8.9,3,12.4,6.9,11.7,12.8
			c-0.7,6.4-6.6,10.2-14.2,9.6l-0.6,4.7c-0.1,0.8-0.8,1.4-1.6,1.3s-1.4-0.8-1.3-1.6l0,0l0.6-4.8c-5-1-9.5-3.6-12.8-7.4
			c-0.6-0.6-0.7-1.5-0.1-2.1c0.3-0.4,0.8-0.6,1.3-0.5c0.4,0,0.8,0.2,1,0.5c2.8,3.5,6.7,5.9,11.1,6.8l2.1-17.1
			c-8.8-3-12.1-6.8-11.4-12.8s6.5-10.1,13.9-9.4l0.3-2.3C-104.3,407.7-103.6,407.1-102.8,407.2z M-106.8,429.8l1.9-16.4
			c-5.8-0.6-10.1,2.5-10.6,6.8C-116,424.3-114.4,427.1-106.8,429.8L-106.8,429.8z M-104.6,433.8l-1.9,16.6c6,0.6,10.3-2.5,10.9-7
			C-95.2,439.2-97,436.5-104.6,433.8L-104.6,433.8z"/>
		<path class="st0" d="M-102.5,362.7l16.5-0.3l8.1-0.1c2.7-0.1,5.4,0,8.1-0.1l-0.5,0.6l-0.1-13.8l0.6,0.6l-16.4-0.1
			c-5.5,0-10.9-0.1-16.4-0.2l0.3-0.3c0,2.3-0.1,4.5-0.2,6.9L-102.5,362.7z M-102.5,362.7l-0.2-6.9c0-2.3-0.1-4.6-0.2-7v-0.3h0.3
			c5.5-0.1,10.9-0.2,16.4-0.2l16.4-0.1h0.6v0.6v13.8v0.6h-0.6c-2.8,0-5.5,0-8.3-0.1l-8.2-0.1L-102.5,362.7z"/>
		<path class="st0" d="M-84.2,380.2l16.5-0.3l8.1-0.1c2.7-0.1,5.4,0,8.1-0.1l-0.5,0.6l-0.1-13.8l0.6,0.6l-16.4-0.1
			c-5.5,0-10.9-0.1-16.4-0.2l0.3-0.3c0,2.3-0.1,4.5-0.2,6.9L-84.2,380.2z M-84.2,380.2l-0.2-6.9c0-2.3-0.1-4.6-0.2-7V366h0.3
			c5.5-0.1,10.9-0.2,16.4-0.2l16.4-0.1h0.6v0.6l-0.1,13.8v0.6h-0.6c-2.8,0-5.5,0-8.3-0.1l-8.2-0.1L-84.2,380.2z"/>
		<path class="st0" d="M-120.8,380.2l16.5-0.3l8.1-0.1c2.7-0.1,5.4,0,8.1-0.1l-0.5,0.6v-13.8l0.6,0.6l-16.4-0.1
			c-5.5,0-10.9-0.1-16.4-0.2l0.3-0.3c0,2.3-0.1,4.5-0.2,6.9L-120.8,380.2z M-120.8,380.2l-0.2-6.9c-0.1-2.3-0.1-4.6-0.2-7V366h0.3
			c5.5-0.1,10.9-0.2,16.4-0.2l16.4-0.1h0.6v0.6v13.8v0.6H-88c-2.8,0-5.5,0-8.3-0.1l-8.2-0.1L-120.8,380.2z"/>
		<path class="st0" d="M-543.1,380.2l16.5-0.3l8.1-0.1c2.7-0.1,5.4,0,8.1-0.1l-0.6,0.6l-0.1-13.8l0.6,0.6l-16.3-0.1
			c-5.5,0-10.9-0.1-16.4-0.2l0.3-0.3c0,2.3-0.1,4.5-0.2,6.9V380.2z M-543.1,380.2l-0.2-6.9c0-2.3-0.1-4.6-0.2-7V366h0.3
			c5.5-0.1,10.9-0.2,16.4-0.2l16.4-0.1h0.6v0.6l-0.1,13.8v0.6h-0.5c-2.8,0-5.5,0-8.3-0.1l-8.2-0.1L-543.1,380.2z"/>
		<path class="st0" d="M-543.1,69.3l16.5-0.3l8.1-0.1c2.7,0,5.4,0,8.1,0l-0.6,0.6l-0.1-13.8l0.6,0.6l-16.3-0.1
			c-5.5,0-10.9-0.1-16.4-0.2l0.3-0.3c0,2.3-0.1,4.5-0.2,6.8V69.3z M-543.1,69.3l-0.2-6.9c0-2.3-0.1-4.7-0.2-7v-0.3h0.3
			c5.5,0,10.9-0.2,16.4-0.2l16.4-0.1h0.6v0.6l-0.1,13.8v0.5h-0.5c-2.8,0-5.5,0-8.3-0.1l-8.2-0.2L-543.1,69.3z"/>
		<path class="st0" d="M-561.3,86.7l16.5-0.3l8.1-0.1c2.7,0,5.4,0,8.1,0l-0.6,0.6v-14l0.6,0.6l-16.4-0.1c-5.5,0-10.9-0.1-16.3-0.1
			l0.3-0.3c0,2.3-0.1,4.5-0.2,6.8L-561.3,86.7z M-561.3,86.7l-0.2-6.9c0-2.3-0.1-4.7-0.2-7v-0.3h0.3c5.5,0,10.9-0.2,16.4-0.2
			l16.4-0.1h0.6v0.6v13.9v0.5h-0.5c-2.8,0-5.5,0-8.3,0l-8.2-0.1L-561.3,86.7z"/>
		<path class="st0" d="M-84.2,69.3l16.5-0.3l8.1-0.1c2.7,0,5.4,0,8.1-0.1l-0.5,0.6l0-14l0.6,0.6l-16.4-0.1c-5.5,0-10.9-0.1-16.4-0.2
			l0.3-0.3c0,2.3-0.1,4.5-0.2,6.8L-84.2,69.3z M-84.2,69.3l-0.2-6.9c0-2.3-0.1-4.6-0.2-7v-0.3h0.3c5.5-0.1,10.9-0.2,16.4-0.2
			l16.3-0.1h0.6v0.6l-0.1,13.8v0.6h-0.6c-2.8,0-5.5,0-8.3,0l-8.2-0.1L-84.2,69.3z"/>
		<path class="st0" d="M-261.6,162.1l-16.5,0.3l-8.1,0.1c-2.7,0-5.4,0-8.1,0.1l0.6-0.6l0.1,13.8l-0.6-0.6l16.4,0.1
			c5.5,0,10.9,0.1,16.4,0.2l-0.3,0.3c0-2.3,0.1-4.5,0.2-6.8L-261.6,162.1z M-261.6,162.1l0.2,6.9c0,2.3,0.1,4.6,0.2,7v0.3h-0.3
			c-5.5,0-10.9,0.2-16.4,0.2l-16.4,0.1h-0.7V176l0.1-13.8v-0.6h0.5c2.8,0,5.5,0,8.3,0l8.2,0.1L-261.6,162.1z"/>
		<path class="st0" d="M-279.9,144.7l-16.5,0.3l-8.1,0.1c-2.7,0-5.4,0-8.1,0.1l0.6-0.6l0.1,13.8l-0.6-0.6l16.4,0.1
			c5.5,0,10.9,0.1,16.4,0.2l-0.3,0.3c0-2.3,0.1-4.5,0.2-6.8L-279.9,144.7z M-279.9,144.7l0.2,6.9c0.1,2.3,0.1,4.6,0.2,7v0.3h-0.3
			c-5.5,0-10.9,0.2-16.4,0.2l-16.4,0.1h-0.6v-0.6l0.1-13.8v-0.6h0.6c2.8,0,5.5,0,8.3,0l8.2,0.1L-279.9,144.7z"/>
		<rect x="-92.3" y="10.1" class="st2" width="1.2" height="147.5"/>
		<polygon class="st0" points="-142.9,207.1 -138.8,216.1 -44.6,216.1 -40.4,207.1 -80.6,179.3 -102.8,179.3 		"/>
		<polygon class="st1" points="-105.6,152.5 -102.8,179.3 -80.6,179.3 -77.8,152.5 		"/>
		<polygon class="st1" points="-142.9,207.1 -138.8,216.1 -44.5,216.1 -40.4,207.1 		"/>
		<rect x="-202.3" y="10.1" class="st2" width="1.2" height="118.3"/>
		<polygon class="st0" points="-252.9,177.8 -248.8,186.9 -154.6,186.9 -150.4,177.8 -190.6,150.1 -212.8,150.1 		"/>
		<polygon class="st1" points="-215.6,123.3 -212.8,150.1 -190.6,150.1 -187.8,123.3 		"/>
		<polygon class="st1" points="-252.9,177.8 -248.8,186.9 -154.6,186.9 -150.4,177.8 		"/>
	</g>
	<g id="freepik--Desk--inject-2">
		<polygon class="st3" points="-559.7,506.4 -496.4,506.1 -433.1,506 -306.4,505.8 -179.8,506 -116.4,506.1 -53.1,506.4 
			-116.4,506.7 -179.8,506.8 -306.4,507 -433.1,506.8 -496.4,506.7 		"/>
	</g>
	<g id="freepik--Shadow--inject-2">
		<ellipse class="st0" cx="-306.4" cy="544.2" rx="228.6" ry="16.9"/>
	</g>
	<g id="freepik--Character--inject-2">
		<path class="st3" d="M-256.9,407.4v0.2v0.1c0,0,0,0.2-0.1,0.3v0.2c0,0.2-0.1,0.3-0.1,0.5c0,0.1,0,0.2-0.1,0.3s-0.1,0.5-0.1,0.8
			c-0.1,0.3-0.2,1-0.3,1.6l-0.6,3c-0.1,0.3-0.1,0.7-0.2,1c-0.1,0.4-0.2,1-0.3,1.5c-0.1,0.5-0.2,1.1-0.3,1.7l0,0
			c-0.1,0.4-0.2,0.9-0.2,1.3c-0.2,1.3-0.5,2.7-0.8,4.2v0.1c-0.3,1.7-0.6,3.5-1,5.4c-0.1,0.5-0.2,1-0.3,1.5s-0.2,1-0.3,1.6l0,0
			c0,0.3-0.1,0.7-0.2,1l0,0c-0.5,2.6-1,5.4-1.5,8.4c-0.2,1-0.4,2-0.5,3c-0.4,2-0.7,4-1.1,6.1c-0.1,0.5-0.2,1-0.3,1.5
			c-0.6,3-1.1,6.2-1.7,9.5c-0.1,0.3-0.1,0.7-0.2,1c-0.3,1.5-0.6,3.1-0.8,4.7c0,0.1-0.1,0.2-0.1,0.4l-0.4,2.3c-0.5,3-1.1,6.1-1.7,9.3
			c-0.1,0.8-0.3,1.6-0.4,2.4c-0.3,1.6-0.6,3.2-0.9,4.8c-0.4,2-0.7,4-1.1,6.1s-0.7,4.1-1.1,6.2c-0.2,1.1-0.4,2.1-0.6,3.2
			c-0.2,1.2-0.5,2.5-0.7,3.8h-107c13.2-54.8,24.3-99,24.3-99L-256.9,407.4z"/>
		<path class="st3" d="M-273.1,419.7c-5.4,28.9-10.8,57.7-16.2,86.6h-1.5c5.7-28.9,11.5-57.8,17.3-86.7
			C-273.4,419.4-273,419.5-273.1,419.7z"/>
		<path class="st4" d="M-256.9,407.4c0,0,0,0.1,0,0.2s0,0.1,0,0.1s0,0.2-0.1,0.3v0.2c0,0.2-0.1,0.3-0.1,0.5c0,0.1,0,0.2-0.1,0.3
			s-0.1,0.5-0.1,0.8s-0.2,1-0.3,1.6c-0.2,0.9-0.3,1.9-0.6,3c-0.1,0.3-0.1,0.7-0.2,1c-0.1,0.4-0.2,1-0.3,1.5
			c-0.1,0.5-0.2,1.1-0.3,1.7l0,0c-0.1,0.4-0.2,0.9-0.2,1.3c-0.2,1.3-0.5,2.7-0.8,4.2v0.1c-0.3,1.7-0.6,3.5-1,5.4
			c-0.1,0.5-0.2,1-0.3,1.5c-0.1,0.5-0.2,1-0.3,1.6l0,0c-0.1,0.3-0.1,0.7-0.2,1l0,0c-0.5,2.6-1,5.4-1.5,8.4c-0.2,1-0.4,2-0.5,3
			c-0.4,2-0.7,4-1.1,6.1c-0.1,0.5-0.2,1-0.3,1.5c-0.6,3-1.1,6.2-1.7,9.5c-0.1,0.3-0.1,0.7-0.2,1c-0.3,1.5-0.6,3.1-0.8,4.7
			c0,0.1-0.1,0.2-0.1,0.4l-0.4,2.3c-0.6,3-1.1,6.1-1.7,9.3c-0.1,0.8-0.3,1.6-0.4,2.4c-0.3,1.6-0.6,3.2-0.9,4.8c-0.4,2-0.7,4-1.1,6.1
			s-0.8,4.1-1.1,6.2c-0.2,1.1-0.4,2.1-0.6,3.2c-0.2,1.2-0.5,2.5-0.7,3.8h-53.7l-4.3-44l-0.1-1.6l-0.2-1.7l0,0l-0.8-8.6l0,0l-0.7-7.4
			l-3.5-35.6L-256.9,407.4L-256.9,407.4z"/>
		<path class="st3" d="M-196.1,506.4h-115.4c-0.2-10.6-0.4-20.9-0.7-30.6l0,0c0-0.2,0-0.5,0-0.7c0,0-13.5-8-20.7-14.2
			c-1.2-1-2.4-2.1-3.4-3.4l0,0l0,0c-4.6-5.9-9.3-28.7-18.9-50.1h141.1C-191.2,451.9-192.8,487.7-196.1,506.4z"/>
		<path class="st4" d="M-339.6,455.9c6.9,2.8,13,7.1,19.1,11.3c6.3,4.3,12.1,9.3,18.2,14c0.2,0.2,0,0.6-0.2,0.4
			c-6.4-4.1-13.1-7.7-19.5-11.9c-6.2-4.1-12.6-8.1-17.9-13.2C-340.1,456.2-339.9,455.8-339.6,455.9z"/>
		<path class="st4" d="M-340.5,416.2c0.8,4.4,1.9,8.7,2.8,13.1c0.9,4.1,1.5,8.3,2.6,12.4c0.9,3.9,2.9,7.5,5.7,10.3
			c1.6,1.5,3.4,2.8,5.1,4.2c0.9,0.7,1.9,1.4,2.9,2.2c-0.1-0.6-0.2-1.2-0.3-1.8l-0.9-4.9c-0.6-3.7-1.2-7.4-1.8-11.1
			c-1.1-7.3-2.1-14.7-3.7-21.9c0-0.1,0.1-0.2,0.2-0.3c0.1,0,0.2,0,0.2,0.1c1.8,7.2,3.8,14.2,5.4,21.4c0.8,3.5,3.5,21,3.7,22.3
			c0.2,1.2,0.2,2.6,0.3,3.8c0.2,1.3,0.2,2.6,0,3.9c-0.1,0.2-0.3,0.2-0.4,0.2s-0.1-0.1-0.2-0.2l0,0c-0.5-1.2-0.9-2.5-1.1-3.8
			c-0.3-1.2-0.6-2.5-0.8-3.8c-0.1-0.4-0.1-0.9-0.2-1.4c-1.7-1.1-3.3-2.5-4.9-3.6s-3.5-2.5-5.1-3.9c-3-2.6-5.2-6-6.3-9.8
			c-1.1-4.1-1.7-8.3-2.1-12.5c-0.6-4.9-1-9.9-1.7-14.8C-341,416-340.5,416-340.5,416.2z"/>
		<path class="st4" d="M-223.1,446.8c-1.8-1-9,0.7-22-1.5c-2.5-0.3-5-1.3-7-2.8c-3.4-2.8-5.9-7.2-8-11c-2.4-4.3-4.3-8.9-5.6-13.6
			c-0.1-0.3-0.5-0.1-0.4,0.1c0.5,2.7,0.7,5.4,1.5,8c0.7,2.5,1.6,4.9,2.7,7.3c2,4.4,4.2,9.1,8.2,12.1c4.1,3.1,9.9,3.7,14.9,4.1
			c2.9,0.2,14.3-0.1,15.8-1.7C-222.7,447.5-222.8,447.1-223.1,446.8C-223.1,446.9-223.1,446.9-223.1,446.8z"/>
		<path class="st5" d="M-330.5,248.7c-11.9,17.6-94.4,123.3-106.3,125.5c-30.4,5.5-58.3-4.9-46.8-31.2
			c13.4-30.5,87.9-91,137.5-117.8C-310.6,206-318.8,231.3-330.5,248.7z"/>
		<path class="st6" d="M-370.8,307l-64.7-29.7c0,0,59.9-41.6,87.9-54.3c29.2-13.2,41-5.5,16.1,28.9C-356,285.7-370.8,307-370.8,307z
			"/>
		<path class="st7" d="M-401,254.2c-0.1,0.1-0.3,0.2-0.4,0.3l50.4,24.6l0.2-0.3L-401,254.2z M-414.9,263.4c-0.1,0.1-0.3,0.2-0.4,0.2
			l55.9,27.2l0.2-0.3L-414.9,263.4z M-428.7,272.6l-0.4,0.3l61.3,29.9c0.1-0.1,0.1-0.2,0.2-0.3L-428.7,272.6z"/>
		<path class="st3" d="M-370,293.8c-1.5-0.8-3-1.6-4.6-2.3l-4.7-2.3c-3.2-1.6-6.4-3.1-9.6-4.6c-6.4-3-12.8-6-19.3-8.8
			c-1.8-0.8-3.6-1.6-5.4-2.3c-1.8-0.7-3.8-1.4-5.7-2.2c-0.1,0-0.2,0.1-0.1,0.2c1.6,0.8,3.1,1.7,4.6,2.5c1.6,0.8,3.2,1.6,4.9,2.4
			c3.2,1.5,6.4,3,9.7,4.5c6.3,2.9,12.7,5.8,19.1,8.5c1.8,0.8,3.6,1.5,5.4,2.3s3.7,1.7,5.7,2.4C-369.9,294-369.9,293.9-370,293.8z"/>
		<path class="st3" d="M-331.4,251.8c-24.6,33.9-39.4,55.2-39.4,55.2l-20.7-9.5l70.9-79.2C-315.1,222-317.6,232.9-331.4,251.8z"/>
		<path class="st6" d="M-368,431.1h166.9c0,0-25.5-159.3-87-213.8c-7.6-6.7-24.7-5.2-35.9,0.4c-4,2-18.3,22.1-22.4,41
			C-350.5,277.7-368.5,430.5-368,431.1z"/>
		<path class="st3" d="M-216.2,363.1l-74.1-147.3c0.8,0.4,1.5,1,2.2,1.6C-253.2,248.2-229.9,312.9-216.2,363.1z"/>
		<path class="st7" d="M-295.3,213.8h-17c0.8-0.1,1.6-0.3,2.4-0.4h12.6C-296.6,213.5-296,213.6-295.3,213.8z M-277.8,227.7h-54.8
			c-0.1,0.1-0.2,0.3-0.3,0.4h55.4L-277.8,227.7z M-266.8,242h-73.9l-0.2,0.4h74.3L-266.8,242z M-257.8,256.3h-88.1
			c0,0.1-0.1,0.3-0.1,0.4h88.5L-257.8,256.3z M-250.1,270.6h-98.4c0,0.1,0,0.3-0.1,0.4h98.7C-249.9,270.9-250,270.8-250.1,270.6z
			 M-243.3,285h-107.2c0,0.1,0,0.3,0,0.4h107.4C-243.2,285.2-243.3,285.1-243.3,285z M-237.2,299.3h-115.1c0,0.1,0,0.3,0,0.4h115.2
			C-237.1,299.5-237.2,299.4-237.2,299.3L-237.2,299.3z M-231.8,313.6h-122.4c0,0.1,0,0.3,0,0.4h122.6
			C-231.7,313.9-231.8,313.7-231.8,313.6L-231.8,313.6z M-226.8,327.9H-356c0,0.1,0,0.3,0,0.4h129.3
			C-226.7,328.2-226.8,328.1-226.8,327.9L-226.8,327.9z M-222.3,342.2h-135.5c0,0.1,0,0.3,0,0.4h135.7
			C-222.2,342.5-222.3,342.4-222.3,342.2z M-218.1,356.6h-141.4c0,0.1,0,0.3,0,0.4h141.6L-218.1,356.6z M-214.2,370.9h-147
			c0,0.1,0,0.3,0,0.4H-214C-214.1,371.1-214.1,371-214.2,370.9L-214.2,370.9z M-210.6,385.2h-152.3c0,0.1,0,0.3,0,0.4h152.5
			C-210.5,385.5-210.5,385.3-210.6,385.2L-210.6,385.2z M-207.3,399.5h-157.3c0,0.1,0,0.3,0,0.4h157.4
			C-207.2,399.8-207.2,399.6-207.3,399.5L-207.3,399.5z M-204.3,413.8h-162c0,0.1,0,0.3,0,0.4h162.1L-204.3,413.8z M-201.6,428.1
			h-166.2v0.4h166.3C-201.5,428.4-201.5,428.3-201.6,428.1L-201.6,428.1z"/>
		<path class="st5" d="M-259.2,221.3c42.1,15.6,145.7,56.8,151,81c3.9,17.8-75.2,28.8-77.4,25.9c-1.8-2.3-75.2-59.5-101.1-90.2
			C-309.2,211.3-272.6,216.4-259.2,221.3z"/>
		<path class="st6" d="M-227.4,294.1l55.4-38.4c0,0-66.2-30.5-96.1-38.1c-31.1-7.9-41.4,1.8-10.8,31.2
			C-248.7,277.8-227.4,294.1-227.4,294.1z"/>
		<path class="st7" d="M-212.9,237.8l-43,32.3c0.1,0.1,0.2,0.2,0.3,0.3l43.1-32.4L-212.9,237.8z M-197.7,244.3l-47.1,35.5l0.3,0.3
			l47.3-35.6C-197.4,244.4-197.5,244.3-197.7,244.3L-197.7,244.3z M-182.7,250.8l-50.9,38.4c0.1,0.1,0.2,0.2,0.3,0.3l51-38.4
			C-182.4,251-182.5,250.9-182.7,250.8z"/>
		<path class="st3" d="M-187.2,253.1c-1.5,0.8-2.9,1.8-4.3,2.8s-2.9,2-4.4,2.9c-2.9,2-5.9,4-8.8,6c-5.8,4.1-11.6,8.1-17.3,12.3
			c-1.6,1.1-3.1,2.3-4.7,3.5c-1.5,1.2-3.2,2.6-4.8,3.9c-0.1,0.1,0,0.2,0.1,0.1c1.5-1,3-1.8,4.5-2.8s3-2,4.5-3c2.9-2,5.8-4,8.7-6.1
			c5.7-4,11.4-8.1,17-12.3l4.7-3.5c1.6-1.2,3.4-2.4,4.9-3.7C-187.1,253.2-187.1,253.1-187.2,253.1z"/>
		<path class="st3" d="M-232.5,289.7c-1.6-1.3-3-2.7-4.5-4.1s-3.1-2.7-4.6-4.1c-3-2.6-6-5.3-9-7.9c-6.1-5.4-12.1-10.8-18.1-16.2
			c-3.4-3.1-6.7-6.3-10.3-9.2 M-279,248.3c2.8,3,5.7,5.8,8.7,8.6c-0.6-0.4-1.2-0.8-1.8-1.2c-0.6-0.5-1.3-0.9-1.9-1.4s-1.2-1.1-2-1.5
			c-0.1-0.1-0.2,0.1-0.1,0.2c1.1,1.3,2.4,2.4,3.9,3.4c0.7,0.5,1.5,0.9,2.2,1.3l0.8,0.4c2.6,2.5,5.3,4.9,7.9,7.4
			c5.9,5.5,12,10.8,18.2,16.1c1.7,1.4,3.4,2.8,5.2,4.3c1.7,1.4,3.6,2.8,5.4,4.2c0.1,0.1,0.2,0,0.1-0.1L-279,248.3z"/>
		<path class="st5" d="M-318.7,248.3c9.8,1.2,24.7-15.1,30-27.6c0.4-0.9-1.8-9.3-3.9-19.7c-1.2-6.3-2.5-13.4-3.2-19.9
			c-0.1-1.3-39.8,14.2-39.8,14.2s5.4,13.2,6.6,24.6c0.1,0.9,0.1,1.8,0,2.7c0,0.1,0,0.3,0,0.4C-329.4,228.2-328.2,247-318.7,248.3z"
			/>
		<path class="st3" d="M-324.9,222.8c-1.4,0.2-2.8,0.3-4.2,0.2c0-0.2,0-0.3,0-0.5c0.1-0.9,0.1-1.8,0-2.7
			c-1.1-11.3-6.5-24.6-6.5-24.6s32.2-12.6,38.7-14.1C-297.4,188.8-300.8,219.8-324.9,222.8z"/>
		<path class="st5" d="M-300.2,130.6c8.2,12.8,12.2,55.4,4.8,67.2c-10.8,17.2-34.1,25.1-50.1,10.8c-15.5-13.8-19.8-69.4-10.9-80.7
			C-343.5,111.2-312.4,111.6-300.2,130.6z"/>
		<path class="st3" d="M-326.7,167.8c0-0.1,0.2,0.1,0.2,0.2c0.2,2.9,0.9,6.2,3.6,6.8c0.1,0,0.1,0.2,0,0.2
			C-326,174.9-326.9,170.5-326.7,167.8z"/>
		<path class="st3" d="M-324.4,164.5c4.6-0.8,5.9,8.4,1.6,9.2C-327,174.4-328.2,165.2-324.4,164.5z"/>
		<path class="st3" d="M-344.2,169.8c0-0.1-0.2,0.2-0.2,0.3c0.5,2.8,0.6,6.2-1.9,7.5c-0.1,0,0,0.2,0,0.1
			C-343.1,176.9-343.3,172.4-344.2,169.8z"/>
		<path class="st3" d="M-347.2,167.2c-4.6,0.3-3.7,9.5,0.6,9.3C-342.3,176.2-343.3,167-347.2,167.2z"/>
		<path class="st3" d="M-321.3,159.9c-1.2-0.2-2.5-0.4-3.7-0.8c-1.4-0.1-2.7-0.6-3.7-1.5c-0.5-0.7-0.5-1.7,0-2.4
			c1.2-1.4,3.1-1.5,4.8-1.2c1.8,0.2,3.4,1.1,4.5,2.5c0.7,0.9,0.6,2.2-0.3,3C-320.2,159.8-320.8,160-321.3,159.9z"/>
		<path class="st3" d="M-351.4,163c1.2-0.4,2.4-0.9,3.5-1.5c1.3-0.3,2.5-1.1,3.3-2.2c0.4-0.8,0.2-1.8-0.4-2.4
			c-1.5-1.2-3.3-0.9-4.9-0.2c-1.7,0.6-3.1,1.7-4,3.3c-0.5,1-0.1,2.3,1,2.8C-352.4,163.2-351.9,163.2-351.4,163z"/>
		<path class="st3" d="M-320.7,193c-0.6,0.8-1.1,1.8-2.2,2c-1.1,0.1-2.1,0-3.2-0.3c-0.1,0-0.1,0-0.1,0.1v0.1c1,1,2.5,1.4,3.8,1.1
			c1.1-0.5,1.9-1.6,1.9-2.8C-320.4,192.9-320.6,192.9-320.7,193z"/>
		<path class="st3" d="M-324.9,184.9c-1.1,2.5-3.3,4.4-5.9,5.2c-1.1,0.4-2.3,0.6-3.5,0.6c-0.2,0-0.5,0-0.7,0h-0.6
			c-0.3,0-0.6-0.2-0.7-0.6l0,0c0-0.1,0-0.2,0-0.3l0,0v-0.2c-0.4-2.2-0.6-5.6-0.6-5.6c-0.8,0.5-4.6,2.9-4.7,1.8
			c-0.8-9.6-1.6-20.2-0.3-29.9c0-0.1,0.2-0.2,0.3-0.2c0.1,0,0.2,0.1,0.2,0.2c1.1,9.2,0.5,18.5,1.5,27.7c1.4-0.9,2.8-1.6,4.4-2
			c0.3,0,0.4,6.5,0.6,7.5v0.1c3.7,0,6.4-1.5,9.6-4.5C-325,184.5-324.7,184.6-324.9,184.9z"/>
		<path class="st3" d="M-333.1,189.4c1.4,1.4,3.2,2.4,5.1,2.9c1.1,0.3,2.2,0.2,3.2-0.2c2.2-0.9,2-3,1.3-4.8
			c-0.4-0.9-0.8-1.8-1.4-2.6C-327.1,187.2-329.9,188.8-333.1,189.4z"/>
		<path class="st8" d="M-328,192.4c1.1,0.3,2.2,0.2,3.2-0.2c2.2-0.9,2-3,1.3-4.8C-325.9,188-328.1,190-328,192.4z"/>
		<g>
			<path class="st9" d="M-294,163c-7.5,1.9-12.6-16.3-12.6-16.3s-11.9,1.6-22.3-12c0,0-11.5,13.7-24.3,15.4
				c-20.1,2.6-27.5-22.2-22-29.5c7.8-10.4,29-5.7,29-5.7s24.7-16.3,38.7-0.5c0,0,12.3-3.4,17.4,9.7S-288.4,161.6-294,163z"/>
			<path class="st10" d="M-303.2,148c-5.8,0.8-11.6-0.3-16.7-3.2c-5.2-3.1-9.5-9.1-9.7-15.2c0-0.3-0.6-0.3-0.5,0
				c0.7,6.7,3.1,13,8.8,17c5.3,3.8,12.2,4.5,18.2,1.9c0.1-0.1,0.1-0.3,0-0.4C-303.1,148-303.1,148-303.2,148z"/>
			<path class="st10" d="M-291.6,115.9c-5.3-3.5-11.2-2.5-16.8-0.4c-0.3,0.1-0.1,0.6,0.2,0.5c5.3-2.5,12.1-0.5,16.5,3.1
				s5.4,9.4,5.9,14.6c0.9,10.2-2,20.4-8.2,28.5c-0.1,0.1,0.1,0.3,0.2,0.2c7.3-8.7,10.7-20.1,9.4-31.4
				C-285.1,125.6-286.8,119.2-291.6,115.9z"/>
			<path class="st10" d="M-345.1,115.5c-3.6-3.1-8.2-4.7-13-4.6c-5.7,0.3-11.1,2.6-15.2,6.7c-3.3,3.4-4.5,8.3-3.1,12.8
				c1.3,5.2,5.3,9.3,9.5,12.4c0,0,0.1,0,0.2,0c0,0,0-0.1,0-0.2l0,0c-3.6-3.1-6.8-6.8-8-11.5c-1.3-4.5,0.1-9.3,3.5-12.4
				c6.7-6,18.3-9,25.9-2.8c0.1,0,0.3,0,0.3-0.2C-345.1,115.6-345.1,115.6-345.1,115.5z"/>
		</g>
		<path class="st5" d="M-299.3,167.5c0,0,5.8-15.6,12.6-13.8c6.8,1.7,4.9,22.6-1.5,27.1c-3.2,2.6-7.9,2-10.4-1.2
			c0-0.1-0.1-0.1-0.1-0.2L-299.3,167.5z"/>
		<path class="st3" d="M-287.4,159.6c0.1,0,0.1,0,0.1,0.1v0.1c-4.4,3.3-5.8,8.5-6.4,13.7c1-2.2,2.7-3.7,5.6-2.6
			c0.1,0,0.1,0.1,0.1,0.2l-0.1,0.1c-1.9-0.1-3.7,1-4.4,2.8c-0.6,1.5-1,3-1.3,4.5c-0.1,0.5-1,0.5-0.9-0.1v-0.1
			C-296.6,172-294,162-287.4,159.6z"/>
		<path class="st5" d="M-127.8,405.3c-11.8,41.1-45.4,74.4-52.3,78.8c-5.9,3.7-8.9,5.6-8.9,5.6c-10.4,6.9-17.5,5-17.5,5
			s-9.7,11.5-17.6,6.9c-8.9-5.2,6.4-20.4,9.7-33.9c7.6-30.9,9.7-77,11-86.2L-127.8,405.3z"/>
		<path class="st3" d="M-183.7,440.9c-2.4,9.1-4.6,18-8.2,26.7c-4,9.5-9.4,18-14.7,26.8c-0.1,0.1,0,0.3,0.1,0.3s0.2,0,0.3,0
			c12.1-14.4,21-35,23.3-53.6C-182.9,440.6-183.6,440.4-183.7,440.9z"/>
		<path class="st3" d="M-164.4,442.7c-2.8,8.7-7.9,23.9-24.8,46.8c-0.1,0.1,0,0.2,0.1,0.1c12.7-12.8,21.5-29,25.6-46.6
			C-163.4,442.5-164.2,442.2-164.4,442.7z"/>
		<path class="st5" d="M-207.7,429.9c-0.6-4.4-2.9-4.1-6.9,2.7c-4,6.8-14.1,37.3-24.4,32.9s4.5-47.2,12-58.1s23.5-25.9,23.5-25.9
			C-204.6,390.5-205.5,412.3-207.7,429.9z"/>
		<path class="st5" d="M-108.2,302.3c8.3,25.9-13.5,83.7-19.5,103c-2.6,8.4-79.1-14-76.3-22.9c5.9-18.3,21-51.6,18.4-54.1
			C-187.8,326.3-115.7,278.8-108.2,302.3z"/>
		<path class="st3" d="M-164.7,312.7c-1,0.4-2,0.7-3,1.2s-2,1-3,1.5c-1.9,1.1-3.7,2.3-5.4,3.6c-1.7,1.3-3.3,2.8-4.9,4.3
			c-0.8,0.8-1.6,1.6-2.3,2.5c-0.7,0.8-1.4,1.7-1.9,2.6c-0.1,0.1-0.1,0.2,0,0.3c0,0,0,0.1,0.1,0.1c0.3,0.1,0.5-0.1,0.7-0.3l1.2-1.1
			c0.8-0.8,1.6-1.6,2.5-2.3c1.6-1.5,3.4-3,5.2-4.4c1.8-1.4,3.6-2.7,5.5-3.9c0.9-0.6,1.8-1.2,2.8-1.9c0.9-0.7,1.9-1.2,2.8-1.8
			C-164.3,312.9-164.5,312.6-164.7,312.7z"/>
		<path class="st5" d="M-441.3,299.9c-12.4,8.7-50.1,42.4-42.5,60.8c7.6,18.4,36.6,18,77.2,10.7L-441.3,299.9z"/>
		<path class="st5" d="M-442.4,300.7c16.6-13.8,40.8-30.7,50.6-30.1c10.4,0.6,46.7,4,54.9,7.5c8.2,3.5,31.8,26.4,34.2,34
			c1.9,6.1-10,11.8-25.2,2.1c-14.2-9.1-17.1-12-21.8-13.6c-4.6-1.6-22.9,1.9-25.1,8.8c-1.3,4.1,4,15,11.3,17.3s14.8-2,25.2-1.5
			c10.3,0.6,20.2,10.7,18.2,14.1c-2,3.3-6.6,1.5-20.7,6.2c-9,3-19.8,8.5-35.1,17.5c-15.7,9.2-38.4,9.1-38.4,9.1L-442.4,300.7z"/>
		<path class="st11" d="M-327.2,315.9c24.7,7.7,13.3,44.4-11.5,36.7C-363.5,344.9-352,308.2-327.2,315.9z"/>
		<path class="st12" d="M-327.2,315.9c24.7,7.7,13.3,44.4-11.5,36.7C-363.5,344.9-352,308.2-327.2,315.9z"/>
		<path class="st11" d="M-329.5,315.2c23.6,7.4,12.2,44.1-11.5,36.7S-353.2,307.8-329.5,315.2z"/>
		<path class="st12" d="M-350.7,332.5c-0.7,6.7,2.4,13.7,10.7,16.3c19.6,6.2,29.1-24.3,9.5-30.4l-0.4-0.1
			c18.3,6.2,9.2,34.9-9.5,29.1C-347,345.5-351.3,339.3-350.7,332.5z"/>
		<g class="st13">
			<path class="st14" d="M-331.7,322.1c0.3,0.1,0.5,0.5,0.4,0.8l-0.4,1c1.6,0.8,2.8,2,3.7,3.5c0.2,0.2,0.2,0.5,0.1,0.7
				c-0.1,0.3-0.5,0.5-0.9,0.4c-0.2-0.1-0.3-0.2-0.4-0.3c-0.7-1.3-1.8-2.4-3.1-3.1l-2.7,7c3.5,2.3,4.5,4.3,3.6,6.7
				c-1,2.6-4,3.7-7.1,2.5l-0.8,1.9c-0.1,0.3-0.5,0.5-0.9,0.4c-0.3-0.1-0.5-0.5-0.4-0.9l0.8-2c-2-1-3.7-2.6-4.7-4.6
				c-0.1-0.2-0.2-0.4-0.1-0.6c0.1-0.3,0.5-0.5,0.9-0.4c0.2,0.1,0.3,0.2,0.4,0.3c0.8,1.8,2.2,3.3,4,4.2l2.8-7.1
				c-3.4-2.3-4.4-4.3-3.5-6.7c1-2.5,3.9-3.6,7-2.5l0.4-0.9c0.1-0.3,0.5-0.5,0.8-0.4C-331.8,322.1-331.7,322.1-331.7,322.1z
				 M-335.9,331.4l2.6-6.8c-2.5-0.9-4.6-0.1-5.3,1.7S-338.8,329.4-335.9,331.4z M-335.4,333.3l-2.7,6.9c2.5,0.9,4.7,0.1,5.4-1.8
				S-332.4,335.3-335.4,333.3z"/>
		</g>
		<path class="st5" d="M-391.7,270.6c12.2-3.3,38.1-5.8,55.3,0.9c11.6,4.6,28.2,46,22.1,50.9c-6,4.9-11.1,0.3-17.8-7.4
			c-2.5-2.8-12.2-21.2-17.4-20.4c-7.5,1.1-25.6,11.9-25.6,11.9L-391.7,270.6z"/>
		<path class="st3" d="M-313,319.5c1.9-9.4-3.3-20-8.9-29.9c-0.1-0.1-0.3,0-0.2,0.1c1.4,2.5,9,20.4,9,29.8
			C-313.2,319.6-313,319.6-313,319.5z"/>
		<path class="st5" d="M-391.7,270.6c12.2-3.3,38.1-5.8,55.3,0.9c11.6,4.6,18.3,44.4,12.2,49.3s-13.7-1.3-19.2-11.4
			c-1.8-3.3-4.9-17.3-10.1-16.6c-7.5,1.1-26,4.1-26,4.1L-391.7,270.6z"/>
		<path class="st3" d="M-368.5,294.8c1.9-0.5,2.6-0.7,4.6-1.2s3.9-0.9,5.9-1.2c1.7-0.4,3.5-0.6,5.2-0.4c1.6,0.4,3.1,1.3,4.2,2.5
			c2.6,2.8,3.5,6.9,4.6,10.4c1.2,3.9,4.5,11.4,9.1,14.8c1.2,1,2.6,1.7,4.1,2.1c1.1,0.4,2.3,0.4,3.4,0.2c4.6-1.4,5.6-7,5.5-11.6
			c-0.1-8.7-2.8-17.3-6-25.2c-0.8-1.9-1.6-3.9-2.4-5.8c-0.8-2.3-2.1-4.3-3.7-6.1c-2.9-2.7-10.4-4.1-12.7-4.5c-0.2,0-0.1-0.3,0.1-0.3
			c2.8,0.5,10.6,0.9,15.1,5.4c1.6,1.7,2.5,4,3.4,6.1s1.9,4.4,2.8,6.7c1.7,4.4,3.1,8.9,4.1,13.5c0.9,4.4,1.7,9.2,1,13.6
			c-0.6,3.8-3.3,7.7-7.1,8.9c-3.2,1-6.4-1-7.9-2c-1.4-1-2.6-2.1-3.7-3.4c-2.2-3.1-4.2-6.4-6-9.7c-1.6-3.3-2.4-7.2-4.3-10.3
			c-0.9-1.6-2.3-2.7-4-3.2c-1.7-0.3-3.5-0.3-5.2,0c-3.3,0.1-6.6,0.6-9.9,1.3C-369,295.5-369.3,294.9-368.5,294.8z"/>
		<path class="st5" d="M-401.1,273c3.3-1.9,21.9-13.6,29.2-15.7c7.3-2.1,36-6,41.7,0.5c7.2,8.2-14.3,15-23.9,17.2
			c-9.6,2.1-18.1,12.9-18.1,12.9L-401.1,273z"/>
		<path class="st3" d="M-339.3,270.4c-3.2,0.6-6.4,1.3-9.6,2.3c-3,0.7-6,1.5-9,2.6c-2.8,1.3-5.3,3-7.6,5.2c-1.1,1-2.2,2.1-3.2,3.2
			s-2.1,2.5-3.3,3.7c-0.1,0.1,0,0.3,0.2,0.2c2.2-2.1,4.5-4.1,6.9-5.9c2.5-1.9,5.2-3.5,8-4.8c5.7-2.5,11.9-3.7,17.6-6.2
			C-338.9,270.7-339.1,270.4-339.3,270.4z"/>
		<path class="st3" d="M-325.6,321.3c2.2,1.2,4.7,2.5,7.3,2.4c1.1,0,2.2-0.4,3.1-1c0.5-0.3,0.9-0.8,1.2-1.2c0.4-0.5,0.6-1.1,0.6-1.7
			c0-0.2,0.2-0.2,0.2,0c-0.1,0.4-0.1,0.7-0.1,1.1c-0.1,0.3-0.1,0.6-0.2,0.9c-0.2,0.6-0.5,1.1-1,1.5c-0.9,0.9-2.1,1.5-3.4,1.7
			c-3.1,0.4-5.8-1.2-7.9-3.3c-0.1,0-0.1-0.1,0-0.2C-325.8,321.3-325.7,321.3-325.6,321.3z"/>
		<path class="st3" d="M-375.3,291.7c-2.7,3.9-5.1,7.9-7.3,12.1c-2.1,4.2-3.5,8.6-4.4,13.2c-0.8,4.9-0.4,9.9-0.3,14.9
			c0.1,2.4,0,4.8-0.3,7.1c-0.3,2.1-0.8,4.1-1.6,6c-1.8,4.4-4.6,8.3-8.3,11.3c-0.1,0.1,0,0.3,0.2,0.2c7-4.9,11.5-12.6,12.3-21
			c0.4-5.1-0.4-10.3,0-15.4c0.4-4.7,1.5-9.3,3.1-13.7C-380.1,301.3-377.9,296.3-375.3,291.7C-375.1,291.7-375.1,291.6-375.3,291.7
			C-375.2,291.6-375.3,291.7-375.3,291.7z"/>
		<path class="st3" d="M-420.5,284c-9.6,5.9-18.8,12.4-27.4,19.7c-8.7,7.1-16.6,15.2-23.5,24.1c-3.8,5-7.2,10.4-10,16.1
			c-0.1,0.1,0.1,0.2,0.2,0.1c2.9-4.8,6.1-9.4,9.5-13.8c3.4-4.4,7.1-8.5,11-12.5c8-8,16.5-15.3,25.6-22c5.1-3.8,9.8-7.5,14.8-11.3
			C-419.7,284-419.9,283.6-420.5,284z"/>
		<path class="st0" d="M-277.5,520.6c-0.1,0.5-0.2,1-0.3,1.5C-277.7,521.6-277.6,521.1-277.5,520.6L-277.5,520.6z"/>
	</g>
	<g id="freepik--Plant--inject-2">
		<path class="st11" d="M-473.8,383.8c-16.7,22.6-34.1,48.9-38.4,77.3c0,0.4,0.6,0.6,0.7,0.1c1.9-7.7,4.4-15.3,7.4-22.7
			c11-3,21.8-5.5,27.5-16.4c5.9-11.2,5.1-25.8,4-38C-472.6,383.4-473.5,383.3-473.8,383.8z"/>
		<path class="st3" d="M-503.9,438.3c7.5-16.8,17.2-33.8,29.4-47.6c0.1-0.1,0.2,0,0.1,0.1c-8,9.9-14.1,20.6-20.1,31.5
			c5.5-5.6,11.6-10.6,16.8-16.6c0.1-0.1,0.3,0,0.2,0.2c-5.2,6.2-10.9,13-17.7,17.7c-1.8,3.3-3.7,6.7-5.5,10.1
			c0.5-0.3,0.9-0.5,1.4-0.7c0.1,0,0.1,0.1,0.1,0.1c-0.5,0.3-1,0.5-1.6,0.8c-0.9,1.6-1.7,3.2-2.7,4.8
			C-503.5,438.9-504,438.6-503.9,438.3z"/>
		<path class="st3" d="M-498.3,432.4c4.5-2.5,8.8-5.4,12.8-8.6c0.1-0.1,0.3,0.1,0.2,0.2c-3.9,3.4-8.2,6.3-12.8,8.7
			C-498.3,432.8-498.5,432.5-498.3,432.4z"/>
		<path class="st11" d="M-514.1,456.9c0,0.3,0.6,0.3,0.6,0c0.1-9.4,0-18.7,0.1-28.1c2.4-4.8,7.5-7.5,11.1-11.4
			c2.6-2.8,4.8-6,6.7-9.3c4.3-8,6.9-16.8,7.7-25.8c1-10-2.8-43-7-41.9c-2.2,0.6-9.3,16.9-11.1,22.3c-3,8.9-5.3,18.1-6.6,27.4
			C-516.1,412.1-515.8,434.7-514.1,456.9z"/>
		<path class="st3" d="M-514.2,416.5L-514.2,416.5c0.5-11.8,3.2-23.8,5.7-35.2c2.7-12.4,5.8-24,12.2-35c0.1-0.2,0.4,0,0.3,0.2
			c-4.2,8.6-7.5,17.6-9.8,26.9c0.4-0.7,1-1.3,1.4-1.9c0.2-0.2,0.6,0,0.4,0.2c-0.6,1-1.2,1.9-2,2.8h-0.1c-2.2,8.8-3.7,17.9-5.1,26.9
			l0.3-0.3h0.1v0.1c-0.2,0.3-0.4,0.6-0.5,0.9c-0.7,4.6-1.3,9.1-1.9,13.7c8.2-7,15.2-15.2,19.1-25.3h0.1
			c-3.8,10.5-9.9,19.8-19.2,26.2l-0.5,3.7c0,0.2-0.4,0.2-0.4-0.1c0-1.1,0-2.2,0.1-3.2C-514.3,416.8-514.3,416.6-514.2,416.5z"/>
		<path class="st3" d="M-510.3,399.4c6.2-9.3,12-18.3,16.6-28.6c0-0.1,0.2,0,0.2,0.1c-3.8,10.2-9.2,20.5-16.5,28.7
			C-510.2,399.8-510.5,399.6-510.3,399.4z"/>
		<path class="st3" d="M-502.1,368.5c2.6-4.6,5.3-9,7.7-13.6c0.1-0.1,0.2,0,0.2,0.1c-2,4.9-4.5,9.5-7.5,13.8
			C-501.8,369-502.2,368.8-502.1,368.5z"/>
		<path class="st3" d="M-503.1,370.5C-503.1,370.5-503.2,370.5-503.1,370.5L-503.1,370.5z"/>
		<path class="st11" d="M-520.5,429.8c-0.1,6.2-0.8,12.4-2.1,18.4c0.1,0.7,0.2,1.3,0.3,2c1.9-6.7,3-13.6,3.3-20.6
			c0.1-0.2,0.1-0.4,0-0.6l0,0c0.3-9.3-0.4-18.6-2-27.8c-2.9-17.2-9.2-33.7-21.2-46.6c-0.4-0.3-0.9-0.3-1.2,0.1
			c0,0.1-0.1,0.1-0.1,0.2c-4.8,12.3-3.2,27,1,39.2c2.2,6.6,5.4,12.9,9.5,18.6C-529,418.6-523.8,423.5-520.5,429.8z"/>
		<path class="st3" d="M-540.9,360.4c11.4,18.5,19.3,40.3,20.2,62c0,0.4-0.6,0.5-0.7,0.1c-0.3-2-0.6-3.9-0.9-5.8l0,0
			c-4.7-4.5-9.5-9.3-12.9-14.8c0-0.1,0.1-0.2,0.2-0.1c3.9,4.8,8.1,9.3,12.5,13.6c-0.8-4.8-1.8-9.6-2.9-14.2
			c-0.3-0.3-0.6-0.7-0.9-1.1s0.1-0.6,0.3-0.3s0.2,0.2,0.3,0.3c-1.6-6.4-3.6-12.7-5.9-18.9c-2.9-3.4-6.1-6.4-8.2-10.6
			c0-0.1,0.1-0.2,0.1-0.1c1.7,2.4,3.3,4.8,5.2,7c0.8,0.9,1.6,1.7,2.4,2.6c-2.6-6.7-5.7-13.2-9.3-19.4c-0.1-0.1,0-0.3,0.1-0.3
			C-541.1,360.3-540.9,360.4-540.9,360.4z"/>
		<path class="st3" d="M-538.6,383.2c3.7,4.9,7.8,9.7,11.3,14.8c0.1,0.1-0.1,0.3-0.2,0.2c-4.4-4.1-8.1-9.7-11.3-14.8
			C-538.9,383.2-538.7,383-538.6,383.2z"/>
		<path class="st3" d="M-526.8,399.1l0.1,0.2c0.1,0.1-0.1,0.3-0.2,0.2l-0.2-0.2C-527.1,399.1-526.9,399-526.8,399.1z"/>
		<path class="st11" d="M-558.6,395.9c0.9,9.5,5.9,20.8,12,28.1c2.7,3.2,6,5.8,9.7,7.6c4.2,2.1,8.7,4.5,13,6.2
			c2.1,5.3,3.6,10.7,4.6,16.3c0.1-0.5,0.3-1,0.4-1.4c-2.8-24-18.3-44.5-38.2-57.7c-0.4-0.3-1-0.2-1.3,0.3
			C-558.6,395.4-558.7,395.6-558.6,395.9z"/>
		<path class="st3" d="M-551.8,403c-0.1-0.1,0-0.4,0.2-0.3c10.9,8.1,19.6,18.9,25.3,31.2c0.1,0.3-0.3,0.6-0.5,0.3
			c-0.9-1.6-1.9-3.2-2.8-4.7l0,0c-4.5-0.9-8.8-4-12.2-7.1c-0.1-0.1,0-0.2,0.1-0.1c1.7,1.6,3.7,2.9,5.7,4c1.9,0.9,3.8,1.5,5.8,2.3
			c-1.7-2.7-3.4-5.2-5.3-7.7c-4.9-1.9-9.5-4.4-13.6-7.7c-0.1-0.1,0-0.3,0.1-0.2c4.1,2.5,8.3,4.7,12.6,6.8c-2.8-3.7-5.8-7.1-9-10.4
			c-1.5-0.8-3.1-1.6-4.6-2.5c-0.1-0.1,0-0.3,0.1-0.2c1.2,0.4,2.4,1,3.5,1.7C-548,406.5-549.8,404.7-551.8,403z"/>
		<path class="st3" d="M-551.4,411.2c0.3,0.2,0.5,0.3,0.8,0.5c0.1,0.1,0,0.2-0.1,0.1c-0.3-0.1-0.5-0.3-0.8-0.4
			C-551.6,411.4-551.5,411.2-551.4,411.2z"/>
		<polygon class="st4" points="-488,506.1 -542.4,506.1 -538,456.5 -537,445.5 -493.3,445.5 -492.4,456.5 		"/>
		<polygon class="st3" points="-492.4,456.5 -538,456.5 -537,445.5 -493.3,445.5 		"/>
		<rect x="-539.6" y="437.9" class="st4" width="48.9" height="10.8"/>
	</g>
	<g id="freepik--piggy-bank--inject-2">
		<path class="st11" d="M-408.5,411.3c0.4-2.1,0.7-4,0.9-6s0.3-4,0.3-6c0-2.1-0.2-4.2-0.5-6.3c-0.4-2.4-1.3-4.7-2.8-6.6
			c-0.9-1.1-2.1-2-3.4-2.5c-0.7-0.3-1.3-0.5-2-0.6s-1.3-0.1-2-0.1c-2.4,0.2-4.8,1.1-6.7,2.7c-1.7,1.4-3.1,3-4.3,4.9
			c-1.2,1.8-2,3.9-2.3,6c-0.2,1.3-0.1,2.6,0.3,3.8c0.3,0.8,0.8,1.5,1.5,2c0.7,0.4,1.4,0.7,2.2,0.7c0.8,0,1.6-0.2,2.4-0.6
			c0.6-0.4,1.1-0.9,1.5-1.5c0.6-1,1-2.1,1.2-3.2c0.4-2,0.4-4.1,0-6.1c-0.3-2-1-4-2.2-5.7c-0.6-0.9-1.4-1.7-2.4-2.2s-2.1-0.7-3.2-0.5
			c-2,0.4-3.8,1.5-5.1,3c-2.6,2.8-4.6,6.1-6,9.6c1.7-3.3,3.9-6.4,6.7-8.9c1.3-1.2,2.9-2,4.7-2.3c1.6,0,3.1,0.9,3.7,2.4
			c0.8,1.5,1.2,3.2,1.3,4.9c0.1,1.7,0,3.5-0.4,5.1c-0.2,0.7-0.5,1.4-0.9,2c-0.1,0.2-0.3,0.3-0.5,0.4c-0.1,0-0.2,0-0.4,0
			s-0.4-0.1-0.4-0.2c-0.1-0.1-0.1-0.2-0.1-0.3c-0.1-0.6,0-1.2,0.1-1.7c1-3.1,2.9-5.7,5.6-7.5c1.1-0.8,2.4-1.2,3.7-1.2
			c0.3,0,0.6,0.1,0.8,0.1c0.2,0.1,0.4,0.1,0.6,0.3c0.4,0.2,0.7,0.5,0.9,0.9c0.7,1.2,1,2.5,1.1,3.9c0.1,1.6,0.1,3.3,0,4.9
			c-0.1,1.8-0.4,3.5-0.7,5.2c-0.3,1.7-0.7,3.5-1.2,5.1L-408.5,411.3z"/>
		<path class="st15" d="M-408.5,411.3c0.4-2.1,0.7-4,0.9-6s0.3-4,0.3-6c0-2.1-0.2-4.2-0.5-6.3c-0.4-2.4-1.3-4.7-2.8-6.6
			c-0.9-1.1-2.1-2-3.4-2.5c-0.7-0.3-1.3-0.5-2-0.6s-1.3-0.1-2-0.1c-2.4,0.2-4.8,1.1-6.7,2.7c-1.7,1.4-3.1,3-4.3,4.9
			c-1.2,1.8-2,3.9-2.3,6c-0.2,1.3-0.1,2.6,0.3,3.8c0.3,0.8,0.8,1.5,1.5,2c0.7,0.4,1.4,0.7,2.2,0.7c0.8,0,1.6-0.2,2.4-0.6
			c0.6-0.4,1.1-0.9,1.5-1.5c0.6-1,1-2.1,1.2-3.2c0.4-2,0.4-4.1,0-6.1c-0.3-2-1-4-2.2-5.7c-0.6-0.9-1.4-1.7-2.4-2.2s-2.1-0.7-3.2-0.5
			c-2,0.4-3.8,1.5-5.1,3c-2.6,2.8-4.6,6.1-6,9.6c1.7-3.3,3.9-6.4,6.7-8.9c1.3-1.2,2.9-2,4.7-2.3c1.6,0,3.1,0.9,3.7,2.4
			c0.8,1.5,1.2,3.2,1.3,4.9c0.1,1.7,0,3.5-0.4,5.1c-0.2,0.7-0.5,1.4-0.9,2c-0.1,0.2-0.3,0.3-0.5,0.4c-0.1,0-0.2,0-0.4,0
			s-0.4-0.1-0.4-0.2c-0.1-0.1-0.1-0.2-0.1-0.3c-0.1-0.6,0-1.2,0.1-1.7c1-3.1,2.9-5.7,5.6-7.5c1.1-0.8,2.4-1.2,3.7-1.2
			c0.3,0,0.6,0.1,0.8,0.1c0.2,0.1,0.4,0.1,0.6,0.3c0.4,0.2,0.7,0.5,0.9,0.9c0.7,1.2,1,2.5,1.1,3.9c0.1,1.6,0.1,3.3,0,4.9
			c-0.1,1.8-0.4,3.5-0.7,5.2c-0.3,1.7-0.7,3.5-1.2,5.1L-408.5,411.3z"/>
		<path class="st11" d="M-402.2,503.2c5.5,7.7,4.3,31.3,7.6,34.6c3.3,3.3,37.1,2.9,39.5,1c2.3-1.9,1.2-10.3,3.7-11.6
			C-350.4,526.6-402.2,503.2-402.2,503.2z"/>
		<path class="st15" d="M-402.2,503.2c5.5,7.7,4.3,31.3,7.6,34.6c3.3,3.3,37.1,2.9,39.5,1c2.3-1.9,1.2-10.3,3.7-11.6
			C-350.4,526.6-402.2,503.2-402.2,503.2z"/>
		<path class="st11" d="M-257.7,503.6c-6.8,9.9-3.1,30.9-6.4,34.2s-37.1,2.9-39.5,1c-2.3-1.9-1.2-10.7-2.6-12.4
			C-306.8,525.5-257.7,503.6-257.7,503.6z"/>
		<path class="st15" d="M-257.7,503.6c-6.8,9.9-3.1,30.9-6.4,34.2s-37.1,2.9-39.5,1c-2.3-1.9-1.2-10.7-2.6-12.4
			C-306.8,525.5-257.7,503.6-257.7,503.6z"/>
		<path class="st16" d="M-351.4,527.2c-0.8,0.6-1.3,1.5-1.5,2.5c-15.6-1.8-30.9-5.9-45.3-12.1c-0.8-5.7-1.9-11.2-4.1-14.2
			C-402.2,503.2-350.4,526.6-351.4,527.2z"/>
		<path class="st16" d="M-257.7,503.6c-2.5,3.7-3.6,8.9-4.2,14.2c-13.8,6.1-28.5,10.2-43.6,12c0-1.2-0.2-2.3-0.7-3.4
			C-306.9,525.5-257.7,503.6-257.7,503.6z"/>
		<path class="st11" d="M-332.2,360.9c-68.1,0-94.2,53.3-94.2,84.5c0,30.8,19.8,83.1,94.2,83.1s99.1-44.3,99.1-83.8
			S-263.4,360.9-332.2,360.9z"/>
		<path class="st15" d="M-332.2,360.9c-68.1,0-94.2,53.3-94.2,84.5c0,30.8,19.8,83.1,94.2,83.1s99.1-44.3,99.1-83.8
			S-263.4,360.9-332.2,360.9z"/>
		<path class="st11" d="M-313,364.8c0,0,31.1-23.9,64.8-21c11.6,1-7.7,26.1-8,45.8L-313,364.8z"/>
		<path class="st15" d="M-313,364.8c0,0,31.1-23.9,64.8-21c11.6,1-7.7,26.1-8,45.8L-313,364.8z"/>
		<path class="st16" d="M-269.2,379.9c-0.2,1.2,10.5,5.8,11.7,5.1c1.1-0.7,2.2-16.2,11-32.7C-245.3,349.9-267.1,366.5-269.2,379.9z"
			/>
		<path class="st16" d="M-262.5,441.2c2.1-0.3,3.9-1.8,4.5-3.9c-0.2,2.5-1.5,4.8-3.6,6.2c-0.1,0.1-0.1,0.4,0.1,0.3
			c6-2.2,5.3-10.6,3.2-16c-0.1-0.3-0.2-0.6-0.4-0.9c-1.3-3.1-3.7-5.4-6.6-4.9C-274.8,423.3-271.4,442.4-262.5,441.2z"/>
		<path class="st11" d="M-239.6,413.9c1.5,4.5,15,0.8,18.4,3.7c5.4,4.5,3.9,59.6-1,64.1c-2.7,2.5-18.1-0.1-22.4,2.9
			S-239.6,413.9-239.6,413.9z"/>
		<path class="st15" d="M-239.6,413.9c1.5,4.5,15,0.8,18.4,3.7c5.4,4.5,3.9,59.6-1,64.1c-2.7,2.5-18.1-0.1-22.4,2.9
			S-239.6,413.9-239.6,413.9z"/>
		<path class="st16" d="M-220.4,448.3c0,13.4-1.1,24.3-2.5,24.3s-2.5-10.9-2.5-24.3s1.1-24.3,2.5-24.3S-220.4,434.9-220.4,448.3z"/>
		<path class="st16" d="M-358.6,378.6c0.2-0.1,23.2-7.5,44.5-1.7l2.1-7.8c-23.8-6.5-48.3,1.5-49.2,1.8L-358.6,378.6l-1.2-3.8
			L-358.6,378.6z"/>
		<path class="st7" d="M-390.6,495.7c-30.7-35.3-11.9-76.2-11.1-78c1.1-2.6,0-5.5-2.6-6.7c-2.4-1.1-5.2-0.1-6.5,2.2
			c-4.1,9.3-6.6,19.2-7.2,29.4c-1.5,22.4,5.9,43,23.5,57C-389.1,504-386.6,500.3-390.6,495.7z"/>
		<path class="st7" d="M-403.9,402.1c0,3,2.4,5.5,5.5,5.5c3,0,5.5-2.4,5.5-5.5c0-3-2.4-5.5-5.5-5.5l0,0
			C-401.4,396.7-403.9,399.1-403.9,402.1z"/>
	</g>
	<g id="freepik--Coins--inject-2">
		<rect x="-170.1" y="531.8" class="st11" width="38.8" height="8.6"/>
		<g class="st13">
			<path class="st14" d="M-168.5,532.6c0.8,2.2,0.8,4.7,0,6.9C-169.3,537.3-169.3,534.8-168.5,532.6z"/>
			<path class="st14" d="M-165.6,532.6c0.8,2.2,0.8,4.7,0,6.9C-166.5,537.3-166.5,534.8-165.6,532.6z"/>
			<path class="st14" d="M-164.2,532.6c0.8,2.2,0.8,4.7,0,6.9C-165,537.3-165,534.8-164.2,532.6z"/>
			<path class="st14" d="M-156.5,532.6c0.8,2.2,0.8,4.7,0,6.9C-157.3,537.3-157.3,534.8-156.5,532.6z"/>
			<path class="st14" d="M-154.4,532.6c0.4,1.1,0.6,2.3,0.6,3.4c0,1.2-0.2,2.3-0.6,3.4c-0.4-1.1-0.6-2.3-0.6-3.4
				C-155,534.9-154.8,533.7-154.4,532.6z"/>
			<path class="st14" d="M-145.7,532.6c0.8,2.2,0.8,4.7,0,6.9C-146.5,537.3-146.5,534.8-145.7,532.6z"/>
			<path class="st14" d="M-143.7,532.6c0.8,2.2,0.8,4.7,0,6.9C-144.5,537.3-144.5,534.8-143.7,532.6z"/>
			<path class="st14" d="M-140,532.6c0.8,2.2,0.8,4.7,0,6.9C-140.8,537.3-140.8,534.8-140,532.6z"/>
			<path class="st14" d="M-147.4,532.6c0.4,1.1,0.6,2.3,0.6,3.5s-0.2,2.3-0.6,3.4c-0.4-1.1-0.6-2.3-0.6-3.4
				C-148,534.9-147.8,533.7-147.4,532.6z"/>
			<path class="st14" d="M-161.6,532.6c0.8,2.2,0.8,4.7,0,6.9C-162.4,537.3-162.4,534.8-161.6,532.6z"/>
			<path class="st14" d="M-151.6,532.6c0.8,2.2,0.8,4.7,0,6.9c-0.4-1.1-0.6-2.3-0.6-3.4C-152.3,534.9-152,533.7-151.6,532.6z"/>
			<path class="st14" d="M-150.2,532.6c0.8,2.2,0.8,4.7,0,6.9C-151,537.3-151,534.8-150.2,532.6z"/>
			<path class="st14" d="M-135.2,532.6c0.4,1.1,0.6,2.3,0.6,3.4c0,1.2-0.2,2.3-0.6,3.4c-0.4-1.1-0.6-2.3-0.6-3.4
				C-135.9,534.9-135.7,533.7-135.2,532.6z"/>
			<path class="st14" d="M-133.1,532.6c0.4,1.1,0.6,2.3,0.6,3.4c0,1.2-0.2,2.3-0.6,3.4c-0.4-1.1-0.6-2.3-0.6-3.4
				C-133.7,534.9-133.5,533.7-133.1,532.6z"/>
			<path class="st14" d="M-138.3,532.6c0.8,2.2,0.8,4.7,0,6.9C-139.1,537.3-139.1,534.8-138.3,532.6z"/>
			<path class="st14" d="M-158.1,532.6c0.4,1.1,0.6,2.3,0.6,3.4c0,1.2-0.2,2.3-0.6,3.4C-159,537.3-159,534.8-158.1,532.6z"/>
		</g>
		<polygon class="st12" points="-131.3,531.8 -131.3,533.7 -170.1,534.9 -170.1,531.8 		"/>
		<rect x="-173.4" y="523.3" class="st11" width="38.8" height="8.6"/>
		<g class="st13">
			<path class="st14" d="M-136.3,530.9c-0.8-2.2-0.8-4.6,0-6.9C-135.5,526.3-135.5,528.7-136.3,530.9z"/>
			<path class="st14" d="M-139.2,530.9c-0.4-1.1-0.6-2.3-0.6-3.4c0-1.2,0.2-2.3,0.6-3.4c0.4,1.1,0.6,2.3,0.6,3.4
				C-138.6,528.7-138.8,529.8-139.2,530.9z"/>
			<path class="st14" d="M-140.6,530.9c-0.8-2.2-0.8-4.6,0-6.9C-139.8,526.3-139.8,528.7-140.6,530.9z"/>
			<path class="st14" d="M-148.3,530.9c-0.8-2.2-0.8-4.6,0-6.9C-147.5,526.3-147.5,528.7-148.3,530.9z"/>
			<path class="st14" d="M-150.5,530.9c-0.4-1.1-0.6-2.3-0.6-3.4c0-1.2,0.2-2.3,0.6-3.4c0.4,1.1,0.6,2.3,0.6,3.4
				C-149.8,528.7-150.1,529.8-150.5,530.9z"/>
			<path class="st14" d="M-159.1,530.9c-0.8-2.2-0.8-4.6,0-6.9C-158.3,526.3-158.3,528.7-159.1,530.9z"/>
			<path class="st14" d="M-161.1,530.9c-0.4-1.1-0.6-2.3-0.6-3.4c0-1.2,0.2-2.3,0.6-3.4C-160.3,526.3-160.3,528.7-161.1,530.9
				L-161.1,530.9z"/>
			<path class="st14" d="M-164.8,530.9c-0.8-2.2-0.8-4.6,0-6.9C-164,526.3-164,528.7-164.8,530.9z"/>
			<path class="st14" d="M-157.4,530.9c-0.4-1.1-0.6-2.3-0.6-3.4c0-1.2,0.2-2.3,0.6-3.4c0.4,1.1,0.6,2.3,0.6,3.4
				C-156.8,528.7-157,529.8-157.4,530.9z"/>
			<path class="st14" d="M-143.2,530.9c-0.4-1.1-0.6-2.3-0.6-3.4c0-1.2,0.2-2.3,0.6-3.4C-142.3,526.3-142.3,528.7-143.2,530.9
				L-143.2,530.9z"/>
			<path class="st14" d="M-153.2,530.9c-0.8-2.2-0.8-4.6,0-6.9C-152.4,526.3-152.4,528.7-153.2,530.9z"/>
			<path class="st14" d="M-154.6,530.9c-0.8-2.2-0.8-4.6,0-6.9C-153.8,526.3-153.8,528.7-154.6,530.9z"/>
			<path class="st14" d="M-169.6,530.9c-0.8-2.2-0.8-4.6,0-6.9c0.4,1.1,0.6,2.3,0.6,3.4C-168.9,528.7-169.2,529.8-169.6,530.9z"/>
			<path class="st14" d="M-171.8,530.9c-0.4-1.1-0.6-2.3-0.6-3.4c0-1.2,0.2-2.3,0.6-3.4c0.4,1.1,0.6,2.3,0.6,3.4
				C-171.1,528.7-171.3,529.8-171.8,530.9z"/>
			<path class="st14" d="M-166.5,530.9c-0.8-2.2-0.8-4.6,0-6.9C-165.7,526.3-165.7,528.7-166.5,530.9z"/>
			<path class="st14" d="M-146.7,530.9c-0.4-1.1-0.6-2.3-0.6-3.4c0-1.2,0.2-2.3,0.6-3.4c0.4,1.1,0.6,2.3,0.6,3.4
				C-146,528.7-146.2,529.8-146.7,530.9z"/>
		</g>
		<polygon class="st12" points="-134.6,523.3 -134.6,525.1 -173.4,526.3 -173.4,523.3 		"/>
		<rect x="-170.4" y="514.8" class="st11" width="38.8" height="8.6"/>
		<g class="st13">
			<path class="st14" d="M-168.8,515.5c0.8,2.2,0.8,4.7,0,6.9C-169.6,520.2-169.6,517.8-168.8,515.5z"/>
			<path class="st14" d="M-165.9,515.5c0.4,1.1,0.6,2.3,0.6,3.4c0,1.2-0.2,2.3-0.6,3.4C-166.7,520.2-166.7,517.8-165.9,515.5z"/>
			<path class="st14" d="M-164.5,515.5c0.8,2.2,0.8,4.7,0,6.9C-165.3,520.2-165.3,517.8-164.5,515.5z"/>
			<path class="st14" d="M-156.7,515.5c0.8,2.2,0.8,4.7,0,6.9C-157.5,520.2-157.5,517.8-156.7,515.5z"/>
			<path class="st14" d="M-154.6,515.5c0.4,1.1,0.6,2.3,0.6,3.4c0,1.2-0.2,2.3-0.6,3.4c-0.4-1.1-0.6-2.3-0.6-3.4
				C-155.3,517.8-155.1,516.6-154.6,515.5z"/>
			<path class="st14" d="M-146,515.5c0.8,2.2,0.8,4.7,0,6.9C-146.8,520.2-146.8,517.8-146,515.5z"/>
			<path class="st14" d="M-144,515.5c0.8,2.2,0.8,4.7,0,6.9C-144.8,520.2-144.8,517.8-144,515.5z"/>
			<path class="st14" d="M-140.3,515.5c0.8,2.2,0.8,4.7,0,6.9C-141.1,520.2-141.1,517.8-140.3,515.5z"/>
			<path class="st14" d="M-147.6,515.5c0.4,1.1,0.6,2.3,0.6,3.4c0,1.2-0.2,2.3-0.6,3.4c-0.4-1.1-0.6-2.3-0.6-3.4
				C-148.3,517.8-148.1,516.6-147.6,515.5z"/>
			<path class="st14" d="M-161.9,515.5c0.8,2.2,0.8,4.7,0,6.9C-162.7,520.2-162.7,517.8-161.9,515.5z"/>
			<path class="st14" d="M-151.9,515.5c0.8,2.2,0.8,4.7,0,6.9C-152.7,520.2-152.7,517.8-151.9,515.5z"/>
			<path class="st14" d="M-150.4,515.5c0.8,2.2,0.8,4.7,0,6.9C-151.2,520.2-151.2,517.8-150.4,515.5z"/>
			<path class="st14" d="M-135.5,515.5c0.8,2.2,0.8,4.7,0,6.9c-0.4-1.1-0.6-2.3-0.6-3.4C-136.1,517.8-135.9,516.6-135.5,515.5z"/>
			<path class="st14" d="M-133.3,515.5c0.4,1.1,0.6,2.3,0.6,3.4c0,1.2-0.2,2.3-0.6,3.4c-0.4-1.1-0.6-2.3-0.6-3.4
				S-133.7,516.6-133.3,515.5z"/>
			<path class="st14" d="M-138.6,515.5c0.8,2.2,0.8,4.7,0,6.9C-139.4,520.2-139.4,517.8-138.6,515.5z"/>
			<path class="st14" d="M-158.4,515.5c0.4,1.1,0.6,2.3,0.6,3.4c0,1.2-0.2,2.3-0.6,3.4c-0.4-1.1-0.6-2.3-0.6-3.4
				S-158.8,516.6-158.4,515.5z"/>
		</g>
		<polygon class="st12" points="-131.6,514.8 -131.6,516.6 -170.4,517.8 -170.4,514.8 		"/>
		<rect x="-453.9" y="526.7" class="st11" width="38.8" height="8.6"/>
		<g class="st13">
			<path class="st14" d="M-452.3,527.4c0.8,2.2,0.8,4.7,0,6.9C-453.1,532.1-453.1,529.6-452.3,527.4z"/>
			<path class="st14" d="M-449.4,527.4c0.4,1.1,0.6,2.3,0.6,3.4c0,1.2-0.2,2.3-0.6,3.4c-0.4-1.1-0.6-2.3-0.6-3.4
				S-449.8,528.5-449.4,527.4z"/>
			<path class="st14" d="M-447.9,527.4c0.4,1.1,0.6,2.3,0.6,3.4c0,1.2-0.2,2.3-0.6,3.4c-0.4-1.1-0.6-2.3-0.6-3.4
				C-448.6,529.7-448.4,528.5-447.9,527.4z"/>
			<path class="st14" d="M-440.2,527.4c0.8,2.2,0.8,4.7,0,6.9C-441,532.1-441,529.6-440.2,527.4z"/>
			<path class="st14" d="M-438.1,527.4c0.8,2.2,0.8,4.7,0,6.9C-438.9,532.1-438.9,529.6-438.1,527.4z"/>
			<path class="st14" d="M-429.4,527.4c0.4,1.1,0.6,2.3,0.6,3.4c0,1.2-0.2,2.3-0.6,3.4C-430.3,532.1-430.3,529.6-429.4,527.4z"/>
			<path class="st14" d="M-427.4,527.4c0.4,1.1,0.6,2.3,0.6,3.4c0,1.2-0.2,2.3-0.6,3.4c-0.4-1.1-0.6-2.3-0.6-3.4
				C-428.1,529.7-427.9,528.5-427.4,527.4z"/>
			<path class="st14" d="M-423.8,527.4c0.4,1.1,0.6,2.3,0.6,3.4c0,1.2-0.2,2.3-0.6,3.4C-424.6,532.1-424.6,529.6-423.8,527.4z"/>
			<path class="st14" d="M-431.1,527.4c0.8,2.2,0.8,4.7,0,6.9c-0.4-1.1-0.6-2.3-0.6-3.4C-431.7,529.7-431.5,528.5-431.1,527.4z"/>
			<path class="st14" d="M-445.4,527.4c0.4,1.1,0.6,2.3,0.6,3.4c0,1.2-0.2,2.3-0.6,3.4c-0.4-1.1-0.6-2.3-0.6-3.4
				S-445.8,528.5-445.4,527.4z"/>
			<path class="st14" d="M-435.3,527.4c0.8,2.2,0.8,4.7,0,6.9C-436.2,532.1-436.2,529.6-435.3,527.4z"/>
			<path class="st14" d="M-433.9,527.4c0.8,2.2,0.8,4.7,0,6.9C-434.7,532.1-434.7,529.6-433.9,527.4z"/>
			<path class="st14" d="M-419,527.4c0.8,2.2,0.8,4.7,0,6.9C-419.8,532.1-419.8,529.6-419,527.4z"/>
			<path class="st14" d="M-416.8,527.4c0.8,2.2,0.8,4.7,0,6.9C-417.6,532.1-417.6,529.6-416.8,527.4z"/>
			<path class="st14" d="M-422,527.4c0.4,1.1,0.6,2.3,0.6,3.4c0,1.2-0.2,2.3-0.6,3.4C-422.9,532.1-422.9,529.6-422,527.4z"/>
			<path class="st14" d="M-441.9,527.4c0.4,1.1,0.6,2.3,0.6,3.4c0,1.2-0.2,2.3-0.6,3.4c-0.4-1.1-0.6-2.3-0.6-3.4
				S-442.3,528.5-441.9,527.4z"/>
		</g>
		<polygon class="st12" points="-415,526.7 -415,528.5 -453.9,529.7 -453.9,526.7 		"/>
		<rect x="-456.5" y="518.1" class="st11" width="38.8" height="8.6"/>
		<g class="st13">
			<path class="st14" d="M-454.9,518.9c0.4,1.1,0.6,2.3,0.6,3.4c0,1.2-0.2,2.3-0.6,3.4c-0.4-1.1-0.6-2.3-0.6-3.4
				C-455.5,521.1-455.3,520-454.9,518.9z"/>
			<path class="st14" d="M-452,518.9c0.8,2.2,0.8,4.7,0,6.9C-452.8,523.5-452.8,521.1-452,518.9z"/>
			<path class="st14" d="M-450.6,518.9c0.8,2.2,0.8,4.7,0,6.9C-451.4,523.5-451.4,521.1-450.6,518.9z"/>
			<path class="st14" d="M-442.9,518.9c0.8,2.2,0.8,4.7,0,6.9c-0.4-1.1-0.6-2.3-0.6-3.4C-443.5,521.1-443.3,520-442.9,518.9z"/>
			<path class="st14" d="M-440.8,518.9c0.8,2.2,0.8,4.7,0,6.9C-441.6,523.5-441.6,521.1-440.8,518.9z"/>
			<path class="st14" d="M-432.1,518.9c0.8,2.2,0.8,4.7,0,6.9C-432.9,523.5-432.9,521.1-432.1,518.9z"/>
			<path class="st14" d="M-430.1,518.9c0.8,2.2,0.8,4.7,0,6.9C-430.9,523.5-430.9,521.1-430.1,518.9z"/>
			<path class="st14" d="M-426.4,518.9c0.8,2.2,0.8,4.7,0,6.9C-427.3,523.5-427.3,521.1-426.4,518.9z"/>
			<path class="st14" d="M-433.8,518.9c0.8,2.2,0.8,4.7,0,6.9C-434.6,523.5-434.6,521.1-433.8,518.9z"/>
			<path class="st14" d="M-448,518.9c0.8,2.2,0.8,4.7,0,6.9C-448.9,523.5-448.9,521.1-448,518.9z"/>
			<path class="st14" d="M-438,518.9c0.4,1.1,0.6,2.3,0.6,3.4c0,1.2-0.2,2.3-0.6,3.4c-0.4-1.1-0.6-2.3-0.6-3.4
				C-438.6,521.1-438.4,520-438,518.9z"/>
			<path class="st14" d="M-436.6,518.9c0.8,2.2,0.8,4.7,0,6.9c-0.4-1.1-0.6-2.3-0.6-3.4C-437.2,521.1-437,520-436.6,518.9z"/>
			<path class="st14" d="M-421.6,518.9c0.4,1.1,0.6,2.3,0.6,3.4c0,1.2-0.2,2.3-0.6,3.4C-422.4,523.5-422.4,521.1-421.6,518.9z"/>
			<path class="st14" d="M-419.5,518.9c0.8,2.2,0.8,4.7,0,6.9C-420.3,523.5-420.3,521.1-419.5,518.9z"/>
			<path class="st14" d="M-424.7,518.9c0.8,2.2,0.8,4.7,0,6.9C-425.5,523.5-425.5,521.1-424.7,518.9z"/>
			<path class="st14" d="M-444.5,518.9c0.8,2.2,0.8,4.7,0,6.9C-445.4,523.5-445.4,521.1-444.5,518.9z"/>
		</g>
		<polygon class="st12" points="-417.7,518.1 -417.7,519.9 -456.5,521.1 -456.5,518.1 		"/>
		<rect x="-450.5" y="501" class="st11" width="38.8" height="8.6"/>
		<g class="st13">
			<path class="st14" d="M-448.9,501.8c0.8,2.2,0.8,4.7,0,6.9C-449.7,506.5-449.7,504-448.9,501.8z"/>
			<path class="st14" d="M-446,501.8c0.4,1.1,0.6,2.3,0.6,3.4c0,1.2-0.2,2.3-0.6,3.4c-0.4-1.1-0.6-2.3-0.6-3.4
				C-446.7,504.1-446.5,502.9-446,501.8z"/>
			<path class="st14" d="M-444.6,501.8c0.4,1.1,0.6,2.3,0.6,3.4c0,1.2-0.2,2.3-0.6,3.4c-0.4-1.1-0.6-2.3-0.6-3.4
				S-445,502.9-444.6,501.8z"/>
			<path class="st14" d="M-436.9,501.8c0.4,1.1,0.6,2.3,0.6,3.4c0,1.2-0.2,2.3-0.6,3.4C-437.7,506.5-437.7,504-436.9,501.8z"/>
			<path class="st14" d="M-434.8,501.8c0.8,2.2,0.8,4.7,0,6.9C-435.6,506.5-435.6,504-434.8,501.8z"/>
			<path class="st14" d="M-426.1,501.8c0.4,1.1,0.6,2.3,0.6,3.4c0,1.2-0.2,2.3-0.6,3.4c-0.4-1.1-0.6-2.3-0.6-3.4
				S-426.5,502.9-426.1,501.8z"/>
			<path class="st14" d="M-424.1,501.8c0.4,1.1,0.6,2.3,0.6,3.4c0,1.2-0.2,2.3-0.6,3.4c-0.4-1.1-0.6-2.3-0.6-3.4
				S-424.5,502.9-424.1,501.8z"/>
			<path class="st14" d="M-420.4,501.8c0.4,1.1,0.6,2.3,0.6,3.4c0,1.2-0.2,2.3-0.6,3.4C-421.2,506.5-421.2,504-420.4,501.8z"/>
			<path class="st14" d="M-427.8,501.8c0.8,2.2,0.8,4.7,0,6.9C-428.6,506.5-428.6,504-427.8,501.8z"/>
			<path class="st14" d="M-442,501.8c0.4,1.1,0.6,2.3,0.6,3.4c0,1.2-0.2,2.3-0.6,3.4c-0.4-1.1-0.6-2.3-0.6-3.4
				C-442.7,504.1-442.5,502.9-442,501.8z"/>
			<path class="st14" d="M-432,501.8c0.8,2.2,0.8,4.7,0,6.9C-432.8,506.5-432.8,504-432,501.8z"/>
			<path class="st14" d="M-430.6,501.8c0.8,2.2,0.8,4.7,0,6.9C-431.4,506.5-431.4,504-430.6,501.8z"/>
			<path class="st14" d="M-415.6,501.8c0.8,2.2,0.8,4.7,0,6.9C-416.4,506.5-416.4,504-415.6,501.8z"/>
			<path class="st14" d="M-413.4,501.8c0.8,2.2,0.8,4.7,0,6.9C-414.3,506.5-414.3,504-413.4,501.8z"/>
			<path class="st14" d="M-418.7,501.8c0.4,1.1,0.6,2.3,0.6,3.4c0,1.2-0.2,2.3-0.6,3.4c-0.4-1.1-0.6-2.3-0.6-3.4
				S-419.1,502.9-418.7,501.8z"/>
			<path class="st14" d="M-438.5,501.8c0.4,1.1,0.6,2.3,0.6,3.4c0,1.2-0.2,2.3-0.6,3.4c-0.4-1.1-0.6-2.3-0.6-3.4
				C-439.2,504.1-439,502.9-438.5,501.8z"/>
		</g>
		<polygon class="st12" points="-411.7,501 -411.7,502.8 -450.5,504.1 -450.5,501 		"/>
		<rect x="-451.5" y="492.5" class="st11" width="38.8" height="8.6"/>
		<g class="st13">
			<path class="st14" d="M-414.4,500.1c-0.8-2.2-0.8-4.6,0-6.9C-413.6,495.5-413.6,497.9-414.4,500.1z"/>
			<path class="st14" d="M-417.3,500.1c-0.4-1.1-0.6-2.3-0.6-3.4c0-1.2,0.2-2.3,0.6-3.4c0.4,1.1,0.6,2.3,0.6,3.4
				S-416.9,499-417.3,500.1z"/>
			<path class="st14" d="M-418.7,500.1c-0.4-1.1-0.6-2.3-0.6-3.4c0-1.2,0.2-2.3,0.6-3.4c0.4,1.1,0.6,2.3,0.6,3.4
				C-418.1,497.8-418.3,499-418.7,500.1z"/>
			<path class="st14" d="M-426.4,500.1c-0.8-2.2-0.8-4.6,0-6.9C-425.6,495.5-425.6,497.9-426.4,500.1z"/>
			<path class="st14" d="M-428.6,500.1c-0.8-2.2-0.8-4.6,0-6.9C-427.8,495.5-427.8,497.9-428.6,500.1z"/>
			<path class="st14" d="M-437.2,500.1c-0.4-1.1-0.6-2.3-0.6-3.4c0-1.2,0.2-2.3,0.6-3.4C-436.4,495.5-436.4,497.9-437.2,500.1
				L-437.2,500.1z"/>
			<path class="st14" d="M-439.3,500.1c-0.4-1.1-0.6-2.3-0.6-3.4c0-1.2,0.2-2.3,0.6-3.4c0.4,1.1,0.6,2.3,0.6,3.4
				C-438.6,497.8-438.8,499-439.3,500.1z"/>
			<path class="st14" d="M-442.9,500.1c-0.8-2.2-0.8-4.6,0-6.9C-442.1,495.5-442.1,497.9-442.9,500.1z"/>
			<path class="st14" d="M-435.6,500.1c-0.4-1.1-0.6-2.3-0.6-3.4c0-1.2,0.2-2.3,0.6-3.4c0.4,1.1,0.6,2.3,0.6,3.4
				C-434.9,497.8-435.1,499-435.6,500.1z"/>
			<path class="st14" d="M-421.3,500.1c-0.4-1.1-0.6-2.3-0.6-3.4c0-1.2,0.2-2.3,0.6-3.4c0.4,1.1,0.6,2.3,0.6,3.4
				S-420.9,499-421.3,500.1z"/>
			<path class="st14" d="M-431.4,500.1c-0.8-2.2-0.8-4.6,0-6.9C-430.6,495.5-430.6,497.9-431.4,500.1z"/>
			<path class="st14" d="M-432.8,500.1c-0.8-2.2-0.8-4.6,0-6.9C-432,495.5-432,497.9-432.8,500.1z"/>
			<path class="st14" d="M-447.7,500.1c-0.8-2.2-0.8-4.6,0-6.9C-446.9,495.5-446.9,497.9-447.7,500.1z"/>
			<path class="st14" d="M-449.9,500.1c-0.8-2.2-0.8-4.6,0-6.9C-449.1,495.5-449.1,497.9-449.9,500.1z"/>
			<path class="st14" d="M-444.6,500.1c-0.8-2.2-0.8-4.6,0-6.9C-443.8,495.5-443.8,497.9-444.6,500.1z"/>
			<path class="st14" d="M-424.8,500.1c-0.4-1.1-0.6-2.3-0.6-3.4c0-1.2,0.2-2.3,0.6-3.4c0.4,1.1,0.6,2.3,0.6,3.4
				S-424.4,499-424.8,500.1z"/>
		</g>
		<polygon class="st12" points="-412.7,492.5 -412.7,494.3 -451.5,495.5 -451.5,492.5 		"/>
		<rect x="-453.9" y="483.9" class="st11" width="38.8" height="8.6"/>
		<g class="st13">
			<path class="st14" d="M-452.3,484.7c0.8,2.2,0.8,4.6,0,6.9C-453.1,489.3-453.1,486.9-452.3,484.7z"/>
			<path class="st14" d="M-449.4,484.7c0.4,1.1,0.6,2.3,0.6,3.4c0,1.2-0.2,2.3-0.6,3.4c-0.4-1.1-0.6-2.3-0.6-3.4
				C-450,486.9-449.8,485.8-449.4,484.7z"/>
			<path class="st14" d="M-447.9,484.7c0.4,1.1,0.6,2.3,0.6,3.4c0,1.2-0.2,2.3-0.6,3.4c-0.4-1.1-0.6-2.3-0.6-3.4
				C-448.6,486.9-448.4,485.8-447.9,484.7z"/>
			<path class="st14" d="M-440.2,484.7c0.8,2.2,0.8,4.6,0,6.9C-441,489.3-441,486.9-440.2,484.7z"/>
			<path class="st14" d="M-438.1,484.7c0.8,2.2,0.8,4.6,0,6.9C-438.9,489.3-438.9,486.9-438.1,484.7z"/>
			<path class="st14" d="M-429.4,484.7c0.8,2.2,0.8,4.6,0,6.9C-430.3,489.3-430.3,486.9-429.4,484.7z"/>
			<path class="st14" d="M-427.4,484.7c0.4,1.1,0.6,2.3,0.6,3.4c0,1.2-0.2,2.3-0.6,3.4c-0.4-1.1-0.6-2.3-0.6-3.4
				C-428.1,486.9-427.9,485.8-427.4,484.7z"/>
			<path class="st14" d="M-423.8,484.7c0.8,2.2,0.8,4.6,0,6.9C-424.6,489.3-424.6,486.9-423.8,484.7z"/>
			<path class="st14" d="M-431.1,484.7c0.4,1.1,0.6,2.3,0.6,3.4c0,1.2-0.2,2.3-0.6,3.4c-0.4-1.1-0.6-2.3-0.6-3.4
				C-431.8,486.9-431.5,485.8-431.1,484.7z"/>
			<path class="st14" d="M-445.4,484.7c0.4,1.1,0.6,2.3,0.6,3.4c0,1.2-0.2,2.3-0.6,3.4c-0.4-1.1-0.6-2.3-0.6-3.4
				C-446,486.9-445.8,485.8-445.4,484.7z"/>
			<path class="st14" d="M-435.3,484.7c0.8,2.2,0.8,4.6,0,6.9C-436.2,489.3-436.2,486.9-435.3,484.7z"/>
			<path class="st14" d="M-433.9,484.7c0.8,2.2,0.8,4.6,0,6.9C-434.7,489.3-434.7,486.9-433.9,484.7z"/>
			<path class="st14" d="M-419,484.7c0.8,2.2,0.8,4.6,0,6.9C-419.8,489.3-419.8,486.9-419,484.7z"/>
			<path class="st14" d="M-416.8,484.7c0.8,2.2,0.8,4.6,0,6.9C-417.6,489.3-417.6,486.9-416.8,484.7z"/>
			<path class="st14" d="M-422,484.7c0.8,2.2,0.8,4.6,0,6.9C-422.9,489.3-422.9,486.9-422,484.7z"/>
			<path class="st14" d="M-441.9,484.7c0.4,1.1,0.6,2.3,0.6,3.4c0,1.2-0.2,2.3-0.6,3.4c-0.4-1.1-0.6-2.3-0.6-3.4
				C-442.5,486.9-442.3,485.8-441.9,484.7z"/>
		</g>
		<polygon class="st12" points="-415,483.9 -415,485.7 -453.9,486.9 -453.9,483.9 		"/>
		<rect x="-453.9" y="509.6" class="st11" width="38.8" height="8.6"/>
		<g class="st13">
			<path class="st14" d="M-416.8,517.3c-0.8-2.2-0.8-4.7,0-6.9C-416,512.6-416,515-416.8,517.3z"/>
			<path class="st14" d="M-419.7,517.3c-0.8-2.2-0.8-4.7,0-6.9C-418.9,512.6-418.9,515-419.7,517.3z"/>
			<path class="st14" d="M-421.1,517.3c-0.8-2.2-0.8-4.7,0-6.9c0.4,1.1,0.6,2.3,0.6,3.4C-420.5,515-420.7,516.2-421.1,517.3z"/>
			<path class="st14" d="M-428.8,517.3c-0.4-1.1-0.6-2.3-0.6-3.4c0-1.2,0.2-2.3,0.6-3.4c0.4,1.1,0.6,2.3,0.6,3.4
				S-428.4,516.2-428.8,517.3z"/>
			<path class="st14" d="M-430.9,517.3c-0.8-2.2-0.8-4.7,0-6.9C-430.1,512.6-430.1,515-430.9,517.3z"/>
			<path class="st14" d="M-439.6,517.3c-0.4-1.1-0.6-2.3-0.6-3.4c0-1.2,0.2-2.3,0.6-3.4c0.4,1.1,0.6,2.3,0.6,3.4
				S-439.2,516.2-439.6,517.3z"/>
			<path class="st14" d="M-441.6,517.3c-0.8-2.2-0.8-4.7,0-6.9c0.4,1.1,0.6,2.3,0.6,3.4C-441,515-441.2,516.2-441.6,517.3z"/>
			<path class="st14" d="M-445.3,517.3c-0.4-1.1-0.6-2.3-0.6-3.4c0-1.2,0.2-2.3,0.6-3.4c0.4,1.1,0.6,2.3,0.6,3.4
				S-444.9,516.2-445.3,517.3z"/>
			<path class="st14" d="M-437.9,517.3c-0.8-2.2-0.8-4.7,0-6.9C-437.1,512.6-437.1,515-437.9,517.3z"/>
			<path class="st14" d="M-423.7,517.3c-0.8-2.2-0.8-4.7,0-6.9c0.4,1.1,0.6,2.3,0.6,3.4C-423,515-423.2,516.2-423.7,517.3z"/>
			<path class="st14" d="M-433.7,517.3c-0.8-2.2-0.8-4.7,0-6.9C-432.9,512.6-432.9,515-433.7,517.3z"/>
			<path class="st14" d="M-435.1,517.3c-0.4-1.1-0.6-2.3-0.6-3.4c0-1.2,0.2-2.3,0.6-3.4c0.4,1.1,0.6,2.3,0.6,3.4
				S-434.7,516.2-435.1,517.3z"/>
			<path class="st14" d="M-450.1,517.3c-0.8-2.2-0.8-4.7,0-6.9C-449.3,512.6-449.3,515-450.1,517.3z"/>
			<path class="st14" d="M-452.3,517.3c-0.8-2.2-0.8-4.7,0-6.9C-451.4,512.6-451.4,515-452.3,517.3z"/>
			<path class="st14" d="M-447,517.3c-0.4-1.1-0.6-2.3-0.6-3.4c0-1.2,0.2-2.3,0.6-3.4c0.4,1.1,0.6,2.3,0.6,3.4
				S-446.6,516.2-447,517.3z"/>
			<path class="st14" d="M-427.2,517.3c-0.8-2.2-0.8-4.7,0-6.9C-426.4,512.6-426.4,515-427.2,517.3z"/>
		</g>
		<polygon class="st12" points="-415,509.6 -415,511.4 -453.9,512.6 -453.9,509.6 		"/>
		<path class="st11" d="M-457.1,505.3c25.5,4.6,18.8,42.4-6.8,37.8C-489.5,538.6-482.7,500.7-457.1,505.3z"/>
		<path class="st12" d="M-457.1,505.3c25.5,4.6,18.8,42.4-6.8,37.8C-489.5,538.6-482.7,500.7-457.1,505.3z"/>
		<path class="st11" d="M-459.5,504.9c24.3,4.4,17.6,42.2-6.8,37.8C-490.7,538.3-483.9,500.5-459.5,504.9z"/>
		<path class="st12" d="M-478.3,524.7c0.1,6.7,4.1,13.3,12.6,14.8c20.2,3.6,25.8-27.8,5.6-31.4l-0.4-0.1c18.9,3.8,13.5,33.5-5.8,30
			C-473,537.2-478.1,531.5-478.3,524.7z"/>
		<g class="st13">
			<path class="st14" d="M-460.8,512c0.3,0.1,0.5,0.4,0.5,0.8l-0.3,1c1.7,0.5,3.1,1.6,4.2,3c0.2,0.2,0.3,0.4,0.2,0.7
				c-0.1,0.4-0.5,0.6-0.8,0.5c-0.2,0-0.3-0.2-0.4-0.3c-0.9-1.2-2.1-2.1-3.5-2.6l-1.8,7.3c3.7,1.8,5,3.7,4.4,6.2
				c-0.7,2.8-3.5,4.1-6.8,3.4l-0.5,2c0,0.4-0.4,0.6-0.7,0.6c-0.4,0-0.6-0.4-0.6-0.7c0-0.1,0-0.1,0-0.2l0.5-2.1c-2.1-0.7-4-2.1-5.2-4
				c-0.2-0.2-0.2-0.4-0.1-0.6c0.1-0.3,0.5-0.6,0.8-0.5c0.2,0,0.3,0.1,0.4,0.3c1,1.7,2.6,3,4.5,3.6l1.8-7.4c-3.7-1.8-4.9-3.7-4.3-6.2
				c0.7-2.5,3.4-4.1,6.6-3.3l0.2-1C-461.4,512.2-461.1,512-460.8,512z M-463.8,521.8l1.8-7.1c-2.5-0.6-4.6,0.5-5,2.4
				S-467,520.1-463.8,521.8L-463.8,521.8z M-463.1,523.6l-1.7,7.2c2.6,0.6,4.7-0.5,5.2-2.5S-459.9,525.2-463.1,523.6L-463.1,523.6z"
				/>
		</g>
	</g>
</g>
<g>
	<path class="st17" d="M482.6,373.6c0-0.1-0.1-0.3-0.1-0.4c-0.2-0.9,1-1.2,1.3-0.4c0.1,0.3,0.2,0.7,0.3,1c0.2,0.2,0.4,0.5,0.4,0.9
		c0,0.1,0,0.3,0,0.4c1.7,5.5,2.6,11.1,2.7,16.9c0.1,5,0.5,12.3-3.1,16.3c-0.7,0.8-2,0.2-2-0.8c-0.1-10.9-0.2-21.9-0.2-32.8
		C482,374.2,482.3,373.8,482.6,373.6z"/>
	<path class="st17" d="M475.4,372.9c0.2-0.7,0.9-1,1.5-0.9c0.6-1,2.5-0.8,2.5,0.7c0.1,11.5,0.1,23.1,0,34.6c0,1.6-2.2,1.8-2.7,0.4
		C473,396.4,472.6,384.4,475.4,372.9z"/>
	<path class="st17" d="M208.1,470.4c-0.1,4.3,2.3,7.1,6.5,8.2c5,1.3,10.6,1.4,15.8,1.5c11.6,0.3,23.1-0.9,34.6-2.2
		c3.7-0.4,8.1-0.7,11-3.4c3.5-3.2,2.6-8.2,2-12.3c-1-7.6-2.5-15.7-5.1-23.2c3.4,1.7,7.8,2.4,11.5,3c4,0.6,8,0.9,12,0.9
		c7.3-0.1,14.6-1.4,21.4-4.1c-2.8,8.3-4.1,17.2-3.3,26c0.4,4.3,1.4,8.8,5.3,11.3c4.1,2.6,9.9,2.8,14.6,3.4
		c11.7,1.5,23.7,1.7,35.4,0.4c4.4-0.5,10.4-0.4,14-3.3c3.6-2.9,3.2-8.4,3.2-12.5c0-7.8-1-15.6-3.2-23c7.5,1.9,15.3,2.6,23,2.4
		c13.5-0.3,26.9-3.7,38.9-9.9c6.1-3.1,11.7-7.1,17.7-10.4c2.9-1.6,5.9-3.1,9.1-4.1c2.1-0.7,4.4-0.8,6.6-1.4c1,0.2,2.1,0.1,3.2-0.2
		c3.9-1.1,6.4-4.6,7.6-8.2c1.5-4.4,1.8-9.4,2-14c0.2-5.3-0.1-10.6-0.9-15.8c-0.9-5.8-3.5-17.5-11.1-17.1c-1.4-0.1-2.6,0.2-3.6,0.6
		c-1.7,0.2-3.4,0.3-5.2-0.3c-2.3-0.7-4.3-2.2-5.9-4.1c-3.2-3.8-4.7-8.8-6.4-13.3c-6.1-17.2-10-35.6-19.6-51.3
		c-7.9-12.8-19.9-24.3-35.1-27.2c-0.6-0.1-1.1,0.1-1.4,0.5c1.3-6.3,3.7-12.4,5.8-18.5c1.3-3.9,2.9-8.3,2.9-12.4
		c0-1.8-0.9-2.8-2.1-3.4c0,0,0,0,0,0c-0.7-1.9-3.8-1.8-5.5-2c-3-0.3-6-0.3-9-0.1c-5.7,0.5-11.2,1.9-16.5,4
		c-7.9,3.2-15.7,8.4-21.4,15c-4.5-1.6-9.1-2.7-13.9-3.5c-4.5-0.8-9.6-1.9-14.1-1.6c-1.2,0.1-1.5,1.8-0.3,2.1c4.6,1,9.5,1,14.2,1.9
		c4.3,0.8,8.6,1.7,12.8,2.6c-1.3,1.6-2.4,3.3-3.4,5.1c-0.8,1.3,1.2,2.4,2,1.2c6.2-8.6,13.5-15.5,23.3-19.9c4.7-2.1,9.7-3.6,14.7-4.3
		c2.7-0.4,5.3-0.6,8-0.6c0.2,0,0.7,0,1.4,0.1c-6.7,1.9-12.9,7.4-17.4,12.4c-5.2,5.8-9.2,12.6-11.8,19.9c-2.5,7.1-4,15.4-2.7,22.9
		c0.2,1.2,2,0.8,2-0.3c0.1-4.2,0-8.2,0.6-12.4c0.6-3.8,1.6-7.6,3-11.3c2.6-6.7,6.5-13,11.5-18.2c4.7-5,12.2-11.6,19.5-11.3
		c2,0.1,2.6,1.1,2.4,3c-0.2,1-0.4,2.1-0.6,3.1c-0.4,1.8-0.9,3.6-1.5,5.4c-1.2,3.7-2.6,7.3-3.8,11c-2.4,7-4.3,14.1-2.6,21.4
		c0.2,0.9,1.8,0.7,1.7-0.2c-0.3-3.3-0.1-6.6,0.4-9.8c0.1,0.3,0.4,0.6,0.9,0.7c9.2,1.9,17.3,6.7,23.8,13.4
		c13,13.2,18.7,31.1,24.1,48.4c1.5,4.7,2.9,9.4,4.5,14c1.4,4.1,2.8,8.3,5.1,12.1c1.9,3.3,4.6,6.2,8.2,7.6c1.2,0.5,2.6,0.8,4,0.9
		c-3.8,5.2-4.2,15.1-4.4,20c-0.3,5.1-0.1,10.2,0.6,15.3c0.6,4.4,1.1,9.3,4,12.9c0.5,0.6,1.1,1.2,1.7,1.7c-1,0.2-1.9,0.5-2.7,0.7
		c-3.4,1-6.7,2.5-9.8,4.2c-5.8,3.1-11.2,6.9-17,10c-6.2,3.3-12.9,5.8-19.7,7.5c-13.7,3.4-27.7,3.2-41.4,0.2c-0.5-0.1-0.9,0-1.2,0.3
		c-0.8-2.2-1.7-4.4-2.7-6.6c-0.4-0.9-1.8-0.2-1.5,0.7c3.2,10.7,5.6,21.5,5.5,32.7c0,2.2,0.1,4.7-0.7,6.8c-0.8,2.3-2.9,3.2-5.1,3.6
		c-4.9,1-10,1.5-15,1.8c-10.3,0.7-20.7,0.3-31-1.2c-4-0.6-9.8-0.8-12.6-4c-3-3.4-2.8-9.3-2.7-13.5c0.1-9.5,2.5-18.9,6.8-27.4
		c0.8-1.6-1.6-3.1-2.5-1.4c-1.1,2.1-2,4.2-2.9,6.4c-7.3,2.2-14.6,3.7-22.2,3.8c-4.1,0-8.1-0.3-12.1-1c-3.8-0.7-7.5-2.2-11.3-2.9
		c-0.4-0.1-0.7,0-1,0.2c-0.7-1.8-1.5-3.6-2.4-5.4c-0.5-1.1-2.2-0.3-1.9,0.8c1.4,5.1,3.1,10.1,4.4,15.2c1.3,5.1,2.3,10.2,3,15.4
		c0.6,4.6,1.3,9.5-4,11.2c-4.3,1.4-9.2,1.4-13.6,1.9c-9.6,1-19.3,1.7-29,1.3c-4.6-0.2-9.8-0.1-14.2-1.7c-5.2-1.8-3.1-8.9-2.5-13
		c1.4-9.4,3.8-18.5,7.2-27.3c0.7-1.7-2.1-2.4-2.7-0.8c-2.3,5.9-4.1,11.9-5.5,18C209.4,458.2,208.2,464.4,208.1,470.4z M472.9,406.5
		c-1.7-7.5-1.9-15.5-1.3-23.1c0.4-5.6,0.8-18.8,9-18.6c0.1,0,0.3,0,0.4,0c6.7,2.7,7.6,14.3,8.1,20.4c0.6,7.4,0.6,15.7-1.7,22.9
		c-1.1,3.4-3.9,7.5-8,6.7C475.4,414,473.7,410,472.9,406.5z"/>
	<path class="st17" d="M237.2,272.5c0.2,0.4,0.6,0.6,1.1,0.6c3.8-0.4,7.7-1.8,11.5-2.6c4.2-0.9,8.4-1.6,12.6-2.1
		c8-1,16-1.5,24.1-1.4c8.2,0.1,16.4,0.8,24.5,2.1c8.1,1.3,16,3.5,23.9,5.5c1.1,0.3,1.7-0.7,1.5-1.5c1.2-2.3,2.2-4.7,3.1-7.1
		c0.7-1.8,1.8-4.1,1-6c-0.7-1.6-2.4-2.3-4-2.7c-2.5-0.7-5.1-1.2-7.8-1.3c-0.5-3.1-1.4-6.1-2.6-9c-0.5-1.1-1-2.2-1.5-3.3
		c-2.9-7.1-8.7-13.2-15.1-17.2c-4.5-2.9-9.6-4.7-14.7-5.6c-0.1-0.1-0.2-0.1-0.3-0.1c-0.2-0.1-0.3,0-0.4,0c-9.8-1.4-20,0.8-28.5,6.4
		c-10.2,6.7-16.4,18-17.6,29.9c-0.4-0.6-1.1-1-1.9-0.6c-0.2,0.1-1.2-0.3-1.5-0.3c-0.5,0-1,0-1.5,0.2c-1.1,0.5-1.5,1.5-1.9,2.6
		c-1.7,4.1-3.6,8.2-4.7,12.5C236.1,271.9,236.6,272.4,237.2,272.5z M258.2,237.3c0.8,0.5,1.6,1,2.4,1.4c0.8,0.4,1.6,0.9,2.3,1.3
		c-0.9,1.4-1.6,2.8-2.3,4.3c-0.7-0.3-1.4-0.7-2.1-1.1c-1-0.6-2-1.3-3.1-1.9C256.3,239.9,257.2,238.6,258.2,237.3z M263.6,231.8
		c0.7,1.2,2,2.1,3,2.9c0.1,0.1,0.2,0.1,0.3,0.1c-1.2,1.3-2.3,2.7-3.3,4.2c-0.8-0.5-1.5-1-2.3-1.5c-0.7-0.5-1.5-1-2.3-1.4
		c1.4-1.7,2.9-3.2,4.5-4.6C263.5,231.7,263.5,231.8,263.6,231.8z M268,228.4c0.4,0.4,0.8,0.8,1.1,1.2c0.5,0.5,1,1.1,1.6,1.6
		c-1.2,0.9-2.3,2-3.3,3.1c0-0.1-0.1-0.1-0.1-0.2c-0.9-1-1.8-2.3-2.9-3c0,0,0,0,0,0C265.4,230.1,266.7,229.3,268,228.4z M275.2,226.2
		c0.4,0.4,0.8,0.9,1.2,1.3c-1.8,0.9-3.4,1.9-5,3.1c-0.5-0.6-1-1.2-1.6-1.8c-0.3-0.3-0.6-0.7-0.9-1c1.7-1,3.5-1.9,5.4-2.6
		C274.6,225.5,274.9,225.9,275.2,226.2z M280.5,224c0.4,0.5,0.8,0.9,1.2,1.4c0,0,0,0,0,0c-1.6,0.5-3.1,1-4.5,1.7c0,0,0-0.1-0.1-0.1
		c-0.4-0.5-0.8-1-1.2-1.5c-0.2-0.2-0.3-0.4-0.5-0.7c1.5-0.5,3.1-1,4.6-1.4C280.2,223.6,280.4,223.8,280.5,224z M287.8,224.1
		c-1.7,0.2-3.3,0.5-5,0.9c0,0-0.1,0-0.1,0c0.1-0.2,0.1-0.3-0.1-0.5c-0.4-0.5-0.7-1-1.1-1.4c0,0,0,0,0-0.1c1.7-0.3,3.5-0.5,5.3-0.6
		C287.1,223.1,287.4,223.6,287.8,224.1z M291.1,222.5c1.2,0.1,2.3,0.2,3.4,0.4c0,0,0,0.1,0,0.1c0.1,0.3,0.1,0.6,0.1,1
		c-1.9-0.1-3.8-0.1-5.7,0c-0.3-0.5-0.6-1-1-1.5C289,222.5,290.1,222.5,291.1,222.5z M304.8,226.3c-2.9-1.1-6-1.9-9.2-2.2
		c0.1-0.3,0.1-0.6,0.1-0.9C298.9,223.8,301.9,224.8,304.8,226.3z M328.1,269.7c0.3-0.5,0.4-0.9,0.5-1c0.6-2.2,0.6-4.7,0.6-7
		c0-1-0.1-2-0.2-2.9c1.8,0.2,3.6,0.5,5.3,0.9c1.9,0.5,3.7,0.7,3.3,3c-0.5,3.1-2,6.1-2.9,9.2C332.5,271,330.3,270.3,328.1,269.7z
		 M265.7,240.8c9.4-14.3,29-18,43.6-9.5c7,4.1,12.2,10.8,14.9,18.4c1.3,3.6,2.1,7.4,2.3,11.3c0.1,2.1,0,4.2-0.2,6.3
		c-0.1,0.7-0.2,1.3-0.1,1.9c-12.9-3.5-26.7-4.9-39.8-5.1c-8.3-0.1-16.7,0.4-24.9,1.5c-0.6,0.1-1.2,0.2-1.8,0.3
		C258.9,257.1,260.9,248.1,265.7,240.8z M258.9,248.3c-1.8-0.7-3.9-1.7-5.9-1.8c0,0,0,0-0.1,0c0.5-1.3,1.1-2.6,1.8-3.8
		c0,0,0,0,0-0.1c1.5,1.2,3.5,2.2,5.4,2.9C259.7,246.4,259.4,247.3,258.9,248.3C259,248.3,259,248.3,258.9,248.3z M257.7,253
		c-1.2-0.1-2.5-0.3-3.7-0.4c-0.9-0.1-1.9-0.3-2.9-0.2c0.4-1.7,0.9-3.4,1.5-5.1c0,0,0.1,0.1,0.1,0.1c1.7,1,4,1.3,5.9,1.8
		c0,0,0,0,0.1,0C258.3,250.4,258,251.7,257.7,253z M256.9,257.3c-2.1-0.1-4.4-0.4-6.5-0.2c0.1-1.1,0.3-2.3,0.5-3.4
		c1,0.3,2.1,0.2,3.1,0.3c1.2,0.1,2.3,0.1,3.5,0.2C257.3,255.1,257.1,256.2,256.9,257.3C256.9,257.3,256.9,257.3,256.9,257.3z
		 M250.6,266.9c-0.2-1.1-0.3-2.2-0.4-3.3c1.9,0.5,4.3,0.3,6.4,0.1c0,0.9,0.1,1.7,0.1,2.6c-2.1,0.3-4.1,0.7-6.2,1.1
		C250.7,267.2,250.7,267,250.6,266.9z M250.3,258.5c2.2,0.1,4.5-0.1,6.6-0.2c-0.1,1.4-0.2,2.8-0.2,4.2c-1.1,0-2.1,0-3.2-0.1
		c-1.1,0-2.2-0.3-3.3-0.2C250.2,261,250.2,259.7,250.3,258.5z M239.1,270.1c1.4-2.6,2.5-5.3,3.6-8c0.3-0.6,0.6-2,1.1-2.5
		c0.6-0.7,0.4-0.5,1.3-0.5c0.9,0.1,1.4,0.2,2.3-0.2c0.2-0.1,0.3-0.2,0.4-0.3c-0.2,3-0.1,6,0.4,9c0,0.1,0,0.2,0.1,0.3
		C245.2,268.4,241.9,269,239.1,270.1z"/>
	<path class="st17" d="M227.8,203.5c10.5,10.8,25.9,12.9,40.3,11.5c0.6,0.1,1.2,0.1,1.7,0.2c0.2,0,0.4,0,0.6-0.1
		c9,0.2,17.9-4,24.6-9.7c8.1-6.9,13.4-16.9,15.3-27.3c1-5.2,1.3-10.6,0.5-15.9c0.1-0.1,0.1-0.2,0.1-0.4
		c-1.9-15.9-13.6-28.3-28.1-33.9c-0.1-0.1-0.1-0.2-0.2-0.3c-0.2-0.2-0.4-0.2-0.6,0c-0.5-0.2-1-0.4-1.6-0.5
		c-14-4.5-30.3-3.2-43.3,3.4c-0.2-0.1-0.6,0.1-0.6,0.3c-11.6,6.1-20.4,16.5-22.2,30.9c-0.4,0.1-0.4,0.6-0.1,0.9
		C212.7,177.1,217.6,193,227.8,203.5z M218,154.8c2.1,1.8,5,3.1,7.7,3.7c-0.5,1.6-1,3.2-1.4,4.8c-2.6-0.5-5.3-1.3-7.9-1.5
		c0.2-1.4,0.5-2.8,0.8-4.2C217.4,156.7,217.7,155.7,218,154.8z M223.7,144.1c0.9,0.7,2.1,1.1,3.1,1.6c1.4,0.7,2.7,1.3,4.1,1.9
		c0.2,0.1,0.3,0.1,0.4,0c-1.1,1.5-2.1,3.1-3,4.8c-1.1-0.5-2.1-1-3.1-1.6c-1.1-0.7-2.2-1.6-3.4-2.1c-0.4-0.2-0.8,0.3-0.5,0.6
		c1.5,1.8,4.3,2.9,6.6,3.7c-0.8,1.5-1.4,3-2,4.5c-1.4-0.5-2.9-1.1-4.2-1.9c-1.2-0.7-2.2-1.6-3.3-2.4
		C219.8,150,221.5,146.9,223.7,144.1z M227.8,139.5c0.9,0.9,2,1.6,3,2.4c1,0.8,2.1,1.6,3.1,2.4c-0.8,1-1.6,1.9-2.4,3
		c0-0.2,0-0.3-0.2-0.4c-1.3-0.7-2.7-1.5-4-2.2c-0.9-0.5-1.9-1.1-2.9-1.5C225.5,141.8,226.6,140.6,227.8,139.5z M232.2,135.9
		c0.8,0.8,1.8,1.5,2.6,2.3c1,0.8,2,1.6,2.9,2.3c-0.3,0.3-0.6,0.6-0.9,0.8c-0.8,0.7-1.5,1.5-2.3,2.3c-1.1-0.9-2.2-1.9-3.3-2.8
		c-0.8-0.7-1.6-1.5-2.6-2.1C229.8,137.7,231,136.7,232.2,135.9z M237.4,132.6c0.5,0.6,1,1.1,1.4,1.7c0.9,1.1,1.9,2.1,2.9,3.1
		c-1.1,0.8-2.2,1.6-3.3,2.5c-0.9-0.8-1.9-1.7-2.8-2.5c-0.8-0.7-1.6-1.5-2.5-2.1C234.5,134.2,236,133.4,237.4,132.6z M242.6,130.2
		c0.6,0.6,1.3,1.1,1.8,1.7c0.7,0.8,1.4,1.6,2,2.5c-1.3,0.7-2.7,1.5-3.9,2.3c-0.9-1-1.8-2.1-2.7-3.1c-0.4-0.5-0.8-1.1-1.3-1.6
		C239.9,131.3,241.2,130.7,242.6,130.2z M251.4,129.8c0.6,0.6,1.2,1.2,1.8,1.8c-2,0.7-4,1.5-5.9,2.5c-0.5-1-1.2-1.9-1.9-2.7
		c-0.4-0.5-0.9-1.1-1.5-1.6c1.9-0.7,3.8-1.3,5.7-1.7C250.1,128.6,250.8,129.2,251.4,129.8z M264.5,129.4c-1.5,0.1-3,0.3-4.4,0.5
		c-0.6-1-1.2-2.1-1.9-3c-0.3-0.4-0.9,0.1-0.7,0.5c0.4,0.9,1,1.8,1.6,2.6c-1.6,0.3-3.2,0.7-4.7,1.2c-0.7-0.7-1.4-1.5-2.1-2.2
		c-0.4-0.4-0.8-0.9-1.3-1.3c3.8-0.8,7.6-1.3,11.5-1.3c-0.1,0.1-0.1,0.3,0,0.5C263.1,127.7,263.9,128.5,264.5,129.4z M270.2,126.8
		c0.6,1,1.4,1.8,2.1,2.7c-2.2-0.2-4.4-0.3-6.6-0.2c-0.7-1.2-1.5-2.3-2.6-2.9C265.5,126.3,267.8,126.5,270.2,126.8z M277.6,130.4
		c-1.3-0.3-2.7-0.5-4-0.7c-0.6-0.9-1.2-1.8-1.9-2.6c1.7,0.3,3.3,0.6,4.9,1C276.9,128.8,277.3,129.6,277.6,130.4z M284.4,132.5
		c-1.9-0.8-3.9-1.4-5.9-1.9c-0.1-0.8-0.3-1.5-0.6-2.2c1.7,0.5,3.3,1,4.9,1.7C283.3,130.9,283.9,131.7,284.4,132.5z M289.7,134.9
		c-1.4-0.7-2.8-1.4-4.2-2c0-0.1,0-0.2,0-0.3c-0.3-0.6-0.6-1.2-1-1.9c0.2,0.1,0.3,0.1,0.5,0.2c1.2,0.5,2.3,1.1,3.5,1.8
		c0.3,0.3,0.5,0.6,0.7,1C289.4,134.1,289.6,134.5,289.7,134.9z M301.5,143.8c-3.1-3.3-6.8-6.1-10.8-8.3c0-0.5-0.1-1-0.2-1.5
		C294.7,136.6,298.4,140,301.5,143.8z M240.9,202.8c-7.1-5.4-11.8-13.4-13.8-22c-3.6-15.7,3-31.7,16-41c13.5-9.7,31.3-10.1,45.7-2.2
		c7.5,4.1,14.6,10.6,17.7,18.8c3.2,8.5,2.3,18.7-0.4,27.2c-2.7,8.4-7.8,16.2-14.9,21.5c-6.3,4.7-13.5,7-21.1,7.9
		c-0.1,0-0.2-0.1-0.3-0.1C259.6,211.5,249.2,209.1,240.9,202.8z M259,213.6c-3.3-0.1-6.5-0.3-9.7-0.9c0.8-0.3,1.6-0.8,2.4-1.2
		C254.1,212.4,256.6,213.1,259,213.6z M242.9,211.1c1.4-0.4,2.8-0.9,4.2-1.4c1.2,0.5,2.3,1,3.5,1.5c-1,0.5-2.1,0.9-3.2,1.2
		c-0.9-0.2-1.7-0.4-2.6-0.7C244.2,211.5,243.5,211.3,242.9,211.1z M236.4,207.9c1.5-0.6,3-1.3,4.7-1.6c0.1,0.1,0.3,0.2,0.4,0.3
		c1.4,1,2.9,1.8,4.5,2.6c-1.6,0.4-3.2,0.7-4.7,1.3C239.6,209.7,237.9,208.9,236.4,207.9z M230.6,203.3c1.7-0.5,3.3-1.1,4.9-1.7
		c1.4,1.4,3,2.8,4.6,4c-1.6,0.3-3.3,0.8-4.7,1.6C233.7,206.1,232.1,204.8,230.6,203.3z M226.5,198.8c1.7-0.2,3.6-0.9,5.2-1.5
		c1,1.3,2,2.5,3.1,3.7c-1.7,0.5-3.5,0.9-5.1,1.5C228.6,201.4,227.5,200.1,226.5,198.8z M222.3,192.5c0.9-0.1,1.8-0.4,2.7-0.6
		c1-0.2,1.9-0.4,2.9-0.7c1,1.9,2.1,3.7,3.3,5.4c-1.8,0.3-3.8,0.6-5.4,1.3C224.5,196.2,223.4,194.4,222.3,192.5z M216.1,170.7
		c2.4,0.2,5-0.2,7.3-0.6c-0.3,5.8,0.6,11.7,2.8,17.3c0.4,1,0.9,2.1,1.4,3.1c-0.7,0.1-1.5,0.2-2.2,0.4c-1.2,0.2-2.4,0.3-3.5,0.7
		c-0.9-1.7-1.7-3.5-2.4-5.4c1.9,0,3.9-0.5,5.7-0.8c0.4-0.1,0.3-0.8-0.1-0.7c-1.9,0.1-4.1,0-5.9,0.5c-0.8-2.3-1.5-4.8-2-7.2
		c0.9,0.1,1.8-0.1,2.7-0.3c1-0.1,2-0.2,3-0.5c0.3-0.1,0.3-0.6,0-0.6c-1-0.1-2,0-3,0c-1,0-2,0-2.9,0.3
		C216.4,174.9,216.2,172.8,216.1,170.7z M216.2,163.3c2.5,0.6,5.4,0.7,7.9,1c-0.3,1.6-0.5,3.3-0.7,5c-2.5,0.3-5,0.1-7.5,0.1
		C215.9,167.4,216,165.3,216.2,163.3z"/>
	<path class="st17" d="M377.2,281.5c3.5-9.8,6.2-19.9,12.4-28.5c1.6-2.3,5.1-8,8.5-6.9c4,1.2,0.1,8.2-0.9,10.4
		c-0.2,0.5-1,0.1-0.8-0.3c0.6-1.7,1.7-4.1,1.7-6c0.5-1.2,0-2-1.7-2.4c-0.5,0.3-0.9,0.7-1.3,1.1c-0.6,0.5-1.1,1.1-1.6,1.7
		c-2.6,3-4.7,6.3-6.5,9.8c-3.1,6-5.4,12.5-7.2,19c3.8-2.2,8.1-3.4,12.5-3.3c1.3,0,1.3,2,0,2.1c-5,0.3-9.4,1.5-13.6,4.4
		C378,283.1,376.9,282.3,377.2,281.5z"/>
	<path class="st17" d="M114.7,341.3c9,7.2,21.4,9.1,32.5,6.6c-0.4,5.1-0.5,10.3-0.2,15.4c1,18.3,7.2,36.2,18.7,50.6
		c11.3,14.2,28.4,25.1,47,24.5c1.7-0.1,1.7-2.8,0-2.7c-20.6,0.6-38.8-13.3-49.5-30c-10-15.6-14.2-34.1-13.5-52.5
		c0.8-19.2,6.5-39,17-55.2c17.8-27.8,48.7-43.9,80.6-49.9c1.1-0.2,0.8-2-0.3-1.9c-18.9,2.5-37.3,9.6-53,20.4
		c-14,9.5-25.9,22.1-33.8,37.1c-5.4,10.4-9.3,21.8-11.5,33.5c-1.3-0.4-2.5,0-3.9,0.1c-1.4,0.2-2.8,0.2-4.3,0.2
		c-3.1-0.1-6.1-0.6-9-1.5c-5.4-1.6-11-4.4-14-9.4c-1.4-2.3-2.1-4.9-1.9-7.4c5.9,7.2,19,5.8,22.7-3c1.7-4,1.4-8.8-0.8-12.6
		c-2.4-4.3-7.1-6.4-11.9-6.6c-3.4-0.1-6.6,0.7-9.5,2.2c-4-6.5-0.6-13.7,3.7-19.2c0.6-0.8-0.2-2-1.1-1.9c-6.5,0.1-11.3,6.2-13.3,11.9
		c-1,2.9-1.5,6.1-1.2,9.2c0.2,2.6,0.7,6.8,2.8,8.6c0,0,0,0,0,0c-1.1,1.8-2,3.8-2.5,5.8C101.6,323.7,106.7,334.8,114.7,341.3z
		 M114.1,300.2c-2.2,1.4-4.1,3.2-5.7,5.3c-0.5-1.9-1.4-3.8-1.7-5.8c-0.3-2.5-0.1-5.1,0.6-7.5c1.1-4.3,4.1-9.4,8.4-11.1
		C112,286.9,109.7,294.3,114.1,300.2z M106.5,315.8c1.4-8.2,8.6-15.6,17.1-16.3c4.4-0.3,9.1,1.1,11.5,5.1c1.9,3.1,2.2,7.3,0.7,10.6
		c-3.5,8-14.3,7.2-19.4,1.5c-0.1-0.1-0.2-0.2-0.3-0.2c0.6-1.8,1.6-3.4,3.1-4.8c0.3-0.3,0.7-0.6,1.2-0.9c-0.2,0.4-0.2,0.9,0.2,1.3
		c2.2,1.9,4.9,3.7,7.8,2.3c2.1-1,3.1-3.5,1.7-5.6c-3.1-4.7-10.5-1.1-13.4,1.9c-4.1,4.2-4.7,10.3-2.3,15.5c2.8,6,8.7,9.6,14.7,11.7
		c3.5,1.2,7.2,1.9,10.9,2.1c2.3,0.1,6.1,0.3,8.3-1.1c-0.4,2.4-0.7,4.7-1,7.1c-10.6,1.3-22.2,0.3-30.8-6.6
		C109.7,333.9,105,324.8,106.5,315.8z M126.8,309.2c1.1,0.3,2.1,1.6,1.1,2.6c-0.6,0.6-1.5,0.7-2.4,0.5c-1.3-0.3-2.4-1.2-3.5-2
		c-0.1-0.1-0.3-0.2-0.4-0.2C123.3,309.2,125.2,308.7,126.8,309.2z"/>
	<path class="st17" d="M420.5,329c0.9-3.3,3.6-6.3,7.2-6.5c9.1-0.4,9.3,12.6,7.1,18.5c-0.4,1-1.7,0.6-1.6-0.4c0.5-3.2,0.8-6.5,0-9.7
		c-0.7-2.7-2.8-6.3-6.1-5.4c-6.9,1.7-3.3,12.2-2.7,16.8c0.2,1.6-2.3,1.8-2.7,0.4C420.6,338.5,419.3,333.3,420.5,329z"/>
	<path class="st17" d="M408.8,406.1c6.6,9.6,17.1,15.3,28.8,15.7c1.2,0,1.2,1.8,0,1.9c-12.1,0.6-24.3-6.1-30.5-16.6
		C406.5,406,408.1,405.1,408.8,406.1z"/>
	<path class="st17" d="M403.6,402.7c2.1-1.9,4.9-2.4,7.5-1.6c1,0.3,0.6,1.8-0.4,1.6c-2-0.4-4.2,0.2-5.7,1.7
		c-0.6,0.7-1.1,1.5-1.3,2.4c-0.2,0.9-0.1,1.9-0.4,2.8c-0.3,0.8-1.3,1-1.8,0.2C400.1,407.7,401.9,404.2,403.6,402.7z"/>
</g>
<text transform="matrix(0.9784 0.2068 -0.2068 0.9784 251.8869 192.6369)" class="st18 st19"></text>
<g>
	<path d="M292.2,264.9c0.8,0,1.5,0.1,2.4,0.2c-0.1-0.3-0.3-0.5-0.6-0.7C293.6,264.5,293,264.6,292.2,264.9z"/>
	<path d="M281.8,251.6c0.1,1.6,0.4,3.6,0.9,5.7l1.2,4.8l-1.3,0.3c-0.6,0.1-0.9,0.3-1.1,0.6c-0.1,0.2-0.1,0.5,0,0.9
		c0.1,0.5,0.4,0.7,0.8,0.8l2.2-0.5l0.2,0.7c1-0.1,2.1-0.1,3.3-0.2l-0.4-1.4c2.7-0.7,4.6-1.3,5.6-1.7c0.2-0.3,0.3-0.7,0.2-1
		c-0.1-0.6-1.6-0.5-4.3,0.1l-1.9,0.5c-0.3-2.1-0.7-4.3-1.2-6.6c-0.6-2.3-0.9-4-1.1-5.2c-0.1-0.7-0.1-1.3-0.1-1.8
		c0-0.5,0.2-1,0.3-1.6c0.2-0.6,0.4-1.1,0.8-1.5c0.3-0.4,0.8-0.8,1.4-1.1c0.6-0.3,1.2-0.6,1.7-0.7c0.5-0.1,1.2-0.1,1.9,0
		c0.8,0.1,1.4,0.1,1.8,0c0.4-0.1,0.8-0.3,1.1-0.6c0.3-0.3,0.4-0.7,0.3-1.1c-0.2-0.9-0.9-1.5-1.9-1.8c-1.1-0.3-2.1-0.4-3.1-0.1
		c-2.8,0.7-4.9,2-6.4,3.9c-1.5,2-2,4.2-1.4,6.7C281.3,250.3,281.5,250.9,281.8,251.6z"/>
</g>
</svg>
