<?xml version="1.0" encoding="utf-8"?>
<!-- Generator: Adobe Illustrator 24.0.1, SVG Export Plug-In . SVG Version: 6.00 Build 0)  -->
<svg version="1.1" id="Livello_1" xmlns="http://www.w3.org/2000/svg" xmlns:xlink="http://www.w3.org/1999/xlink" x="0px" y="0px"
	 viewBox="0 0 595.9 595.3" style="enable-background:new 0 0 595.9 595.3;" xml:space="preserve">
<style type="text/css">
	.st0{fill:#142035;}
	.st1{enable-background:new    ;}
</style>
<g>
	<path class="st0" d="M482.6,373.6c0-0.1-0.1-0.3-0.1-0.4c-0.2-0.9,1-1.2,1.3-0.4c0.1,0.3,0.2,0.7,0.3,1c0.2,0.2,0.4,0.5,0.4,0.9
		c0,0.1,0,0.3,0,0.4c1.7,5.5,2.6,11.1,2.7,16.9c0.1,5,0.5,12.3-3.1,16.3c-0.7,0.8-2,0.2-2-0.8c-0.1-10.9-0.2-21.9-0.2-32.8
		C482,374.2,482.3,373.8,482.6,373.6z"/>
	<path class="st0" d="M475.4,372.9c0.2-0.7,0.9-1,1.5-0.9c0.6-1,2.5-0.8,2.5,0.7c0.1,11.5,0.1,23.1,0,34.6c0,1.6-2.2,1.8-2.7,0.4
		C473,396.4,472.6,384.4,475.4,372.9z"/>
	<path class="st0" d="M208.1,470.4c-0.1,4.3,2.3,7.1,6.5,8.2c5,1.3,10.6,1.4,15.8,1.5c11.6,0.3,23.1-0.9,34.6-2.2
		c3.7-0.4,8.1-0.7,11-3.4c3.5-3.2,2.6-8.2,2-12.3c-1-7.6-2.5-15.7-5.1-23.2c3.4,1.7,7.8,2.4,11.5,3c4,0.6,8,0.9,12,0.9
		c7.3-0.1,14.6-1.4,21.4-4.1c-2.8,8.3-4.1,17.2-3.3,26c0.4,4.3,1.4,8.8,5.3,11.3c4.1,2.6,9.9,2.8,14.6,3.4
		c11.7,1.5,23.7,1.7,35.4,0.4c4.4-0.5,10.4-0.4,14-3.3s3.2-8.4,3.2-12.5c0-7.8-1-15.6-3.2-23c7.5,1.9,15.3,2.6,23,2.4
		c13.5-0.3,26.9-3.7,38.9-9.9c6.1-3.1,11.7-7.1,17.7-10.4c2.9-1.6,5.9-3.1,9.1-4.1c2.1-0.7,4.4-0.8,6.6-1.4c1,0.2,2.1,0.1,3.2-0.2
		c3.9-1.1,6.4-4.6,7.6-8.2c1.5-4.4,1.8-9.4,2-14c0.2-5.3-0.1-10.6-0.9-15.8c-0.9-5.8-3.5-17.5-11.1-17.1c-1.4-0.1-2.6,0.2-3.6,0.6
		c-1.7,0.2-3.4,0.3-5.2-0.3c-2.3-0.7-4.3-2.2-5.9-4.1c-3.2-3.8-4.7-8.8-6.4-13.3c-6.1-17.2-10-35.6-19.6-51.3
		c-7.9-12.8-19.9-24.3-35.1-27.2c-0.6-0.1-1.1,0.1-1.4,0.5c1.3-6.3,3.7-12.4,5.8-18.5c1.3-3.9,2.9-8.3,2.9-12.4
		c0-1.8-0.9-2.8-2.1-3.4l0,0c-0.7-1.9-3.8-1.8-5.5-2c-3-0.3-6-0.3-9-0.1c-5.7,0.5-11.2,1.9-16.5,4c-7.9,3.2-15.7,8.4-21.4,15
		c-4.5-1.6-9.1-2.7-13.9-3.5c-4.5-0.8-9.6-1.9-14.1-1.6c-1.2,0.1-1.5,1.8-0.3,2.1c4.6,1,9.5,1,14.2,1.9c4.3,0.8,8.6,1.7,12.8,2.6
		c-1.3,1.6-2.4,3.3-3.4,5.1c-0.8,1.3,1.2,2.4,2,1.2c6.2-8.6,13.5-15.5,23.3-19.9c4.7-2.1,9.7-3.6,14.7-4.3c2.7-0.4,5.3-0.6,8-0.6
		c0.2,0,0.7,0,1.4,0.1c-6.7,1.9-12.9,7.4-17.4,12.4c-5.2,5.8-9.2,12.6-11.8,19.9c-2.5,7.1-4,15.4-2.7,22.9c0.2,1.2,2,0.8,2-0.3
		c0.1-4.2,0-8.2,0.6-12.4c0.6-3.8,1.6-7.6,3-11.3c2.6-6.7,6.5-13,11.5-18.2c4.7-5,12.2-11.6,19.5-11.3c2,0.1,2.6,1.1,2.4,3
		c-0.2,1-0.4,2.1-0.6,3.1c-0.4,1.8-0.9,3.6-1.5,5.4c-1.2,3.7-2.6,7.3-3.8,11c-2.4,7-4.3,14.1-2.6,21.4c0.2,0.9,1.8,0.7,1.7-0.2
		c-0.3-3.3-0.1-6.6,0.4-9.8c0.1,0.3,0.4,0.6,0.9,0.7c9.2,1.9,17.3,6.7,23.8,13.4c13,13.2,18.7,31.1,24.1,48.4
		c1.5,4.7,2.9,9.4,4.5,14c1.4,4.1,2.8,8.3,5.1,12.1c1.9,3.3,4.6,6.2,8.2,7.6c1.2,0.5,2.6,0.8,4,0.9c-3.8,5.2-4.2,15.1-4.4,20
		c-0.3,5.1-0.1,10.2,0.6,15.3c0.6,4.4,1.1,9.3,4,12.9c0.5,0.6,1.1,1.2,1.7,1.7c-1,0.2-1.9,0.5-2.7,0.7c-3.4,1-6.7,2.5-9.8,4.2
		c-5.8,3.1-11.2,6.9-17,10c-6.2,3.3-12.9,5.8-19.7,7.5c-13.7,3.4-27.7,3.2-41.4,0.2c-0.5-0.1-0.9,0-1.2,0.3
		c-0.8-2.2-1.7-4.4-2.7-6.6c-0.4-0.9-1.8-0.2-1.5,0.7c3.2,10.7,5.6,21.5,5.5,32.7c0,2.2,0.1,4.7-0.7,6.8c-0.8,2.3-2.9,3.2-5.1,3.6
		c-4.9,1-10,1.5-15,1.8c-10.3,0.7-20.7,0.3-31-1.2c-4-0.6-9.8-0.8-12.6-4c-3-3.4-2.8-9.3-2.7-13.5c0.1-9.5,2.5-18.9,6.8-27.4
		c0.8-1.6-1.6-3.1-2.5-1.4c-1.1,2.1-2,4.2-2.9,6.4c-7.3,2.2-14.6,3.7-22.2,3.8c-4.1,0-8.1-0.3-12.1-1c-3.8-0.7-7.5-2.2-11.3-2.9
		c-0.4-0.1-0.7,0-1,0.2c-0.7-1.8-1.5-3.6-2.4-5.4c-0.5-1.1-2.2-0.3-1.9,0.8c1.4,5.1,3.1,10.1,4.4,15.2s2.3,10.2,3,15.4
		c0.6,4.6,1.3,9.5-4,11.2c-4.3,1.4-9.2,1.4-13.6,1.9c-9.6,1-19.3,1.7-29,1.3c-4.6-0.2-9.8-0.1-14.2-1.7c-5.2-1.8-3.1-8.9-2.5-13
		c1.4-9.4,3.8-18.5,7.2-27.3c0.7-1.7-2.1-2.4-2.7-0.8c-2.3,5.9-4.1,11.9-5.5,18C209.4,458.2,208.2,464.4,208.1,470.4z M472.9,406.5
		c-1.7-7.5-1.9-15.5-1.3-23.1c0.4-5.6,0.8-18.8,9-18.6c0.1,0,0.3,0,0.4,0c6.7,2.7,7.6,14.3,8.1,20.4c0.6,7.4,0.6,15.7-1.7,22.9
		c-1.1,3.4-3.9,7.5-8,6.7C475.4,414,473.7,410,472.9,406.5z"/>
	<path class="st0" d="M237.2,272.5c0.2,0.4,0.6,0.6,1.1,0.6c3.8-0.4,7.7-1.8,11.5-2.6c4.2-0.9,8.4-1.6,12.6-2.1c8-1,16-1.5,24.1-1.4
		c8.2,0.1,16.4,0.8,24.5,2.1c8.1,1.3,16,3.5,23.9,5.5c1.1,0.3,1.7-0.7,1.5-1.5c1.2-2.3,2.2-4.7,3.1-7.1c0.7-1.8,1.8-4.1,1-6
		c-0.7-1.6-2.4-2.3-4-2.7c-2.5-0.7-5.1-1.2-7.8-1.3c-0.5-3.1-1.4-6.1-2.6-9c-0.5-1.1-1-2.2-1.5-3.3c-2.9-7.1-8.7-13.2-15.1-17.2
		c-4.5-2.9-9.6-4.7-14.7-5.6c-0.1-0.1-0.2-0.1-0.3-0.1c-0.2-0.1-0.3,0-0.4,0c-9.8-1.4-20,0.8-28.5,6.4c-10.2,6.7-16.4,18-17.6,29.9
		c-0.4-0.6-1.1-1-1.9-0.6c-0.2,0.1-1.2-0.3-1.5-0.3c-0.5,0-1,0-1.5,0.2c-1.1,0.5-1.5,1.5-1.9,2.6c-1.7,4.1-3.6,8.2-4.7,12.5
		C236.1,271.9,236.6,272.4,237.2,272.5z M258.2,237.3c0.8,0.5,1.6,1,2.4,1.4s1.6,0.9,2.3,1.3c-0.9,1.4-1.6,2.8-2.3,4.3
		c-0.7-0.3-1.4-0.7-2.1-1.1c-1-0.6-2-1.3-3.1-1.9C256.3,239.9,257.2,238.6,258.2,237.3z M263.6,231.8c0.7,1.2,2,2.1,3,2.9
		c0.1,0.1,0.2,0.1,0.3,0.1c-1.2,1.3-2.3,2.7-3.3,4.2c-0.8-0.5-1.5-1-2.3-1.5c-0.7-0.5-1.5-1-2.3-1.4c1.4-1.7,2.9-3.2,4.5-4.6
		C263.5,231.7,263.5,231.8,263.6,231.8z M268,228.4c0.4,0.4,0.8,0.8,1.1,1.2c0.5,0.5,1,1.1,1.6,1.6c-1.2,0.9-2.3,2-3.3,3.1
		c0-0.1-0.1-0.1-0.1-0.2c-0.9-1-1.8-2.3-2.9-3l0,0C265.4,230.1,266.7,229.3,268,228.4z M275.2,226.2c0.4,0.4,0.8,0.9,1.2,1.3
		c-1.8,0.9-3.4,1.9-5,3.1c-0.5-0.6-1-1.2-1.6-1.8c-0.3-0.3-0.6-0.7-0.9-1c1.7-1,3.5-1.9,5.4-2.6
		C274.6,225.5,274.9,225.9,275.2,226.2z M280.5,224c0.4,0.5,0.8,0.9,1.2,1.4l0,0c-1.6,0.5-3.1,1-4.5,1.7c0,0,0-0.1-0.1-0.1
		c-0.4-0.5-0.8-1-1.2-1.5c-0.2-0.2-0.3-0.4-0.5-0.7c1.5-0.5,3.1-1,4.6-1.4C280.2,223.6,280.4,223.8,280.5,224z M287.8,224.1
		c-1.7,0.2-3.3,0.5-5,0.9h-0.1c0.1-0.2,0.1-0.3-0.1-0.5c-0.4-0.5-0.7-1-1.1-1.4c0,0,0,0,0-0.1c1.7-0.3,3.5-0.5,5.3-0.6
		C287.1,223.1,287.4,223.6,287.8,224.1z M291.1,222.5c1.2,0.1,2.3,0.2,3.4,0.4v0.1c0.1,0.3,0.1,0.6,0.1,1c-1.9-0.1-3.8-0.1-5.7,0
		c-0.3-0.5-0.6-1-1-1.5C289,222.5,290.1,222.5,291.1,222.5z M304.8,226.3c-2.9-1.1-6-1.9-9.2-2.2c0.1-0.3,0.1-0.6,0.1-0.9
		C298.9,223.8,301.9,224.8,304.8,226.3z M328.1,269.7c0.3-0.5,0.4-0.9,0.5-1c0.6-2.2,0.6-4.7,0.6-7c0-1-0.1-2-0.2-2.9
		c1.8,0.2,3.6,0.5,5.3,0.9c1.9,0.5,3.7,0.7,3.3,3c-0.5,3.1-2,6.1-2.9,9.2C332.5,271,330.3,270.3,328.1,269.7z M265.7,240.8
		c9.4-14.3,29-18,43.6-9.5c7,4.1,12.2,10.8,14.9,18.4c1.3,3.6,2.1,7.4,2.3,11.3c0.1,2.1,0,4.2-0.2,6.3c-0.1,0.7-0.2,1.3-0.1,1.9
		c-12.9-3.5-26.7-4.9-39.8-5.1c-8.3-0.1-16.7,0.4-24.9,1.5c-0.6,0.1-1.2,0.2-1.8,0.3C258.9,257.1,260.9,248.1,265.7,240.8z
		 M258.9,248.3c-1.8-0.7-3.9-1.7-5.9-1.8c0,0,0,0-0.1,0c0.5-1.3,1.1-2.6,1.8-3.8c0,0,0,0,0-0.1c1.5,1.2,3.5,2.2,5.4,2.9
		C259.7,246.4,259.4,247.3,258.9,248.3C259,248.3,259,248.3,258.9,248.3z M257.7,253c-1.2-0.1-2.5-0.3-3.7-0.4
		c-0.9-0.1-1.9-0.3-2.9-0.2c0.4-1.7,0.9-3.4,1.5-5.1l0.1,0.1c1.7,1,4,1.3,5.9,1.8c0,0,0,0,0.1,0C258.3,250.4,258,251.7,257.7,253z
		 M256.9,257.3c-2.1-0.1-4.4-0.4-6.5-0.2c0.1-1.1,0.3-2.3,0.5-3.4c1,0.3,2.1,0.2,3.1,0.3c1.2,0.1,2.3,0.1,3.5,0.2
		C257.3,255.1,257.1,256.2,256.9,257.3L256.9,257.3z M250.6,266.9c-0.2-1.1-0.3-2.2-0.4-3.3c1.9,0.5,4.3,0.3,6.4,0.1
		c0,0.9,0.1,1.7,0.1,2.6c-2.1,0.3-4.1,0.7-6.2,1.1C250.7,267.2,250.7,267,250.6,266.9z M250.3,258.5c2.2,0.1,4.5-0.1,6.6-0.2
		c-0.1,1.4-0.2,2.8-0.2,4.2c-1.1,0-2.1,0-3.2-0.1c-1.1,0-2.2-0.3-3.3-0.2C250.2,261,250.2,259.7,250.3,258.5z M239.1,270.1
		c1.4-2.6,2.5-5.3,3.6-8c0.3-0.6,0.6-2,1.1-2.5c0.6-0.7,0.4-0.5,1.3-0.5c0.9,0.1,1.4,0.2,2.3-0.2c0.2-0.1,0.3-0.2,0.4-0.3
		c-0.2,3-0.1,6,0.4,9c0,0.1,0,0.2,0.1,0.3C245.2,268.4,241.9,269,239.1,270.1z"/>
	<path class="st0" d="M227.8,203.5c10.5,10.8,25.9,12.9,40.3,11.5c0.6,0.1,1.2,0.1,1.7,0.2c0.2,0,0.4,0,0.6-0.1
		c9,0.2,17.9-4,24.6-9.7c8.1-6.9,13.4-16.9,15.3-27.3c1-5.2,1.3-10.6,0.5-15.9c0.1-0.1,0.1-0.2,0.1-0.4
		c-1.9-15.9-13.6-28.3-28.1-33.9c-0.1-0.1-0.1-0.2-0.2-0.3c-0.2-0.2-0.4-0.2-0.6,0c-0.5-0.2-1-0.4-1.6-0.5
		c-14-4.5-30.3-3.2-43.3,3.4c-0.2-0.1-0.6,0.1-0.6,0.3c-11.6,6.1-20.4,16.5-22.2,30.9c-0.4,0.1-0.4,0.6-0.1,0.9
		C212.7,177.1,217.6,193,227.8,203.5z M218,154.8c2.1,1.8,5,3.1,7.7,3.7c-0.5,1.6-1,3.2-1.4,4.8c-2.6-0.5-5.3-1.3-7.9-1.5
		c0.2-1.4,0.5-2.8,0.8-4.2C217.4,156.7,217.7,155.7,218,154.8z M223.7,144.1c0.9,0.7,2.1,1.1,3.1,1.6c1.4,0.7,2.7,1.3,4.1,1.9
		c0.2,0.1,0.3,0.1,0.4,0c-1.1,1.5-2.1,3.1-3,4.8c-1.1-0.5-2.1-1-3.1-1.6c-1.1-0.7-2.2-1.6-3.4-2.1c-0.4-0.2-0.8,0.3-0.5,0.6
		c1.5,1.8,4.3,2.9,6.6,3.7c-0.8,1.5-1.4,3-2,4.5c-1.4-0.5-2.9-1.1-4.2-1.9c-1.2-0.7-2.2-1.6-3.3-2.4
		C219.8,150,221.5,146.9,223.7,144.1z M227.8,139.5c0.9,0.9,2,1.6,3,2.4c1,0.8,2.1,1.6,3.1,2.4c-0.8,1-1.6,1.9-2.4,3
		c0-0.2,0-0.3-0.2-0.4c-1.3-0.7-2.7-1.5-4-2.2c-0.9-0.5-1.9-1.1-2.9-1.5C225.5,141.8,226.6,140.6,227.8,139.5z M232.2,135.9
		c0.8,0.8,1.8,1.5,2.6,2.3c1,0.8,2,1.6,2.9,2.3c-0.3,0.3-0.6,0.6-0.9,0.8c-0.8,0.7-1.5,1.5-2.3,2.3c-1.1-0.9-2.2-1.9-3.3-2.8
		c-0.8-0.7-1.6-1.5-2.6-2.1C229.8,137.7,231,136.7,232.2,135.9z M237.4,132.6c0.5,0.6,1,1.1,1.4,1.7c0.9,1.1,1.9,2.1,2.9,3.1
		c-1.1,0.8-2.2,1.6-3.3,2.5c-0.9-0.8-1.9-1.7-2.8-2.5c-0.8-0.7-1.6-1.5-2.5-2.1C234.5,134.2,236,133.4,237.4,132.6z M242.6,130.2
		c0.6,0.6,1.3,1.1,1.8,1.7c0.7,0.8,1.4,1.6,2,2.5c-1.3,0.7-2.7,1.5-3.9,2.3c-0.9-1-1.8-2.1-2.7-3.1c-0.4-0.5-0.8-1.1-1.3-1.6
		C239.9,131.3,241.2,130.7,242.6,130.2z M251.4,129.8c0.6,0.6,1.2,1.2,1.8,1.8c-2,0.7-4,1.5-5.9,2.5c-0.5-1-1.2-1.9-1.9-2.7
		c-0.4-0.5-0.9-1.1-1.5-1.6c1.9-0.7,3.8-1.3,5.7-1.7C250.1,128.6,250.8,129.2,251.4,129.8z M264.5,129.4c-1.5,0.1-3,0.3-4.4,0.5
		c-0.6-1-1.2-2.1-1.9-3c-0.3-0.4-0.9,0.1-0.7,0.5c0.4,0.9,1,1.8,1.6,2.6c-1.6,0.3-3.2,0.7-4.7,1.2c-0.7-0.7-1.4-1.5-2.1-2.2
		c-0.4-0.4-0.8-0.9-1.3-1.3c3.8-0.8,7.6-1.3,11.5-1.3c-0.1,0.1-0.1,0.3,0,0.5C263.1,127.7,263.9,128.5,264.5,129.4z M270.2,126.8
		c0.6,1,1.4,1.8,2.1,2.7c-2.2-0.2-4.4-0.3-6.6-0.2c-0.7-1.2-1.5-2.3-2.6-2.9C265.5,126.3,267.8,126.5,270.2,126.8z M277.6,130.4
		c-1.3-0.3-2.7-0.5-4-0.7c-0.6-0.9-1.2-1.8-1.9-2.6c1.7,0.3,3.3,0.6,4.9,1C276.9,128.8,277.3,129.6,277.6,130.4z M284.4,132.5
		c-1.9-0.8-3.9-1.4-5.9-1.9c-0.1-0.8-0.3-1.5-0.6-2.2c1.7,0.5,3.3,1,4.9,1.7C283.3,130.9,283.9,131.7,284.4,132.5z M289.7,134.9
		c-1.4-0.7-2.8-1.4-4.2-2c0-0.1,0-0.2,0-0.3c-0.3-0.6-0.6-1.2-1-1.9c0.2,0.1,0.3,0.1,0.5,0.2c1.2,0.5,2.3,1.1,3.5,1.8
		c0.3,0.3,0.5,0.6,0.7,1C289.4,134.1,289.6,134.5,289.7,134.9z M301.5,143.8c-3.1-3.3-6.8-6.1-10.8-8.3c0-0.5-0.1-1-0.2-1.5
		C294.7,136.6,298.4,140,301.5,143.8z M240.9,202.8c-7.1-5.4-11.8-13.4-13.8-22c-3.6-15.7,3-31.7,16-41c13.5-9.7,31.3-10.1,45.7-2.2
		c7.5,4.1,14.6,10.6,17.7,18.8c3.2,8.5,2.3,18.7-0.4,27.2c-2.7,8.4-7.8,16.2-14.9,21.5c-6.3,4.7-13.5,7-21.1,7.9
		c-0.1,0-0.2-0.1-0.3-0.1C259.6,211.5,249.2,209.1,240.9,202.8z M259,213.6c-3.3-0.1-6.5-0.3-9.7-0.9c0.8-0.3,1.6-0.8,2.4-1.2
		C254.1,212.4,256.6,213.1,259,213.6z M242.9,211.1c1.4-0.4,2.8-0.9,4.2-1.4c1.2,0.5,2.3,1,3.5,1.5c-1,0.5-2.1,0.9-3.2,1.2
		c-0.9-0.2-1.7-0.4-2.6-0.7C244.2,211.5,243.5,211.3,242.9,211.1z M236.4,207.9c1.5-0.6,3-1.3,4.7-1.6c0.1,0.1,0.3,0.2,0.4,0.3
		c1.4,1,2.9,1.8,4.5,2.6c-1.6,0.4-3.2,0.7-4.7,1.3C239.6,209.7,237.9,208.9,236.4,207.9z M230.6,203.3c1.7-0.5,3.3-1.1,4.9-1.7
		c1.4,1.4,3,2.8,4.6,4c-1.6,0.3-3.3,0.8-4.7,1.6C233.7,206.1,232.1,204.8,230.6,203.3z M226.5,198.8c1.7-0.2,3.6-0.9,5.2-1.5
		c1,1.3,2,2.5,3.1,3.7c-1.7,0.5-3.5,0.9-5.1,1.5C228.6,201.4,227.5,200.1,226.5,198.8z M222.3,192.5c0.9-0.1,1.8-0.4,2.7-0.6
		c1-0.2,1.9-0.4,2.9-0.7c1,1.9,2.1,3.7,3.3,5.4c-1.8,0.3-3.8,0.6-5.4,1.3C224.5,196.2,223.4,194.4,222.3,192.5z M216.1,170.7
		c2.4,0.2,5-0.2,7.3-0.6c-0.3,5.8,0.6,11.7,2.8,17.3c0.4,1,0.9,2.1,1.4,3.1c-0.7,0.1-1.5,0.2-2.2,0.4c-1.2,0.2-2.4,0.3-3.5,0.7
		c-0.9-1.7-1.7-3.5-2.4-5.4c1.9,0,3.9-0.5,5.7-0.8c0.4-0.1,0.3-0.8-0.1-0.7c-1.9,0.1-4.1,0-5.9,0.5c-0.8-2.3-1.5-4.8-2-7.2
		c0.9,0.1,1.8-0.1,2.7-0.3c1-0.1,2-0.2,3-0.5c0.3-0.1,0.3-0.6,0-0.6c-1-0.1-2,0-3,0s-2,0-2.9,0.3
		C216.4,174.9,216.2,172.8,216.1,170.7z M216.2,163.3c2.5,0.6,5.4,0.7,7.9,1c-0.3,1.6-0.5,3.3-0.7,5c-2.5,0.3-5,0.1-7.5,0.1
		C215.9,167.4,216,165.3,216.2,163.3z"/>
	<path class="st0" d="M377.2,281.5c3.5-9.8,6.2-19.9,12.4-28.5c1.6-2.3,5.1-8,8.5-6.9c4,1.2,0.1,8.2-0.9,10.4
		c-0.2,0.5-1,0.1-0.8-0.3c0.6-1.7,1.7-4.1,1.7-6c0.5-1.2,0-2-1.7-2.4c-0.5,0.3-0.9,0.7-1.3,1.1c-0.6,0.5-1.1,1.1-1.6,1.7
		c-2.6,3-4.7,6.3-6.5,9.8c-3.1,6-5.4,12.5-7.2,19c3.8-2.2,8.1-3.4,12.5-3.3c1.3,0,1.3,2,0,2.1c-5,0.3-9.4,1.5-13.6,4.4
		C378,283.1,376.9,282.3,377.2,281.5z"/>
	<path class="st0" d="M114.7,341.3c9,7.2,21.4,9.1,32.5,6.6c-0.4,5.1-0.5,10.3-0.2,15.4c1,18.3,7.2,36.2,18.7,50.6
		c11.3,14.2,28.4,25.1,47,24.5c1.7-0.1,1.7-2.8,0-2.7c-20.6,0.6-38.8-13.3-49.5-30c-10-15.6-14.2-34.1-13.5-52.5
		c0.8-19.2,6.5-39,17-55.2c17.8-27.8,48.7-43.9,80.6-49.9c1.1-0.2,0.8-2-0.3-1.9c-18.9,2.5-37.3,9.6-53,20.4
		c-14,9.5-25.9,22.1-33.8,37.1c-5.4,10.4-9.3,21.8-11.5,33.5c-1.3-0.4-2.5,0-3.9,0.1c-1.4,0.2-2.8,0.2-4.3,0.2
		c-3.1-0.1-6.1-0.6-9-1.5c-5.4-1.6-11-4.4-14-9.4c-1.4-2.3-2.1-4.9-1.9-7.4c5.9,7.2,19,5.8,22.7-3c1.7-4,1.4-8.8-0.8-12.6
		c-2.4-4.3-7.1-6.4-11.9-6.6c-3.4-0.1-6.6,0.7-9.5,2.2c-4-6.5-0.6-13.7,3.7-19.2c0.6-0.8-0.2-2-1.1-1.9c-6.5,0.1-11.3,6.2-13.3,11.9
		c-1,2.9-1.5,6.1-1.2,9.2c0.2,2.6,0.7,6.8,2.8,8.6l0,0c-1.1,1.8-2,3.8-2.5,5.8C101.6,323.7,106.7,334.8,114.7,341.3z M114.1,300.2
		c-2.2,1.4-4.1,3.2-5.7,5.3c-0.5-1.9-1.4-3.8-1.7-5.8c-0.3-2.5-0.1-5.1,0.6-7.5c1.1-4.3,4.1-9.4,8.4-11.1
		C112,286.9,109.7,294.3,114.1,300.2z M106.5,315.8c1.4-8.2,8.6-15.6,17.1-16.3c4.4-0.3,9.1,1.1,11.5,5.1c1.9,3.1,2.2,7.3,0.7,10.6
		c-3.5,8-14.3,7.2-19.4,1.5c-0.1-0.1-0.2-0.2-0.3-0.2c0.6-1.8,1.6-3.4,3.1-4.8c0.3-0.3,0.7-0.6,1.2-0.9c-0.2,0.4-0.2,0.9,0.2,1.3
		c2.2,1.9,4.9,3.7,7.8,2.3c2.1-1,3.1-3.5,1.7-5.6c-3.1-4.7-10.5-1.1-13.4,1.9c-4.1,4.2-4.7,10.3-2.3,15.5c2.8,6,8.7,9.6,14.7,11.7
		c3.5,1.2,7.2,1.9,10.9,2.1c2.3,0.1,6.1,0.3,8.3-1.1c-0.4,2.4-0.7,4.7-1,7.1c-10.6,1.3-22.2,0.3-30.8-6.6
		C109.7,333.9,105,324.8,106.5,315.8z M126.8,309.2c1.1,0.3,2.1,1.6,1.1,2.6c-0.6,0.6-1.5,0.7-2.4,0.5c-1.3-0.3-2.4-1.2-3.5-2
		c-0.1-0.1-0.3-0.2-0.4-0.2C123.3,309.2,125.2,308.7,126.8,309.2z"/>
	<path class="st0" d="M420.5,329c0.9-3.3,3.6-6.3,7.2-6.5c9.1-0.4,9.3,12.6,7.1,18.5c-0.4,1-1.7,0.6-1.6-0.4c0.5-3.2,0.8-6.5,0-9.7
		c-0.7-2.7-2.8-6.3-6.1-5.4c-6.9,1.7-3.3,12.2-2.7,16.8c0.2,1.6-2.3,1.8-2.7,0.4C420.6,338.5,419.3,333.3,420.5,329z"/>
	<path class="st0" d="M408.8,406.1c6.6,9.6,17.1,15.3,28.8,15.7c1.2,0,1.2,1.8,0,1.9c-12.1,0.6-24.3-6.1-30.5-16.6
		C406.5,406,408.1,405.1,408.8,406.1z"/>
	<path class="st0" d="M403.6,402.7c2.1-1.9,4.9-2.4,7.5-1.6c1,0.3,0.6,1.8-0.4,1.6c-2-0.4-4.2,0.2-5.7,1.7c-0.6,0.7-1.1,1.5-1.3,2.4
		c-0.2,0.9-0.1,1.9-0.4,2.8c-0.3,0.8-1.3,1-1.8,0.2C400.1,407.7,401.9,404.2,403.6,402.7z"/>
</g>
<g class="st1">
	<path d="M262.3,167.2l2,0.4c2.8,0.6,4.1,1.2,4,1.7c-0.1,0.4-0.3,0.7-0.6,0.8c-1-0.1-2.9-0.4-5.7-0.9l-0.4,2.6
		c2.9,0.6,4.8,0.9,5.8,1c0.2,0.3,0.3,0.6,0.2,1c-0.2,1-1.9,1.1-5.1,0.4l-1.2-0.3c-1.2,9.1-1.5,14.2-1.1,15.3
		c0.6,1.5,1.9,2.5,3.8,2.9c1.9,0.4,3.5,0.1,4.7-0.9c0.7,0.1,1.4,0.2,2,0.1l0.6,1c-0.4,2.1-1.9,3.3-4.5,3.7c-1.3,0.2-2.5,0.1-3.7-0.1
		c-1.2-0.3-2.2-0.6-2.9-1.1c-0.7-0.4-1.3-1-1.8-1.5s-0.8-1.3-1.1-2.1c-0.3-0.8-0.5-1.6-0.7-2.4c-0.1-0.8-0.2-1.7-0.2-2.7
		c0-1,0-2,0-2.8c0.1-0.8,0.1-1.8,0.3-2.9c0.1-1.1,0.3-2,0.4-2.7c0.4-2.2,0.6-3.7,0.8-4.6l-2.4-0.6c-0.2-0.3-0.3-0.6-0.2-1
		c0.2-0.7,1-1,2.4-0.7l0.5,0.1l0.4-2.6l-2.2-0.5c-0.4-0.2-0.5-0.6-0.4-1c0.1-0.4,0.2-0.7,0.4-0.8c0.2-0.2,0.6-0.2,1.2-0.1l1.4,0.3
		l1-4.9c0.5-2.2,1-4.1,1.6-5.6c0-0.7,0.1-1.3,0.2-1.9c0.5-2.5,1.9-4.4,4.1-5.5c2.2-1.1,4.7-1.4,7.5-0.8c1,0.2,1.9,0.7,2.7,1.4
		c0.8,0.8,1.1,1.6,1,2.5c-0.1,0.4-0.3,0.7-0.7,0.9s-0.8,0.2-1.2,0.1c-0.4-0.1-1-0.4-1.6-0.8c-0.6-0.4-1.2-0.7-1.7-0.8
		s-1.1-0.1-1.8-0.1c-0.7,0.1-1.3,0.2-1.8,0.4c-0.5,0.2-0.9,0.5-1.3,1c-0.4,0.4-0.7,0.9-1,1.3c-0.2,0.4-0.5,1-0.7,1.7
		c-0.4,1.1-0.8,2.8-1.3,5.1C263.5,163,262.9,165.1,262.3,167.2z"/>
</g>
<g>
	<path d="M292.2,264.9c0.8,0,1.5,0.1,2.4,0.2c-0.1-0.3-0.3-0.5-0.6-0.7C293.6,264.5,293,264.6,292.2,264.9z"/>
	<path d="M281.8,251.6c0.1,1.6,0.4,3.6,0.9,5.7l1.2,4.8l-1.3,0.3c-0.6,0.1-0.9,0.3-1.1,0.6c-0.1,0.2-0.1,0.5,0,0.9
		c0.1,0.5,0.4,0.7,0.8,0.8l2.2-0.5l0.2,0.7c1-0.1,2.1-0.1,3.3-0.2l-0.4-1.4c2.7-0.7,4.6-1.3,5.6-1.7c0.2-0.3,0.3-0.7,0.2-1
		c-0.1-0.6-1.6-0.5-4.3,0.1l-1.9,0.5c-0.3-2.1-0.7-4.3-1.2-6.6c-0.6-2.3-0.9-4-1.1-5.2c-0.1-0.7-0.1-1.3-0.1-1.8s0.2-1,0.3-1.6
		c0.2-0.6,0.4-1.1,0.8-1.5c0.3-0.4,0.8-0.8,1.4-1.1s1.2-0.6,1.7-0.7c0.5-0.1,1.2-0.1,1.9,0c0.8,0.1,1.4,0.1,1.8,0s0.8-0.3,1.1-0.6
		c0.3-0.3,0.4-0.7,0.3-1.1c-0.2-0.9-0.9-1.5-1.9-1.8c-1.1-0.3-2.1-0.4-3.1-0.1c-2.8,0.7-4.9,2-6.4,3.9c-1.5,2-2,4.2-1.4,6.7
		C281.3,250.3,281.5,250.9,281.8,251.6z"/>
</g>
<image style="overflow:visible;" width="1536" height="1024" xlink:href="../../Downloads/84a082aa-4aa6-43c6-ba57-06baa9d246d5.JPG"  transform="matrix(0.3318 0 0 0.3318 577.4482 -353.4181)">
</image>
</svg>
