<?xml version="1.0" encoding="utf-8"?>
<!-- Generator: Adobe Illustrator 24.0.1, SVG Export Plug-In . SVG Version: 6.00 Build 0)  -->
<svg version="1.1" id="Livello_1" xmlns="http://www.w3.org/2000/svg" xmlns:xlink="http://www.w3.org/1999/xlink" x="0px" y="0px"
	 viewBox="0 0 595.9 595.3" style="enable-background:new 0 0 595.9 595.3;" xml:space="preserve">
<style type="text/css">
	.st0{fill:#FFFFFF;}
	.st1{fill:#142035;}
</style>
<path d="M-76.7,178c-2.7,0.2-5.4,0.4-8.7,0.6c0,3.2-0.1,6.4,0,9.6c0.4,8.3,1.5,16.4,4.7,24.2c1.1,2.6,2.5,5.2,3.7,7.7
	c0.6,1.3,1.4,2.5,1.8,3.9c0.2,0.7,0,2.1-0.5,2.3c-0.6,0.3-1.8,0-2.5-0.3c-0.8-0.4-1.4-1.2-2.4-2.2c0.4,1,0.7,1.6,0.9,2.2
	c0.5,1.1-0.1,1.8-1.2,1.8c-3,0.1-5.8-0.8-8-2.6c-1-0.8-1.5-2.7-1.7-4.2c-1.9-9.8-3.7-19.7-5.3-29.5c-0.7-4.1-0.8-8.2-1-12.4
	c-0.1-0.8-0.2-1.4-1.1-1.5c-0.3,0-0.5-0.1-0.8-0.2c-1.5-0.7-2.4-0.4-2.9,1.4c-0.4,1.4-1.3,2.8-2.2,4c-1.4,1.9-1.7,4-1.2,6.2
	c1.2,6.1,2.8,12,5.9,17.4c0.7,1.3,1.4,2.6,1.8,4c0.2,0.7,0,2-0.5,2.3s-1.7,0-2.3-0.4c-0.6-0.4-1-1.2-1.5-1.8
	c-0.3,0.4-0.3,0.5-0.3,0.5c0.1,0.9,0.2,1.7,0.3,2.6c-0.9,0-1.8,0.1-2.7,0.1c-0.2,0-0.4-0.1-0.6-0.1c-3.6-1-6.2-2.6-6.4-7.1
	c-0.3-7.1-1.9-14-4.2-20.8c-0.6-1.6,0.1-3,0.8-4.4c1.3-2.6,2.6-5.2,3.8-7.8c0.2-0.4,0-1.2-0.3-1.4c-1.7-1.2-3.5-2.2-5.4-3.4
	c-0.9,7-4.4,12.6-9.1,17.5c-1.7,1.8-1.1,4-0.8,6c1,7.1,3,14,6.4,20.3c0.6,1.1,1.1,2.2,1.4,3.3c0.2,0.6-0.1,1.9-0.4,2
	c-0.8,0.2-1.8,0.2-2.6-0.2c-0.9-0.4-1.5-1.3-2.3-2c0.3,0.7,0.6,1.3,0.8,1.9c0.3,1.2-0.4,2.2-1.5,1.8c-2.4-0.8-4.8-1.7-7-2.9
	c-0.8-0.5-1.3-2-1.5-3.1c-1.2-7.9-2.2-15.9-3.5-23.8c-0.4-2.6-0.1-4.9,1.1-7.1c3.1-6.2,2.7-12.6,1.2-19s-2.6-12.9-2.1-19.5
	c0.3-3.8,1-7.6,1.6-11.4c-0.9-0.1-2.1-0.2-3.2-0.5c-4.6-1.4-7.1-6.9-5.1-11.2c0.9-1.9,2.8-3.1,4.9-3.1c1.8,0,2.9,0.9,3.5,2.5
	c0.1,0.3,0.3,0.8,0.2,1.1c-0.2,0.5-0.5,1.3-0.8,1.3c-0.4,0.1-1.1-0.4-1.4-0.8c-0.5-0.8-0.7-2.1-1.8-1.6c-1,0.4-2.1,1.3-2.4,2.2
	c-1.3,3.8,1.8,7.7,5.8,7.7c1.2,0,1.7-0.4,2.2-1.5c3.2-7.8,8.4-14,15.7-18.2c6.4-3.7,13.2-4.4,20.4-3.4c7.8,1.2,15,4.1,21.6,7.9
	c2.9-2.1,5.5-4.3,8.5-6c10.8-6.1,21.2-4.9,31.2,1.8c0.6,0.4,1.2,1,1.9,0.9c4-0.1,7.1,1.9,10,4.3c8.8,7.5,14.2,17,16.5,28.2
	c0.6,2.9-1.1,4.8-4.2,5c-3.7,0.2-6.9-1.3-9.9-3.1c-0.5-0.3-0.9-0.6-1.6-1.1c-0.5,4.9-1.3,9.6,1.6,14c0.4,0.6,1,1.2,1.6,1.6
	c4.3,3.4,5.3,8,4.3,13.1c-0.8,4.3-3,7.8-7.5,9.3c-0.8,0.3-1.7,0.6-2.6,0.4c-4-0.5-7.8,0.1-11.6,1.2c-6.9,2-12.7-0.1-17.6-5
	c-2.9-2.8-5.9-5.5-10.4-6.5c-0.2,2.9-0.7,5.7-0.6,8.6c0.2,8.5,1.8,16.8,5.6,24.6c1.3,2.7,3.1,5.2,4.7,7.8c0.7,1.2,1.4,2.5,1.9,3.8
	c0.2,0.5-0.1,1.5-0.5,1.9c-0.3,0.3-1.3,0.2-1.8,0c-1-0.6-1.9-1.4-3-2.3c0.4,0.8,0.8,1.5,1,2.2c0.3,1.1-0.2,2-1.3,1.7
	c-2.6-0.7-5.1-1.6-7.6-2.6c-0.5-0.2-0.8-1-1-1.6c-2.2-8-4.6-15.9-6.5-24C-75.6,188.5-75.9,183.3-76.7,178z M-82.1,122.1
	c0.1-0.2,0.2-0.3,0.3-0.5c1.6-1.5,3.3-2.9,5.1-4.5c-6.3-3.5-12.4-6.1-19.1-7.4c-6.9-1.3-13.7-0.9-19.9,2.5
	c-11.8,6.5-17.3,17.1-18.8,30.1c-0.8,6.8,0.3,13.4,1.9,20c1.9,7.9,2.2,15.7-2,23.1c-0.3,0.5-0.5,1.3-0.4,1.9
	c1.1,7.6,2.3,15.1,3.4,22.9c2.2-0.3,4.5-0.7,6.4-1c-1.3-5.6-2.7-11.1-3.9-16.7c-0.6-2.9-0.6-5.8,2-8.2c1.7-1.5,2.9-3.6,4.2-5.5
	c3.4-5.1,4.1-10.8,4-16.7c0-4.3-0.4-8.6-0.5-12.9c0-0.8,0.4-1.6,0.6-2.4c0.2,0,0.5,0,0.7,0c0.2,0.8,0.5,1.5,0.6,2.3
	c0.3,5,0.4,10,0.7,15c0.1,0.9,0.4,2.1,1.1,2.5c2.4,1.8,4.8,3.5,7.4,4.8c3.5,1.7,7.1,2.9,10.6,4.3c0.8-1.5,1.3-2.5,1.9-3.5
	c0.3,0.1,0.5,0.1,0.8,0.2c-0.4,15.8,3.2,31,6,46.3c1.3-0.3,2.5-0.6,3.7-0.9c1.2-0.3,2.4-0.5,3.6-0.8c-6.3-15.1-8-30.4-4.6-46.5
	c3,1.5,1.1,3.8,1.4,5.8c5.6-0.5,11.3-0.4,16.2-4.4c-6.2-3.4-10.3-8.3-12.4-14.9c-0.7,0.4-1.2,0.8-1.7,1.1c-2.7,1.6-4.2,1.3-6.2-1.1
	c-0.4-0.4-0.7-0.9-1-1.3c-3.5-7.3-4.7-14.7-1.2-22.4C-88.7,128.9-85.4,125.5-82.1,122.1z M-24.5,159.4c-0.4-1.4-0.9-2.7-1.2-4
	c-0.9-4-0.2-8,0.4-12c1.4-9.3-0.5-17.8-6.6-25.2c-4.7-5.7-10.7-9.3-18-10.4c-7.1-1-13.4,1.1-19,5.3c-6.2,4.7-11.5,10.3-16.6,16.1
	c-6.4,7.3-6.4,15.6-2.8,24.1c1.7,4,3.3,4.4,6.5,1.5c4.1-3.9,7.2-8.6,9.1-14c1.7-4.7,1.8-9.6,1.7-14.5c0-0.7,0.2-1.4,0.2-2
	c0.2,0,0.4,0,0.6-0.1c0.3,0.8,0.9,1.5,0.9,2.3c0.1,3.2,0.2,6.5-0.2,9.7c-0.8,6.2-3.7,11.6-7.6,16.4c-1.8,2.2-1.7,4.2-0.6,6.5
	c2.8,6,7.5,10,13.7,12.2c3.5,1.2,6.5,3.2,9.2,5.7c1.2,1.2,2.5,2.3,3.8,3.4c0.8,0.6,1.8,1.1,2.6,1.6c-0.2-2-0.6-3.9-0.6-5.7
	c-0.2-7.3,4.6-14,11.5-16.2C-33.2,158.7-28.8,159-24.5,159.4z M-29.6,181.1c4.1,0.5,6.7,0.5,8.8-1.8c3-3.1,3.6-6.9,2.9-10.9
	c-0.6-3.3-2.3-5.8-5.8-6.3c-3.1-0.4-6.4-0.9-9.5-0.6c-7,0.6-14.6,6.4-13.7,16.2c0.5,5.2,2.4,6.6,7.6,5.4c0.1,0,0.2-0.1,0.3-0.1
	C-35.5,182.3-31.9,181.6-29.6,181.1z M-31.5,114.5c1.7,2.5,3.6,4.9,5.1,7.6c3.3,5.9,4.2,12.3,3.7,19c0,0.5,0,1.3,0.4,1.6
	c2.6,2.1,5.5,3.9,9,4.1c3.4,0.2,3.8-0.4,3.1-3.7c-1.7-7.4-5.1-14-9.9-19.9C-23.3,119.6-27,116.3-31.5,114.5z M-74.1,177.7
	c0.2,9.6,4.2,28.9,7.4,35.5c2-0.6,4-1.2,6-1.8c-6.3-11.7-8.5-23.9-7.2-36.7C-69.9,175.7-71.9,176.7-74.1,177.7z M-103.2,204.8
	c-1.2-4-2.4-7.8-3.5-11.7c-1.3-4.6-1.4-9,1.8-13c0.8-1.1,1.2-2.5,1.8-3.8c-2-0.9-3.7-1.6-5.2-2.3c-1.6,3-3.2,6-4.8,8.9
	c-0.6,1-0.6,2-0.3,3.1c1,3.7,2.1,7.4,2.9,11.1c0.6,3,1,6,1.4,9.1C-107,205.7-105,205.2-103.2,204.8z"/>
<path class="st0" d="M-82.1,122.1c-3.3,3.4-6.7,6.7-8.7,11.2c-3.5,7.7-2.3,15.1,1.2,22.4c0.2,0.5,0.6,0.9,1,1.3
	c2,2.4,3.5,2.7,6.2,1.1c0.5-0.3,1-0.6,1.7-1.1c2,6.6,6.1,11.5,12.4,14.9c-4.9,4-10.6,3.9-16.2,4.4c-0.3-1.9,1.7-4.2-1.4-5.8
	c-3.3,16-1.7,31.4,4.6,46.5c-1.2,0.3-2.4,0.5-3.6,0.8s-2.3,0.6-3.7,0.9c-2.8-15.3-6.5-30.5-6-46.3c-0.3-0.1-0.5-0.1-0.8-0.2
	c-0.5,1-1.1,2.1-1.9,3.5c-3.5-1.4-7.1-2.6-10.6-4.3c-2.6-1.3-5.1-3.1-7.4-4.8c-0.6-0.5-1-1.7-1.1-2.5c-0.3-5-0.5-10-0.7-15
	c0-0.8-0.4-1.5-0.6-2.3c-0.2,0-0.5,0-0.7,0c-0.2,0.8-0.6,1.6-0.6,2.4c0.1,4.3,0.5,8.6,0.5,12.9c0.1,5.9-0.6,11.7-4,16.7
	c-1.3,1.9-2.6,3.9-4.2,5.5c-2.6,2.4-2.6,5.3-2,8.2c1.1,5.6,2.6,11.1,3.9,16.7c-1.9,0.3-4.2,0.6-6.4,1c-1.2-7.7-2.3-15.3-3.4-22.9
	c-0.1-0.6,0.1-1.4,0.4-1.9c4.2-7.4,3.9-15.2,2-23.1c-1.6-6.6-2.7-13.2-1.9-20c1.5-13,7-23.6,18.8-30.1c6.2-3.5,13-3.8,19.9-2.5
	c6.6,1.3,12.8,3.9,19.1,7.4c-1.8,1.6-3.4,3.1-5.1,4.5c1.2-1.2,0.9-2.2-0.3-3.1c-0.7-0.6-1.5-1.2-2.3-1.5c-4.5-1.7-9-3.5-13.6-4.9
	c-1.7-0.5-3.7-0.2-5.5,0c-0.8,0.1-1.5,0.9-2.2,1.3c0.7,0.4,1.4,1.1,2.2,1.3c6.9,1.7,13.5,4.1,19.9,7.3
	C-83.2,122.2-82.6,122.1-82.1,122.1z M-99.4,158.5c-1.6,1.8-0.9,9.8,1.1,12.2c0.2-0.3,0.7-0.6,0.7-0.8
	C-98.2,166.2-98.8,162.3-99.4,158.5z M-107.7,157.1c-0.4,0.3-0.7,0.4-0.7,0.6c-0.5,3.9-0.3,7.7,1.4,11.4c0.1,0.2,0.6,0.3,0.9,0.4
	c0.1-0.4,0.3-0.8,0.2-1.1c-0.3-1.4-0.9-2.8-1.1-4.3C-107.2,161.9-107.4,159.7-107.7,157.1z"/>
<path class="st0" d="M-24.5,159.4c-4.4-0.4-8.7-0.6-12.9,0.8c-6.9,2.3-11.7,9-11.5,16.2c0.1,1.8,0.4,3.7,0.6,5.7
	c-0.8-0.5-1.8-0.9-2.6-1.6c-1.3-1.1-2.6-2.2-3.8-3.4c-2.7-2.6-5.7-4.5-9.2-5.7c-6.2-2.2-10.9-6.1-13.7-12.2
	c-1.1-2.3-1.2-4.3,0.6-6.5c3.9-4.8,6.8-10.2,7.6-16.4c0.4-3.2,0.2-6.5,0.2-9.7c0-0.8-0.6-1.6-0.9-2.3c-0.2,0-0.4,0-0.6,0.1
	c-0.1,0.7-0.3,1.4-0.2,2c0.1,4.9,0,9.8-1.7,14.5c-2,5.4-5,10.1-9.1,14c-3.1,3-4.8,2.5-6.5-1.5c-3.6-8.5-3.6-16.8,2.8-24.1
	c5.1-5.8,10.4-11.5,16.6-16.1c5.6-4.2,12-6.3,19-5.3c7.3,1,13.4,4.6,18,10.4c6,7.4,7.9,15.9,6.6,25.2c-0.6,4-1.3,8-0.4,12
	C-25.4,156.7-24.9,158-24.5,159.4z M-59.1,150.1c0,0.2-0.1,0.7,0,1.2c0.3,1.7,1.1,3.2,2.8,3.8c1.4,0.5,2.6-0.1,3.5-1.3
	c1.7-2.1,1.7-6.1,0.1-8.2c-1.2-1.5-3-1.8-4.5-0.5C-58.6,146.3-59.3,147.9-59.1,150.1z M-27.6,149.4c0.1-0.1,0.2-0.1,0.3-0.2
	c-0.6-1.3-1.1-2.7-1.9-3.9c-1.2-1.6-3.2-1.2-4,0.6c-0.8,1.6-0.8,3.3-0.3,5c0.6,1.7,1.9,2.9,3.1,2.8c1.3-0.1,2.4-1.5,2.7-3.3
	C-27.6,150.1-27.7,149.7-27.6,149.4z M-64,143.9c0.1,0.2,0.2,0.3,0.4,0.5c0.2,0.1,0.4,0.1,0.6,0.2c0.3,0,0.6,0.1,0.8,0
	c4.3-0.4,8.1-1.9,11.3-4.9c0.5-0.5,1-1.1,1.2-1.8c0.2-0.6-0.1-1.3-0.2-2c-0.5,0.2-1.3,0.3-1.6,0.7c-1.7,2-4,3.3-6.4,4.1
	c-1.5,0.5-3,1-4.5,1.6C-63,142.8-63.5,143.5-64,143.9z M-27.6,142.8c-0.1-0.5-0.1-0.7-0.2-0.8c-1.7-1.4-3.4-2.7-5.1-4
	c-0.2-0.1-0.8,0.1-1,0.3s-0.2,0.8-0.1,1c1.2,2.1,3.1,3.3,5.3,4.1C-28.3,143.5-27.9,143-27.6,142.8z"/>
<path class="st0" d="M-29.6,181.1c-2.3,0.5-5.8,1.2-9.4,2c-0.1,0-0.2,0.1-0.3,0.1c-5.1,1.2-7.1-0.2-7.6-5.4
	c-0.9-9.8,6.6-15.6,13.7-16.2c3.1-0.3,6.3,0.2,9.5,0.6c3.5,0.5,5.2,3.1,5.8,6.3c0.7,4,0.1,7.7-2.9,10.9
	C-22.9,181.6-25.6,181.6-29.6,181.1z M-23.7,172.6c0-2.3-0.8-3.8-2.2-3.8c-1.4-0.1-2.6,1.5-2.7,3.7s0.9,3.9,2.3,4
	C-24.8,176.6-23.7,174.9-23.7,172.6z M-34.5,172.9c-0.1-0.1-0.2-0.1-0.3-0.2c0-0.3-0.1-0.7-0.1-1c-0.1-1.1-0.5-2.1-1.7-2.3
	c-1.3-0.2-2.2,0.6-2.5,1.7c-0.3,1.4-0.6,2.8-0.5,4.2c0.1,1.8,2.1,2.4,3.3,1.1C-35.4,175.4-35,174.1-34.5,172.9z"/>
<path class="st0" d="M-31.5,114.5c4.5,1.8,8.2,5,11.3,8.8c4.8,5.9,8.2,12.4,9.9,19.9c0.8,3.3,0.3,3.9-3.1,3.7c-3.5-0.2-6.4-2-9-4.1
	c-0.3-0.3-0.4-1.1-0.4-1.6c0.4-6.7-0.4-13.1-3.7-19C-27.9,119.5-29.8,117-31.5,114.5z"/>
<path class="st0" d="M-74.1,177.7c2.2-1,4.2-2,6.3-3c-1.3,12.8,0.9,25,7.2,36.7c-2,0.6-4,1.2-6,1.8
	C-69.9,206.6-73.9,187.3-74.1,177.7z"/>
<path class="st0" d="M-103.2,204.8c-1.8,0.4-3.8,0.9-5.9,1.4c-0.5-3-0.8-6.1-1.4-9.1c-0.8-3.7-1.8-7.4-2.9-11.1
	c-0.3-1.1-0.3-2.1,0.3-3.1c1.6-2.9,3.2-5.8,4.8-8.9c1.5,0.6,3.2,1.4,5.2,2.3c-0.6,1.3-1,2.8-1.8,3.8c-3.2,4-3.1,8.4-1.8,13
	C-105.6,197-104.4,200.8-103.2,204.8z"/>
<path d="M-82.1,122.1c-0.5-0.1-1.1,0-1.5-0.2c-6.4-3.1-13-5.6-19.9-7.3c-0.8-0.2-1.5-0.8-2.2-1.3c0.7-0.5,1.5-1.2,2.2-1.3
	c1.8-0.2,3.8-0.5,5.5,0c4.6,1.4,9.1,3.2,13.6,4.9c0.9,0.3,1.6,1,2.3,1.5c1.2,0.9,1.5,2,0.3,3.1C-81.8,121.8-81.9,122-82.1,122.1z"/>
<g>
	<path class="st1" d="M361.8,441.7c-13.9,2.2-27.3,4.4-41.6,6.6c-0.8,5.1-1.8,11.3-2.9,17.5c-1,6-2,12.1-3.1,18.2
		c-1,5-3.9,8.6-9,10.4c-9.9,3.4-19.7,3.6-29.6,0c-4.9-1.8-8.4-5.1-9.4-10.1c-2.4-11.3-4.5-22.4-6.7-33.7c-0.6-3-1.1-6-1.7-8.8
		c-14.5-2.8-27.6-8.3-40.3-15.3c-1,8.2-1.9,16.1-3,24.1c-1.9,13.9-11.2,16.9-25.5,16.1c-4.5-0.3-9.2-2.1-13-4.4
		c-6.1-3.5-7.6-10-8.5-16.2c-1.9-13.4-3.5-26.7-5.3-40.1c-2.3-16.7-6.5-32.8-12.1-48.7c-7.2-19.9-9.3-40.5-7.2-61.5
		c2.8-27.9,13.5-52.6,32.4-74.5c-5.4-1-9.5-3.7-11.9-8.1c-2.3-4.4-3.5-9-2-14.1c1.8-6.4,7.9-10.8,14.1-10.2
		c6.6,0.7,12.3,6.3,12.7,12.8c0.1,2.4-0.3,4.9-0.4,7.6c19-16.1,41.5-25.4,66.3-29.9c-1.3-5.6-3-11-3.8-16.5c-2.1-15.1-1.7-30,5.7-44
		c11.3-21.5,40.5-27.6,60.8-12.8c13.1,9.5,20.1,22.5,23.6,37.4c2.9,12.2,2.8,24.6-0.5,36.8c-0.1,0.3,0,0.7,0,1.3
		c5.2,1.8,10.6,3.4,15.7,5.8c6,2.8,11.9,6.1,17.5,9.5c1.8,1,2.9,1.4,4.8,0.1c12-7.9,24.5-14.8,38.8-18.3c2.6-0.6,5.3-1.1,8-1.2
		c10-0.3,15.1,3.9,15.9,13.4c1.8,21-1.2,41.5-10,60.9c-0.9,1.9-0.9,3.4,0.2,5.2c9.3,16.4,14.6,34,17.2,52.3
		c1.5,10.3,0.7,20.5-0.8,30.8c-0.2,1-0.2,2.4,0.4,3.2c9,13.8,8.1,27.8,0.4,41.6c-5.3,9.6-13.2,16.7-23.8,20.9
		c-0.9,0.3-1.9,1.6-2,2.4c-1.8,12.3-3.4,24.5-5.3,36.8c-1.1,7.2-2.3,14.5-3.8,21.6c-1.6,7.2-7.2,11.2-14.4,12
		c-6.2,0.6-12.5,0.3-18.7-0.3c-8.3-0.9-12.7-6.1-14.1-13.8C364.2,456.9,363,448.9,361.8,441.7z M259,188.8c-2.2-4.5-2.2-4.5-7.5-3.5
		c-0.3,0.1-0.5,0-0.7,0.1c-29.2,6-54.5,18.8-73.4,41.4c-26.5,31.7-34.8,68-27.9,107.5c2,11.6,6.2,23,9.9,34.3
		c7.6,23.7,9,48.3,12.5,72.5c0.3,2.3,1,3.2,3.1,4c10.9,4,22,3.6,33,0.7c1-0.3,2.3-1.8,2.4-2.9c0.7-5.2,0.8-10.6,1.7-15.9
		c0.6-3.2-0.8-4.5-3.2-6.1c-7-4.4-13.4-9.4-17.5-16.5c-0.4-0.7-0.3-1.7-0.3-2.5c1,0,2.2-0.3,3.1,0.1c1,0.3,1.7,1.3,2.5,2
		c4.6,3.9,9,8.2,13.9,11.7c13.8,9.8,29.2,16.4,45.8,20.5c0-4.5,0-8.9,0-13.3c0.4-0.2,1-0.3,1.4-0.4c0.9,1.7,2.2,3.4,2.5,5.2
		c2.9,14.3,5.6,28.7,8.2,43.1c1.1,6.3,0.9,6.4,7.2,7.8c10.3,2.4,20.5,2.5,30.6-1.2c2.8-1,4.5-2.4,4.9-5.8
		c1.6-11.8,3.8-23.6,5.7-35.4c0.3-2.1,0.4-4.5,4.1-5.4c0.2,3.8,0.3,7.3,0.5,10.8c24.2,2.6,76.1-17.1,86.3-32.4
		c-9.1-1.2-18.5-2.1-27.8-3.7c-13.2-2.3-23.8-8.8-31.6-19.3c-1-1.4-0.8-3.8-1.1-5.7c1.7,0.9,3.7,1.5,4.8,2.8
		c8.5,9.6,18.9,15.9,32.2,17.6c-8-8.2-10-17.7-8.1-28.4c3.6-21.2,22.1-38.4,44.8-40.7c-10.3-3.8-19.7-5.2-29.5-1.6
		c-8.4,3.1-14.8,8.8-21.2,14.5c-1.1,1-2.4,1.7-4.5,3.1c1.5-6.7,5.5-10.4,9.5-13.8c8.7-7.3,18.8-12,30.6-11c10,0.8,19.5,3.9,28,9.2
		c2.6,1.6,5.2,3.3,8.6,5.4c0.4-5.7,1-10.6,1-15.6c-0.1-16.8-4-32.7-10.3-48.3c-8.5-21-20.9-39-41.4-51.2c-1.9-1.1-2.1-2.4-1-4.1
		c6.5-10,15.2-17.6,26.4-22.5c1.3-0.6,3.2,0.1,4.8,0.2c0.1,0.4,0.3,0.9,0.3,1.4c-10.2,5.5-19.7,11.7-26.3,21.5
		c12.1,7.6,21.8,17.7,29.9,29.9c7.9-19.1,10.7-38.2,9.3-58c-0.3-4.9-3.2-8-7.2-8c-3.9,0-7.9,0.3-11.7,1.1
		c-13.6,3.2-25.4,10.2-36.7,17.7c-3.3,2.2-6,2.1-8.9-0.3c-9.5-8-21.4-11.1-32.6-14.8c-4,5.8-7.9,11.2-11.7,16.6
		c2.9,1.2,6,2.2,8.6,3.8c7.2,4.4,14.5,8.9,21.4,13.8c3.2,2.3,2.6,3.9-1.1,5.1c-4.2,1.3-8.4,2.8-12.7,3.6c-1.9,0.3-4.4-0.3-6.2-1.1
		c-3.5-1.7-6.5-4.3-10-6.1c-20-10.5-41.5-16.8-63.7-21.6c-4.1-0.9-8.2-1.7-12.1-2.9c-1.4-0.4-3.1-1.8-3.4-3.1
		c-0.2-0.8,1.6-2.6,2.9-3.1C252.8,190.6,255.8,189.9,259,188.8z M404.9,404.2c4-0.4,8.1-0.6,12-1.5c17.5-4,30.8-20,31.6-37.6
		c0.8-17.1-10.1-28-27.9-28.2c-10-0.1-18.2,4.1-25.4,10c-12,9.6-17.5,22.1-16.2,37C379.8,393.6,389,405.1,404.9,404.2z M316.7,166.7
		c1.2-15.9-4.9-30.5-12.5-40.1c-12.3-15.5-30.5-13.9-38.8,3.8c-4,8.4-5,17.2-3.7,26.3c2.1,14.4,7.1,27.7,17.7,38.4
		c9.1,9.2,22.3,7.9,29.6-2.6C314.7,184.5,316.9,175.6,316.7,166.7z M416.5,408.9c-2.9,2.5-5.3,4.9-7.9,7
		c-11.8,9.5-24.8,17-39.2,22.3c-1,0.3-2.3,1.7-2.2,2.5c0.7,5.8,1.6,11.4,2.7,17.1c0.3,1.2,1.7,2.7,3,3.1c11.4,3.3,22.9,3.3,33.9-1.4
		c1.4-0.6,2.9-2.4,3.1-3.8c1-5.4,1.7-11,2.4-16.5C413.7,429.3,415.1,419.4,416.5,408.9z M296.8,204.3c9.8,4.1,10.8,4.6,17.3-2
		c3.5-3.6,6.4-8.1,8.4-12.7c6.5-15.4,5.8-31.1,1-46.8c-3.8-12.5-10.1-23.6-21.5-31.3c-5.8-3.9-12.2-7.1-19.6-5.9
		c-12.7,2-20.3,10-24.4,21.2c-3.2,9.2-3.5,18.7-3.1,28.4c0.4,14.1,5,26.9,13.5,38.2c1.8,2.4,5.6,3.5,8.5,5.2
		c0.2-0.3,0.3-0.6,0.5-0.9c-1.6-1.8-3.2-3.5-4.8-5.4c-8.7-10.7-13.1-23.2-14.5-36.6c-1.1-10.6,0.3-20.9,5.9-30.5
		c7.2-12,19.3-16,30.9-9.3c5,2.9,9.8,6.7,13.2,11.1c12.6,16.1,15.3,34.3,10.4,53.4C315.6,191.5,309.5,200.7,296.8,204.3z
		 M291.6,103.3c19.9,7.4,29.1,22.6,35,40.3c2.8-0.7,5.2-1.2,7.8-1.8C327.4,118.2,310.9,103.1,291.6,103.3z M183.7,212.5
		c-2.5-1.4-2.1-3.2-1.7-5.7c0.5-2.4,0.3-5.4-0.7-7.8c-1.2-3.1-4.2-5-7.9-4.7c-3.5,0.3-5.8,2.4-6.5,5.5c-1.2,4.4-0.5,8.7,2.4,12.4
		C173.2,217.1,179.6,217.4,183.7,212.5z M330,158.5c-0.9,9.4-1.7,18.5-2.5,28.2c2.1-1.1,5.2-1.7,5.8-3.4c3.2-8.2,4.1-16.8,3.1-25.9
		C333.9,157.8,331.6,158.1,330,158.5z M334.9,143.4c-3,0.7-5.5,1.2-7.9,1.8c0.7,4,1.3,7.8,2,11.9c1.7-0.3,3.1-0.7,4.5-0.7
		c2.6-0.1,3.5-1.1,3.1-3.6C335.9,149.7,335.5,146.8,334.9,143.4z M332.6,187.8c-0.3-0.4-0.7-0.8-1-1.2c-2,0.7-4.9,0.8-5.8,2.1
		c-3,4.6-5.2,9.6-7.9,14.5c0.3,0.2,0.5,0.4,0.8,0.6C323.3,198.4,327.9,193.1,332.6,187.8z"/>
	<path class="st1" d="M242.9,304c-2.1-1.5-4.5-2.6-6.1-4.5c-6.9-7.9-10-17.5-11.5-27.6c-2.4-16.8,0.4-32.9,6.6-48.6
		c0.6-1.7,1.5-3.2,2.3-4.8c2.8-5.7,7.3-7.6,13.8-7.2c14.5,1.1,26.6,7.2,37.5,15.9c3.4,2.7,6.6,5.7,9.8,8.7c1.2,1.2,3.2,3.1,0.8,4.6
		c-0.9,0.5-3.5-0.3-4.5-1.3c-8-7.9-16.9-14.6-27.7-18.5c-5.3-2-11.1-2.9-16.7-4.1c-4.5-1-7.5,1.3-8.8,5.2
		c-2.4,7.2-5.1,14.5-6.8,21.9c-3.7,16.2-2.7,32.2,5.6,47.2c1.6,2.9,3.7,5.6,5.5,8.4c0.6,1,1,2.3,1.5,3.4
		C243.8,303.3,243.4,303.7,242.9,304z"/>
	<path class="st1" d="M319.5,316.6c1.1-3.1,1.8-6.5,3.6-9.4c3.5-5.6,10-5.9,14.7-1.2c5.8,5.8,5.5,17.3-0.4,22.9
		c-3.1,2.9-7.2,3.3-10.7,0.9C322,326.6,320.1,322.1,319.5,316.6z"/>
	<path class="st1" d="M253,288.3c6.7-15.8,16.3-28.6,30.6-37.9c0.4,0.3,1,0.6,1.4,1c-0.7,1-1.3,2.2-2.2,3.1
		c-8.4,8.6-16.9,17.3-22.6,27.9c-1.7,3.1-2.9,6.5-4.4,9.7c-0.3,0.8-1.1,2.1-1.7,2c-0.9-0.1-2-0.8-2.5-1.6c-4.2-6-5.9-12.9-6.9-20
		c-1.7-12-1.4-24.1,1.5-36c0.5-2.4,1.7-4.5,3.3-6.5C245.7,249.7,245.4,268.9,253,288.3z"/>
	<path class="st1" d="M424,307.1c-0.7,2.6-1,4.8-2,6.8c-3.1,6.5-10.1,7-14.2,1c-3.5-5.2-3.7-10.9-0.7-16.4c3.3-6,10.3-6.2,14-0.1
		C422.7,301.1,423.1,304.3,424,307.1z"/>
	<path class="st1" d="M406.3,373c-1,2.6-1.9,5.9-3.7,8.7c-2.3,3.7-6.6,3.1-8.1-1c-2-5.5-1.5-10.9,2.3-15.7c3-3.8,6.5-3.1,8.1,1.3
		C405.5,368.2,405.7,370.2,406.3,373z"/>
	<path class="st1" d="M435,367.6c-0.7,2.1-1.3,5.2-2.9,7.7c-1,1.5-3.5,3-5.2,2.9c-1.4-0.1-3.4-2.3-3.9-3.8c-1.6-4.6-1-9.4,2-13.4
		c1.1-1.5,3.4-3.1,5.2-3c1.4,0.1,3,2.4,3.8,3.9C434.7,363.2,434.6,365,435,367.6z"/>
	<g>
		<path class="st1" d="M300.4,181.1c-2,1.6-5.3,3.3-9.5,3.3c-5.2,0-9.8-2.4-13-7c-2.4-3.3-4-7.8-4.6-13.5h-4V160h3.6
			c0-0.4,0-0.8,0-1.2c0-1.3,0.1-2.4,0.1-3.5h-3.8v-3.9h4.2c0.8-5.5,2.7-10,5.2-13.3c3.3-4.2,7.4-6.5,12.7-6.5c3.8,0,6.7,1.3,8.5,2.5
			l-1.3,5.2c-1.6-1.2-4.3-2.2-7.2-2.2c-3.5,0-6.3,1.5-8.4,4.3c-1.9,2.3-3.2,5.8-3.8,10h17.8v3.9h-18.4c-0.1,1-0.1,2.2-0.1,3.3
			c0,0.5,0,0.9,0,1.4h18.5v3.8H279c0.5,4.6,1.8,7.9,3.5,10.3c2.4,3.1,5.6,4.6,9,4.6c3.4,0,6.3-1.6,7.8-2.6L300.4,181.1z"/>
	</g>
</g>
<path d="M-99.4,158.5c0.6,3.8,1.2,7.7,1.8,11.5c0,0.2-0.4,0.5-0.7,0.8C-100.4,168.3-101,160.3-99.4,158.5z"/>
<path d="M-107.7,157.1c0.3,2.5,0.4,4.8,0.8,7c0.2,1.4,0.8,2.8,1.1,4.3c0.1,0.3-0.2,0.7-0.2,1.1c-0.3-0.1-0.8-0.2-0.9-0.4
	c-1.8-3.6-2-7.4-1.4-11.4C-108.4,157.6-108.1,157.4-107.7,157.1z"/>
<path d="M-59.1,150.1c-0.1-2.2,0.5-3.8,1.9-5c1.5-1.3,3.3-1,4.5,0.5c1.6,2.1,1.6,6.1-0.1,8.2c-0.9,1.1-2.1,1.7-3.5,1.3
	c-1.7-0.6-2.4-2.1-2.8-3.8C-59.2,150.8-59.1,150.3-59.1,150.1z"/>
<path d="M-27.6,149.4c0,0.3,0,0.7-0.1,1c-0.3,1.8-1.4,3.2-2.7,3.3c-1.1,0.1-2.5-1.1-3.1-2.8s-0.5-3.4,0.3-5c0.8-1.8,2.8-2.1,4-0.6
	c0.9,1.1,1.3,2.6,1.9,3.9C-27.4,149.3-27.5,149.4-27.6,149.4z"/>
<path d="M-64,143.9c0.5-0.5,1-1.1,1.6-1.4c1.4-0.6,3-1.1,4.5-1.6c2.5-0.9,4.7-2.1,6.4-4.1c0.3-0.4,1.1-0.5,1.6-0.7
	c0.1,0.7,0.3,1.4,0.2,2c-0.2,0.6-0.7,1.3-1.2,1.8c-3.2,2.9-7,4.4-11.3,4.9c-0.3,0-0.6,0-0.8,0s-0.4-0.1-0.6-0.2
	C-63.8,144.3-63.9,144.1-64,143.9z"/>
<path d="M-27.6,142.8c-0.3,0.2-0.8,0.7-1.1,0.6c-2.2-0.8-4.1-2-5.3-4.1c-0.1-0.3-0.1-0.8,0.1-1c0.2-0.2,0.8-0.4,1-0.3
	c1.7,1.3,3.4,2.7,5.1,4C-27.7,142.1-27.7,142.3-27.6,142.8z"/>
<path d="M-23.7,172.6c0,2.3-1.2,4-2.6,3.9s-2.4-1.9-2.3-4c0.1-2.2,1.3-3.8,2.7-3.7C-24.5,168.8-23.7,170.2-23.7,172.6z"/>
<path d="M-34.5,172.9c-0.6,1.2-0.9,2.6-1.8,3.5c-1.2,1.3-3.1,0.7-3.3-1.1c-0.1-1.4,0.1-2.8,0.5-4.2c0.3-1.1,1.2-1.9,2.5-1.7
	c1.2,0.2,1.6,1.2,1.7,2.3c0,0.3,0.1,0.7,0.1,1C-34.7,172.8-34.6,172.8-34.5,172.9z"/>
</svg>
