<?xml version="1.0" encoding="utf-8"?>
<!-- Generator: Adobe Illustrator 24.0.1, SVG Export Plug-In . SVG Version: 6.00 Build 0)  -->
<svg version="1.1" id="Livello_1" xmlns="http://www.w3.org/2000/svg" xmlns:xlink="http://www.w3.org/1999/xlink" x="0px" y="0px"
	 viewBox="0 0 595.9 595.3" style="enable-background:new 0 0 595.9 595.3;" xml:space="preserve">
<style type="text/css">
	.st0{fill:#142035;}
	.st1{enable-background:new    ;}
	.st2{fill:#FFFFFF;}
</style>
<g>
	<path class="st0" d="M-256,273.4c0-0.1-0.1-0.3-0.1-0.4c-0.2-0.9,1-1.2,1.3-0.4c0.1,0.3,0.2,0.7,0.3,1c0.2,0.2,0.4,0.5,0.4,0.9
		c0,0.1,0,0.3,0,0.4c1.7,5.5,2.6,11.1,2.7,16.9c0.1,5,0.5,12.3-3.1,16.3c-0.7,0.8-2,0.2-2-0.8c-0.1-10.9-0.2-21.9-0.2-32.8
		C-256.6,274-256.3,273.6-256,273.4z"/>
	<path class="st0" d="M-263.2,272.7c0.2-0.7,0.9-1,1.5-0.9c0.6-1,2.5-0.8,2.5,0.7c0.1,11.5,0.1,23.1,0,34.6c0,1.6-2.2,1.8-2.7,0.4
		C-265.6,296.2-266,284.2-263.2,272.7z"/>
	<path class="st0" d="M-530.5,370.2c-0.1,4.3,2.3,7.1,6.5,8.2c5,1.3,10.6,1.4,15.8,1.5c11.6,0.3,23.1-0.9,34.6-2.2
		c3.7-0.4,8.1-0.7,11-3.4c3.5-3.2,2.6-8.2,2-12.3c-1-7.6-2.5-15.7-5.1-23.2c3.4,1.7,7.8,2.4,11.5,3c4,0.6,8,0.9,12,0.9
		c7.3-0.1,14.6-1.4,21.4-4.1c-2.8,8.3-4.1,17.2-3.3,26c0.4,4.3,1.4,8.8,5.3,11.3c4.1,2.6,9.9,2.8,14.6,3.4
		c11.7,1.5,23.7,1.7,35.4,0.4c4.4-0.5,10.4-0.4,14-3.3s3.2-8.4,3.2-12.5c0-7.8-1-15.6-3.2-23c7.5,1.9,15.3,2.6,23,2.4
		c13.5-0.3,26.9-3.7,38.9-9.9c6.1-3.1,11.7-7.1,17.7-10.4c2.9-1.6,5.9-3.1,9.1-4.1c2.1-0.7,4.4-0.8,6.6-1.4c1,0.2,2.1,0.1,3.2-0.2
		c3.9-1.1,6.4-4.6,7.6-8.2c1.5-4.4,1.8-9.4,2-14c0.2-5.3-0.1-10.6-0.9-15.8c-0.9-5.8-3.5-17.5-11.1-17.1c-1.4-0.1-2.6,0.2-3.6,0.6
		c-1.7,0.2-3.4,0.3-5.2-0.3c-2.3-0.7-4.3-2.2-5.9-4.1c-3.2-3.8-4.7-8.8-6.4-13.3c-6.1-17.2-10-35.6-19.6-51.3
		c-7.9-12.8-19.9-24.3-35.1-27.2c-0.6-0.1-1.1,0.1-1.4,0.5c1.3-6.3,3.7-12.4,5.8-18.5c1.3-3.9,2.9-8.3,2.9-12.4
		c0-1.8-0.9-2.8-2.1-3.4l0,0c-0.7-1.9-3.8-1.8-5.5-2c-3-0.3-6-0.3-9-0.1c-5.7,0.5-11.2,1.9-16.5,4c-7.9,3.2-15.7,8.4-21.4,15
		c-4.5-1.6-9.1-2.7-13.9-3.5c-4.5-0.8-9.6-1.9-14.1-1.6c-1.2,0.1-1.5,1.8-0.3,2.1c4.6,1,9.5,1,14.2,1.9c4.3,0.8,8.6,1.7,12.8,2.6
		c-1.3,1.6-2.4,3.3-3.4,5.1c-0.8,1.3,1.2,2.4,2,1.2c6.2-8.6,13.5-15.5,23.3-19.9c4.7-2.1,9.7-3.6,14.7-4.3c2.7-0.4,5.3-0.6,8-0.6
		c0.2,0,0.7,0,1.4,0.1c-6.7,1.9-12.9,7.4-17.4,12.4c-5.2,5.8-9.2,12.6-11.8,19.9c-2.5,7.1-4,15.4-2.7,22.9c0.2,1.2,2,0.8,2-0.3
		c0.1-4.2,0-8.2,0.6-12.4c0.6-3.8,1.6-7.6,3-11.3c2.6-6.7,6.5-13,11.5-18.2c4.7-5,12.2-11.6,19.5-11.3c2,0.1,2.6,1.1,2.4,3
		c-0.2,1-0.4,2.1-0.6,3.1c-0.4,1.8-0.9,3.6-1.5,5.4c-1.2,3.7-2.6,7.3-3.8,11c-2.4,7-4.3,14.1-2.6,21.4c0.2,0.9,1.8,0.7,1.7-0.2
		c-0.3-3.3-0.1-6.6,0.4-9.8c0.1,0.3,0.4,0.6,0.9,0.7c9.2,1.9,17.3,6.7,23.8,13.4c13,13.2,18.7,31.1,24.1,48.4
		c1.5,4.7,2.9,9.4,4.5,14c1.4,4.1,2.8,8.3,5.1,12.1c1.9,3.3,4.6,6.2,8.2,7.6c1.2,0.5,2.6,0.8,4,0.9c-3.8,5.2-4.2,15.1-4.4,20
		c-0.3,5.1-0.1,10.2,0.6,15.3c0.6,4.4,1.1,9.3,4,12.9c0.5,0.6,1.1,1.2,1.7,1.7c-1,0.2-1.9,0.5-2.7,0.7c-3.4,1-6.7,2.5-9.8,4.2
		c-5.8,3.1-11.2,6.9-17,10c-6.2,3.3-12.9,5.8-19.7,7.5c-13.7,3.4-27.7,3.2-41.4,0.2c-0.5-0.1-0.9,0-1.2,0.3
		c-0.8-2.2-1.7-4.4-2.7-6.6c-0.4-0.9-1.8-0.2-1.5,0.7c3.2,10.7,5.6,21.5,5.5,32.7c0,2.2,0.1,4.7-0.7,6.8c-0.8,2.3-2.9,3.2-5.1,3.6
		c-4.9,1-10,1.5-15,1.8c-10.3,0.7-20.7,0.3-31-1.2c-4-0.6-9.8-0.8-12.6-4c-3-3.4-2.8-9.3-2.7-13.5c0.1-9.5,2.5-18.9,6.8-27.4
		c0.8-1.6-1.6-3.1-2.5-1.4c-1.1,2.1-2,4.2-2.9,6.4c-7.3,2.2-14.6,3.7-22.2,3.8c-4.1,0-8.1-0.3-12.1-1c-3.8-0.7-7.5-2.2-11.3-2.9
		c-0.4-0.1-0.7,0-1,0.2c-0.7-1.8-1.5-3.6-2.4-5.4c-0.5-1.1-2.2-0.3-1.9,0.8c1.4,5.1,3.1,10.1,4.4,15.2s2.3,10.2,3,15.4
		c0.6,4.6,1.3,9.5-4,11.2c-4.3,1.4-9.2,1.4-13.6,1.9c-9.6,1-19.3,1.7-29,1.3c-4.6-0.2-9.8-0.1-14.2-1.7c-5.2-1.8-3.1-8.9-2.5-13
		c1.4-9.4,3.8-18.5,7.2-27.3c0.7-1.7-2.1-2.4-2.7-0.8c-2.3,5.9-4.1,11.9-5.5,18C-529.2,358-530.4,364.2-530.5,370.2z M-265.7,306.3
		c-1.7-7.5-1.9-15.5-1.3-23.1c0.4-5.6,0.8-18.8,9-18.6c0.1,0,0.3,0,0.4,0c6.7,2.7,7.6,14.3,8.1,20.4c0.6,7.4,0.6,15.7-1.7,22.9
		c-1.1,3.4-3.9,7.5-8,6.7C-263.2,313.8-264.9,309.8-265.7,306.3z"/>
	<path class="st0" d="M-501.4,172.3c0.2,0.4,0.6,0.6,1.1,0.6c3.8-0.4,7.7-1.8,11.5-2.6c4.2-0.9,8.4-1.6,12.6-2.1
		c8-1,16-1.5,24.1-1.4c8.2,0.1,16.4,0.8,24.5,2.1s16,3.5,23.9,5.5c1.1,0.3,1.7-0.7,1.5-1.5c1.2-2.3,2.2-4.7,3.1-7.1
		c0.7-1.8,1.8-4.1,1-6c-0.7-1.6-2.4-2.3-4-2.7c-2.5-0.7-5.1-1.2-7.8-1.3c-0.5-3.1-1.4-6.1-2.6-9c-0.5-1.1-1-2.2-1.5-3.3
		c-2.9-7.1-8.7-13.2-15.1-17.2c-4.5-2.9-9.6-4.7-14.7-5.6c-0.1-0.1-0.2-0.1-0.3-0.1c-0.2-0.1-0.3,0-0.4,0c-9.8-1.4-20,0.8-28.5,6.4
		c-10.2,6.7-16.4,18-17.6,29.9c-0.4-0.6-1.1-1-1.9-0.6c-0.2,0.1-1.2-0.3-1.5-0.3c-0.5,0-1,0-1.5,0.2c-1.1,0.5-1.5,1.5-1.9,2.6
		c-1.7,4.1-3.6,8.2-4.7,12.5C-502.5,171.7-502,172.2-501.4,172.3z M-480.4,137.1c0.8,0.5,1.6,1,2.4,1.4s1.6,0.9,2.3,1.3
		c-0.9,1.4-1.6,2.8-2.3,4.3c-0.7-0.3-1.4-0.7-2.1-1.1c-1-0.6-2-1.3-3.1-1.9C-482.3,139.7-481.4,138.4-480.4,137.1z M-475,131.6
		c0.7,1.2,2,2.1,3,2.9c0.1,0.1,0.2,0.1,0.3,0.1c-1.2,1.3-2.3,2.7-3.3,4.2c-0.8-0.5-1.5-1-2.3-1.5c-0.7-0.5-1.5-1-2.3-1.4
		c1.4-1.7,2.9-3.2,4.5-4.6C-475.1,131.5-475.1,131.6-475,131.6z M-470.6,128.2c0.4,0.4,0.8,0.8,1.1,1.2c0.5,0.5,1,1.1,1.6,1.6
		c-1.2,0.9-2.3,2-3.3,3.1c0-0.1-0.1-0.1-0.1-0.2c-0.9-1-1.8-2.3-2.9-3l0,0C-473.2,129.9-471.9,129.1-470.6,128.2z M-463.4,126
		c0.4,0.4,0.8,0.9,1.2,1.3c-1.8,0.9-3.4,1.9-5,3.1c-0.5-0.6-1-1.2-1.6-1.8c-0.3-0.3-0.6-0.7-0.9-1c1.7-1,3.5-1.9,5.4-2.6
		C-464,125.3-463.7,125.7-463.4,126z M-458.1,123.8c0.4,0.5,0.8,0.9,1.2,1.4l0,0c-1.6,0.5-3.1,1-4.5,1.7c0,0,0-0.1-0.1-0.1
		c-0.4-0.5-0.8-1-1.2-1.5c-0.2-0.2-0.3-0.4-0.5-0.7c1.5-0.5,3.1-1,4.6-1.4C-458.4,123.4-458.2,123.6-458.1,123.8z M-450.8,123.9
		c-1.7,0.2-3.3,0.5-5,0.9h-0.1c0.1-0.2,0.1-0.3-0.1-0.5c-0.4-0.5-0.7-1-1.1-1.4c0,0,0,0,0-0.1c1.7-0.3,3.5-0.5,5.3-0.6
		C-451.5,122.9-451.2,123.4-450.8,123.9z M-447.5,122.3c1.2,0.1,2.3,0.2,3.4,0.4v0.1c0.1,0.3,0.1,0.6,0.1,1c-1.9-0.1-3.8-0.1-5.7,0
		c-0.3-0.5-0.6-1-1-1.5C-449.6,122.3-448.5,122.3-447.5,122.3z M-433.8,126.1c-2.9-1.1-6-1.9-9.2-2.2c0.1-0.3,0.1-0.6,0.1-0.9
		C-439.7,123.6-436.7,124.6-433.8,126.1z M-410.5,169.5c0.3-0.5,0.4-0.9,0.5-1c0.6-2.2,0.6-4.7,0.6-7c0-1-0.1-2-0.2-2.9
		c1.8,0.2,3.6,0.5,5.3,0.9c1.9,0.5,3.7,0.7,3.3,3c-0.5,3.1-2,6.1-2.9,9.2C-406.1,170.8-408.3,170.1-410.5,169.5z M-472.9,140.6
		c9.4-14.3,29-18,43.6-9.5c7,4.1,12.2,10.8,14.9,18.4c1.3,3.6,2.1,7.4,2.3,11.3c0.1,2.1,0,4.2-0.2,6.3c-0.1,0.7-0.2,1.3-0.1,1.9
		c-12.9-3.5-26.7-4.9-39.8-5.1c-8.3-0.1-16.7,0.4-24.9,1.5c-0.6,0.1-1.2,0.2-1.8,0.3C-479.7,156.9-477.7,147.9-472.9,140.6z
		 M-479.7,148.1c-1.8-0.7-3.9-1.7-5.9-1.8c0,0,0,0-0.1,0c0.5-1.3,1.1-2.6,1.8-3.8c0,0,0,0,0-0.1c1.5,1.2,3.5,2.2,5.4,2.9
		C-478.9,146.2-479.2,147.1-479.7,148.1C-479.6,148.1-479.6,148.1-479.7,148.1z M-480.9,152.8c-1.2-0.1-2.5-0.3-3.7-0.4
		c-0.9-0.1-1.9-0.3-2.9-0.2c0.4-1.7,0.9-3.4,1.5-5.1l0.1,0.1c1.7,1,4,1.3,5.9,1.8c0,0,0,0,0.1,0
		C-480.3,150.2-480.6,151.5-480.9,152.8z M-481.7,157.1c-2.1-0.1-4.4-0.4-6.5-0.2c0.1-1.1,0.3-2.3,0.5-3.4c1,0.3,2.1,0.2,3.1,0.3
		c1.2,0.1,2.3,0.1,3.5,0.2C-481.3,154.9-481.5,156-481.7,157.1L-481.7,157.1z M-488,166.7c-0.2-1.1-0.3-2.2-0.4-3.3
		c1.9,0.5,4.3,0.3,6.4,0.1c0,0.9,0.1,1.7,0.1,2.6c-2.1,0.3-4.1,0.7-6.2,1.1C-487.9,167-487.9,166.8-488,166.7z M-488.3,158.3
		c2.2,0.1,4.5-0.1,6.6-0.2c-0.1,1.4-0.2,2.8-0.2,4.2c-1.1,0-2.1,0-3.2-0.1c-1.1,0-2.2-0.3-3.3-0.2
		C-488.4,160.8-488.4,159.5-488.3,158.3z M-499.5,169.9c1.4-2.6,2.5-5.3,3.6-8c0.3-0.6,0.6-2,1.1-2.5c0.6-0.7,0.4-0.5,1.3-0.5
		c0.9,0.1,1.4,0.2,2.3-0.2c0.2-0.1,0.3-0.2,0.4-0.3c-0.2,3-0.1,6,0.4,9c0,0.1,0,0.2,0.1,0.3C-493.4,168.2-496.7,168.8-499.5,169.9z"
		/>
	<path class="st0" d="M-510.8,103.3c10.5,10.8,25.9,12.9,40.3,11.5c0.6,0.1,1.2,0.1,1.7,0.2c0.2,0,0.4,0,0.6-0.1
		c9,0.2,17.9-4,24.6-9.7c8.1-6.9,13.4-16.9,15.3-27.3c1-5.2,1.3-10.6,0.5-15.9c0.1-0.1,0.1-0.2,0.1-0.4
		c-1.9-15.9-13.6-28.3-28.1-33.9c-0.1-0.1-0.1-0.2-0.2-0.3c-0.2-0.2-0.4-0.2-0.6,0c-0.5-0.2-1-0.4-1.6-0.5
		c-14-4.5-30.3-3.2-43.3,3.4c-0.2-0.1-0.6,0.1-0.6,0.3c-11.6,6.1-20.4,16.5-22.2,30.9c-0.4,0.1-0.4,0.6-0.1,0.9
		C-525.9,76.9-521,92.8-510.8,103.3z M-520.6,54.6c2.1,1.8,5,3.1,7.7,3.7c-0.5,1.6-1,3.2-1.4,4.8c-2.6-0.5-5.3-1.3-7.9-1.5
		c0.2-1.4,0.5-2.8,0.8-4.2C-521.2,56.5-520.9,55.5-520.6,54.6z M-514.9,43.9c0.9,0.7,2.1,1.1,3.1,1.6c1.4,0.7,2.7,1.3,4.1,1.9
		c0.2,0.1,0.3,0.1,0.4,0c-1.1,1.5-2.1,3.1-3,4.8c-1.1-0.5-2.1-1-3.1-1.6c-1.1-0.7-2.2-1.6-3.4-2.1c-0.4-0.2-0.8,0.3-0.5,0.6
		c1.5,1.8,4.3,2.9,6.6,3.7c-0.8,1.5-1.4,3-2,4.5c-1.4-0.5-2.9-1.1-4.2-1.9c-1.2-0.7-2.2-1.6-3.3-2.4
		C-518.8,49.8-517.1,46.7-514.9,43.9z M-510.8,39.3c0.9,0.9,2,1.6,3,2.4c1,0.8,2.1,1.6,3.1,2.4c-0.8,1-1.6,1.9-2.4,3
		c0-0.2,0-0.3-0.2-0.4c-1.3-0.7-2.7-1.5-4-2.2c-0.9-0.5-1.9-1.1-2.9-1.5C-513.1,41.6-512,40.4-510.8,39.3z M-506.4,35.7
		c0.8,0.8,1.8,1.5,2.6,2.3c1,0.8,2,1.6,2.9,2.3c-0.3,0.3-0.6,0.6-0.9,0.8c-0.8,0.7-1.5,1.5-2.3,2.3c-1.1-0.9-2.2-1.9-3.3-2.8
		c-0.8-0.7-1.6-1.5-2.6-2.1C-508.8,37.5-507.6,36.5-506.4,35.7z M-501.2,32.4c0.5,0.6,1,1.1,1.4,1.7c0.9,1.1,1.9,2.1,2.9,3.1
		c-1.1,0.8-2.2,1.6-3.3,2.5c-0.9-0.8-1.9-1.7-2.8-2.5c-0.8-0.7-1.6-1.5-2.5-2.1C-504.1,34-502.6,33.2-501.2,32.4z M-496,30
		c0.6,0.6,1.3,1.1,1.8,1.7c0.7,0.8,1.4,1.6,2,2.5c-1.3,0.7-2.7,1.5-3.9,2.3c-0.9-1-1.8-2.1-2.7-3.1c-0.4-0.5-0.8-1.1-1.3-1.6
		C-498.7,31.1-497.4,30.5-496,30z M-487.2,29.6c0.6,0.6,1.2,1.2,1.8,1.8c-2,0.7-4,1.5-5.9,2.5c-0.5-1-1.2-1.9-1.9-2.7
		c-0.4-0.5-0.9-1.1-1.5-1.6c1.9-0.7,3.8-1.3,5.7-1.7C-488.5,28.4-487.8,29-487.2,29.6z M-474.1,29.2c-1.5,0.1-3,0.3-4.4,0.5
		c-0.6-1-1.2-2.1-1.9-3c-0.3-0.4-0.9,0.1-0.7,0.5c0.4,0.9,1,1.8,1.6,2.6c-1.6,0.3-3.2,0.7-4.7,1.2c-0.7-0.7-1.4-1.5-2.1-2.2
		c-0.4-0.4-0.8-0.9-1.3-1.3c3.8-0.8,7.6-1.3,11.5-1.3c-0.1,0.1-0.1,0.3,0,0.5C-475.5,27.5-474.7,28.3-474.1,29.2z M-468.4,26.6
		c0.6,1,1.4,1.8,2.1,2.7c-2.2-0.2-4.4-0.3-6.6-0.2c-0.7-1.2-1.5-2.3-2.6-2.9C-473.1,26.1-470.8,26.3-468.4,26.6z M-461,30.2
		c-1.3-0.3-2.7-0.5-4-0.7c-0.6-0.9-1.2-1.8-1.9-2.6c1.7,0.3,3.3,0.6,4.9,1C-461.7,28.6-461.3,29.4-461,30.2z M-454.2,32.3
		c-1.9-0.8-3.9-1.4-5.9-1.9c-0.1-0.8-0.3-1.5-0.6-2.2c1.7,0.5,3.3,1,4.9,1.7C-455.3,30.7-454.7,31.5-454.2,32.3z M-448.9,34.7
		c-1.4-0.7-2.8-1.4-4.2-2c0-0.1,0-0.2,0-0.3c-0.3-0.6-0.6-1.2-1-1.9c0.2,0.1,0.3,0.1,0.5,0.2c1.2,0.5,2.3,1.1,3.5,1.8
		c0.3,0.3,0.5,0.6,0.7,1C-449.2,33.9-449,34.3-448.9,34.7z M-437.1,43.6c-3.1-3.3-6.8-6.1-10.8-8.3c0-0.5-0.1-1-0.2-1.5
		C-443.9,36.4-440.2,39.8-437.1,43.6z M-497.7,102.6c-7.1-5.4-11.8-13.4-13.8-22c-3.6-15.7,3-31.7,16-41
		c13.5-9.7,31.3-10.1,45.7-2.2c7.5,4.1,14.6,10.6,17.7,18.8c3.2,8.5,2.3,18.7-0.4,27.2c-2.7,8.4-7.8,16.2-14.9,21.5
		c-6.3,4.7-13.5,7-21.1,7.9c-0.1,0-0.2-0.1-0.3-0.1C-479,111.3-489.4,108.9-497.7,102.6z M-479.6,113.4c-3.3-0.1-6.5-0.3-9.7-0.9
		c0.8-0.3,1.6-0.8,2.4-1.2C-484.5,112.2-482,112.9-479.6,113.4z M-495.7,110.9c1.4-0.4,2.8-0.9,4.2-1.4c1.2,0.5,2.3,1,3.5,1.5
		c-1,0.5-2.1,0.9-3.2,1.2c-0.9-0.2-1.7-0.4-2.6-0.7C-494.4,111.3-495.1,111.1-495.7,110.9z M-502.2,107.7c1.5-0.6,3-1.3,4.7-1.6
		c0.1,0.1,0.3,0.2,0.4,0.3c1.4,1,2.9,1.8,4.5,2.6c-1.6,0.4-3.2,0.7-4.7,1.3C-499,109.5-500.7,108.7-502.2,107.7z M-508,103.1
		c1.7-0.5,3.3-1.1,4.9-1.7c1.4,1.4,3,2.8,4.6,4c-1.6,0.3-3.3,0.8-4.7,1.6C-504.9,105.9-506.5,104.6-508,103.1z M-512.1,98.6
		c1.7-0.2,3.6-0.9,5.2-1.5c1,1.3,2,2.5,3.1,3.7c-1.7,0.5-3.5,0.9-5.1,1.5C-510,101.2-511.1,99.9-512.1,98.6z M-516.3,92.3
		c0.9-0.1,1.8-0.4,2.7-0.6c1-0.2,1.9-0.4,2.9-0.7c1,1.9,2.1,3.7,3.3,5.4c-1.8,0.3-3.8,0.6-5.4,1.3C-514.1,96-515.2,94.2-516.3,92.3z
		 M-522.5,70.5c2.4,0.2,5-0.2,7.3-0.6c-0.3,5.8,0.6,11.7,2.8,17.3c0.4,1,0.9,2.1,1.4,3.1c-0.7,0.1-1.5,0.2-2.2,0.4
		c-1.2,0.2-2.4,0.3-3.5,0.7c-0.9-1.7-1.7-3.5-2.4-5.4c1.9,0,3.9-0.5,5.7-0.8c0.4-0.1,0.3-0.8-0.1-0.7c-1.9,0.1-4.1,0-5.9,0.5
		c-0.8-2.3-1.5-4.8-2-7.2c0.9,0.1,1.8-0.1,2.7-0.3c1-0.1,2-0.2,3-0.5c0.3-0.1,0.3-0.6,0-0.6c-1-0.1-2,0-3,0s-2,0-2.9,0.3
		C-522.2,74.7-522.4,72.6-522.5,70.5z M-522.4,63.1c2.5,0.6,5.4,0.7,7.9,1c-0.3,1.6-0.5,3.3-0.7,5c-2.5,0.3-5,0.1-7.5,0.1
		C-522.7,67.2-522.6,65.1-522.4,63.1z"/>
	<path class="st0" d="M-361.4,181.3c3.5-9.8,6.2-19.9,12.4-28.5c1.6-2.3,5.1-8,8.5-6.9c4,1.2,0.1,8.2-0.9,10.4
		c-0.2,0.5-1,0.1-0.8-0.3c0.6-1.7,1.7-4.1,1.7-6c0.5-1.2,0-2-1.7-2.4c-0.5,0.3-0.9,0.7-1.3,1.1c-0.6,0.5-1.1,1.1-1.6,1.7
		c-2.6,3-4.7,6.3-6.5,9.8c-3.1,6-5.4,12.5-7.2,19c3.8-2.2,8.1-3.4,12.5-3.3c1.3,0,1.3,2,0,2.1c-5,0.3-9.4,1.5-13.6,4.4
		C-360.6,182.9-361.7,182.1-361.4,181.3z"/>
	<path class="st0" d="M-623.9,241.1c9,7.2,21.4,9.1,32.5,6.6c-0.4,5.1-0.5,10.3-0.2,15.4c1,18.3,7.2,36.2,18.7,50.6
		c11.3,14.2,28.4,25.1,47,24.5c1.7-0.1,1.7-2.8,0-2.7c-20.6,0.6-38.8-13.3-49.5-30c-10-15.6-14.2-34.1-13.5-52.5
		c0.8-19.2,6.5-39,17-55.2c17.8-27.8,48.7-43.9,80.6-49.9c1.1-0.2,0.8-2-0.3-1.9c-18.9,2.5-37.3,9.6-53,20.4
		c-14,9.5-25.9,22.1-33.8,37.1c-5.4,10.4-9.3,21.8-11.5,33.5c-1.3-0.4-2.5,0-3.9,0.1c-1.4,0.2-2.8,0.2-4.3,0.2
		c-3.1-0.1-6.1-0.6-9-1.5c-5.4-1.6-11-4.4-14-9.4c-1.4-2.3-2.1-4.9-1.9-7.4c5.9,7.2,19,5.8,22.7-3c1.7-4,1.4-8.8-0.8-12.6
		c-2.4-4.3-7.1-6.4-11.9-6.6c-3.4-0.1-6.6,0.7-9.5,2.2c-4-6.5-0.6-13.7,3.7-19.2c0.6-0.8-0.2-2-1.1-1.9c-6.5,0.1-11.3,6.2-13.3,11.9
		c-1,2.9-1.5,6.1-1.2,9.2c0.2,2.6,0.7,6.8,2.8,8.6l0,0c-1.1,1.8-2,3.8-2.5,5.8C-637,223.5-631.9,234.6-623.9,241.1z M-624.5,200
		c-2.2,1.4-4.1,3.2-5.7,5.3c-0.5-1.9-1.4-3.8-1.7-5.8c-0.3-2.5-0.1-5.1,0.6-7.5c1.1-4.3,4.1-9.4,8.4-11.1
		C-626.6,186.7-628.9,194.1-624.5,200z M-632.1,215.6c1.4-8.2,8.6-15.6,17.1-16.3c4.4-0.3,9.1,1.1,11.5,5.1
		c1.9,3.1,2.2,7.3,0.7,10.6c-3.5,8-14.3,7.2-19.4,1.5c-0.1-0.1-0.2-0.2-0.3-0.2c0.6-1.8,1.6-3.4,3.1-4.8c0.3-0.3,0.7-0.6,1.2-0.9
		c-0.2,0.4-0.2,0.9,0.2,1.3c2.2,1.9,4.9,3.7,7.8,2.3c2.1-1,3.1-3.5,1.7-5.6c-3.1-4.7-10.5-1.1-13.4,1.9c-4.1,4.2-4.7,10.3-2.3,15.5
		c2.8,6,8.7,9.6,14.7,11.7c3.5,1.2,7.2,1.9,10.9,2.1c2.3,0.1,6.1,0.3,8.3-1.1c-0.4,2.4-0.7,4.7-1,7.1c-10.6,1.3-22.2,0.3-30.8-6.6
		C-628.9,233.7-633.6,224.6-632.1,215.6z M-611.8,209c1.1,0.3,2.1,1.6,1.1,2.6c-0.6,0.6-1.5,0.7-2.4,0.5c-1.3-0.3-2.4-1.2-3.5-2
		c-0.1-0.1-0.3-0.2-0.4-0.2C-615.3,209-613.4,208.5-611.8,209z"/>
	<path class="st0" d="M-318.1,228.8c0.9-3.3,3.6-6.3,7.2-6.5c9.1-0.4,9.3,12.6,7.1,18.5c-0.4,1-1.7,0.6-1.6-0.4
		c0.5-3.2,0.8-6.5,0-9.7c-0.7-2.7-2.8-6.3-6.1-5.4c-6.9,1.7-3.3,12.2-2.7,16.8c0.2,1.6-2.3,1.8-2.7,0.4
		C-318,238.3-319.3,233.1-318.1,228.8z"/>
	<path class="st0" d="M-329.8,305.9c6.6,9.6,17.1,15.3,28.8,15.7c1.2,0,1.2,1.8,0,1.9c-12.1,0.6-24.3-6.1-30.5-16.6
		C-332.1,305.8-330.5,304.9-329.8,305.9z"/>
	<path class="st0" d="M-335,302.5c2.1-1.9,4.9-2.4,7.5-1.6c1,0.3,0.6,1.8-0.4,1.6c-2-0.4-4.2,0.2-5.7,1.7c-0.6,0.7-1.1,1.5-1.3,2.4
		c-0.2,0.9-0.1,1.9-0.4,2.8c-0.3,0.8-1.3,1-1.8,0.2C-338.5,307.5-336.7,304-335,302.5z"/>
</g>
<g class="st1">
	<path d="M-476.3,67l2,0.4c2.8,0.6,4.1,1.2,4,1.7c-0.1,0.4-0.3,0.7-0.6,0.8c-1-0.1-2.9-0.4-5.7-0.9l-0.4,2.6c2.9,0.6,4.8,0.9,5.8,1
		c0.2,0.3,0.3,0.6,0.2,1c-0.2,1-1.9,1.1-5.1,0.4l-1.2-0.3c-1.2,9.1-1.5,14.2-1.1,15.3c0.6,1.5,1.9,2.5,3.8,2.9s3.5,0.1,4.7-0.9
		c0.7,0.1,1.4,0.2,2,0.1l0.6,1c-0.4,2.1-1.9,3.3-4.5,3.7c-1.3,0.2-2.5,0.1-3.7-0.1c-1.2-0.3-2.2-0.6-2.9-1.1c-0.7-0.4-1.3-1-1.8-1.5
		s-0.8-1.3-1.1-2.1c-0.3-0.8-0.5-1.6-0.7-2.4c-0.1-0.8-0.2-1.7-0.2-2.7s0-2,0-2.8c0.1-0.8,0.1-1.8,0.3-2.9c0.1-1.1,0.3-2,0.4-2.7
		c0.4-2.2,0.6-3.7,0.8-4.6l-2.4-0.6c-0.2-0.3-0.3-0.6-0.2-1c0.2-0.7,1-1,2.4-0.7l0.5,0.1l0.4-2.6l-2.2-0.5c-0.4-0.2-0.5-0.6-0.4-1
		s0.2-0.7,0.4-0.8c0.2-0.2,0.6-0.2,1.2-0.1l1.4,0.3l1-4.9c0.5-2.2,1-4.1,1.6-5.6c0-0.7,0.1-1.3,0.2-1.9c0.5-2.5,1.9-4.4,4.1-5.5
		s4.7-1.4,7.5-0.8c1,0.2,1.9,0.7,2.7,1.4c0.8,0.8,1.1,1.6,1,2.5c-0.1,0.4-0.3,0.7-0.7,0.9s-0.8,0.2-1.2,0.1c-0.4-0.1-1-0.4-1.6-0.8
		c-0.6-0.4-1.2-0.7-1.7-0.8s-1.1-0.1-1.8-0.1c-0.7,0.1-1.3,0.2-1.8,0.4s-0.9,0.5-1.3,1c-0.4,0.4-0.7,0.9-1,1.3
		c-0.2,0.4-0.5,1-0.7,1.7c-0.4,1.1-0.8,2.8-1.3,5.1C-475.1,62.8-475.7,65-476.3,67z"/>
</g>
<g>
	<path d="M-446.4,164.7c0.8,0,1.5,0.1,2.4,0.2c-0.1-0.3-0.3-0.5-0.6-0.7C-445,164.3-445.6,164.4-446.4,164.7z"/>
	<path d="M-456.8,151.4c0.1,1.6,0.4,3.6,0.9,5.7l1.2,4.8l-1.3,0.3c-0.6,0.1-0.9,0.3-1.1,0.6c-0.1,0.2-0.1,0.5,0,0.9
		c0.1,0.5,0.4,0.7,0.8,0.8l2.2-0.5l0.2,0.7c1-0.1,2.1-0.1,3.3-0.2l-0.4-1.4c2.7-0.7,4.6-1.3,5.6-1.7c0.2-0.3,0.3-0.7,0.2-1
		c-0.1-0.6-1.6-0.5-4.3,0.1l-1.9,0.5c-0.3-2.1-0.7-4.3-1.2-6.6c-0.6-2.3-0.9-4-1.1-5.2c-0.1-0.7-0.1-1.3-0.1-1.8s0.2-1,0.3-1.6
		c0.2-0.6,0.4-1.1,0.8-1.5c0.3-0.4,0.8-0.8,1.4-1.1s1.2-0.6,1.7-0.7c0.5-0.1,1.2-0.1,1.9,0c0.8,0.1,1.4,0.1,1.8,0s0.8-0.3,1.1-0.6
		c0.3-0.3,0.4-0.7,0.3-1.1c-0.2-0.9-0.9-1.5-1.9-1.8c-1.1-0.3-2.1-0.4-3.1-0.1c-2.8,0.7-4.9,2-6.4,3.9c-1.5,2-2,4.2-1.4,6.7
		C-457.3,150.1-457.1,150.7-456.8,151.4z"/>
</g>
<path d="M-76.7,178c-2.7,0.2-5.4,0.4-8.7,0.6c0,3.2-0.1,6.4,0,9.6c0.4,8.3,1.5,16.4,4.7,24.2c1.1,2.6,2.5,5.2,3.7,7.7
	c0.6,1.3,1.4,2.5,1.8,3.9c0.2,0.7,0,2.1-0.5,2.3c-0.6,0.3-1.8,0-2.5-0.3c-0.8-0.4-1.4-1.2-2.4-2.2c0.4,1,0.7,1.6,0.9,2.2
	c0.5,1.1-0.1,1.8-1.2,1.8c-3,0.1-5.8-0.8-8-2.6c-1-0.8-1.5-2.7-1.7-4.2c-1.9-9.8-3.7-19.7-5.3-29.5c-0.7-4.1-0.8-8.2-1-12.4
	c-0.1-0.8-0.2-1.4-1.1-1.5c-0.3,0-0.5-0.1-0.8-0.2c-1.5-0.7-2.4-0.4-2.9,1.4c-0.4,1.4-1.3,2.8-2.2,4c-1.4,1.9-1.7,4-1.2,6.2
	c1.2,6.1,2.8,12,5.9,17.4c0.7,1.3,1.4,2.6,1.8,4c0.2,0.7,0,2-0.5,2.3s-1.7,0-2.3-0.4c-0.6-0.4-1-1.2-1.5-1.8
	c-0.3,0.4-0.3,0.5-0.3,0.5c0.1,0.9,0.2,1.7,0.3,2.6c-0.9,0-1.8,0.1-2.7,0.1c-0.2,0-0.4-0.1-0.6-0.1c-3.6-1-6.2-2.6-6.4-7.1
	c-0.3-7.1-1.9-14-4.2-20.8c-0.6-1.6,0.1-3,0.8-4.4c1.3-2.6,2.6-5.2,3.8-7.8c0.2-0.4,0-1.2-0.3-1.4c-1.7-1.2-3.5-2.2-5.4-3.4
	c-0.9,7-4.4,12.6-9.1,17.5c-1.7,1.8-1.1,4-0.8,6c1,7.1,3,14,6.4,20.3c0.6,1.1,1.1,2.2,1.4,3.3c0.2,0.6-0.1,1.9-0.4,2
	c-0.8,0.2-1.8,0.2-2.6-0.2c-0.9-0.4-1.5-1.3-2.3-2c0.3,0.7,0.6,1.3,0.8,1.9c0.3,1.2-0.4,2.2-1.5,1.8c-2.4-0.8-4.8-1.7-7-2.9
	c-0.8-0.5-1.3-2-1.5-3.1c-1.2-7.9-2.2-15.9-3.5-23.8c-0.4-2.6-0.1-4.9,1.1-7.1c3.1-6.2,2.7-12.6,1.2-19s-2.6-12.9-2.1-19.5
	c0.3-3.8,1-7.6,1.6-11.4c-0.9-0.1-2.1-0.2-3.2-0.5c-4.6-1.4-7.1-6.9-5.1-11.2c0.9-1.9,2.8-3.1,4.9-3.1c1.8,0,2.9,0.9,3.5,2.5
	c0.1,0.3,0.3,0.8,0.2,1.1c-0.2,0.5-0.5,1.3-0.8,1.3c-0.4,0.1-1.1-0.4-1.4-0.8c-0.5-0.8-0.7-2.1-1.8-1.6c-1,0.4-2.1,1.3-2.4,2.2
	c-1.3,3.8,1.8,7.7,5.8,7.7c1.2,0,1.7-0.4,2.2-1.5c3.2-7.8,8.4-14,15.7-18.2c6.4-3.7,13.2-4.4,20.4-3.4c7.8,1.2,15,4.1,21.6,7.9
	c2.9-2.1,5.5-4.3,8.5-6c10.8-6.1,21.2-4.9,31.2,1.8c0.6,0.4,1.2,1,1.9,0.9c4-0.1,7.1,1.9,10,4.3c8.8,7.5,14.2,17,16.5,28.2
	c0.6,2.9-1.1,4.8-4.2,5c-3.7,0.2-6.9-1.3-9.9-3.1c-0.5-0.3-0.9-0.6-1.6-1.1c-0.5,4.9-1.3,9.6,1.6,14c0.4,0.6,1,1.2,1.6,1.6
	c4.3,3.4,5.3,8,4.3,13.1c-0.8,4.3-3,7.8-7.5,9.3c-0.8,0.3-1.7,0.6-2.6,0.4c-4-0.5-7.8,0.1-11.6,1.2c-6.9,2-12.7-0.1-17.6-5
	c-2.9-2.8-5.9-5.5-10.4-6.5c-0.2,2.9-0.7,5.7-0.6,8.6c0.2,8.5,1.8,16.8,5.6,24.6c1.3,2.7,3.1,5.2,4.7,7.8c0.7,1.2,1.4,2.5,1.9,3.8
	c0.2,0.5-0.1,1.5-0.5,1.9c-0.3,0.3-1.3,0.2-1.8,0c-1-0.6-1.9-1.4-3-2.3c0.4,0.8,0.8,1.5,1,2.2c0.3,1.1-0.2,2-1.3,1.7
	c-2.6-0.7-5.1-1.6-7.6-2.6c-0.5-0.2-0.8-1-1-1.6c-2.2-8-4.6-15.9-6.5-24C-75.6,188.5-75.9,183.3-76.7,178z M-82.1,122.1
	c0.1-0.2,0.2-0.3,0.3-0.5c1.6-1.5,3.3-2.9,5.1-4.5c-6.3-3.5-12.4-6.1-19.1-7.4c-6.9-1.3-13.7-0.9-19.9,2.5
	c-11.8,6.5-17.3,17.1-18.8,30.1c-0.8,6.8,0.3,13.4,1.9,20c1.9,7.9,2.2,15.7-2,23.1c-0.3,0.5-0.5,1.3-0.4,1.9
	c1.1,7.6,2.3,15.1,3.4,22.9c2.2-0.3,4.5-0.7,6.4-1c-1.3-5.6-2.7-11.1-3.9-16.7c-0.6-2.9-0.6-5.8,2-8.2c1.7-1.5,2.9-3.6,4.2-5.5
	c3.4-5.1,4.1-10.8,4-16.7c0-4.3-0.4-8.6-0.5-12.9c0-0.8,0.4-1.6,0.6-2.4c0.2,0,0.5,0,0.7,0c0.2,0.8,0.5,1.5,0.6,2.3
	c0.3,5,0.4,10,0.7,15c0.1,0.9,0.4,2.1,1.1,2.5c2.4,1.8,4.8,3.5,7.4,4.8c3.5,1.7,7.1,2.9,10.6,4.3c0.8-1.5,1.3-2.5,1.9-3.5
	c0.3,0.1,0.5,0.1,0.8,0.2c-0.4,15.8,3.2,31,6,46.3c1.3-0.3,2.5-0.6,3.7-0.9c1.2-0.3,2.4-0.5,3.6-0.8c-6.3-15.1-8-30.4-4.6-46.5
	c3,1.5,1.1,3.8,1.4,5.8c5.6-0.5,11.3-0.4,16.2-4.4c-6.2-3.4-10.3-8.3-12.4-14.9c-0.7,0.4-1.2,0.8-1.7,1.1c-2.7,1.6-4.2,1.3-6.2-1.1
	c-0.4-0.4-0.7-0.9-1-1.3c-3.5-7.3-4.7-14.7-1.2-22.4C-88.7,128.9-85.4,125.5-82.1,122.1z M-24.5,159.4c-0.4-1.4-0.9-2.7-1.2-4
	c-0.9-4-0.2-8,0.4-12c1.4-9.3-0.5-17.8-6.6-25.2c-4.7-5.7-10.7-9.3-18-10.4c-7.1-1-13.4,1.1-19,5.3c-6.2,4.7-11.5,10.3-16.6,16.1
	c-6.4,7.3-6.4,15.6-2.8,24.1c1.7,4,3.3,4.4,6.5,1.5c4.1-3.9,7.2-8.6,9.1-14c1.7-4.7,1.8-9.6,1.7-14.5c0-0.7,0.2-1.4,0.2-2
	c0.2,0,0.4,0,0.6-0.1c0.3,0.8,0.9,1.5,0.9,2.3c0.1,3.2,0.2,6.5-0.2,9.7c-0.8,6.2-3.7,11.6-7.6,16.4c-1.8,2.2-1.7,4.2-0.6,6.5
	c2.8,6,7.5,10,13.7,12.2c3.5,1.2,6.5,3.2,9.2,5.7c1.2,1.2,2.5,2.3,3.8,3.4c0.8,0.6,1.8,1.1,2.6,1.6c-0.2-2-0.6-3.9-0.6-5.7
	c-0.2-7.3,4.6-14,11.5-16.2C-33.2,158.7-28.8,159-24.5,159.4z M-29.6,181.1c4.1,0.5,6.7,0.5,8.8-1.8c3-3.1,3.6-6.9,2.9-10.9
	c-0.6-3.3-2.3-5.8-5.8-6.3c-3.1-0.4-6.4-0.9-9.5-0.6c-7,0.6-14.6,6.4-13.7,16.2c0.5,5.2,2.4,6.6,7.6,5.4c0.1,0,0.2-0.1,0.3-0.1
	C-35.5,182.3-31.9,181.6-29.6,181.1z M-31.5,114.5c1.7,2.5,3.6,4.9,5.1,7.6c3.3,5.9,4.2,12.3,3.7,19c0,0.5,0,1.3,0.4,1.6
	c2.6,2.1,5.5,3.9,9,4.1c3.4,0.2,3.8-0.4,3.1-3.7c-1.7-7.4-5.1-14-9.9-19.9C-23.3,119.6-27,116.3-31.5,114.5z M-74.1,177.7
	c0.2,9.6,4.2,28.9,7.4,35.5c2-0.6,4-1.2,6-1.8c-6.3-11.7-8.5-23.9-7.2-36.7C-69.9,175.7-71.9,176.7-74.1,177.7z M-103.2,204.8
	c-1.2-4-2.4-7.8-3.5-11.7c-1.3-4.6-1.4-9,1.8-13c0.8-1.1,1.2-2.5,1.8-3.8c-2-0.9-3.7-1.6-5.2-2.3c-1.6,3-3.2,6-4.8,8.9
	c-0.6,1-0.6,2-0.3,3.1c1,3.7,2.1,7.4,2.9,11.1c0.6,3,1,6,1.4,9.1C-107,205.7-105,205.2-103.2,204.8z"/>
<path class="st2" d="M-82.1,122.1c-3.3,3.4-6.7,6.7-8.7,11.2c-3.5,7.7-2.3,15.1,1.2,22.4c0.2,0.5,0.6,0.9,1,1.3
	c2,2.4,3.5,2.7,6.2,1.1c0.5-0.3,1-0.6,1.7-1.1c2,6.6,6.1,11.5,12.4,14.9c-4.9,4-10.6,3.9-16.2,4.4c-0.3-1.9,1.7-4.2-1.4-5.8
	c-3.3,16-1.7,31.4,4.6,46.5c-1.2,0.3-2.4,0.5-3.6,0.8s-2.3,0.6-3.7,0.9c-2.8-15.3-6.5-30.5-6-46.3c-0.3-0.1-0.5-0.1-0.8-0.2
	c-0.5,1-1.1,2.1-1.9,3.5c-3.5-1.4-7.1-2.6-10.6-4.3c-2.6-1.3-5.1-3.1-7.4-4.8c-0.6-0.5-1-1.7-1.1-2.5c-0.3-5-0.5-10-0.7-15
	c0-0.8-0.4-1.5-0.6-2.3c-0.2,0-0.5,0-0.7,0c-0.2,0.8-0.6,1.6-0.6,2.4c0.1,4.3,0.5,8.6,0.5,12.9c0.1,5.9-0.6,11.7-4,16.7
	c-1.3,1.9-2.6,3.9-4.2,5.5c-2.6,2.4-2.6,5.3-2,8.2c1.1,5.6,2.6,11.1,3.9,16.7c-1.9,0.3-4.2,0.6-6.4,1c-1.2-7.7-2.3-15.3-3.4-22.9
	c-0.1-0.6,0.1-1.4,0.4-1.9c4.2-7.4,3.9-15.2,2-23.1c-1.6-6.6-2.7-13.2-1.9-20c1.5-13,7-23.6,18.8-30.1c6.2-3.5,13-3.8,19.9-2.5
	c6.6,1.3,12.8,3.9,19.1,7.4c-1.8,1.6-3.4,3.1-5.1,4.5c1.2-1.2,0.9-2.2-0.3-3.1c-0.7-0.6-1.5-1.2-2.3-1.5c-4.5-1.7-9-3.5-13.6-4.9
	c-1.7-0.5-3.7-0.2-5.5,0c-0.8,0.1-1.5,0.9-2.2,1.3c0.7,0.4,1.4,1.1,2.2,1.3c6.9,1.7,13.5,4.1,19.9,7.3
	C-83.2,122.2-82.6,122.1-82.1,122.1z M-99.4,158.5c-1.6,1.8-0.9,9.8,1.1,12.2c0.2-0.3,0.7-0.6,0.7-0.8
	C-98.2,166.2-98.8,162.3-99.4,158.5z M-107.7,157.1c-0.4,0.3-0.7,0.4-0.7,0.6c-0.5,3.9-0.3,7.7,1.4,11.4c0.1,0.2,0.6,0.3,0.9,0.4
	c0.1-0.4,0.3-0.8,0.2-1.1c-0.3-1.4-0.9-2.8-1.1-4.3C-107.2,161.9-107.4,159.7-107.7,157.1z"/>
<path class="st2" d="M-24.5,159.4c-4.4-0.4-8.7-0.6-12.9,0.8c-6.9,2.3-11.7,9-11.5,16.2c0.1,1.8,0.4,3.7,0.6,5.7
	c-0.8-0.5-1.8-0.9-2.6-1.6c-1.3-1.1-2.6-2.2-3.8-3.4c-2.7-2.6-5.7-4.5-9.2-5.7c-6.2-2.2-10.9-6.1-13.7-12.2
	c-1.1-2.3-1.2-4.3,0.6-6.5c3.9-4.8,6.8-10.2,7.6-16.4c0.4-3.2,0.2-6.5,0.2-9.7c0-0.8-0.6-1.6-0.9-2.3c-0.2,0-0.4,0-0.6,0.1
	c-0.1,0.7-0.3,1.4-0.2,2c0.1,4.9,0,9.8-1.7,14.5c-2,5.4-5,10.1-9.1,14c-3.1,3-4.8,2.5-6.5-1.5c-3.6-8.5-3.6-16.8,2.8-24.1
	c5.1-5.8,10.4-11.5,16.6-16.1c5.6-4.2,12-6.3,19-5.3c7.3,1,13.4,4.6,18,10.4c6,7.4,7.9,15.9,6.6,25.2c-0.6,4-1.3,8-0.4,12
	C-25.4,156.7-24.9,158-24.5,159.4z M-59.1,150.1c0,0.2-0.1,0.7,0,1.2c0.3,1.7,1.1,3.2,2.8,3.8c1.4,0.5,2.6-0.1,3.5-1.3
	c1.7-2.1,1.7-6.1,0.1-8.2c-1.2-1.5-3-1.8-4.5-0.5C-58.6,146.3-59.3,147.9-59.1,150.1z M-27.6,149.4c0.1-0.1,0.2-0.1,0.3-0.2
	c-0.6-1.3-1.1-2.7-1.9-3.9c-1.2-1.6-3.2-1.2-4,0.6c-0.8,1.6-0.8,3.3-0.3,5c0.6,1.7,1.9,2.9,3.1,2.8c1.3-0.1,2.4-1.5,2.7-3.3
	C-27.6,150.1-27.7,149.7-27.6,149.4z M-64,143.9c0.1,0.2,0.2,0.3,0.4,0.5c0.2,0.1,0.4,0.1,0.6,0.2c0.3,0,0.6,0.1,0.8,0
	c4.3-0.4,8.1-1.9,11.3-4.9c0.5-0.5,1-1.1,1.2-1.8c0.2-0.6-0.1-1.3-0.2-2c-0.5,0.2-1.3,0.3-1.6,0.7c-1.7,2-4,3.3-6.4,4.1
	c-1.5,0.5-3,1-4.5,1.6C-63,142.8-63.5,143.5-64,143.9z M-27.6,142.8c-0.1-0.5-0.1-0.7-0.2-0.8c-1.7-1.4-3.4-2.7-5.1-4
	c-0.2-0.1-0.8,0.1-1,0.3s-0.2,0.8-0.1,1c1.2,2.1,3.1,3.3,5.3,4.1C-28.3,143.5-27.9,143-27.6,142.8z"/>
<path class="st2" d="M-29.6,181.1c-2.3,0.5-5.8,1.2-9.4,2c-0.1,0-0.2,0.1-0.3,0.1c-5.1,1.2-7.1-0.2-7.6-5.4
	c-0.9-9.8,6.6-15.6,13.7-16.2c3.1-0.3,6.3,0.2,9.5,0.6c3.5,0.5,5.2,3.1,5.8,6.3c0.7,4,0.1,7.7-2.9,10.9
	C-22.9,181.6-25.6,181.6-29.6,181.1z M-23.7,172.6c0-2.3-0.8-3.8-2.2-3.8c-1.4-0.1-2.6,1.5-2.7,3.7s0.9,3.9,2.3,4
	C-24.8,176.6-23.7,174.9-23.7,172.6z M-34.5,172.9c-0.1-0.1-0.2-0.1-0.3-0.2c0-0.3-0.1-0.7-0.1-1c-0.1-1.1-0.5-2.1-1.7-2.3
	c-1.3-0.2-2.2,0.6-2.5,1.7c-0.3,1.4-0.6,2.8-0.5,4.2c0.1,1.8,2.1,2.4,3.3,1.1C-35.4,175.4-35,174.1-34.5,172.9z"/>
<path class="st2" d="M-31.5,114.5c4.5,1.8,8.2,5,11.3,8.8c4.8,5.9,8.2,12.4,9.9,19.9c0.8,3.3,0.3,3.9-3.1,3.7c-3.5-0.2-6.4-2-9-4.1
	c-0.3-0.3-0.4-1.1-0.4-1.6c0.4-6.7-0.4-13.1-3.7-19C-27.9,119.5-29.8,117-31.5,114.5z"/>
<path class="st2" d="M-74.1,177.7c2.2-1,4.2-2,6.3-3c-1.3,12.8,0.9,25,7.2,36.7c-2,0.6-4,1.2-6,1.8
	C-69.9,206.6-73.9,187.3-74.1,177.7z"/>
<path class="st2" d="M-103.2,204.8c-1.8,0.4-3.8,0.9-5.9,1.4c-0.5-3-0.8-6.1-1.4-9.1c-0.8-3.7-1.8-7.4-2.9-11.1
	c-0.3-1.1-0.3-2.1,0.3-3.1c1.6-2.9,3.2-5.8,4.8-8.9c1.5,0.6,3.2,1.4,5.2,2.3c-0.6,1.3-1,2.8-1.8,3.8c-3.2,4-3.1,8.4-1.8,13
	C-105.6,197-104.4,200.8-103.2,204.8z"/>
<path d="M-82.1,122.1c-0.5-0.1-1.1,0-1.5-0.2c-6.4-3.1-13-5.6-19.9-7.3c-0.8-0.2-1.5-0.8-2.2-1.3c0.7-0.5,1.5-1.2,2.2-1.3
	c1.8-0.2,3.8-0.5,5.5,0c4.6,1.4,9.1,3.2,13.6,4.9c0.9,0.3,1.6,1,2.3,1.5c1.2,0.9,1.5,2,0.3,3.1C-81.8,121.8-81.9,122-82.1,122.1z"/>
<g>
	<path class="st2" d="M319.7,280.5c3.4,1,6.1,1.7,8.9,2.5c2,0.6,2.9,1.7,1.6,3.8c-7.7,11.7-15.3,23.4-23,35.1
		c-0.6,0.9-1.3,1.9-2.2,2.3c-1.1,0.5-2.9,0.8-3.6,0.2c-1-0.9-2-2.9-1.6-3.9C306.3,307.2,313,293.8,319.7,280.5z"/>
	<path class="st2" d="M413.9,273.9c7.5,0.3,8,1.2,4.8,7.3c-4.1,7.7-8.1,15.4-12.2,23.1c-0.7,1.3-1.4,2.9-2.5,3.7
		c-1.1,0.8-2.9,1.5-4.1,1.1c-1.8-0.5-2.4-2-1.6-4.2c3.5-8.4,6.9-16.7,10.2-25.1c0.3-0.9,0.8-1.8,1-2.7
		C410.3,274.7,411.5,273,413.9,273.9z"/>
	<g>
		<path class="st0" d="M172,235.8c-3.5-3.2-5-7.8-5.5-12.9c-0.7-6.8,3-12.2,9.6-13.8c4.7-1.1,10,2.6,10.2,7.4
			c0.1,1.1-1.1,2.2-1.7,3.4c-1.1-0.7-2.6-1.3-2.9-2.3c-0.7-2.3-1.5-4.1-4.3-3.8c-3,0.4-5,2.3-5.5,5.2c-0.9,5.2,0.2,10,3.4,13.8
			c8.8-6.5,17.6-12.9,26.5-19.4c-6.7-16.7-4.4-33.3,6.7-48.1c11.4-15.2,27-20.5,45-16.2c0.9-6.8,0.9-14,2.9-20.6
			c5.2-17.1,16.6-28.4,34.7-31.3c15.2-2.4,27.8,3.2,37.1,15.2c9.2,11.8,14.6,25.2,14.3,40.4c-0.1,4.2-0.7,8.4-1.1,12.3
			c18.9,7.9,27.8,22.9,31.1,42.4c3.5-2.1,7.1-4.4,10.8-6.6c9.6-5.5,19.8-9.6,31.1-10.4c5.2-0.4,8.3,1.5,9.9,6.4c1,2.8,1.8,5.8,2,8.8
			c1,17-1.6,33.3-8.7,48.9c-0.8,1.8-0.4,2.9,0.2,4.7c1.7,4.9,5.3,6,9.9,6.1c1.8,0.1,3.6,0.7,5.4,1.1c7.9,2,10.2,9.8,5,16.3
			c-1.4,1.8-2.1,4.4-2.5,6.7c-0.8,5.4,1.1,9.7,4.5,14.3c12.9,16.8,18.8,35.7,16.4,57.3c-2.9,26.4-15.2,47.8-33.7,66.1
			c-1.2,1.2-2.4,2.9-2.9,4.5c-3.4,11.7-7,23.3-9.7,35.1c-2.3,10.6-8.3,16.3-18.8,17.4c-6.8,0.7-13.5,0.5-20.2-1.8
			c-7.1-2.5-10.8-7.1-11.2-14.5c-0.2-2-0.5-4-0.7-6.1c-16.8,4.1-33.7,6.6-51.2,5.9c-0.9,3.5-1.6,7-2.6,10.6
			c-0.9,3.4-1.9,6.6-2.9,9.9c-1.5,4.3-4.5,7-8.9,8.2c-10.2,2.8-20.5,3-30.6-0.2c-5.4-1.7-9.2-5.2-10.8-10.7
			c-2.2-7.5-4.5-15.1-6.4-22.7c-0.7-2.7-1.9-3.8-4.4-4.5c-6.4-1.9-12.6-4.2-19.3-6.4c-0.6,3.7-1.3,7.3-1.7,10.9
			c-1.1,9.8-5.4,14.8-15,17c-8.3,1.8-16.3,1.1-24.1-2.4c-3.7-1.6-6.4-4.1-7.1-8.1c-2-9.8-3.9-19.7-5.8-29.4
			c-1.8-9.4-3.3-18.8-5.5-28.2c-1-4.3-2.9-8.4-5.1-12.2c-9.6-16.1-15.2-33.5-17.5-52c-3.9-30.9,0.7-60.3,15.8-87.7
			C160.7,251.6,166.5,244.1,172,235.8z M370.1,310.6c-2-5.4-3.7-10.3-5.5-15.2c-1.5-3.9-4.5-5.2-8.6-4.2c-3.9,1-5.6,3.9-6.3,7.5
			c-0.6,2.9-0.8,6-1.3,8.9c-2.3,13.8-9.9,23.3-23.4,27.4c-10.6,3.3-21.4,2.7-32,0.2c-14.3-3.4-23.1-12.4-26.1-26.9
			c-0.8-3.9-1.2-7.9-2.4-11.6c-1.3-4.1-2.9-4.5-6.8-2.9c-7.7,3.4-15.4,6.7-23.2,10c-3.1,1.3-5.1,0.5-6.7-2.5c-1.8-3.3-0.6-7,3-8.6
			c4.9-2.2,9.8-4.3,14.8-6.3c24.7-9.7,50-16.4,76.9-14.4c7.3,0.5,14.3,2,20.6,5.7c2.1,1.2,4,1.4,6.4,1c3.6-0.7,7.3-0.5,11-1
			c1.6-0.2,3.4-0.9,4.8-1.8c3.5-2.2,6.6-5.7,10.3-6.9c6.8-2.1,14-3.2,21.1-4.2c6-0.7,12-0.7,18.3-1c-0.3-0.6-0.6-1.1-0.9-1.7
			c-8.4-14.2-19.2-26.3-32.1-36.5c-5.7-4.6-11.6-8.6-19.3-9.7c-7.4-1.1-12.7-5.4-15.2-12.9c-1.2-3.6-2.9-7.3-5.2-10.3
			c-2.2-3-5.4-5.4-8.4-7.9c-0.5-0.4-2.5-0.2-2.9,0.4c-4.1,5.6-9.2,9.9-15.6,13.2c7.3,2.9,14.3,5.7,21.2,8.5c1.5,0.7,2.8,1.7,4.2,2.6
			c-2.4,1.2-4.4,1.4-6.3,2c-4.4,1.4-8.5,1-12.9-0.4c-12.8-4-25.7-7.5-38.8-11.3c-0.5,12.4-2.9,22.9-13.5,30
			c-2.1,1.4-3.4,1.1-4.6-0.5c-10.5-12.8-24.8-18.9-40.3-22.9c-9.9-2.5-13.7-0.1-16.6,9.9c-0.2,0.7-0.5,1.5-0.6,2.2
			c-0.7,6.7-1.3,13.5-2.1,20.3c-1.6,14.7,0.9,28.8,7.1,42.2c0.6,1.2,0.7,2.7,1.1,4c-0.3,0.2-0.7,0.3-0.9,0.5c-1.1-1.1-2.5-2-3.4-3.2
			c-4.2-5.3-5.5-11.8-7-18.3c-3-13.4-1.6-26.9-0.6-40.3c0.1-1.4,0.4-2.8,0.7-4.7c-13.2,7.3-23.9,16.6-32.7,28
			c-16,20.9-24.1,45-25.8,71c-1.9,28.1,3.8,54.7,18.1,79.2c1.5,2.6,2.9,5.3,3.9,8.1c5.5,16,7,32.9,9.7,49.4c0.6,3.4,1.7,5.5,5,6.6
			c11.2,3.9,22.3,3.1,33.3-0.7c1.1-0.4,2.3-2.1,2.6-3.4c0.7-2.5,0.8-5.2,1.2-7.9c-1.6-0.8-3.3-1.5-4.7-2.4c-5.5-3.6-11-7.1-16.4-11
			c-1.1-0.7-1.4-2.4-2-3.7c0.4-0.4,0.7-0.8,1.1-1.1c14.8,9.8,30.3,18.3,47.8,22.5c-0.7-4.6-1.3-8.8-2-13.7c4.5,1.6,4.7,5.1,5.5,7.9
			c2.5,9,4.9,18.1,7.2,27.1c0.7,2.9,2.1,4.8,5.2,5.2c4.3,0.7,8.7,1.8,13,2.2c8,0.7,16,0.1,23.8-2.2c3.2-0.9,4.9-2.7,5.6-6.2
			c1-5.7,2.5-11.3,4-17c0.4-1.6,0.8-3.8,3.6-3.5c0,2.9,0,5.8,0,8.9c1.2,0.1,2.3,0.2,3.4,0.2c8.7-0.6,17.5-0.8,26.1-2
			c22.4-2.9,43.3-10.4,62.3-22.8c19.3-12.6,34.8-28.8,43.8-50.3c9.4-22.7,11.5-45.7-0.2-68.4c-2.9-5.6-6.6-10.7-9.6-15.6
			c-3.3,4.3-5.7,8.5-9.2,11.6c-3.5,3.1-8,5.1-12.2,7.6c6.1,7.2,7.5,16.1,5.8,25.5c-2.2,12.5-10.6,20.1-21.6,24.7
			c-5.7,2.4-11.9,3.4-18.3,5.2c-0.6,2.6-1.1,5.9-1.9,9.1c-4.3,18.4-22.4,27.4-39.5,19.4c-11.2-5.2-19.7-13.6-25.6-24.4
			c-4.1-7.5-6.2-15.4-6.6-24.7c-2.5,2.5-4.4,4.4-6.5,6.2c-0.6,0.5-1.5,0.5-2.3,0.7c-0.2-0.7-0.6-1.6-0.4-2.2
			c1.3-5.9,7.6-11.3,13.5-11.3c1.7,0,3.4,1.1,5.1,1.8c-1.1,1.2-2.4,2.5-3.6,3.8c10.7,14.4,35.3,21.9,53.5,19.4
			c0-0.1-0.1-0.2-0.1-0.2c-0.6-0.2-1.2-0.4-1.8-0.7c-7.4-2.5-13.3-6.7-17-13.7c-6.6-12.3-4-28.5,5.8-39.8
			C357.1,316.1,363.1,312.3,370.1,310.6z M383.9,313.9c-18.6-0.1-29.7,7-35.2,21.1c-6.3,16.1,0.6,32,17,36.6
			c15.6,4.3,30.2,1,42.4-10.1c12.5-11.4,10.9-34.8-6.7-43.4C394.9,315.1,388.3,313.8,383.9,313.9z M320.5,153.5
			c-0.1-13.6-3.9-25.7-13.8-35.2c-7-6.6-17.6-9.4-26.7-3.5c-11.6,7.5-19.6,30.6-9.4,46.4c3.9,6.1,6.5,13,9.7,19.6c0.7,1.3,1,3,2,3.9
			c8.7,6.8,20,6.6,27.1-0.7C317.8,175.4,320.4,164.9,320.5,153.5z M413.8,252.1c6.6-15.3,9.3-31.3,7.8-47.7
			c-0.8-8.4-3.4-10.4-12.1-8.6c-10.8,2.3-20.6,6.9-29.7,12.8c-2.2,1.4-4.4,2.9-6.8,4.4c4.8,3.5,9.3,6.8,13.9,10.1
			c0.7-0.9,1.2-1.6,1.8-2.4c5.2-6.1,10.9-11.4,18.7-13.9c1.7-0.6,3.5-1.1,4.8,1.2c-4.2,2.5-8.5,4.7-12.3,7.5
			c-3.8,2.9-6.8,6.6-9.6,9.3c4.5,4.9,8.5,9,12.2,13.4C406.3,242.7,409.8,247.3,413.8,252.1z M234,176c0-1.6-0.2-3.1,0.1-4.4
			c0.2-0.9,1.2-2,2-2.1c0.7-0.1,2.3,1.2,2.2,1.6c-0.9,4.5,2.5,6.2,5.1,8.6c1.1,1.1,2,2.5,2.8,3.9c0.9,1.4,1.3,3.1-0.6,3.8
			c-0.9,0.3-2.5-0.5-3.4-1.2c-1.2-1-2.1-2.5-3.3-3.9c0,4.8-0.1,8.9,0.1,13.2c0,0.8,0.9,1.8,1.7,2.3c4.2,2.6,6.9,6.1,7.6,11.1
			c0.1,0.8,0.7,1.7,1.4,2.2c2.6,1.7,5.3,3.2,8.9,5.4c0.5-6.1,1.3-11.6,1.1-17.2c-0.2-10.4-3.4-19.9-10.2-28
			c-7-8.5-20.7-12.1-30.2-0.3c-4.7,5.8-7.1,12.5-8.2,19.7c-0.6,3.8-0.1,7.6-0.1,11.7c8.5-2.9,15.7-0.1,23.1,2c0.9-3-0.9-4.1-3-5.2
			c-4.9-2.5-7.1-6.9-6.7-12.3C225,181.2,228,177.4,234,176z M264.2,154.7c-1.7-6.8-2-13.5-0.2-20.2c1.7-6.3,4.2-12.2,8.6-17.1
			c10.9-12,24.2-10.8,35.6-1.1c8.9,7.7,13.7,17.8,15.2,29.5c1.6,13.4-0.3,25.7-8.8,36.6c-7,9.1-17.6,12-28.2,7.7
			c-1.3-0.5-2.5-1.1-3.9-1.6c0.2,1.8,0.2,3.5,0.6,5.2c0.1,0.6,0.7,1.3,1.2,1.6c6.3,2.6,12.9,3.9,19.6,2.1
			c8.4-2.1,14.2-7.8,18.4-14.9c8.7-14.6,9.5-30.2,5-46.1c-3.3-11.6-8.8-22.1-19.4-28.8c-9.1-5.7-18.4-7.4-28.3-1.6
			c-15.6,9-22.3,27.1-20.2,42.8C259.6,151.9,260.8,153.7,264.2,154.7z M265.8,222.9c1-4.9,2.2-9.3,2.8-13.7
			c2.1-16.7-1.2-32.3-12.5-45.1c-9.7-11.1-22.4-14.6-35.6-4.6c-12,9.1-17,21.3-17.7,35.8c-0.2,4.8,0.7,9.6,2.9,15
			c1.1-2.7,2.8-4.8,2.5-6.5c-1.6-11.1,0.2-21.5,6.1-31.1c3.9-6.1,8.8-11.1,16.4-12c10.5-1.4,17.9,4,23.5,12c9,12.5,11,26.6,7.5,41.3
			c-0.9,3.9-0.1,6,2.6,8C264.6,222.2,264.7,222.2,265.8,222.9z M414.1,434.8c-0.4,0.1-0.6,0.1-0.7,0.2c-14,11.3-29.8,19.1-46.8,24.7
			c-2.4,0.8-3.5,3.8-1.8,5.3c0.9,0.9,2.5,1.1,3.8,1.5c11.4,3.4,22.8,3.1,34-0.3c1.5-0.5,3.3-2,3.7-3.4
			C409,453.4,411.5,444.2,414.1,434.8z M321.4,387.2c3.8,7,17.1,16.6,24.7,18c6.1,1.1,11.9-0.1,17.3-3.1
			C359.1,390.1,333,381,321.4,387.2z M319.7,280.5c-6.7,13.4-13.4,26.7-19.9,40.1c-0.4,0.9,0.6,3,1.6,3.9c0.7,0.6,2.5,0.2,3.6-0.2
			c0.9-0.4,1.6-1.4,2.2-2.3c7.7-11.7,15.3-23.4,23-35.1c1.4-2.1,0.5-3.2-1.6-3.8C325.9,282.2,323.1,281.4,319.7,280.5z M413.9,273.9
			c-2.5-1-3.5,0.7-4.2,3.3c-0.2,0.9-0.7,1.8-1,2.7c-3.4,8.4-6.8,16.7-10.2,25.1c-0.9,2-0.2,3.6,1.6,4.2c1.2,0.3,3-0.3,4.1-1.1
			c1.1-0.8,1.8-2.4,2.5-3.7c4.1-7.7,8.2-15.4,12.2-23.1C422,275.1,421.4,274.2,413.9,273.9z M359.1,212.2
			c-2.5-15.5-8.5-28-21.8-36.6c-1.2,2.1-2.3,3.9-3.3,5.5c1.6,1.1,2.9,2,4.1,3c6.1,5.3,10.6,11.7,12.7,19.5
			C352.2,207.7,354.8,210.1,359.1,212.2z M269.1,182.9c0.8,5.8,1.6,11.3,2.5,17c1.3-0.3,2.6-0.9,3.9-1c2.5-0.2,2.9-1.6,2.6-3.8
			c-0.7-4.5-1.2-9.1-1.9-14C273.4,181.8,271.2,182.4,269.1,182.9z M348.2,181c2.9,4.8,5.9,9.3,8.9,14.1c1.9-0.9,3.9-1.9,6.1-3
			c-1.9-3-3.4-5.9-5.3-8.4C353.6,177.9,355.4,178.7,348.2,181z M330.9,140.2c0.3,6,0.6,11.6,0.9,17.3c5.5-0.2,5.7-0.5,5.7-5.7
			c0-2,0.1-4.1-0.1-6.1c-0.2-2.3-0.7-4.5-1.1-6.8C334.1,139.4,332.6,139.8,330.9,140.2z M363.9,193.7c-2.4,1-4.4,1.8-6.6,2.6
			c1.1,3.4,2.1,6.7,3.2,10.2c1-0.2,1.9-0.6,2.8-0.7c2.8-0.5,4.1-1.8,2.8-4.8C365.2,198.8,364.7,196.4,363.9,193.7z M333,128.4
			c-2.4-3.8-4.3-7-6.4-10.3c-1.6-2.5-3.4-2.9-6-1.3c2.4,4.3,4.7,8.6,7,12.9C329.3,129.3,330.7,129,333,128.4z M277.8,199.7
			c-1.7,0.5-3.5,0.8-5.2,1.5c-0.6,0.2-1.3,1.1-1.4,1.7c-0.3,2.7-0.4,5.5-0.5,8.3C278.2,209.8,279.2,208.1,277.8,199.7z M257.3,161.8
			c2.4,3.3,4.7,6.3,6.8,9.3c1.1-0.3,2-0.7,2.9-1c1-0.3,1.9-0.7,3.2-1.1c-1.6-2-2.8-3.6-4.1-5.2C262.7,159.8,262.7,159.8,257.3,161.8
			z M353.7,177.5c-4.8-2.9-9.2-5.5-13.7-8.3c-0.7,2-1.1,3-1.5,4.2c1.6,1.1,3.4,2,4.4,3.4C346,180.7,349.3,179.6,353.7,177.5z
			 M274.8,178.6c-3.1-8.4-3.1-8.4-10.3-6.2c0.3,0.8,0.7,1.6,1,2.4C268.3,180.6,268.3,180.6,274.8,178.6z M323.4,114.4
			c-5.7-7-14.3-12.2-19.5-12.4c3.9,3,8.8,6.2,12.9,10.3C319.1,114.5,320.5,116,323.4,114.4z M333.2,129.6c-1.9,0.5-3.4,0.9-4.9,1.3
			c2.1,9.6,1.1,8.7,7.6,6.5C335,134.9,334.1,132.4,333.2,129.6z M233.9,195c0-4.7,0-9.2,0-13.9c-3.5,1.4-4.4,4.1-4.3,7
			C229.6,191,230.9,193.6,233.9,195z M243.6,152.4c3.5,2.1,6.7,3.9,9.6,5.8c3.4,2.4,3.4,2.5,7,0.2
			C255.6,154.6,250.1,152.8,243.6,152.4z M361.2,213.2c2,0.3,3.9,0.7,5.9,1c0-3,0-5.6,0-8.5c-2.2,0.7-4.2,1.5-6.4,2.2
			C360.8,209.7,361,211.3,361.2,213.2z M332.7,176.5c-0.2-0.2-0.5-0.6-0.7-0.8c-1.6,0.7-3.9,1.1-4.9,2.4c-2.9,4-5.3,8.4-7.7,12.3
			c4.3-2,6.6-4.4,6.2-5.5C328.2,181.8,330.4,179.1,332.7,176.5z M330.4,167.1c5.9-0.5,7-2,6.5-8.7c-1.8,0.4-3.5,0.9-5.2,1.3
			C331.3,162.2,330.9,164.6,330.4,167.1z M269.4,218.1c6-1.9,7.2-1.8,7.4-7C273.2,212.2,268.9,212.4,269.4,218.1z M328.6,174.6
			c5.6-0.9,6.4-1.7,6.8-6.7C330.9,167.8,328.9,170.4,328.6,174.6z M267.5,224.5c0.2,0.3,0.5,0.6,0.8,0.9c2.1-2.2,4.3-4.4,7-7.3
			C269.2,218.8,267.7,220.2,267.5,224.5z"/>
		<path class="st0" d="M219.7,237.6c0-4.2-0.2-8.4,0.1-12.6c0.5-5.9,2.6-8.1,8.8-5.6c5.2,2.1,9.7,6,13.9,9.7c3.5,3,6.4,6.7,9.3,10.4
			c2.8,3.6,2.4,5.1-0.8,8.3c-6.6,6.7-13.3,13.6-19.7,20.5c-1.2,1.3-2,3-3.1,4.5c-0.6,0.8-1.4,1.5-2.1,2.2c-0.7-0.9-1.8-1.6-2-2.6
			c-1.1-4.5-2.4-8.9-2.9-13.5c-0.9-7-1.2-14.2-1.8-21.3C219.4,237.6,219.6,237.6,219.7,237.6z M248.4,243.2
			c-5.7-7.6-12.4-14.7-20.7-20.2c-3.4-2.1-4.9-1.6-4.8,2.5c0.6,11.4,1.6,22.8,2.4,34.2c0.1,1.3,0.3,2.5,0.7,3.9
			c0.2,1.2,0.7,2.5,0.9,3.3C233.9,258.9,241,251.2,248.4,243.2z"/>
		<path class="st0" d="M369.8,417.3c-4.1,5.8-10.2,7.9-17,7.9c-5.7,0.1-11.2-0.7-15.6-4.8c0.1-0.4,0.2-0.8,0.3-1.2
			c2.9,0.6,5.9,1.1,8.8,1.6c6.9,1.3,13.3,0.2,19.3-3.4c1.1-0.7,2.3-0.9,3.4-1.4C369.4,416.6,369.6,416.9,369.8,417.3z"/>
		<path class="st0" d="M378.3,345.5c-1.2,2.7-2.1,6-3.9,8.6c-2.3,3.3-6.4,2.8-8.7-0.5c-3.2-4.6-2.9-12.4,0.8-16.6
			c3-3.5,7.4-3,9.4,1.1C376.9,340.1,377.3,342.5,378.3,345.5z"/>
		<path class="st0" d="M389.1,341.5c1.3-2.7,2.2-5.7,4-8.1c1.9-2.5,5-2.4,7.4-0.1c4.1,4,4.4,13.3,0.6,17.6c-2.8,3.1-6.7,2.9-8.8-0.8
			C390.7,347.8,390.3,344.8,389.1,341.5z"/>
		<path class="st0" d="M291.9,169.6c0-5.7,0.2-10.6-0.1-15.6c-0.1-1.1-1.4-2.5-2.5-3.1c-7.4-4.3-10.4-11.7-7.7-19.3
			c1.6-4.5,4.9-7.2,9.7-8.2c0.2-1.6,0.1-3.1,0.5-4.5c0.2-0.7,1.3-1.6,2-1.8c0.5-0.1,1.9,1.2,1.8,1.7c-1,4.4,1.9,6.4,4.8,8.7
			c1.8,1.4,2.9,3.7,3.9,5.8c0.4,0.9-0.4,2.5-0.7,3.7c-1.1-0.5-2.5-0.8-3.4-1.6c-1.5-1.5-2.5-3.4-4.3-4.8c0,5.6-0.2,11.1,0.2,16.6
			c0.1,0.9,1.8,2,2.9,2.5c6,3.4,8.8,9.3,7.7,16c-1,5.8-5.2,8.4-10.5,10c0,1.6,0.2,3.1-0.1,4.5c-0.2,0.9-1.4,1.6-2.1,2.5
			c-0.7-0.7-2.1-1.6-2-2.1c1.1-5.2-2.9-6.6-5.7-9.4c-2.3-2.1-3.6-5.5-4.9-8.5c-0.3-0.7,0.7-2.1,1.1-3.3c1,0.7,2.5,1.1,2.9,1.9
			C286.7,164.6,288.3,167.5,291.9,169.6z M291.4,146.4c0-6,0-11.8,0-17.6c-3.6,0.9-5.7,3.3-6.1,6.6
			C284.8,140.1,286.9,144,291.4,146.4z M296.4,170.5c3.9-1,5.6-2.9,5.8-6.4c0.3-4.4-2-8.3-5.8-9.7
			C296.4,159.8,296.4,165.1,296.4,170.5z"/>
	</g>
</g>
<g>
	<path class="st0" d="M1018.7,493c-15.9,2.5-31.3,5-47.7,7.6c-0.9,5.8-2.1,13-3.3,20.1c-1.2,6.9-2.3,13.9-3.6,20.8
		c-1.1,5.7-4.5,9.8-10.3,11.9c-11.3,3.9-22.6,4.1-33.9,0c-5.6-2.1-9.6-5.8-10.8-11.6c-2.7-12.9-5.1-25.7-7.7-38.6
		c-0.7-3.4-1.3-6.9-1.9-10.1c-16.6-3.2-31.6-9.5-46.2-17.5c-1.2,9.4-2.2,18.5-3.4,27.6c-2.2,15.9-12.8,19.4-29.2,18.4
		c-5.1-0.3-10.5-2.4-14.9-5c-7-4-8.7-11.4-9.7-18.6c-2.2-15.3-4-30.6-6.1-45.9c-2.6-19.1-7.4-37.6-13.9-55.8
		c-8.2-22.8-10.7-46.4-8.3-70.5c3.2-32,15.5-60.3,37.1-85.3c-6.2-1.2-10.9-4.2-13.6-9.3c-2.6-5-4-10.3-2.3-16.1
		c2.1-7.3,9.1-12.4,16.2-11.7c7.6,0.8,14.1,7.2,14.5,14.7c0.1,2.8-0.3,5.6-0.5,8.7c21.8-18.5,47.6-29.1,76-34.3
		c-1.5-6.4-3.4-12.6-4.3-18.9c-2.4-17.3-1.9-34.4,6.5-50.4c12.9-24.6,46.4-31.6,69.6-14.7c15,10.9,23,25.8,27,42.9
		c3.3,14,3.2,28.2-0.6,42.2c-0.1,0.4,0,0.8,0,1.5c6,2.1,12.2,3.9,18,6.6c6.9,3.2,13.6,7,20.1,10.9c2.1,1.2,3.3,1.6,5.5,0.1
		c13.8-9,28.1-17,44.5-21c3-0.7,6.1-1.3,9.2-1.4c11.4-0.3,17.3,4.5,18.2,15.3c2.1,24.1-1.4,47.5-11.5,69.8c-1,2.2-1,3.9,0.2,6
		c10.6,18.8,16.7,38.9,19.7,59.9c1.7,11.8,0.8,23.5-0.9,35.3c-0.2,1.2-0.2,2.7,0.5,3.7c10.3,15.8,9.3,31.8,0.5,47.7
		c-6.1,11-15.1,19.1-27.3,24c-1,0.4-2.2,1.8-2.3,2.8c-2.1,14.1-3.9,28.1-6.1,42.2c-1.3,8.3-2.6,16.6-4.4,24.7
		c-1.8,8.3-8.2,12.8-16.5,13.7c-7.1,0.7-14.3,0.4-21.4-0.4c-9.5-1-14.6-7-16.2-15.8C1021.4,510.3,1020.1,501.2,1018.7,493z
		 M900.9,203.2c-2.5-5.2-2.5-5.2-8.6-4c-0.3,0.1-0.6,0-0.8,0.1c-33.5,6.9-62.4,21.5-84.1,47.4c-30.4,36.3-39.9,77.9-32,123.2
		c2.3,13.3,7.1,26.4,11.3,39.3c8.7,27.1,10.3,55.3,14.3,83.1c0.4,2.6,1.2,3.7,3.6,4.6c12.5,4.6,25.2,4.1,37.8,0.8
		c1.2-0.3,2.6-2.1,2.8-3.3c0.8-6,0.9-12.2,2-18.2c0.7-3.7-0.9-5.2-3.7-7c-8-5-15.3-10.8-20.1-18.9c-0.5-0.8-0.3-1.9-0.4-2.9
		c1.2,0,2.5-0.3,3.5,0.1c1.1,0.4,1.9,1.5,2.9,2.3c5.3,4.5,10.3,9.4,15.9,13.4c15.8,11.2,33.5,18.8,52.5,23.5c0-5.2,0-10.2,0-15.2
		c0.5-0.2,1.1-0.3,1.6-0.5c1,2,2.5,3.9,2.9,6c3.3,16.4,6.4,32.9,9.4,49.4c1.3,7.2,1,7.3,8.2,8.9c11.8,2.7,23.5,2.9,35-1.4
		c3.2-1.2,5.1-2.8,5.6-6.7c1.8-13.5,4.3-27,6.5-40.5c0.4-2.4,0.5-5.2,4.7-6.2c0.2,4.3,0.4,8.4,0.6,12.4c27.7,3,87.2-19.6,98.9-37.1
		c-10.4-1.4-21.2-2.4-31.9-4.2c-15.1-2.6-27.3-10.1-36.2-22.1c-1.2-1.6-0.9-4.3-1.3-6.5c1.9,1,4.2,1.7,5.5,3.2
		c9.7,11,21.6,18.2,36.9,20.2c-9.2-9.4-11.4-20.3-9.3-32.5c4.1-24.3,25.3-44,51.3-46.6c-11.8-4.4-22.6-5.9-33.8-1.8
		c-9.6,3.6-17,10.1-24.3,16.6c-1.3,1.1-2.8,2-5.2,3.6c1.7-7.7,6.3-11.9,10.9-15.8c10-8.4,21.5-13.7,35.1-12.6
		c11.5,0.9,22.3,4.5,32.1,10.5c3,1.8,6,3.8,9.9,6.2c0.5-6.5,1.2-12.2,1.2-17.9c-0.1-19.2-4.6-37.5-11.8-55.3
		c-9.7-24.1-24-44.7-47.4-58.6c-2.2-1.3-2.4-2.8-1.2-4.7c7.5-11.4,17.4-20.2,30.2-25.8c1.5-0.7,3.7,0.1,5.5,0.2
		c0.1,0.5,0.3,1,0.4,1.6c-11.7,6.3-22.6,13.4-30.1,24.6c13.9,8.7,25,20.3,34.3,34.2c9-21.9,12.3-43.8,10.6-66.4
		c-0.4-5.6-3.7-9.2-8.3-9.2c-4.5,0-9.1,0.3-13.4,1.3c-15.6,3.7-29.1,11.7-42.1,20.3c-3.8,2.5-6.9,2.4-10.2-0.4
		c-10.9-9.2-24.5-12.7-37.3-16.9c-4.6,6.6-9,12.8-13.4,19c3.3,1.4,6.9,2.5,9.9,4.3c8.3,5,16.6,10.2,24.5,15.8c3.7,2.6,3,4.5-1.3,5.8
		c-4.8,1.5-9.6,3.2-14.5,4.1c-2.2,0.4-5-0.3-7.1-1.3c-4-2-7.5-4.9-11.4-7c-22.9-12-47.6-19.3-73-24.7c-4.7-1-9.4-1.9-13.9-3.3
		c-1.6-0.5-3.5-2.1-3.9-3.6c-0.2-0.9,1.8-3,3.3-3.6C893.8,205.3,897.3,204.4,900.9,203.2z M1068.2,449.9c4.6-0.5,9.3-0.7,13.8-1.7
		c20.1-4.6,35.3-22.9,36.2-43.1c0.9-19.6-11.6-32.1-32-32.3c-11.4-0.1-20.8,4.7-29.1,11.4c-13.7,11-20,25.3-18.6,42.4
		C1039.3,437.9,1049.9,451,1068.2,449.9z M967.1,177.8c1.4-18.2-5.6-34.9-14.3-45.9c-14.1-17.8-34.9-15.9-44.5,4.3
		c-4.6,9.6-5.7,19.7-4.2,30.1c2.4,16.5,8.1,31.7,20.3,44c10.4,10.5,25.6,9,33.9-3C964.7,198.3,967.2,188,967.1,177.8z M1081.3,455.4
		c-3.3,2.9-6.1,5.6-9.1,8c-13.5,10.9-28.4,19.5-44.9,25.6c-1.1,0.4-2.6,2-2.5,2.9c0.8,6.6,1.8,13.1,3.1,19.6c0.3,1.4,2,3.1,3.4,3.5
		c13.1,3.8,26.2,3.8,38.8-1.6c1.6-0.7,3.3-2.7,3.6-4.4c1.2-6.2,1.9-12.6,2.8-18.9C1078.1,478.8,1079.7,467.4,1081.3,455.4z
		 M944.2,221c11.2,4.7,12.4,5.3,19.8-2.3c4-4.1,7.3-9.3,9.6-14.6c7.5-17.6,6.6-35.6,1.2-53.6c-4.4-14.3-11.6-27-24.6-35.9
		c-6.6-4.5-14-8.1-22.4-6.8c-14.6,2.3-23.3,11.4-27.9,24.3c-3.7,10.5-4,21.4-3.6,32.5c0.5,16.2,5.7,30.8,15.5,43.8
		c2.1,2.8,6.4,4,9.7,6c0.2-0.3,0.4-0.7,0.6-1c-1.8-2.1-3.7-4-5.5-6.2c-10-12.3-15-26.6-16.6-41.9c-1.3-12.1,0.4-24,6.8-34.9
		c8.2-13.8,22.1-18.3,35.4-10.6c5.7,3.3,11.2,7.7,15.1,12.7c14.4,18.4,17.5,39.3,11.9,61.2C965.9,206.4,958.8,216.8,944.2,221z
		 M938.3,105.2c22.8,8.5,33.3,25.9,40.1,46.2c3.2-0.8,6-1.4,8.9-2.1C979.3,122.4,960.4,105.1,938.3,105.2z M814.7,230.4
		c-2.9-1.6-2.4-3.7-1.9-6.5c0.6-2.8,0.3-6.2-0.8-8.9c-1.4-3.6-4.8-5.7-9.1-5.4c-4,0.3-6.6,2.8-7.5,6.3c-1.4,5-0.6,10,2.8,14.2
		C802.7,235.7,809.9,235.9,814.7,230.4z M982.2,168.4c-1,10.8-1.9,21.2-2.9,32.3c2.4-1.3,6-2,6.7-3.9c3.7-9.4,4.7-19.3,3.6-29.7
		C986.7,167.7,984.2,168.1,982.2,168.4z M988,151.2c-3.4,0.8-6.3,1.4-9.1,2.1c0.8,4.6,1.5,8.9,2.3,13.6c1.9-0.3,3.5-0.8,5.2-0.8
		c3-0.1,4-1.3,3.5-4.1C989,158.5,988.6,155,988,151.2z M985.2,202c-0.4-0.5-0.8-0.9-1.1-1.4c-2.3,0.8-5.6,0.9-6.6,2.4
		c-3.4,5.3-6,11-9,16.6c0.3,0.2,0.6,0.5,0.9,0.7C974.6,214.2,979.9,208.1,985.2,202z"/>
	<path class="st0" d="M882.5,335.3c-2.4-1.7-5.2-3-7-5.1c-7.9-9.1-11.5-20-13.2-31.6c-2.7-19.2,0.5-37.7,7.6-55.7
		c0.7-1.9,1.7-3.7,2.6-5.5c3.2-6.5,8.4-8.7,15.8-8.2c16.6,1.3,30.5,8.3,43,18.2c3.9,3.1,7.6,6.5,11.2,10c1.4,1.4,3.7,3.5,0.9,5.3
		c-1,0.6-4-0.3-5.1-1.5c-9.2-9.1-19.4-16.7-31.7-21.2c-6.1-2.3-12.7-3.3-19.1-4.7c-5.1-1.1-8.6,1.5-10.1,6
		c-2.8,8.3-5.8,16.6-7.8,25.1c-4.2,18.6-3.1,36.9,6.4,54.1c1.8,3.3,4.2,6.4,6.3,9.6c0.7,1.2,1.1,2.6,1.7,3.9
		C883.5,334.4,883,334.8,882.5,335.3z"/>
	<path class="st0" d="M970.2,349.6c1.3-3.6,2.1-7.5,4.1-10.8c4-6.4,11.4-6.8,16.8-1.4c6.6,6.6,6.3,19.8-0.5,26.2
		c-3.6,3.3-8.2,3.8-12.3,1C973.1,361.1,970.9,356,970.2,349.6z"/>
	<path class="st0" d="M894.1,317.3c7.7-18.1,18.7-32.8,35-43.4c0.5,0.4,1.1,0.7,1.6,1.1c-0.8,1.2-1.5,2.5-2.5,3.5
		c-9.6,9.9-19.4,19.8-25.9,32c-1.9,3.6-3.3,7.4-5,11.1c-0.4,0.9-1.3,2.4-1.9,2.3c-1-0.1-2.3-0.9-2.9-1.8c-4.8-6.9-6.8-14.8-7.9-22.9
		c-2-13.8-1.6-27.6,1.7-41.2c0.6-2.7,2-5.2,3.8-7.5C885.7,273,885.3,295,894.1,317.3z"/>
	<path class="st0" d="M1090,338.8c-0.8,3-1.2,5.5-2.3,7.8c-3.6,7.4-11.6,8-16.3,1.1c-4-6-4.2-12.5-0.8-18.8c3.8-6.9,11.8-7.1,16-0.1
		C1088.4,331.8,1088.9,335.6,1090,338.8z"/>
	<path class="st0" d="M1069.7,414.3c-1.2,3-2.2,6.8-4.2,10c-2.6,4.2-7.6,3.5-9.3-1.2c-2.3-6.3-1.7-12.5,2.6-18
		c3.4-4.3,7.5-3.6,9.3,1.5C1068.9,408.8,1069,411.1,1069.7,414.3z"/>
	<path class="st0" d="M1102.6,408c-0.8,2.4-1.5,5.9-3.3,8.8c-1.1,1.7-4,3.4-6,3.3c-1.6-0.1-3.9-2.6-4.5-4.4
		c-1.8-5.3-1.2-10.8,2.3-15.4c1.3-1.7,3.9-3.5,5.9-3.4c1.6,0.1,3.4,2.7,4.4,4.5C1102.2,403,1102.1,405.1,1102.6,408z"/>
	<path class="st0" d="M936.2,146.8c0.3,5.8,0.5,11.6,1,17.4c0.1,0.9,1.2,2,2.1,2.6c7.4,4.8,10.2,11.8,9.6,20
		c-0.5,6.1-4.5,9.7-10.7,11.2c-0.2,2.1,0,4.2-0.6,6.1c-0.3,1-1.9,1.7-2.8,2.5c-0.7-0.9-1.8-1.6-2.1-2.6c-0.5-1.4-0.2-3-0.6-4.4
		c-0.4-1.3-1.1-2.8-2.2-3.4c-5.3-3.2-8-8-9.3-13.5c-0.3-1.2,1-2.7,1.6-4.1c1.3,0.7,3.1,1.2,3.8,2.3c1.8,2.6,3.2,5.5,4.7,8.3
		c0.5-0.1,1-0.3,1.5-0.4c-0.3-6-0.6-11.9-1.1-17.9c-0.1-0.9-1.6-1.8-2.5-2.5c-7.5-5.1-10.6-12.9-8.3-21.3c1.1-3.9,3.3-7,7.4-8.2
		c2.6-0.7,3.4-2,3-4.3c-0.1-0.8-0.3-1.8,0-2.4c0.9-1.3,2.1-2.4,3.1-3.6c0.8,1.2,2.4,2.5,2.3,3.6c-0.5,4.5,1,7.4,5,10
		c2.2,1.4,3.4,4.5,4.6,7.1c0.4,0.8-0.3,2.8-1.1,3.2s-2.7-0.2-3.5-1c-1.5-1.5-2.5-3.3-3.8-5C937,146.4,936.6,146.6,936.2,146.8z
		 M937.6,191.8c6.7-3.6,6-13.7,0-17.7C937.6,179.7,937.6,185.4,937.6,191.8z M930.8,144.1c-4,2-5,4.6-4.9,7.8c0.1,4,1.1,7.5,4.9,9.8
		C930.8,155.9,930.8,150.4,930.8,144.1z"/>
</g>
<path d="M-99.4,158.5c0.6,3.8,1.2,7.7,1.8,11.5c0,0.2-0.4,0.5-0.7,0.8C-100.4,168.3-101,160.3-99.4,158.5z"/>
<path d="M-107.7,157.1c0.3,2.5,0.4,4.8,0.8,7c0.2,1.4,0.8,2.8,1.1,4.3c0.1,0.3-0.2,0.7-0.2,1.1c-0.3-0.1-0.8-0.2-0.9-0.4
	c-1.8-3.6-2-7.4-1.4-11.4C-108.4,157.6-108.1,157.4-107.7,157.1z"/>
<path d="M-59.1,150.1c-0.1-2.2,0.5-3.8,1.9-5c1.5-1.3,3.3-1,4.5,0.5c1.6,2.1,1.6,6.1-0.1,8.2c-0.9,1.1-2.1,1.7-3.5,1.3
	c-1.7-0.6-2.4-2.1-2.8-3.8C-59.2,150.8-59.1,150.3-59.1,150.1z"/>
<path d="M-27.6,149.4c0,0.3,0,0.7-0.1,1c-0.3,1.8-1.4,3.2-2.7,3.3c-1.1,0.1-2.5-1.1-3.1-2.8s-0.5-3.4,0.3-5c0.8-1.8,2.8-2.1,4-0.6
	c0.9,1.1,1.3,2.6,1.9,3.9C-27.4,149.3-27.5,149.4-27.6,149.4z"/>
<path d="M-64,143.9c0.5-0.5,1-1.1,1.6-1.4c1.4-0.6,3-1.1,4.5-1.6c2.5-0.9,4.7-2.1,6.4-4.1c0.3-0.4,1.1-0.5,1.6-0.7
	c0.1,0.7,0.3,1.4,0.2,2c-0.2,0.6-0.7,1.3-1.2,1.8c-3.2,2.9-7,4.4-11.3,4.9c-0.3,0-0.6,0-0.8,0s-0.4-0.1-0.6-0.2
	C-63.8,144.3-63.9,144.1-64,143.9z"/>
<path d="M-27.6,142.8c-0.3,0.2-0.8,0.7-1.1,0.6c-2.2-0.8-4.1-2-5.3-4.1c-0.1-0.3-0.1-0.8,0.1-1c0.2-0.2,0.8-0.4,1-0.3
	c1.7,1.3,3.4,2.7,5.1,4C-27.7,142.1-27.7,142.3-27.6,142.8z"/>
<path d="M-23.7,172.6c0,2.3-1.2,4-2.6,3.9s-2.4-1.9-2.3-4c0.1-2.2,1.3-3.8,2.7-3.7C-24.5,168.8-23.7,170.2-23.7,172.6z"/>
<path d="M-34.5,172.9c-0.6,1.2-0.9,2.6-1.8,3.5c-1.2,1.3-3.1,0.7-3.3-1.1c-0.1-1.4,0.1-2.8,0.5-4.2c0.3-1.1,1.2-1.9,2.5-1.7
	c1.2,0.2,1.6,1.2,1.7,2.3c0,0.3,0.1,0.7,0.1,1C-34.7,172.8-34.6,172.8-34.5,172.9z"/>
</svg>
