<?xml version="1.0" encoding="utf-8"?>
<!-- Generator: Adobe Illustrator 24.0.1, SVG Export Plug-In . SVG Version: 6.00 Build 0)  -->
<svg version="1.1" id="Livello_1" xmlns="http://www.w3.org/2000/svg" xmlns:xlink="http://www.w3.org/1999/xlink" x="0px" y="0px"
	 viewBox="0 0 595.9 595.3" style="enable-background:new 0 0 595.9 595.3;" xml:space="preserve">
<style type="text/css">
	.st0{fill:#FFFFFF;}
	.st1{fill:#142035;}
</style>
<path class="st0" d="M319.7,280.5c3.4,1,6.1,1.7,8.9,2.5c2,0.6,2.9,1.7,1.6,3.8c-7.7,11.7-15.3,23.4-23,35.1
	c-0.6,0.9-1.3,1.9-2.2,2.3c-1.1,0.5-2.9,0.8-3.6,0.2c-1-0.9-2-2.9-1.6-3.9C306.3,307.2,313,293.8,319.7,280.5z"/>
<path class="st0" d="M413.9,273.9c7.5,0.3,8,1.2,4.8,7.3c-4.1,7.7-8.1,15.4-12.2,23.1c-0.7,1.3-1.4,2.9-2.5,3.7
	c-1.1,0.8-2.9,1.5-4.1,1.1c-1.8-0.5-2.4-2-1.6-4.2c3.5-8.4,6.9-16.7,10.2-25.1c0.3-0.9,0.8-1.8,1-2.7
	C410.3,274.7,411.5,273,413.9,273.9z"/>
<path class="st1" d="M219.7,237.6c0-4.2-0.2-8.4,0.1-12.6c0.5-5.9,2.6-8.1,8.8-5.6c5.2,2.1,9.7,6,13.9,9.7c3.5,3,6.4,6.7,9.3,10.4
	c2.8,3.6,2.4,5.1-0.8,8.3c-6.6,6.7-13.3,13.6-19.7,20.5c-1.2,1.3-2,3-3.1,4.5c-0.6,0.8-1.4,1.5-2.1,2.2c-0.7-0.9-1.8-1.6-2-2.6
	c-1.1-4.5-2.4-8.9-2.9-13.5c-0.9-7-1.2-14.2-1.8-21.3C219.4,237.6,219.6,237.6,219.7,237.6z M248.4,243.2
	c-5.7-7.6-12.4-14.7-20.7-20.2c-3.4-2.1-4.9-1.6-4.8,2.5c0.6,11.4,1.6,22.8,2.4,34.2c0.1,1.3,0.3,2.5,0.7,3.9
	c0.2,1.2,0.7,2.5,0.9,3.3C233.9,258.9,241,251.2,248.4,243.2z"/>
<path class="st1" d="M369.8,417.3c-4.1,5.8-10.2,7.9-17,7.9c-5.7,0.1-11.2-0.7-15.6-4.8c0.1-0.4,0.2-0.8,0.3-1.2
	c2.9,0.6,5.9,1.1,8.8,1.6c6.9,1.3,13.3,0.2,19.3-3.4c1.1-0.7,2.3-0.9,3.4-1.4C369.4,416.6,369.6,416.9,369.8,417.3z"/>
<path class="st1" d="M378.3,345.5c-1.2,2.7-2.1,6-3.9,8.6c-2.3,3.3-6.4,2.8-8.7-0.5c-3.2-4.6-2.9-12.4,0.8-16.6c3-3.5,7.4-3,9.4,1.1
	C376.9,340.1,377.3,342.5,378.3,345.5z"/>
<path class="st1" d="M389.1,341.5c1.3-2.7,2.2-5.7,4-8.1c1.9-2.5,5-2.4,7.4-0.1c4.1,4,4.4,13.3,0.6,17.6c-2.8,3.1-6.7,2.9-8.8-0.8
	C390.7,347.8,390.3,344.8,389.1,341.5z"/>
<g>
	<path class="st1" d="M304.3,173.5c-2,1.6-5.3,3.3-9.5,3.3c-5.2,0-9.8-2.4-13-7c-2.4-3.3-4-7.8-4.6-13.5h-4v-3.8h3.6
		c0-0.4,0-0.8,0-1.2c0-1.3,0.1-2.4,0.1-3.5h-3.8v-3.9h4.2c0.8-5.5,2.7-10,5.2-13.3c3.3-4.2,7.4-6.5,12.7-6.5c3.8,0,6.7,1.3,8.5,2.5
		l-1.3,5.2c-1.6-1.2-4.3-2.2-7.2-2.2c-3.5,0-6.3,1.5-8.4,4.3c-1.9,2.3-3.2,5.8-3.8,10H301v3.9h-18.4c-0.1,1-0.1,2.2-0.1,3.3
		c0,0.5,0,0.9,0,1.4H301v3.8h-18.1c0.5,4.6,1.8,7.9,3.5,10.3c2.4,3.1,5.6,4.6,9,4.6c3.4,0,6.3-1.6,7.8-2.6L304.3,173.5z"/>
</g>
<path class="st1" d="M440.1,303.8c-3.4-4.6-5.3-8.9-4.5-14.3c0.4-2.3,1.1-4.9,2.5-6.7c5.2-6.5,2.9-14.3-5-16.3
	c-1.8-0.4-3.6-1-5.4-1.1c-4.6-0.1-8.2-1.2-9.9-6.1c-0.6-1.8-1-2.9-0.2-4.7c7.1-15.6,9.7-31.9,8.7-48.9c-0.2-3-1-6-2-8.8
	c-1.6-4.9-4.7-6.8-9.9-6.4c-11.3,0.8-21.5,4.9-31.1,10.4c-3.7,2.2-7.3,4.5-10.8,6.6c-3.3-19.5-12.2-34.5-31.1-42.4
	c0.4-3.9,1-8.1,1.1-12.3c0.3-15.2-5.1-28.6-14.3-40.4c-9.3-12-21.9-17.6-37.1-15.2c-18.1,2.9-29.5,14.2-34.7,31.3
	c-2,6.6-2,13.8-2.9,20.6c-18-4.3-33.6,1-45,16.2c-11.1,14.8-13.4,31.4-6.7,48.1c-8.9,6.5-17.7,12.9-26.5,19.4
	c-3.2-3.8-4.3-8.6-3.4-13.8c0.5-2.9,2.5-4.8,5.5-5.2c2.8-0.3,3.6,1.5,4.3,3.8c0.3,1,1.8,1.6,2.9,2.3c0.6-1.2,1.8-2.3,1.7-3.4
	c-0.2-4.8-5.5-8.5-10.2-7.4c-6.6,1.6-10.3,7-9.6,13.8c0.5,5.1,2,9.7,5.5,12.9c-5.5,8.3-11.3,15.8-15.8,24
	c-15.1,27.4-19.7,56.8-15.8,87.7c2.3,18.5,7.9,35.9,17.5,52c2.2,3.8,4.1,7.9,5.1,12.2c2.2,9.4,3.7,18.8,5.5,28.2
	c1.9,9.7,3.8,19.6,5.8,29.4c0.7,4,3.4,6.5,7.1,8.1c7.8,3.5,15.8,4.2,24.1,2.4c9.6-2.2,13.9-7.2,15-17c0.4-3.6,1.1-7.2,1.7-10.9
	c6.7,2.2,12.9,4.5,19.3,6.4c2.5,0.7,3.7,1.8,4.4,4.5c1.9,7.6,4.2,15.2,6.4,22.7c1.6,5.5,5.4,9,10.8,10.7c10.1,3.2,20.4,3,30.6,0.2
	c4.4-1.2,7.4-3.9,8.9-8.2c1-3.3,2-6.5,2.9-9.9c1-3.6,1.7-7.1,2.6-10.6c17.5,0.7,34.4-1.8,51.2-5.9c0.2,2.1,0.5,4.1,0.7,6.1
	c0.4,7.4,4.1,12,11.2,14.5c6.7,2.3,13.4,2.5,20.2,1.8c10.5-1.1,16.5-6.8,18.8-17.4c2.7-11.8,6.3-23.4,9.7-35.1
	c0.5-1.6,1.7-3.3,2.9-4.5c18.5-18.3,30.8-39.7,33.7-66.1C458.9,339.5,453,320.6,440.1,303.8z M418.9,281.3
	c-4,7.7-8.1,15.4-12.2,23.1c-0.7,1.3-1.4,2.9-2.5,3.7c-1.1,0.8-2.9,1.4-4.1,1.1c-1.8-0.6-2.5-2.2-1.6-4.2
	c3.4-8.4,6.8-16.7,10.2-25.1c0.3-0.9,0.8-1.8,1-2.7c0.7-2.6,1.7-4.3,4.2-3.3C421.4,274.2,422,275.1,418.9,281.3z M408.1,361.5
	c-12.2,11.1-26.8,14.4-42.4,10.1c-16.4-4.6-23.3-20.5-17-36.6c5.5-14.1,16.6-21.2,35.2-21.1c4.4-0.1,11,1.2,17.5,4.2
	C419,326.7,420.6,350.1,408.1,361.5z M379.8,208.6c9.1-5.9,18.9-10.5,29.7-12.8c8.7-1.8,11.3,0.2,12.1,8.6
	c1.5,16.4-1.2,32.4-7.8,47.7c-4-4.8-7.5-9.4-11.3-13.9c-3.7-4.4-7.7-8.5-12.2-13.4c2.8-2.7,5.8-6.4,9.6-9.3c3.8-2.8,8.1-5,12.3-7.5
	c-1.3-2.3-3.1-1.8-4.8-1.2c-7.8,2.5-13.5,7.8-18.7,13.9c-0.6,0.8-1.1,1.5-1.8,2.4c-4.6-3.3-9.1-6.6-13.9-10.1
	C375.4,211.5,377.6,210,379.8,208.6z M366.1,201c1.3,3,0,4.3-2.8,4.8c-0.9,0.1-1.8,0.5-2.8,0.7c-1.1-3.5-2.1-6.8-3.2-10.2
	c2.2-0.8,4.2-1.6,6.6-2.6C364.7,196.4,365.2,198.8,366.1,201z M367.1,205.7c0,2.9,0,5.5,0,8.5c-2-0.3-3.9-0.7-5.9-1
	c-0.2-1.9-0.4-3.5-0.5-5.3C362.9,207.2,364.9,206.4,367.1,205.7z M319.4,190.4c2.4-3.9,4.8-8.3,7.7-12.3c1-1.3,3.3-1.7,4.9-2.4
	c0.2,0.2,0.5,0.6,0.7,0.8c-2.3,2.6-4.5,5.3-7.1,8.4C326,186,323.7,188.4,319.4,190.4z M328.6,174.6c0.3-4.2,2.3-6.8,6.8-6.7
	C335,172.9,334.2,173.7,328.6,174.6z M330.4,167.1c0.5-2.5,0.9-4.9,1.3-7.4c1.7-0.4,3.4-0.9,5.2-1.3
	C337.4,165.1,336.3,166.6,330.4,167.1z M337.3,175.6c13.3,8.6,19.3,21.1,21.8,36.6c-4.3-2.1-6.9-4.5-8.3-8.6
	c-2.1-7.8-6.6-14.2-12.7-19.5c-1.2-1-2.5-1.9-4.1-3C335,179.5,336.1,177.7,337.3,175.6z M357.9,183.7c1.9,2.5,3.4,5.4,5.3,8.4
	c-2.2,1.1-4.2,2.1-6.1,3c-3-4.8-6-9.3-8.9-14.1C355.4,178.7,353.6,177.9,357.9,183.7z M340,169.2c4.5,2.8,8.9,5.4,13.7,8.3
	c-4.4,2.1-7.7,3.2-10.8-0.7c-1-1.4-2.8-2.3-4.4-3.4C338.9,172.2,339.3,171.2,340,169.2z M337.4,145.7c0.2,2,0.1,4.1,0.1,6.1
	c0,5.2-0.2,5.5-5.7,5.7c-0.3-5.7-0.6-11.3-0.9-17.3c1.7-0.4,3.2-0.8,5.4-1.3C336.7,141.2,337.2,143.4,337.4,145.7z M335.9,137.4
	c-6.5,2.2-5.5,3.1-7.6-6.5c1.5-0.4,3-0.8,4.9-1.3C334.1,132.4,335,134.9,335.9,137.4z M326.6,118.1c2.1,3.3,4,6.5,6.4,10.3
	c-2.3,0.6-3.7,0.9-5.4,1.3c-2.3-4.3-4.6-8.6-7-12.9C323.2,115.2,325,115.6,326.6,118.1z M323.4,114.4c-2.9,1.6-4.3,0.1-6.6-2.1
	c-4.1-4.1-9-7.3-12.9-10.3C309.1,102.2,317.7,107.4,323.4,114.4z M279.6,106c9.9-5.8,19.2-4.1,28.3,1.6
	c10.6,6.7,16.1,17.2,19.4,28.8c4.5,15.9,3.7,31.5-5,46.1c-4.2,7.1-10,12.8-18.4,14.9c-6.7,1.8-13.3,0.5-19.6-2.1
	c-0.5-0.3-1.1-1-1.2-1.6c-0.4-1.7-0.4-3.4-0.6-5.2c1.4,0.5,2.6,1.1,3.9,1.6c10.6,4.3,21.2,1.4,28.2-7.7c8.5-10.9,10.4-23.2,8.8-36.6
	c-1.5-11.7-6.3-21.8-15.2-29.5c-11.4-9.7-24.7-10.9-35.6,1.1c-4.4,4.9-6.9,10.8-8.6,17.1c-1.8,6.7-1.5,13.4,0.2,20.2
	c-3.4-1-4.6-2.8-4.8-5.9C257.3,133.1,264,115,279.6,106z M269.4,218.1c-0.5-5.7,3.8-5.9,7.4-7C276.6,216.3,275.4,216.2,269.4,218.1z
	 M275.3,218.1c-2.7,2.9-4.9,5.1-7,7.3c-0.3-0.3-0.6-0.6-0.8-0.9C267.7,220.2,269.2,218.8,275.3,218.1z M274.8,178.6
	c-6.5,2-6.5,2-9.3-3.8c-0.3-0.8-0.7-1.6-1-2.4C271.7,170.2,271.7,170.2,274.8,178.6z M264.1,171.1c-2.1-3-4.4-6-6.8-9.3
	c5.4-2,5.4-2,8.8,2c1.3,1.6,2.5,3.2,4.1,5.2c-1.3,0.4-2.2,0.8-3.2,1.1C266.1,170.4,265.2,170.8,264.1,171.1z M276.2,181.1
	c0.7,4.9,1.2,9.5,1.9,14c0.3,2.2-0.1,3.6-2.6,3.8c-1.3,0.1-2.6,0.7-3.9,1c-0.9-5.7-1.7-11.2-2.5-17
	C271.2,182.4,273.4,181.8,276.2,181.1z M270.7,211.2c0.1-2.8,0.2-5.6,0.5-8.3c0.1-0.6,0.8-1.5,1.4-1.7c1.7-0.7,3.5-1,5.2-1.5
	C279.2,208.1,278.2,209.8,270.7,211.2z M270.6,161.2c-10.2-15.8-2.2-38.9,9.4-46.4c9.1-5.9,19.7-3.1,26.7,3.5
	c9.9,9.5,13.7,21.6,13.8,35.2c-0.1,11.4-2.7,21.9-11.1,30.5c-7.1,7.3-18.4,7.5-27.1,0.7c-1-0.9-1.3-2.6-2-3.9
	C277.1,174.2,274.5,167.3,270.6,161.2z M260.2,158.4c-3.6,2.3-3.6,2.2-7-0.2c-2.9-1.9-6.1-3.7-9.6-5.8
	C250.1,152.8,255.6,154.6,260.2,158.4z M202.8,195.3c0.7-14.5,5.7-26.7,17.7-35.8c13.2-10,25.9-6.5,35.6,4.6
	c11.3,12.8,14.6,28.4,12.5,45.1c-0.6,4.4-1.8,8.8-2.8,13.7c-1.1-0.7-1.2-0.7-1.5-0.9c-2.7-2-3.5-4.1-2.6-8
	c3.5-14.7,1.5-28.8-7.5-41.3c-5.6-8-13-13.4-23.5-12c-7.6,0.9-12.5,5.9-16.4,12c-5.9,9.6-7.7,20-6.1,31.1c0.3,1.7-1.4,3.8-2.5,6.5
	C203.5,204.9,202.6,200.1,202.8,195.3z M258.6,216.5c-3.5-2.1-6.1-3.6-8.6-5.2c-4.9-2.7-12.6-5.6-16.5-7c-7.2-2.1-14.2-4.6-22.5-1.8
	c0-4.1-0.5-7.9,0.1-11.7c1.1-7.2,3.5-13.9,8.2-19.7c9.5-11.8,23.2-8.2,30.2,0.3c6.8,8.1,10,17.6,10.2,28
	C259.9,204.9,259.1,210.4,258.6,216.5z M406.3,462.8c-0.4,1.4-2.2,2.9-3.7,3.4c-11.2,3.4-22.6,3.7-34,0.3c-1.3-0.4-2.9-0.6-3.8-1.5
	c-1.7-1.5-0.6-4.5,1.8-5.3c17-5.6,32.8-13.4,46.8-24.7c0.1-0.1,0.3-0.1,0.7-0.2C411.5,444.2,409,453.4,406.3,462.8z M444.7,387.4
	c-9,21.5-24.5,37.7-43.8,50.3c-19,12.4-39.9,19.9-62.3,22.8c-8.6,1.2-17.4,1.4-26.1,2c-1.1,0-2.2-0.1-3.4-0.2c0-3.1,0-6,0-8.9
	c-2.8-0.3-3.2,1.9-3.6,3.5c-1.5,5.7-3,11.3-4,17c-0.7,3.5-2.4,5.3-5.6,6.2c-7.8,2.3-15.8,2.9-23.8,2.2c-4.3-0.4-8.7-1.5-13-2.2
	c-3.1-0.4-4.5-2.3-5.2-5.2c-2.3-9-4.7-18.1-7.2-27.1c-0.8-2.8-1-6.3-5.5-7.9c0.7,4.9,1.3,9.1,2,13.7c-17.5-4.2-33-12.7-47.8-22.5
	c-0.4,0.3-0.7,0.7-1.1,1.1c0.6,1.3,0.9,3,2,3.7c5.4,3.9,10.9,7.4,16.4,11c1.4,0.9,3.1,1.6,4.7,2.4c-0.4,2.7-0.5,5.4-1.2,7.9
	c-0.3,1.3-1.5,3-2.6,3.4c-11,3.8-22.1,4.6-33.3,0.7c-3.3-1.1-4.4-3.2-5-6.6c-2.7-16.5-4.2-33.4-9.7-49.4c-1-2.8-2.4-5.5-3.9-8.1
	c-14.3-24.5-20-51.1-18.1-79.2c1.7-26,9.8-50.1,25.8-71c8.8-11.4,19.5-20.7,32.7-28c-0.3,1.9-0.6,3.3-0.7,4.7
	c-1,13.4-2.4,26.9,0.6,40.3c1.5,6.5,2.8,13,7,18.3c0.9,1.2,2.3,2.1,3.4,3.2c0.2-0.2,0.6-0.3,0.9-0.5c-0.4-1.3-0.5-2.8-1.1-4
	c-6.2-13.4-8.7-27.5-7.1-42.2c0.8-6.8,1.4-13.6,2.1-20.3c0.1-0.7,0.4-1.5,0.6-2.2c2.9-10,6.7-12.4,16.6-9.9
	c15.5,4,29.8,10.1,40.3,22.9c1.2,1.6,2.5,1.9,4.6,0.5c10.6-7.1,13-17.6,13.5-30c13.1,3.8,26,7.3,38.8,11.3c4.4,1.4,8.5,1.8,12.9,0.4
	c1.9-0.6,3.9-0.8,6.3-2c-1.4-0.9-2.7-1.9-4.2-2.6c-6.9-2.8-13.9-5.6-21.2-8.5c6.4-3.3,11.5-7.6,15.6-13.2c0.4-0.6,2.4-0.8,2.9-0.4
	c3,2.5,6.2,4.9,8.4,7.9c2.3,3,4,6.7,5.2,10.3c2.5,7.5,7.8,11.8,15.2,12.9c7.7,1.1,13.6,5.1,19.3,9.7c12.9,10.2,23.7,22.3,32.1,36.5
	c0.3,0.6,0.6,1.1,0.9,1.7c-6.3,0.3-12.3,0.3-18.3,1c-7.1,1-14.3,2.1-21.1,4.2c-3.7,1.2-6.8,4.7-10.3,6.9c-1.4,0.9-3.2,1.6-4.8,1.8
	c-3.7,0.5-7.4,0.3-11,1c-2.4,0.4-4.3,0.2-6.4-1c-6.3-3.7-13.3-5.2-20.6-5.7c-26.9-2-52.2,4.7-76.9,14.4c-5,2-9.9,4.1-14.8,6.3
	c-3.6,1.6-4.8,5.3-3,8.6c1.6,3,3.6,3.8,6.7,2.5c7.8-3.3,15.5-6.6,23.2-10c3.9-1.6,5.5-1.2,6.8,2.9c1.2,3.7,1.6,7.7,2.4,11.6
	c3,14.5,11.8,23.5,26.1,26.9c10.6,2.5,21.4,3.1,32-0.2c13.5-4.1,21.1-13.6,23.4-27.4c0.5-2.9,0.7-6,1.3-8.9c0.7-3.6,2.4-6.5,6.3-7.5
	c4.1-1,7.1,0.3,8.6,4.2c1.8,4.9,3.5,9.8,5.5,15.2c-7,1.7-13,5.5-18.1,10.8c-9.8,11.3-12.4,27.5-5.8,39.8c3.7,7,9.6,11.2,17,13.7
	c0.6,0.3,1.2,0.5,1.8,0.7c0,0,0.1,0.1,0.1,0.2c-18.2,2.5-42.8-5-53.5-19.4c1.2-1.3,2.5-2.6,3.6-3.8c-1.7-0.7-3.4-1.8-5.1-1.8
	c-5.9,0-12.2,5.4-13.5,11.3c-0.2,0.6,0.2,1.5,0.4,2.2c0.8-0.2,1.7-0.2,2.3-0.7c2.1-1.8,4-3.7,6.5-6.2c0.4,9.3,2.5,17.2,6.6,24.7
	c5.9,10.8,14.4,19.2,25.6,24.4c17.1,8,35.2-1,39.5-19.4c0.8-3.2,1.3-6.5,1.9-9.1c6.4-1.8,12.6-2.8,18.3-5.2
	c11-4.6,19.4-12.2,21.6-24.7c1.7-9.4,0.3-18.3-5.8-25.5c4.2-2.5,8.7-4.5,12.2-7.6c3.5-3.1,5.9-7.3,9.2-11.6c3,4.9,6.7,10,9.6,15.6
	C456.2,341.7,454.1,364.7,444.7,387.4z M330.2,286.9c-7.7,11.7-15.3,23.4-23,35.1c-0.6,0.9-1.3,1.9-2.2,2.3
	c-1.1,0.4-2.9,0.8-3.6,0.2c-1-0.9-2-3-1.6-3.9c6.5-13.4,13.2-26.7,19.9-40.1c3.4,0.9,6.2,1.7,8.9,2.6
	C330.7,283.7,331.6,284.8,330.2,286.9z M363.4,402.1c-5.4,3-11.2,4.2-17.3,3.1c-7.6-1.4-20.9-11-24.7-18
	C333,381,359.1,390.1,363.4,402.1z"/>
<g>
	<path class="st1" d="M239.3,207.4h4.3v-3.8h-15.2C231.4,204.4,235.1,205.6,239.3,207.4z"/>
	<path class="st1" d="M219.5,202.2c1.4,0.1,3.3,0.2,5.6,0.7c0-0.2,0-0.4,0-0.7c0-1.1,0.1-2.3,0.1-3.3h18.4v-3.9h-17.8
		c0.6-4.2,1.9-7.7,3.8-10c2.2-2.8,5-4.3,8.4-4.3c2.9,0,5.6,1,7.2,2.2l1.3-5.2c-1.8-1.2-4.7-2.5-8.5-2.5c-5.2,0-9.4,2.4-12.7,6.5
		c-2.6,3.2-4.5,7.8-5.2,13.3h-4.2v3.9h3.8C219.6,199.9,219.5,201,219.5,202.2z"/>
</g>
</svg>
