<?xml version="1.0" encoding="utf-8"?>
<!-- Generator: Adobe Illustrator 24.0.1, SVG Export Plug-In . SVG Version: 6.00 Build 0)  -->
<svg version="1.1" id="Livello_1" xmlns="http://www.w3.org/2000/svg" xmlns:xlink="http://www.w3.org/1999/xlink" x="0px" y="0px"
	 viewBox="0 0 229.8 131.2" style="enable-background:new 0 0 229.8 131.2;" xml:space="preserve">
<style type="text/css">
	.st0{fill:#D87C0E;}
	.st1{fill:none;stroke:#60605F;stroke-miterlimit:10;}
	.st2{fill:#194FB1;}
	.st3{fill:none;stroke:#2752A0;stroke-miterlimit:10;}
</style>
<g>
	<g>
		<path class="st0" d="M95.7,102.2h4.4l-0.2,1h-1.5v5.1h-1.3v-5.1h-1.5V102.2z"/>
		<path class="st0" d="M100.5,102.1l1.2-0.3c0.1,0.2,0.1,0.7,0.1,1.1v0.9c0,0.1,0,0.3,0,0.4c0.3-0.3,0.8-0.5,1.3-0.5
			c0.6,0,1,0.3,1.2,0.6c0.1,0.3,0.1,0.3,0.1,0.8v3.2h-1.2v-3c0-0.5-0.1-0.6-0.5-0.6c-0.3,0-0.7,0.2-0.9,0.4v3.3h-1.2v-5.2
			C100.6,102.7,100.6,102.3,100.5,102.1z"/>
		<path class="st0" d="M108.6,107.2l0.5,0.7c-0.5,0.4-1.1,0.6-1.7,0.6c-1.3,0-2.1-0.9-2.1-2.3c0-0.8,0.2-1.4,0.6-1.8
			c0.4-0.4,0.8-0.6,1.4-0.6c0.5,0,1,0.2,1.3,0.5c0.4,0.4,0.6,1,0.6,2c0,0.1,0,0.1,0,0.3h-2.6v0c0,0.7,0.3,1.1,1,1.1
			C107.9,107.6,108.3,107.5,108.6,107.2z M106.5,105.6h1.4v-0.1c0-0.3,0-0.5-0.1-0.7c-0.1-0.2-0.3-0.3-0.5-0.3
			C106.8,104.6,106.5,105,106.5,105.6L106.5,105.6z"/>
		<path class="st0" d="M117,103.6l0.5,0.8c-0.3,0.2-0.5,0.3-0.8,0.3c-0.1,0-0.2,0-0.3,0c0.2,0.2,0.3,0.4,0.3,0.7
			c0,0.8-0.7,1.3-1.7,1.3c-0.1,0-0.1,0-0.2,0c-0.3,0.1-0.5,0.2-0.5,0.4c0,0.1,0.1,0.1,0.2,0.1l0.6,0c0.7,0,1.1,0.1,1.4,0.4
			c0.3,0.2,0.4,0.6,0.4,1c0,0.4-0.1,0.7-0.4,0.9c-0.4,0.4-1.1,0.6-1.8,0.6c-0.6,0-1.3-0.1-1.7-0.5c-0.2-0.2-0.4-0.5-0.4-0.8
			c0-0.2,0.1-0.4,0.1-0.5h1.1c0,0.1-0.1,0.1-0.1,0.3c0,0.4,0.3,0.6,0.9,0.6c0.3,0,0.6,0,0.8-0.2c0.2-0.1,0.3-0.3,0.3-0.5
			s-0.1-0.3-0.2-0.4c-0.1-0.1-0.3-0.1-0.6-0.1c-0.1,0-0.2,0-0.5,0c-0.5,0-0.9-0.1-1.1-0.1c-0.1,0-0.2-0.1-0.3-0.2
			c-0.1-0.1-0.1-0.2-0.1-0.4c0-0.2,0-0.3,0.1-0.4c0.1-0.2,0.4-0.3,0.7-0.3c-0.7-0.2-1-0.6-1-1.3c0-0.9,0.8-1.5,1.9-1.5
			c0.3,0,0.5,0,0.8,0.1c0.3,0.1,0.4,0.1,0.6,0.1C116.4,104,116.7,103.8,117,103.6z M114.7,104.6c-0.5,0-0.7,0.2-0.7,0.7
			c0,0.5,0.3,0.6,0.7,0.6c0.5,0,0.7-0.2,0.7-0.6C115.4,104.9,115.1,104.6,114.7,104.6z"/>
		<path class="st0" d="M117.7,104l1.1-0.3c0.1,0.2,0.2,0.4,0.2,0.6c0.2-0.2,0.5-0.5,0.7-0.6c0.1,0,0.3-0.1,0.4-0.1
			c0.2,0,0.3,0,0.4,0.1l-0.3,1c-0.1-0.1-0.2-0.1-0.3-0.1c-0.3,0-0.5,0.1-0.7,0.4v3.2h-1.2v-3C117.9,104.7,117.8,104.3,117.7,104z"/>
		<path class="st0" d="M123.7,107.2l0.5,0.7c-0.5,0.4-1.1,0.6-1.7,0.6c-1.3,0-2.1-0.9-2.1-2.3c0-0.8,0.2-1.4,0.6-1.8
			c0.4-0.4,0.8-0.6,1.4-0.6c0.5,0,1,0.2,1.3,0.5c0.4,0.4,0.6,1,0.6,2c0,0.1,0,0.1,0,0.3h-2.6v0c0,0.7,0.3,1.1,1,1.1
			C123,107.6,123.4,107.5,123.7,107.2z M121.7,105.6h1.4v-0.1c0-0.3,0-0.5-0.1-0.7c-0.1-0.2-0.3-0.3-0.5-0.3
			C121.9,104.6,121.7,105,121.7,105.6L121.7,105.6z"/>
		<path class="st0" d="M124.9,104.4c0.3-0.2,0.4-0.2,0.7-0.4c0.4-0.2,0.8-0.3,1.2-0.3c0.8,0,1.3,0.3,1.5,0.8
			c0.1,0.2,0.1,0.3,0.1,0.8l0,1.5c0,0,0,0.1,0,0.1c0,0.5,0.1,0.7,0.4,0.9l-0.6,0.7c-0.3-0.1-0.5-0.3-0.6-0.5
			c-0.2,0.2-0.2,0.2-0.3,0.2c-0.2,0.2-0.5,0.2-0.9,0.2c-1,0-1.6-0.5-1.6-1.4c0-1.1,0.7-1.6,2.2-1.6c0.1,0,0.1,0,0.3,0v-0.2
			c0-0.5-0.1-0.7-0.5-0.7c-0.4,0-0.8,0.2-1.3,0.5L124.9,104.4z M127.2,106.4L127.2,106.4c-0.9,0-1.2,0.2-1.2,0.7
			c0,0.4,0.2,0.6,0.5,0.6c0.2,0,0.4-0.1,0.6-0.3L127.2,106.4z"/>
		<path class="st0" d="M131.8,103.8l-0.3,0.8h-0.8v2.3c0,0.6,0.1,0.7,0.5,0.7c0.1,0,0.2,0,0.4-0.1l0.2,0.7c-0.3,0.1-0.7,0.2-1,0.2
			c-0.6,0-1.1-0.3-1.2-0.7c-0.1-0.2-0.1-0.3-0.1-0.7v-2.5h-0.5v-0.8h0.5c0-0.4,0-0.7,0-1.1l1.2-0.3c0,0.4-0.1,0.9-0.1,1.4H131.8z"/>
		<path class="st0" d="M135.3,107.2l0.5,0.7c-0.5,0.4-1.1,0.6-1.7,0.6c-1.3,0-2.1-0.9-2.1-2.3c0-0.8,0.2-1.4,0.6-1.8
			c0.4-0.4,0.8-0.6,1.4-0.6c0.5,0,1,0.2,1.3,0.5c0.4,0.4,0.6,1,0.6,2c0,0.1,0,0.1,0,0.3h-2.6v0c0,0.7,0.3,1.1,1,1.1
			C134.6,107.6,134.9,107.5,135.3,107.2z M133.2,105.6h1.4v-0.1c0-0.3,0-0.5-0.1-0.7c-0.1-0.2-0.3-0.3-0.5-0.3
			C133.5,104.6,133.2,105,133.2,105.6L133.2,105.6z"/>
		<path class="st0" d="M139.8,104.1l-0.4,0.8c-0.5-0.2-0.8-0.3-1.1-0.3c-0.3,0-0.6,0.2-0.6,0.4c0,0.2,0.2,0.4,0.6,0.5l0.5,0.1
			c0.6,0.1,0.7,0.3,0.9,0.5c0.2,0.2,0.2,0.5,0.2,0.8c0,0.9-0.8,1.6-1.9,1.6c-0.6,0-1.2-0.2-1.8-0.5l0.4-0.9c0.4,0.2,1,0.5,1.5,0.5
			c0.3,0,0.6-0.2,0.6-0.5c0-0.3-0.2-0.5-0.7-0.6l-0.5-0.1c-0.3-0.1-0.7-0.3-0.8-0.5c-0.2-0.2-0.3-0.5-0.3-0.8c0-0.9,0.7-1.5,1.8-1.5
			C138.9,103.7,139.4,103.9,139.8,104.1z"/>
		<path class="st0" d="M143.1,103.8l-0.3,0.8H142v2.3c0,0.6,0.1,0.7,0.5,0.7c0.1,0,0.2,0,0.4-0.1l0.2,0.7c-0.3,0.1-0.7,0.2-1,0.2
			c-0.6,0-1.1-0.3-1.2-0.7c-0.1-0.2-0.1-0.3-0.1-0.7v-2.5h-0.5v-0.8h0.5c0-0.4,0-0.7,0-1.1l1.2-0.3c0,0.4-0.1,0.9-0.1,1.4H143.1z"/>
		<path class="st0" d="M147,101.8c0.4,0,0.7,0.3,0.7,0.7s-0.3,0.7-0.7,0.7c-0.4,0-0.7-0.3-0.7-0.7S146.6,101.8,147,101.8z
			 M146.4,103.9l1.2-0.2v4.6h-1.2V103.9z"/>
		<path class="st0" d="M148.5,104l1.1-0.3c0.1,0.2,0.2,0.4,0.2,0.6c0.3-0.2,0.3-0.2,0.5-0.3c0.2-0.1,0.5-0.2,0.8-0.2
			c0.5,0,0.9,0.3,1.1,0.7c0.1,0.2,0.1,0.4,0.1,0.6v3.3h-1.2v-3c0-0.5-0.1-0.7-0.4-0.7c-0.2,0-0.5,0.2-0.8,0.4v3.2h-1.2v-3.3
			C148.7,104.7,148.6,104.3,148.5,104z"/>
		<path class="st0" d="M152.8,103.9l1.2-0.2l0.7,2c0.1,0.3,0.2,0.8,0.3,1.1c0-0.3,0.1-0.7,0.3-1.2l0.6-1.9h1.2l-1.7,4.5h-1
			L152.8,103.9z"/>
		<path class="st0" d="M160.7,107.2l0.5,0.7c-0.5,0.4-1.1,0.6-1.7,0.6c-1.3,0-2.1-0.9-2.1-2.3c0-0.8,0.2-1.4,0.6-1.8
			c0.4-0.4,0.8-0.6,1.4-0.6c0.5,0,1,0.2,1.3,0.5c0.4,0.4,0.6,1,0.6,2c0,0.1,0,0.1,0,0.3h-2.6v0c0,0.7,0.3,1.1,1,1.1
			C159.9,107.6,160.3,107.5,160.7,107.2z M158.6,105.6h1.4v-0.1c0-0.3,0-0.5-0.1-0.7c-0.1-0.2-0.3-0.3-0.5-0.3
			C158.8,104.6,158.6,105,158.6,105.6L158.6,105.6z"/>
		<path class="st0" d="M165.1,104.1l-0.4,0.8c-0.5-0.2-0.8-0.3-1.1-0.3c-0.3,0-0.6,0.2-0.6,0.4c0,0.2,0.2,0.4,0.6,0.5l0.5,0.1
			c0.6,0.1,0.7,0.3,0.9,0.5c0.2,0.2,0.2,0.5,0.2,0.8c0,0.9-0.8,1.6-1.9,1.6c-0.6,0-1.2-0.2-1.8-0.5l0.4-0.9c0.4,0.2,1,0.5,1.5,0.5
			c0.3,0,0.6-0.2,0.6-0.5c0-0.3-0.2-0.5-0.7-0.6l-0.5-0.1c-0.3-0.1-0.7-0.3-0.8-0.5c-0.2-0.2-0.3-0.5-0.3-0.8c0-0.9,0.7-1.5,1.8-1.5
			C164.2,103.7,164.7,103.9,165.1,104.1z"/>
		<path class="st0" d="M168.4,103.8l-0.3,0.8h-0.8v2.3c0,0.6,0.1,0.7,0.5,0.7c0.1,0,0.2,0,0.4-0.1l0.2,0.7c-0.3,0.1-0.7,0.2-1,0.2
			c-0.6,0-1.1-0.3-1.2-0.7c-0.1-0.2-0.1-0.3-0.1-0.7v-2.5h-0.5v-0.8h0.5c0-0.4,0-0.7,0-1.1l1.2-0.3c0,0.4-0.1,0.9-0.1,1.4H168.4z"/>
		<path class="st0" d="M170.6,103.7c0.6,0,1.2,0.2,1.5,0.7c0.4,0.4,0.5,0.9,0.5,1.7c0,0.8-0.2,1.3-0.6,1.8c-0.3,0.4-0.8,0.6-1.5,0.6
			c-1.2,0-2-0.9-2-2.3S169.3,103.7,170.6,103.7z M170.6,104.6c-0.3,0-0.5,0.2-0.6,0.5c-0.1,0.2-0.1,0.6-0.1,1c0,0.5,0.1,0.9,0.2,1.1
			c0.1,0.2,0.4,0.4,0.6,0.4c0.5,0,0.7-0.5,0.7-1.5c0-0.6-0.1-1-0.2-1.2C171,104.7,170.8,104.6,170.6,104.6z"/>
		<path class="st0" d="M173.3,104l1.1-0.3c0.1,0.2,0.2,0.4,0.2,0.6c0.2-0.2,0.5-0.5,0.7-0.6c0.1,0,0.3-0.1,0.4-0.1
			c0.2,0,0.3,0,0.4,0.1l-0.3,1c-0.1-0.1-0.2-0.1-0.3-0.1c-0.3,0-0.5,0.1-0.7,0.4v3.2h-1.2v-3C173.5,104.7,173.4,104.3,173.3,104z"/>
		<path class="st0" d="M181.1,103.7c0.6,0,1.2,0.2,1.5,0.7c0.4,0.4,0.5,0.9,0.5,1.7c0,0.8-0.2,1.3-0.6,1.8c-0.3,0.4-0.8,0.6-1.5,0.6
			c-1.2,0-2-0.9-2-2.3S179.9,103.7,181.1,103.7z M181.1,104.6c-0.3,0-0.5,0.2-0.6,0.5c-0.1,0.2-0.1,0.6-0.1,1c0,0.5,0.1,0.9,0.2,1.1
			c0.1,0.2,0.4,0.4,0.6,0.4c0.5,0,0.7-0.5,0.7-1.5c0-0.6-0.1-1-0.2-1.2C181.5,104.7,181.3,104.6,181.1,104.6z"/>
		<path class="st0" d="M186.2,102.8c-0.3-0.1-0.3-0.2-0.5-0.2c-0.3,0-0.5,0.2-0.5,0.5v0.6h1.2l-0.3,0.8h-0.8v3.7H184v-3.7h-0.4v-0.8
			h0.4c0-0.2,0-0.4,0-0.6c0-0.9,0.5-1.4,1.5-1.4c0.4,0,0.7,0.1,1.1,0.3L186.2,102.8z"/>
		<path class="st0" d="M189.3,104.4c0.3-0.2,0.4-0.2,0.7-0.4c0.4-0.2,0.8-0.3,1.2-0.3c0.8,0,1.3,0.3,1.5,0.8
			c0.1,0.2,0.1,0.3,0.1,0.8l0,1.5c0,0,0,0.1,0,0.1c0,0.5,0.1,0.7,0.4,0.9l-0.6,0.7c-0.3-0.1-0.5-0.3-0.6-0.5
			c-0.2,0.2-0.2,0.2-0.3,0.2c-0.2,0.2-0.5,0.2-0.9,0.2c-1,0-1.6-0.5-1.6-1.4c0-1.1,0.7-1.6,2.2-1.6c0.1,0,0.1,0,0.3,0v-0.2
			c0-0.5-0.1-0.7-0.5-0.7c-0.4,0-0.8,0.2-1.3,0.5L189.3,104.4z M191.6,106.4L191.6,106.4c-0.9,0-1.2,0.2-1.2,0.7
			c0,0.4,0.2,0.6,0.5,0.6c0.2,0,0.4-0.1,0.6-0.3L191.6,106.4z"/>
		<path class="st0" d="M195,101.8c0,0.2,0.1,0.5,0.1,1.2v3.5c0,0.8,0,0.9,0.1,1c0,0.1,0.1,0.1,0.2,0.1c0,0,0.1,0,0.1,0l0.2,0.7
			c-0.2,0.1-0.5,0.1-0.7,0.1c-0.5,0-0.9-0.2-1.1-0.6c-0.1-0.2-0.1-0.4-0.1-1v-3.4c0-0.6,0-1-0.1-1.4L195,101.8z"/>
		<path class="st0" d="M197.4,101.8c0,0.2,0.1,0.5,0.1,1.2v3.5c0,0.8,0,0.9,0.1,1c0,0.1,0.1,0.1,0.2,0.1c0,0,0.1,0,0.1,0l0.2,0.7
			c-0.2,0.1-0.5,0.1-0.7,0.1c-0.5,0-0.9-0.2-1.1-0.6c-0.1-0.2-0.1-0.4-0.1-1v-3.4c0-0.6,0-1-0.1-1.4L197.4,101.8z"/>
		<path class="st0" d="M203.9,103.8l-0.3,0.8h-0.8v2.3c0,0.6,0.1,0.7,0.5,0.7c0.1,0,0.2,0,0.4-0.1l0.2,0.7c-0.3,0.1-0.7,0.2-1,0.2
			c-0.6,0-1.1-0.3-1.2-0.7c-0.1-0.2-0.1-0.3-0.1-0.7v-2.5h-0.5v-0.8h0.5c0-0.4,0-0.7,0-1.1l1.2-0.3c0,0.4-0.1,0.9-0.1,1.4H203.9z"/>
		<path class="st0" d="M204.9,101.8c0.4,0,0.7,0.3,0.7,0.7s-0.3,0.7-0.7,0.7c-0.4,0-0.7-0.3-0.7-0.7S204.5,101.8,204.9,101.8z
			 M204.3,103.9l1.2-0.2v4.6h-1.2V103.9z"/>
		<path class="st0" d="M206.4,104l1.1-0.3c0.1,0.1,0.1,0.2,0.2,0.5c0.3-0.3,0.7-0.5,1.1-0.5c0.4,0,0.7,0.1,0.9,0.4
			c0.1,0.1,0.1,0.1,0.2,0.2c0.4-0.4,0.8-0.6,1.3-0.6c0.4,0,0.7,0.1,0.9,0.3c0.3,0.2,0.3,0.5,0.3,1.1v3.2h-1.2v-3
			c0-0.5-0.1-0.6-0.4-0.6c-0.2,0-0.5,0.2-0.8,0.4v3.3h-1.1v-3c0-0.6-0.1-0.7-0.4-0.7c-0.2,0-0.5,0.1-0.8,0.3v3.3h-1.2v-3.2
			C206.6,104.5,206.5,104.3,206.4,104z"/>
		<path class="st0" d="M216.6,107.2l0.5,0.7c-0.5,0.4-1.1,0.6-1.7,0.6c-1.3,0-2.1-0.9-2.1-2.3c0-0.8,0.2-1.4,0.6-1.8
			c0.4-0.4,0.8-0.6,1.4-0.6c0.5,0,1,0.2,1.3,0.5c0.4,0.4,0.6,1,0.6,2c0,0.1,0,0.1,0,0.3h-2.6v0c0,0.7,0.3,1.1,1,1.1
			C215.8,107.6,216.2,107.5,216.6,107.2z M214.5,105.6h1.4v-0.1c0-0.3,0-0.5-0.1-0.7c-0.1-0.2-0.3-0.3-0.5-0.3
			C214.7,104.6,214.5,105,214.5,105.6L214.5,105.6z"/>
		<path class="st0" d="M221.1,104.1l-0.4,0.8c-0.5-0.2-0.8-0.3-1.1-0.3c-0.3,0-0.6,0.2-0.6,0.4c0,0.2,0.2,0.4,0.6,0.5l0.5,0.1
			c0.6,0.1,0.7,0.3,0.9,0.5c0.2,0.2,0.2,0.5,0.2,0.8c0,0.9-0.8,1.6-1.9,1.6c-0.6,0-1.2-0.2-1.8-0.5l0.4-0.9c0.4,0.2,1,0.5,1.5,0.5
			c0.3,0,0.6-0.2,0.6-0.5c0-0.3-0.2-0.5-0.7-0.6l-0.5-0.1c-0.3-0.1-0.7-0.3-0.8-0.5c-0.2-0.2-0.3-0.5-0.3-0.8c0-0.9,0.7-1.5,1.8-1.5
			C220.2,103.7,220.6,103.9,221.1,104.1z"/>
	</g>
	<g>
		<path class="st0" d="M34.4,30.7h0.2l1-3.8l2.1-8.8l2.5,0.4l-2.4,8.8l-1.5,6.1l-4.1,0.3l-1.3-5.9l-0.8-2.9l-0.7,2.5l-1.5,6.1
			l-4,0.3l-1.3-5.9l-2.3-9.1l2.9-0.6l1.8,8.6l1,4.1h0.2l1.2-4.1l1.6-6l-0.5-2l2.9-0.6l1.8,8.6L34.4,30.7z"/>
		<path class="st0" d="M51.4,33.6l-1.1-4.3H45l-1.2,4.2L41,33.3l2-5.4l3-9.5l4-0.3l2.9,9.5l1.8,5.6L51.4,33.6z M47.9,20.9h-0.3
			l-1.9,6h3.9L47.9,20.9z"/>
		<path class="st0" d="M60.7,27.6h-1.3v0.1l0.3,5.8h-3l0.3-5.4l-0.3-9.9h4.8c1.4,0,2.5,0.4,3.4,1.2c0.8,0.8,1.3,1.8,1.3,3.1
			c0,1-0.2,1.8-0.7,2.6c-0.5,0.8-1.2,1.4-2,1.9l3.9,5.5l-2.7,1.4l-3.5-6.2C61,27.6,60.9,27.6,60.7,27.6z M60.7,20.4h-1.1l-0.2,5H61
			c0.7,0,1.3-0.2,1.7-0.7c0.4-0.5,0.6-1.2,0.6-2.1C63.3,21.2,62.5,20.4,60.7,20.4z"/>
		<path class="st0" d="M73.5,27.6h-1.3v0.1l0.3,5.8h-3l0.3-5.4l-0.3-9.9h4.8c1.4,0,2.5,0.4,3.4,1.2c0.8,0.8,1.3,1.8,1.3,3.1
			c0,1-0.2,1.8-0.7,2.6c-0.5,0.8-1.2,1.4-2,1.9l3.9,5.5l-2.7,1.4L74,27.6C73.9,27.6,73.7,27.6,73.5,27.6z M73.6,20.4h-1.1l-0.2,5
			h1.5c0.7,0,1.3-0.2,1.7-0.7c0.4-0.5,0.6-1.2,0.6-2.1C76.2,21.2,75.3,20.4,73.6,20.4z"/>
		<path class="st0" d="M82.4,33.5l0.3-5.4l-0.3-9.9h8.3l-0.2,2.4h-5l-0.1,3.9h4.4l-0.2,2.4h-4.3l0,0.9l0.2,3.4h5.4l-0.2,2.4H82.4z"
			/>
		<path class="st0" d="M105,18.1l-0.3,9.6L105,33l-2.6,0.6l-6.6-10.7v4.9l0.3,5.8h-2.8l0.3-5.4l-0.3-9.8l2.7-0.1l6.6,10.8l-0.2-10.5
			L105,18.1z"/>
		<path class="st0" d="M116.8,18.2c1.4,0,2.5,0.3,3.4,1c0.8,0.6,1.2,1.5,1.2,2.6c0,1.7-0.7,2.9-2.1,3.6c1.9,0.7,2.9,1.9,2.9,3.7
			c0,1.3-0.6,2.5-1.7,3.4c-1.2,0.9-2.6,1.3-4.3,1.3c-0.9,0-2.3-0.1-4.1-0.2l0.3-5.4l-0.3-9.9H116.8z M116.5,26.9h-1.8l0,0.8l0.2,3.6
			c0.9,0.1,1.5,0.1,2,0.1c0.8,0,1.4-0.2,1.8-0.6c0.4-0.4,0.7-1,0.7-1.7s-0.2-1.3-0.7-1.7C118.2,27.1,117.5,26.9,116.5,26.9z
			 M116,20.4h-1.1l-0.1,4.3h1.4c0.8,0,1.3-0.2,1.7-0.6c0.4-0.4,0.6-1,0.6-1.7C118.6,21.1,117.7,20.4,116,20.4z"/>
		<path class="st0" d="M129.5,33.7c-1.3,0-2.5-0.4-3.4-1.2c-0.9-0.8-1.4-1.8-1.4-3l-0.2-10.9l3.2-0.6l-0.4,9.7c0,1,0.2,1.8,0.7,2.4
			c0.5,0.6,1.2,0.9,2.2,0.9c1,0,1.7-0.3,2.2-0.8c0.4-0.6,0.7-1.5,0.7-2.9l-0.3-8.7l3.1-0.6l-0.2,9.8c0,1.7-0.6,3.2-1.8,4.3
			C132.9,33.2,131.4,33.7,129.5,33.7z"/>
		<path class="st0" d="M147.1,20.6h-4.7l-0.1,4.1h4.2l-0.2,2.4h-4.1l0,0.7l0.3,5.8h-3.1l0.3-5.4l-0.3-9.9h8L147.1,20.6z"/>
		<path class="st0" d="M156.9,20.6h-4.7l-0.1,4.1h4.2L156,27h-4.1l0,0.7l0.3,5.8h-3.1l0.3-5.4l-0.3-9.9h8L156.9,20.6z"/>
		<path class="st0" d="M158.9,33.5l0.3-5.4l-0.3-9.9h8.3l-0.2,2.4h-5l-0.1,3.9h4.4l-0.2,2.4h-4.3l0,0.9l0.2,3.4h5.4l-0.2,2.4H158.9z
			"/>
		<path class="st0" d="M168,20.7l0.2-2.5h10.5l-0.2,2.5l-3.9-0.3l-0.1,7.3l0.3,5.8h-3.1l0.3-5.4l-0.1-7.7L168,20.7z"/>
	</g>
	<line class="st1" x1="23.6" y1="45.1" x2="123.6" y2="45.1"/>
	<g>
		<path class="st2" d="M22,56.9l3.9,0c1.8,0,3.1,1.2,3.1,3.1c0,1.6-1,2.9-2.3,2.9c0.2,0.2,0.3,0.3,0.4,0.4c0.6,0.8,2.5,4,2.5,4H27
			c-0.4-0.7-0.6-1-1-1.7c-1-1.9-1.4-2.4-1.7-2.5c-0.1,0-0.2-0.1-0.3-0.1v4.3H22V56.9z M24,58.6l0,2.8h0.7c0.9,0,1.3-0.1,1.6-0.3
			c0.3-0.2,0.4-0.6,0.4-1.1c0-0.6-0.3-1.1-0.8-1.3c-0.2-0.1-0.7-0.1-1.2-0.1H24z"/>
		<path class="st2" d="M31.5,56.3c0.7,0,1.2,0.6,1.2,1.2s-0.6,1.2-1.2,1.2c-0.7,0-1.2-0.6-1.2-1.2S30.8,56.3,31.5,56.3z M30.5,59.8
			l2-0.3v7.9h-2V59.8z"/>
		<path class="st2" d="M39.6,60.2l-0.7,1.4C38.1,61.2,37.6,61,37,61c-0.6,0-1,0.3-1,0.7c0,0.4,0.3,0.6,1,0.8l0.9,0.2
			c0.9,0.2,1.3,0.5,1.5,0.9c0.3,0.4,0.4,0.8,0.4,1.3c0,1.6-1.3,2.7-3.3,2.7c-0.9,0-2-0.3-3.1-0.9l0.7-1.5c0.6,0.4,1.7,0.9,2.6,0.9
			c0.6,0,1-0.4,1-0.9c0-0.5-0.4-0.8-1.2-0.9l-0.9-0.2c-0.5-0.1-1.1-0.4-1.4-0.8s-0.4-0.9-0.4-1.4c0-1.5,1.2-2.5,3-2.5
			C38.1,59.5,38.9,59.8,39.6,60.2z"/>
		<path class="st2" d="M41.1,56.7l2-0.5c0.1,0.6,0.1,1.5,0.1,2.5v8.7h-2v-8.7C41.2,58,41.2,57.5,41.1,56.7z M45.2,59.7h2.4l-2.4,3.2
			l3,4.5h-2.4L43.3,63L45.2,59.7z"/>
		<path class="st2" d="M59.1,60.3l-1,1.3c-0.4-0.4-0.8-0.6-1.2-0.6c-0.9,0-1.3,0.8-1.3,2.6c0,1,0.1,1.6,0.4,1.9
			c0.2,0.3,0.6,0.4,0.9,0.4c0.5,0,0.9-0.2,1.4-0.6l0.1-0.1l0.9,1.2c-0.3,0.3-0.4,0.4-0.7,0.6c-0.5,0.3-1.1,0.5-1.9,0.5
			c-2.1,0-3.3-1.5-3.3-4c0-1.8,0.7-2.9,1.6-3.6c0.5-0.3,1.3-0.6,1.9-0.6c0.5,0,1,0.1,1.5,0.3C58.6,60,58.7,60.1,59.1,60.3z"/>
		<path class="st2" d="M63.1,59.5c1.1,0,2,0.4,2.6,1.2c0.6,0.7,0.9,1.6,0.9,2.8c0,1.3-0.3,2.2-1,3c-0.6,0.7-1.4,1.1-2.5,1.1
			c-2.1,0-3.4-1.6-3.4-4C59.7,61.1,61,59.5,63.1,59.5z M63.1,61c-0.5,0-0.9,0.3-1,0.8c-0.1,0.4-0.2,0.9-0.2,1.7
			c0,0.9,0.1,1.5,0.3,1.9c0.2,0.4,0.6,0.6,1,0.6c0.9,0,1.2-0.8,1.2-2.6c0-1-0.1-1.7-0.4-2.1C63.8,61.2,63.5,61,63.1,61z"/>
		<path class="st2" d="M67.7,60l1.8-0.5c0.1,0.2,0.2,0.4,0.3,0.8c0.5-0.5,1.2-0.8,1.9-0.8c0.6,0,1.2,0.2,1.6,0.6
			c0.1,0.1,0.1,0.2,0.3,0.4c0.7-0.7,1.3-1,2.2-1c0.6,0,1.2,0.2,1.5,0.5c0.4,0.4,0.6,0.8,0.6,1.9v5.5h-1.9v-5.1
			c0-0.9-0.1-1.1-0.6-1.1c-0.4,0-0.9,0.3-1.3,0.6v5.5H72v-5c0-1-0.1-1.2-0.7-1.2c-0.4,0-0.9,0.2-1.3,0.6v5.6h-2V62
			C68,60.9,68,60.4,67.7,60z"/>
		<path class="st2" d="M85,65.3l0.8,1.2c-0.9,0.7-1.8,1.1-2.9,1.1c-2.2,0-3.6-1.6-3.6-4c0-1.4,0.3-2.3,1-3c0.6-0.7,1.4-1,2.4-1
			c0.9,0,1.7,0.3,2.2,0.8c0.7,0.7,1,1.8,1,3.4c0,0.2,0,0.2,0,0.5h-4.4v0.1c0,1.2,0.6,1.9,1.6,1.9C83.7,66.1,84.3,65.8,85,65.3z
			 M81.4,62.7h2.3v-0.1c0-0.6-0.1-0.9-0.2-1.2C83.3,61.2,83,61,82.6,61C81.9,61,81.4,61.6,81.4,62.7L81.4,62.7z"/>
		<path class="st2" d="M92.5,60.2l-0.7,1.4C91.1,61.2,90.5,61,90,61c-0.6,0-1,0.3-1,0.7c0,0.4,0.3,0.6,1,0.8l0.9,0.2
			c0.9,0.2,1.3,0.5,1.5,0.9c0.3,0.4,0.4,0.8,0.4,1.3c0,1.6-1.3,2.7-3.3,2.7c-0.9,0-2-0.3-3.1-0.9l0.7-1.5c0.6,0.4,1.7,0.9,2.6,0.9
			c0.6,0,1-0.4,1-0.9c0-0.5-0.4-0.8-1.2-0.9l-0.9-0.2c-0.5-0.1-1.1-0.4-1.4-0.8s-0.4-0.9-0.4-1.4c0-1.5,1.2-2.5,3-2.5
			C91,59.5,91.8,59.8,92.5,60.2z"/>
		<path class="st2" d="M102.9,58c-0.4-0.2-0.6-0.3-0.8-0.3c-0.5,0-0.8,0.3-0.8,0.9v1.1h1.9l-0.5,1.4h-1.4v6.3h-2v-6.3h-0.7v-1.4h0.7
			c0-0.3-0.1-0.7-0.1-1c0-1.5,0.9-2.4,2.5-2.4c0.7,0,1.2,0.1,1.8,0.5L102.9,58z"/>
		<path class="st2" d="M103.3,60l1.8-0.5c0.2,0.3,0.3,0.7,0.3,1.1c0.3-0.4,0.8-0.8,1.1-1c0.2-0.1,0.4-0.1,0.7-0.1
			c0.3,0,0.4,0,0.7,0.2l-0.6,1.8c-0.2-0.1-0.4-0.1-0.6-0.1c-0.5,0-0.9,0.2-1.2,0.6v5.4h-2v-5.1C103.6,61.2,103.4,60.4,103.3,60z"/>
		<path class="st2" d="M111.4,59.5c1.1,0,2,0.4,2.6,1.2c0.6,0.7,0.9,1.6,0.9,2.8c0,1.3-0.3,2.2-1,3c-0.6,0.7-1.4,1.1-2.5,1.1
			c-2.1,0-3.4-1.6-3.4-4C107.9,61.1,109.3,59.5,111.4,59.5z M111.4,61c-0.5,0-0.9,0.3-1,0.8c-0.1,0.4-0.2,0.9-0.2,1.7
			c0,0.9,0.1,1.5,0.3,1.9c0.2,0.4,0.6,0.6,1,0.6c0.9,0,1.2-0.8,1.2-2.6c0-1-0.1-1.7-0.4-2.1C112.1,61.2,111.8,61,111.4,61z"/>
		<path class="st2" d="M116,60l1.8-0.5c0.1,0.2,0.2,0.4,0.3,0.8c0.5-0.5,1.2-0.8,1.9-0.8c0.6,0,1.2,0.2,1.6,0.6
			c0.1,0.1,0.1,0.2,0.3,0.4c0.7-0.7,1.3-1,2.2-1c0.6,0,1.2,0.2,1.5,0.5c0.4,0.4,0.6,0.8,0.6,1.9v5.5h-1.9v-5.1
			c0-0.9-0.1-1.1-0.6-1.1c-0.4,0-0.9,0.3-1.3,0.6v5.5h-1.9v-5c0-1-0.1-1.2-0.7-1.2c-0.4,0-0.9,0.2-1.3,0.6v5.6h-2V62
			C116.3,60.9,116.2,60.4,116,60z"/>
		<path class="st2" d="M132.7,60l1.8-0.5c0.2,0.3,0.3,0.6,0.3,1c0.5-0.3,0.6-0.4,0.9-0.6c0.4-0.2,0.9-0.3,1.4-0.3
			c0.9,0,1.6,0.4,1.8,1.1c0.1,0.3,0.1,0.6,0.1,1.1v5.6h-2v-5c0-0.9-0.1-1.1-0.7-1.1c-0.4,0-0.9,0.3-1.4,0.7v5.4h-2v-5.6
			C133,61.1,132.9,60.5,132.7,60z"/>
		<path class="st2" d="M143.9,59.5c1.1,0,2,0.4,2.6,1.2c0.6,0.7,0.9,1.6,0.9,2.8c0,1.3-0.3,2.2-1,3c-0.6,0.7-1.4,1.1-2.5,1.1
			c-2.1,0-3.4-1.6-3.4-4C140.4,61.1,141.8,59.5,143.9,59.5z M143.9,61c-0.5,0-0.9,0.3-1,0.8c-0.1,0.4-0.2,0.9-0.2,1.7
			c0,0.9,0.1,1.5,0.3,1.9c0.2,0.4,0.6,0.6,1,0.6c0.9,0,1.2-0.8,1.2-2.6c0-1-0.1-1.7-0.4-2.1C144.6,61.2,144.3,61,143.9,61z"/>
		<path class="st2" d="M152.6,59.7l-0.5,1.3h-1.3v3.9c0,1,0.2,1.2,0.9,1.2c0.2,0,0.4,0,0.7-0.1l0.3,1.2c-0.6,0.2-1.1,0.3-1.6,0.3
			c-1,0-1.8-0.5-2.1-1.1c-0.1-0.3-0.1-0.5-0.1-1.2V61H148v-1.3h0.8c0-0.8,0-1.3,0.1-1.8l2-0.5c-0.1,0.7-0.1,1.5-0.1,2.3H152.6z"/>
		<path class="st2" d="M158.1,56.7l2-0.5c0.1,0.6,0.1,1.5,0.1,2.5v8.7h-2v-8.7C158.2,58,158.2,57.5,158.1,56.7z M162.3,59.7h2.4
			l-2.4,3.2l3,4.5h-2.4l-2.6-4.3L162.3,59.7z"/>
		<path class="st2" d="M165.6,60l1.8-0.5c0.2,0.3,0.3,0.6,0.3,1c0.5-0.3,0.6-0.4,0.9-0.6c0.4-0.2,0.9-0.3,1.4-0.3
			c0.9,0,1.6,0.4,1.8,1.1c0.1,0.3,0.1,0.6,0.1,1.1v5.6h-2v-5c0-0.9-0.1-1.1-0.7-1.1c-0.4,0-0.9,0.3-1.4,0.7v5.4h-2v-5.6
			C165.8,61.1,165.7,60.5,165.6,60z"/>
		<path class="st2" d="M176.7,59.5c1.1,0,2,0.4,2.6,1.2c0.6,0.7,0.9,1.6,0.9,2.8c0,1.3-0.3,2.2-1,3c-0.6,0.7-1.4,1.1-2.5,1.1
			c-2.1,0-3.4-1.6-3.4-4C173.3,61.1,174.6,59.5,176.7,59.5z M176.7,61c-0.5,0-0.9,0.3-1,0.8c-0.1,0.4-0.2,0.9-0.2,1.7
			c0,0.9,0.1,1.5,0.3,1.9c0.2,0.4,0.6,0.6,1,0.6c0.9,0,1.2-0.8,1.2-2.6c0-1-0.1-1.7-0.4-2.1C177.4,61.2,177.1,61,176.7,61z"/>
		<path class="st2" d="M180.6,59.8l2-0.2l0.6,2.9c0.2,0.9,0.4,2.4,0.4,2.4s0.2-1.4,0.6-2.7l0.7-2.6h1.9l0.6,2.5
			c0.3,1.4,0.6,2.7,0.6,2.7c0-0.3,0.2-1.5,0.4-2.5l0.6-2.7h2.1l-2.2,7.6H187l-0.7-2.6c-0.1-0.6-0.3-1.4-0.4-1.9
			c-0.1-0.4-0.1-0.5-0.1-0.8c0,0.3-0.1,0.4-0.2,1c-0.3,1.3-0.6,2.6-0.7,2.7l-0.4,1.6h-1.9L180.6,59.8z"/>
		<path class="st2" d="M193,56.3c0.7,0,1.2,0.6,1.2,1.2s-0.6,1.2-1.2,1.2c-0.7,0-1.2-0.6-1.2-1.2S192.3,56.3,193,56.3z M192,59.8
			l2-0.3v7.9h-2V59.8z"/>
		<path class="st2" d="M195.6,60l1.8-0.5c0.2,0.3,0.3,0.6,0.3,1c0.5-0.3,0.6-0.4,0.9-0.6c0.4-0.2,0.9-0.3,1.4-0.3
			c0.9,0,1.6,0.4,1.8,1.1c0.1,0.3,0.1,0.6,0.1,1.1v5.6h-2v-5c0-0.9-0.1-1.1-0.7-1.1c-0.4,0-0.9,0.3-1.4,0.7v5.4h-2v-5.6
			C195.9,61.1,195.8,60.5,195.6,60z"/>
		<path class="st2" d="M210.7,59.2l0.8,1.3c-0.4,0.4-0.9,0.6-1.4,0.6c-0.2,0-0.3,0-0.5,0c0.3,0.4,0.4,0.8,0.4,1.3
			c0,1.3-1.2,2.3-2.8,2.3c-0.1,0-0.1,0-0.3,0c-0.5,0.2-0.8,0.4-0.8,0.6c0,0.1,0.1,0.2,0.3,0.2l1.1,0c1.2,0,1.8,0.2,2.3,0.7
			c0.4,0.4,0.7,0.9,0.7,1.6c0,0.6-0.2,1.1-0.6,1.6c-0.7,0.7-1.8,1-3,1c-1.1,0-2.2-0.2-2.9-0.8c-0.4-0.4-0.6-0.8-0.6-1.4
			c0-0.4,0.1-0.6,0.2-0.8h1.9c-0.1,0.2-0.1,0.2-0.1,0.5c0,0.6,0.5,0.9,1.4,0.9c0.6,0,1-0.1,1.3-0.3c0.3-0.2,0.5-0.5,0.5-0.8
			s-0.2-0.6-0.4-0.7c-0.2-0.1-0.5-0.2-1-0.2c-0.1,0-0.4,0-0.9,0c-0.9,0-1.5-0.1-1.8-0.2c-0.2-0.1-0.3-0.2-0.4-0.4
			c-0.1-0.2-0.1-0.4-0.1-0.6c0-0.3,0.1-0.5,0.2-0.7c0.2-0.3,0.7-0.5,1.2-0.6c-1.1-0.3-1.6-1-1.6-2.1c0-1.6,1.3-2.6,3.2-2.6
			c0.4,0,0.8,0,1.4,0.2c0.6,0.1,0.7,0.2,0.9,0.2C209.6,59.9,210.2,59.7,210.7,59.2z M206.7,61c-0.8,0-1.2,0.4-1.2,1.1
			c0,0.8,0.5,1.1,1.2,1.1c0.8,0,1.2-0.4,1.2-1.1C207.9,61.4,207.5,61,206.7,61z"/>
		<path class="st2" d="M21.2,77.8l2-0.2l0.6,2.9c0.2,0.9,0.4,2.4,0.4,2.4s0.2-1.4,0.6-2.7l0.7-2.6h1.9l0.6,2.5
			c0.3,1.4,0.6,2.7,0.6,2.7c0-0.3,0.2-1.5,0.4-2.5l0.6-2.7h2.1l-2.2,7.6h-1.8l-0.7-2.6c-0.1-0.6-0.3-1.3-0.4-1.9
			c-0.1-0.4-0.1-0.5-0.1-0.8c0,0.3-0.1,0.4-0.2,1c-0.3,1.3-0.6,2.6-0.7,2.7l-0.4,1.6h-1.9L21.2,77.8z"/>
		<path class="st2" d="M32.5,74.7l2.1-0.5c0.1,0.4,0.1,1.1,0.1,1.9v1.5c0,0.2,0,0.6,0,0.6c0.5-0.5,1.4-0.8,2.2-0.8
			c0.9,0,1.8,0.4,2,1.1c0.1,0.4,0.2,0.6,0.2,1.4v5.4h-2v-5.2c0-0.8-0.2-1.1-0.8-1.1c-0.5,0-1.1,0.3-1.6,0.7v5.5h-2v-8.9
			C32.7,75.8,32.6,75,32.5,74.7z"/>
		<path class="st2" d="M40.7,78.6c0.5-0.3,0.7-0.4,1.2-0.6c0.7-0.3,1.4-0.5,2.1-0.5c1.3,0,2.2,0.5,2.5,1.3c0.1,0.3,0.1,0.6,0.1,1.4
			l0,2.6c0,0,0,0.1,0,0.1c0,0.8,0.1,1.1,0.7,1.6l-1.1,1.2c-0.5-0.2-0.9-0.5-1.1-0.9c-0.3,0.3-0.3,0.3-0.5,0.4
			c-0.4,0.3-0.9,0.4-1.5,0.4c-1.7,0-2.6-0.9-2.6-2.4c0-1.8,1.2-2.6,3.7-2.6c0.1,0,0.2,0,0.4,0v-0.3c0-0.9-0.2-1.1-0.9-1.1
			c-0.6,0-1.4,0.3-2.2,0.9L40.7,78.6z M44.6,82L44.6,82c-1.5,0-2,0.3-2,1.2c0,0.6,0.4,1,0.9,1c0.4,0,0.8-0.2,1-0.5L44.6,82z"/>
		<path class="st2" d="M52.3,77.7L51.8,79h-1.3v3.9c0,1,0.2,1.2,0.9,1.2c0.2,0,0.4,0,0.7-0.1l0.3,1.2c-0.6,0.2-1.1,0.3-1.6,0.3
			c-1,0-1.8-0.5-2.1-1.1c-0.1-0.3-0.1-0.5-0.1-1.2V79h-0.8v-1.3h0.8c0-0.8,0-1.3,0.1-1.8l2-0.5c-0.1,0.7-0.1,1.5-0.1,2.3H52.3z"/>
		<path class="st2" d="M57.1,77.8l2.1-0.2l1.3,4.5c0.1,0.5,0.4,1.6,0.4,1.6s0.1-0.9,0.2-1.2c0.1-0.5,0.1-0.6,0.3-1.1l1.2-3.6h2.1
			l-2.8,7.8C61.4,87,61,87.6,60.4,88c-0.5,0.4-1.2,0.6-1.9,0.7l-0.7-1.3c0.4-0.1,0.9-0.3,1.2-0.5c0.2-0.2,0.4-0.4,0.6-0.6
			c0.2-0.3,0.3-0.4,0.4-0.9h-0.5c-0.1-0.4-0.2-0.5-0.3-0.9c-0.1-0.5-0.4-1.2-0.4-1.3L57.1,77.8z"/>
		<path class="st2" d="M68.3,77.5c1.1,0,2,0.4,2.6,1.2c0.6,0.7,0.9,1.6,0.9,2.8c0,1.3-0.3,2.2-1,3c-0.6,0.7-1.4,1.1-2.5,1.1
			c-2.1,0-3.4-1.6-3.4-4C64.9,79.1,66.3,77.5,68.3,77.5z M68.4,79c-0.5,0-0.9,0.3-1,0.8c-0.1,0.4-0.2,0.9-0.2,1.7
			c0,0.9,0.1,1.5,0.3,1.9c0.2,0.4,0.6,0.6,1,0.6c0.9,0,1.2-0.8,1.2-2.6c0-1-0.1-1.7-0.4-2.1C69,79.2,68.7,79,68.4,79z"/>
		<path class="st2" d="M73.2,77.9l2-0.4v4.9c0,0.7,0,1,0.2,1.3c0.1,0.2,0.4,0.4,0.7,0.4c0.5,0,1.1-0.4,1.2-0.7v-5.4l1.9-0.4v5.9
			c0,0.5,0.2,1,0.5,1.4l-1.4,0.8c-0.3-0.2-0.5-0.4-0.6-0.8c-0.5,0.5-1.2,0.7-2,0.7c-1.1,0-2-0.5-2.3-1.2c-0.1-0.3-0.2-0.8-0.2-1.5
			V77.9z"/>
		<path class="st2" d="M81.6,74.7h1.9V79h-1.9V74.7z"/>
		<path class="st2" d="M85.5,78l1.8-0.5c0.2,0.3,0.3,0.7,0.3,1.1c0.3-0.4,0.8-0.8,1.1-1c0.2-0.1,0.4-0.1,0.7-0.1
			c0.3,0,0.4,0,0.7,0.2l-0.6,1.8c-0.2-0.1-0.4-0.1-0.6-0.1c-0.5,0-0.9,0.2-1.2,0.6v5.4h-2v-5.1C85.8,79.2,85.6,78.4,85.5,78z"/>
		<path class="st2" d="M95.7,83.3l0.8,1.2c-0.9,0.7-1.8,1.1-2.9,1.1c-2.2,0-3.6-1.6-3.6-4c0-1.4,0.3-2.3,1-3c0.6-0.7,1.4-1,2.4-1
			c0.9,0,1.7,0.3,2.2,0.8c0.7,0.7,1,1.8,1,3.4c0,0.2,0,0.2,0,0.5h-4.4v0.1c0,1.2,0.6,1.9,1.6,1.9C94.4,84.1,95.1,83.8,95.7,83.3z
			 M92.1,80.7h2.3v-0.1c0-0.6-0.1-0.9-0.2-1.2C94,79.1,93.7,79,93.3,79C92.6,79,92.1,79.6,92.1,80.7L92.1,80.7z"/>
		<path class="st2" d="M109.2,74.6v8c0,1.9,0.1,2.5,0.3,2.8h-1.8c-0.1-0.1-0.1-0.2-0.1-0.5c-0.5,0.4-1.1,0.6-1.8,0.6
			c-2,0-3.2-1.5-3.2-3.9c0-2.4,1.3-4,3.3-4c0.6,0,1,0.1,1.4,0.4c0-0.2-0.1-0.7-0.1-1.1v-2.6L109.2,74.6z M107.2,79.7
			c-0.4-0.3-0.7-0.5-1.1-0.5c-0.9,0-1.3,0.8-1.3,2.5c0,1.6,0.3,2.2,1.4,2.2c0.4,0,0.8-0.3,1-0.5V79.7z"/>
		<path class="st2" d="M114.2,77.5c1.1,0,2,0.4,2.6,1.2c0.6,0.7,0.9,1.6,0.9,2.8c0,1.3-0.3,2.2-1,3c-0.6,0.7-1.4,1.1-2.5,1.1
			c-2.1,0-3.4-1.6-3.4-4C110.7,79.1,112.1,77.5,114.2,77.5z M114.2,79c-0.5,0-0.9,0.3-1,0.8c-0.1,0.4-0.2,0.9-0.2,1.7
			c0,0.9,0.1,1.5,0.3,1.9c0.2,0.4,0.6,0.6,1,0.6c0.9,0,1.2-0.8,1.2-2.6c0-1-0.1-1.7-0.4-2.1C114.9,79.2,114.6,79,114.2,79z"/>
		<path class="st2" d="M120,74.3c0.7,0,1.2,0.6,1.2,1.2s-0.6,1.2-1.2,1.2c-0.7,0-1.2-0.6-1.2-1.2S119.3,74.3,120,74.3z M118.9,77.8
			l2-0.3v7.9h-2V77.8z"/>
		<path class="st2" d="M122.5,78l1.8-0.5c0.2,0.3,0.3,0.6,0.3,1c0.5-0.3,0.6-0.4,0.9-0.6c0.4-0.2,0.9-0.3,1.4-0.3
			c0.9,0,1.6,0.4,1.8,1.1c0.1,0.3,0.1,0.6,0.1,1.1v5.6h-2v-5c0-0.9-0.1-1.1-0.7-1.1c-0.4,0-0.9,0.3-1.4,0.7v5.4h-2v-5.6
			C122.8,79.1,122.7,78.5,122.5,78z"/>
		<path class="st2" d="M137.6,77.2l0.8,1.3c-0.4,0.4-0.9,0.6-1.4,0.6c-0.2,0-0.3,0-0.5,0c0.3,0.4,0.4,0.8,0.4,1.3
			c0,1.3-1.2,2.3-2.8,2.3c-0.1,0-0.1,0-0.3,0c-0.5,0.2-0.8,0.4-0.8,0.6c0,0.1,0.1,0.2,0.3,0.2l1.1,0c1.2,0,1.8,0.2,2.3,0.7
			c0.4,0.4,0.7,0.9,0.7,1.6c0,0.6-0.2,1.1-0.6,1.6c-0.7,0.7-1.8,1-3,1c-1.1,0-2.2-0.2-2.9-0.8c-0.4-0.4-0.6-0.8-0.6-1.4
			c0-0.4,0.1-0.6,0.2-0.8h1.9c-0.1,0.2-0.1,0.2-0.1,0.5c0,0.6,0.5,0.9,1.4,0.9c0.6,0,1-0.1,1.3-0.3c0.3-0.2,0.5-0.5,0.5-0.8
			s-0.2-0.6-0.4-0.7c-0.2-0.1-0.5-0.2-1-0.2c-0.1,0-0.4,0-0.9,0c-0.9,0-1.5-0.1-1.8-0.2c-0.2-0.1-0.3-0.2-0.4-0.4
			c-0.1-0.2-0.1-0.4-0.1-0.6c0-0.3,0.1-0.5,0.2-0.7c0.2-0.3,0.7-0.5,1.2-0.6c-1.1-0.3-1.6-1-1.6-2.1c0-1.6,1.3-2.6,3.2-2.6
			c0.4,0,0.8,0,1.4,0.2c0.6,0.1,0.7,0.2,0.9,0.2C136.6,77.9,137.1,77.7,137.6,77.2z M133.7,79c-0.8,0-1.2,0.4-1.2,1.1
			c0,0.8,0.5,1.1,1.2,1.1c0.8,0,1.2-0.4,1.2-1.1C134.9,79.4,134.4,79,133.7,79z"/>
	</g>
	<polyline class="st3" points="87.5,106.4 44.5,106.4 22.3,119.3 22.3,106.4 6.7,106.4 6.7,61.6 	"/>
	<g>
		<path class="st0" d="M204,32c0,4-2.9,8.2-8.8,12.7l-2.9-2.1c2.8-3.2,4.2-6,4.2-8.4c0-1.5-0.6-3.3-1.8-5.6l6.9-2.8
			C203.2,27.8,204,29.9,204,32z M216,32c0,4-2.9,8.2-8.8,12.7l-2.9-2.1c2.8-3.2,4.2-6,4.2-8.4c0-1.5-0.6-3.3-1.8-5.6l6.9-2.8
			C215.2,27.8,216,29.9,216,32z"/>
	</g>
</g>
<g>
	<text transform="matrix(1 0 0 1 428.5952 75.7757)" class="st0" style="font-family:'Meta-Bold'; font-size:8.8715px;">The greatest investor of all times</text>
	<text transform="matrix(1 0 0 1 353.1372 0.8896)" class="st0" style="font-family:'Acme-Regular'; font-size:22.1718px;">Warren Buffet</text>
	<line class="st1" x1="356.5" y1="12.5" x2="456.6" y2="12.5"/>
	<text transform="matrix(1 0 0 1 353.9819 34.7679)"><tspan x="0" y="0" style="fill:#2852A0; font-family:'Meta-Bold'; font-size:14.9947px;">Risk comes from not knowing </tspan><tspan x="0" y="18" style="fill:#2852A0; font-family:'Meta-Bold'; font-size:14.9947px;">what you&apos;re doing</tspan></text>
	<polyline class="st3" points="420.5,73.8 377.5,73.8 355.2,86.7 355.3,73.8 339.6,73.8 339.6,29 	"/>
	<g>
		<path class="st0" d="M537-0.6c0,4-2.9,8.2-8.8,12.7l-2.9-2.1c2.8-3.2,4.2-6,4.2-8.4c0-1.5-0.6-3.3-1.8-5.6l6.9-2.8
			C536.2-4.8,537-2.7,537-0.6z M549-0.6c0,4-2.9,8.2-8.8,12.7l-2.9-2.1c2.8-3.2,4.2-6,4.2-8.4c0-1.5-0.6-3.3-1.8-5.6l6.9-2.8
			C548.2-4.8,549-2.7,549-0.6z"/>
	</g>
</g>
</svg>
